<?xml version="1.0" encoding="UTF-8" standalone="no"?>
<svg
   xmlns:dc="http://purl.org/dc/elements/1.1/"
   xmlns:cc="http://creativecommons.org/ns#"
   xmlns:rdf="http://www.w3.org/1999/02/22-rdf-syntax-ns#"
   xmlns:svg="http://www.w3.org/2000/svg"
   xmlns="http://www.w3.org/2000/svg"
   xmlns:sodipodi="http://sodipodi.sourceforge.net/DTD/sodipodi-0.dtd"
   xmlns:inkscape="http://www.inkscape.org/namespaces/inkscape"
   width="89.799583mm"
   height="89.799583mm"
   viewBox="0 0 89.799583 89.799583"
   version="1.1"
   id="svg11287"
   inkscape:version="1.0.1 (3bc2e813f5, 2020-09-07)"
   sodipodi:docname="ceremony_13.svg">
  <defs
     id="defs11281" />
  <sodipodi:namedview
     id="base"
     pagecolor="#ffffff"
     bordercolor="#666666"
     borderopacity="1.0"
     inkscape:pageopacity="0.0"
     inkscape:pageshadow="2"
     inkscape:zoom="4.0542133"
     inkscape:cx="164.15022"
     inkscape:cy="169.7"
     inkscape:document-units="mm"
     inkscape:current-layer="layer1"
     inkscape:document-rotation="0"
     showgrid="false"
     fit-margin-top="0"
     fit-margin-left="0"
     fit-margin-right="0"
     fit-margin-bottom="0"
     inkscape:window-width="2560"
     inkscape:window-height="1566"
     inkscape:window-x="0"
     inkscape:window-y="0"
     inkscape:window-maximized="1" />
  <metadata
     id="metadata11284">
    <rdf:RDF>
      <cc:Work
         rdf:about="">
        <dc:format>image/svg+xml</dc:format>
        <dc:type
           rdf:resource="http://purl.org/dc/dcmitype/StillImage" />
        <dc:title></dc:title>
      </cc:Work>
    </rdf:RDF>
  </metadata>
  <g
     inkscape:label="Layer 1"
     inkscape:groupmode="layer"
     id="layer1"
     transform="translate(-99.487115,-82.856162)">
    <rect
       x="99.487114"
       y="82.856163"
       fill="#f1f2f2"
       width="89.799583"
       height="89.799583"
       id="rect4980"
       style="stroke-width:0.264583;fill:#e94f37" />
    <g
       id="g12427"
       style="fill:#511730">
      <path
         fill="#3069b3"
         d="m 124.86066,108.20324 v 39.10542 h 39.10541 v -39.10542 z m 36.16854,36.16855 h -33.23167 v -33.23167 h 33.23167 z"
         id="path4982"
         style="stroke-width:0.264583;fill:#511730" />
      <path
         fill="#3069b3"
         d="m 157.82774,127.20033 -12.83229,-12.83229 v -3.22792 h -1.11125 v 3.22792 l -12.83229,12.83229 h -3.22792 v 1.11125 h 3.22792 l 12.83229,12.83229 v 3.22792 h 1.11125 v -3.22792 l 12.83229,-12.83229 h 3.22792 v -1.11125 z m -13.41438,11.56229 -11.00666,-11.00667 11.00666,-11.00666 11.00667,11.00666 z"
         id="path4984"
         style="stroke-width:0.264583;fill:#511730" />
    </g>
    <path
       fill="#3069b3"
       d="m 144.41336,120.47991 -7.27604,7.27604 7.27604,7.27604 7.27605,-7.27604 z m 0.87313,9.39271 c -0.15875,1.05833 -0.87313,1.77271 -0.87313,2.59292 0,-0.82021 -0.71437,-1.56105 -0.87312,-2.59292 -0.84667,0.635 -1.87854,0.635 -2.46063,1.21708 0.58209,-0.58208 0.60855,-1.5875 1.21709,-2.46062 -1.05834,-0.15875 -1.77271,-0.87313 -2.59292,-0.87313 0.82021,0 1.56104,-0.71437 2.59292,-0.87312 -0.635,-0.84667 -0.635,-1.87854 -1.21709,-2.46063 0.58209,0.58209 1.5875,0.60854 2.46063,1.21709 0.15875,-1.05834 0.87312,-1.77271 0.87312,-2.59292 0,0.82021 0.71438,1.56104 0.87313,2.59292 0.84667,-0.635 1.87854,-0.635 2.46062,-1.21709 -0.58208,0.58209 -0.60854,1.5875 -1.21708,2.46063 1.05833,0.15875 1.77271,0.87312 2.59292,0.87312 -0.82021,0 -1.56104,0.71438 -2.59292,0.87313 0.635,0.84666 0.635,1.87854 1.21708,2.46062 -0.60854,-0.58208 -1.61395,-0.60854 -2.46062,-1.21708 z"
       id="path4986"
       style="stroke-width:0.264583;fill:#511730" />
    <circle
       fill="#3069b3"
       cx="144.41336"
       cy="127.75596"
       r="0.84666669"
       id="circle4988"
       style="stroke-width:0.264583;fill:#e94f37" />
    <g
       id="g12437"
       style="fill:#326273">
      <path
         fill="#3069b3"
         d="m 130.60211,112.19845 6.95855,6.69396 5.05354,-5.05354 v -1.64042 z m 6.93209,5.02709 -3.99521,-3.86292 h 7.85812 z"
         id="path4992"
         style="stroke-width:0.264583;fill:#326273" />
      <path
         fill="#3069b3"
         d="m 128.82941,125.90387 h 1.64041 l 5.05354,-5.05354 -6.69395,-6.95854 z m 1.16416,-9.07521 3.86292,3.99521 -3.86292,3.86292 z"
         id="path4994"
         style="stroke-width:0.264583;fill:#326273" />
      <path
         fill="#3069b3"
         d="m 159.99732,113.9447 -6.69396,6.95854 5.05355,5.05355 h 1.64041 z m -5.05354,6.93209 3.86292,-3.99521 v 7.85812 z"
         id="path5008"
         style="stroke-width:0.264583;fill:#326273" />
      <path
         fill="#3069b3"
         d="m 146.26545,112.17199 v 1.64042 l 5.05354,5.05354 6.95854,-6.69396 z m 9.07521,1.19063 -3.99521,3.86292 -3.86292,-3.86292 z"
         id="path5010"
         style="stroke-width:0.264583;fill:#326273" />
      <path
         fill="#3069b3"
         d="m 158.25107,143.33991 -6.95854,-6.72042 -5.05354,5.05355 v 1.64041 h 12.01208 z m -6.95854,-5.05354 3.99521,3.86292 h -7.85813 z"
         id="path5024"
         style="stroke-width:0.264583;fill:#326273" />
      <path
         fill="#3069b3"
         d="m 160.02378,129.63449 h -1.64042 l -5.05354,5.05355 6.69396,6.95854 z m -1.19062,9.04875 -3.86292,-3.96875 3.86292,-3.86291 z"
         id="path5026"
         style="stroke-width:0.264583;fill:#326273" />
      <path
         fill="#3069b3"
         d="m 128.85586,141.59366 6.69396,-6.95854 -5.05354,-5.05354 h -1.64042 z m 5.02709,-6.93208 -3.86292,3.99521 v -7.85813 z"
         id="path5040"
         style="stroke-width:0.264583;fill:#326273" />
      <path
         fill="#3069b3"
         d="m 142.56128,143.36637 v -1.64042 l -5.05354,-5.05354 -6.95854,6.69396 z m -9.07521,-1.19063 3.99521,-3.86291 3.86292,3.86291 z"
         id="path5042"
         style="stroke-width:0.264583;fill:#326273" />
    </g>
    <g
       id="g12467"
       style="fill:#326273">
      <circle
         fill="#3069b3"
         cx="129.25273"
         cy="112.59534"
         r="0.60854167"
         id="circle4996"
         style="stroke-width:0.264583;fill:#326273" />
      <circle
         fill="#3069b3"
         cx="159.57399"
         cy="112.59534"
         r="0.60854167"
         id="circle5012"
         style="stroke-width:0.264583;fill:#326273" />
      <circle
         fill="#3069b3"
         cx="159.60045"
         cy="142.91658"
         r="0.60854167"
         id="circle5028"
         style="stroke-width:0.264583;fill:#326273" />
      <circle
         fill="#3069b3"
         cx="129.25273"
         cy="142.94302"
         r="0.60854167"
         id="circle5044"
         style="stroke-width:0.264583;fill:#326273" />
    </g>
    <g
       id="g12461"
       style="fill:#5c9ead">
      <circle
         fill="#3069b3"
         cx="130.76086"
         cy="114.15636"
         r="0.60854167"
         id="circle4998"
         style="stroke-width:0.264583;fill:#5c9ead" />
      <circle
         fill="#3069b3"
         cx="158.0394"
         cy="114.12991"
         r="0.60854167"
         id="circle5014"
         style="stroke-width:0.264583;fill:#5c9ead" />
      <circle
         fill="#3069b3"
         cx="158.06587"
         cy="141.382"
         r="0.60854167"
         id="circle5030"
         style="stroke-width:0.264583;fill:#5c9ead" />
      <circle
         fill="#3069b3"
         cx="130.81378"
         cy="141.40845"
         r="0.60854167"
         id="circle5046"
         style="stroke-width:0.264583;fill:#5c9ead" />
    </g>
    <g
       id="g12455"
       style="fill:#fde7be">
      <circle
         fill="#3069b3"
         cx="132.29544"
         cy="115.69095"
         r="0.60854167"
         id="circle5000"
         style="stroke-width:0.264583;fill:#fde7be" />
      <circle
         fill="#3069b3"
         cx="156.47836"
         cy="115.63805"
         r="0.60854167"
         id="circle5016"
         style="stroke-width:0.264583;fill:#fde7be" />
      <circle
         fill="#3069b3"
         cx="156.53128"
         cy="139.82095"
         r="0.60854167"
         id="circle5032"
         style="stroke-width:0.264583;fill:#fde7be" />
      <circle
         fill="#3069b3"
         cx="132.34836"
         cy="139.87387"
         r="0.60854167"
         id="circle5048"
         style="stroke-width:0.264583;fill:#fde7be" />
    </g>
    <g
       id="g12449"
       style="fill:#5c9ead">
      <circle
         fill="#3069b3"
         cx="133.83003"
         cy="117.25199"
         r="0.60854167"
         id="circle5002"
         style="stroke-width:0.264583;fill:#5c9ead" />
      <circle
         fill="#3069b3"
         cx="154.94379"
         cy="117.17262"
         r="0.60854167"
         id="circle5018"
         style="stroke-width:0.264583;fill:#5c9ead" />
      <circle
         fill="#3069b3"
         cx="155.02316"
         cy="138.28638"
         r="0.60854167"
         id="circle5034"
         style="stroke-width:0.264583;fill:#5c9ead" />
      <circle
         fill="#3069b3"
         cx="133.90941"
         cy="138.36574"
         r="0.60854167"
         id="circle5050"
         style="stroke-width:0.264583;fill:#5c9ead" />
    </g>
    <g
       id="g12443"
       style="fill:#326273">
      <circle
         fill="#3069b3"
         cx="135.36461"
         cy="118.78658"
         r="0.60854167"
         id="circle5004"
         style="stroke-width:0.264583;fill:#326273" />
      <circle
         fill="#3069b3"
         cx="153.38274"
         cy="118.70721"
         r="0.60854167"
         id="circle5020"
         style="stroke-width:0.264583;fill:#326273" />
      <circle
         fill="#3069b3"
         cx="153.48857"
         cy="136.72533"
         r="0.60854167"
         id="circle5036"
         style="stroke-width:0.264583;fill:#326273" />
      <circle
         fill="#3069b3"
         cx="135.44398"
         cy="136.83116"
         r="0.60854167"
         id="circle5052"
         style="stroke-width:0.264583;fill:#326273" />
    </g>
    <g
       id="g12369"
       style="fill:#511730">
      <path
         fill="#3069b3"
         d="m 123.77586,107.11845 -0.84666,-6.13833 -13.70542,-8.440208 c 0.3175,-0.343959 0.50271,-0.820209 0.50271,-1.322917 0,-1.11125 -0.89958,-2.010833 -2.01083,-2.010833 -1.11125,0 -2.01084,0.899583 -2.01084,2.010833 0,1.11125 0.89959,2.010833 2.01084,2.010833 0.58208,0 1.11125,-0.238125 1.4552,-0.635 l 8.44021,13.705412 z"
         id="path5058"
         style="stroke-width:0.264583;fill:#511730" />
      <path
         fill="#3069b3"
         d="m 165.02441,107.14491 6.13833,-0.84667 8.44021,-13.705412 c 0.34396,0.3175 0.82021,0.502709 1.32291,0.502709 1.11125,0 2.01084,-0.899584 2.01084,-2.010834 0,-1.11125 -0.89959,-2.010833 -2.01084,-2.010833 -1.11125,0 -2.01083,0.899583 -2.01083,2.010833 0,0.582084 0.23813,1.11125 0.635,1.455209 l -13.70542,8.440208 z"
         id="path5066"
         style="stroke-width:0.264583;fill:#511730" />
      <path
         fill="#3069b3"
         d="m 164.97149,148.39345 0.87312,6.16479 13.70542,8.44021 c -0.3175,0.34396 -0.50271,0.82021 -0.50271,1.32292 0,1.11125 0.89959,2.01083 2.01084,2.01083 1.11125,0 2.01083,-0.89958 2.01083,-2.01083 0,-1.11125 -0.89958,-2.01083 -2.01083,-2.01083 -0.58209,0 -1.11125,0.23812 -1.45521,0.635 l -8.46667,-13.70542 z"
         id="path5074"
         style="stroke-width:0.264583;fill:#511730" />
      <path
         fill="#3069b3"
         d="m 123.72295,148.36699 -6.13834,0.84667 -8.4402,13.70542 c -0.34396,-0.3175 -0.82021,-0.50271 -1.32292,-0.50271 -1.11125,0 -2.01083,0.89958 -2.01083,2.01083 0,1.11125 0.89958,2.01084 2.01083,2.01084 1.11125,0 2.01083,-0.89959 2.01083,-2.01084 0,-0.58208 -0.23812,-1.11125 -0.635,-1.45521 l 13.70542,-8.4402 z"
         id="path5082"
         style="stroke-width:0.264583;fill:#511730" />
    </g>
    <g
       id="g12388"
       style="fill:#326273">
      <circle
         fill="#3069b3"
         cx="104.8317"
         cy="88.09491"
         r="1.5345833"
         id="circle5060"
         style="stroke-width:0.264583;fill:#326273" />
      <circle
         fill="#3069b3"
         cx="184.02148"
         cy="88.227203"
         r="1.5345833"
         id="circle5068"
         style="stroke-width:0.264583;fill:#326273" />
      <circle
         fill="#3069b3"
         cx="183.91565"
         cy="167.41699"
         r="1.5345833"
         id="circle5076"
         style="stroke-width:0.264583;fill:#326273" />
      <circle
         fill="#3069b3"
         cx="104.72587"
         cy="167.2847"
         r="1.5345833"
         id="circle5084"
         style="stroke-width:0.264583;fill:#326273" />
    </g>
    <g
       id="g12394"
       style="fill:#5c9ead">
      <circle
         fill="#3069b3"
         cx="102.21233"
         cy="85.475533"
         r="1.0847917"
         id="circle5062"
         style="stroke-width:0.264583;fill:#5c9ead" />
      <circle
         fill="#3069b3"
         cx="186.66733"
         cy="85.581367"
         r="1.0847917"
         id="circle5070"
         style="stroke-width:0.264583;fill:#5c9ead" />
      <circle
         fill="#3069b3"
         cx="186.53503"
         cy="170.03636"
         r="1.0847917"
         id="circle5078"
         style="stroke-width:0.264583;fill:#5c9ead" />
      <circle
         fill="#3069b3"
         cx="102.08003"
         cy="169.93053"
         r="1.0847917"
         id="circle5086"
         style="stroke-width:0.264583;fill:#5c9ead" />
    </g>
    <g
       id="g12419"
       style="fill:#326273">
      <path
         fill="#3069b3"
         d="m 158.38336,98.413662 c 0,0 -2.77812,6.032498 -7.59354,7.911038 h 10.71563 c 0,0 -2.11667,-2.11666 -5.23875,-1.27 -0.0265,-0.0265 3.175,-2.11666 2.11666,-6.641038 z"
         id="path5092"
         style="stroke-width:0.264583;fill:#326273" />
      <path
         fill="#3069b3"
         d="m 158.19816,156.91304 c 0,0 -2.77813,-6.0325 -7.59355,-7.91105 h 10.71563 c 0,0 -2.11667,2.11667 -5.23875,1.27 -0.0265,0.0265 3.14854,2.11667 2.11667,6.64105 z"
         id="path5126"
         style="stroke-width:0.264583;fill:#326273" />
      <path
         fill="#3069b3"
         d="m 130.2317,156.91304 c 0,0 2.77812,-6.0325 7.59354,-7.91105 h -10.71563 c 0,0 2.11667,2.11667 5.23875,1.27 0.0265,0.0265 -3.14854,2.11667 -2.11666,6.64105 z"
         id="path5128"
         style="stroke-width:0.264583;fill:#326273" />
      <path
         fill="#3069b3"
         d="m 130.44336,98.413662 c 0,0 2.77813,6.032498 7.59355,7.911038 h -10.71563 c 0,0 2.11667,-2.11666 5.23875,-1.27 0.0265,-0.0265 -3.14854,-2.11666 -2.11667,-6.641038 z"
         id="path5090"
         style="stroke-width:0.264583;fill:#326273" />
      <path
         fill="#3069b3"
         d="m 173.57045,113.78595 c 0,0 -6.0325,2.77813 -7.91104,7.59354 v -10.71562 c 0,0 2.11666,2.11667 1.27,5.23875 0.0265,0.0265 2.11666,-3.14854 6.64104,-2.11667 z"
         id="path5108"
         style="stroke-width:0.264583;fill:#326273" />
      <path
         fill="#3069b3"
         d="m 173.57045,141.72595 c 0,0 -6.0325,-2.77812 -7.91104,-7.59354 v 10.71563 c 0,0 2.11666,-2.11667 1.27,-5.23875 0.0265,0 2.11666,3.175 6.64104,2.11666 z"
         id="path5110"
         style="stroke-width:0.264583;fill:#326273" />
      <path
         fill="#3069b3"
         d="m 115.04461,141.54074 c 0,0 6.0325,-2.77812 7.91105,-7.59354 v 10.71563 c 0,0 -2.11667,-2.11667 -1.27,-5.23875 0,-0.0265 -2.09021,3.14854 -6.64105,2.11666 z"
         id="path5144"
         style="stroke-width:0.264583;fill:#326273" />
      <path
         fill="#3069b3"
         d="m 115.04461,113.60074 c 0,0 6.0325,2.77813 7.91105,7.59355 v -10.71563 c 0,0 -2.11667,2.11667 -1.27,5.23875 0,0 -2.09021,-3.175 -6.64105,-2.11667 z"
         id="path5146"
         style="stroke-width:0.264583;fill:#326273" />
    </g>
    <g
       id="g12375"
       style="fill:#5c9ead">
      <path
         fill="#3069b3"
         d="m 150.92211,98.096162 c 0,0 1.4023,-3.518959 0.9525,-8.043334 0,0 -3.3602,1.693334 -4.70958,6.6675 0,0 0.13229,-7.223125 -2.72521,-10.16 -2.8575,2.936875 -2.67229,10.16 -2.67229,10.16 -1.34937,-5.000625 -4.78896,-6.6675 -4.78896,-6.6675 -0.44979,4.524375 0.9525,8.043334 0.9525,8.043334 -2.03729,-3.518959 -6.48229,-4.894792 -6.48229,-4.894792 0,0 1.00542,4.101042 2.64583,7.3025 1.64042,3.22792 6.4823,4.81542 10.34521,4.81542 3.86292,0 8.70479,-1.61396 10.34521,-4.81542 1.64042,-3.227917 2.64583,-7.3025 2.64583,-7.3025 0,0 -4.47145,1.375833 -6.50875,4.894792 z m -6.50875,4.259788 c -0.97895,0 -1.7727,-0.79375 -1.7727,-1.77271 0,-0.978954 0.79375,-1.772704 1.7727,-1.772704 0.97896,0 1.77271,0.79375 1.77271,1.772704 0,0.97896 -0.79375,1.77271 -1.77271,1.77271 z"
         id="path5096"
         style="stroke-width:0.264583;fill:#5c9ead" />
      <path
         fill="#3069b3"
         d="m 173.88795,134.2647 c 0,0 3.51896,1.40229 8.04333,0.9525 0,0 -1.69333,-3.36021 -6.6675,-4.70958 0,0 7.22313,0.13229 10.16,-2.72521 -2.93687,-2.8575 -10.16,-2.67229 -10.16,-2.67229 5.00063,-1.34938 6.6675,-4.78896 6.6675,-4.78896 -4.52437,-0.44979 -8.04333,0.9525 -8.04333,0.9525 3.51896,-2.03729 4.89479,-6.48229 4.89479,-6.48229 0,0 -4.10104,1.00542 -7.3025,2.64583 -3.22792,1.64042 -4.81542,6.48229 -4.81542,10.34521 0,3.86292 1.61396,8.70479 4.81542,10.34521 3.22792,1.64042 7.3025,2.64583 7.3025,2.64583 0,0 -1.37583,-4.47146 -4.89479,-6.50875 z m -4.25979,-6.50875 c 0,-0.97896 0.79375,-1.77271 1.7727,-1.77271 0.97896,0 1.77271,0.79375 1.77271,1.77271 0,0.97896 -0.79375,1.77271 -1.77271,1.77271 -0.97895,0 -1.7727,-0.79375 -1.7727,-1.77271 z"
         id="path5114"
         style="stroke-width:0.264583;fill:#5c9ead" />
      <path
         fill="#3069b3"
         d="m 137.71941,157.23054 c 0,0 -1.4023,3.51895 -0.9525,8.04333 0,0 3.3602,-1.69333 4.70958,-6.6675 0,0 -0.13229,7.22312 2.72521,10.16 2.8575,-2.93688 2.67229,-10.16 2.67229,-10.16 1.34937,5.00062 4.78896,6.6675 4.78896,6.6675 0.44979,-4.52438 -0.9525,-8.04333 -0.9525,-8.04333 2.03729,3.51895 6.48229,4.89479 6.48229,4.89479 0,0 -1.00542,-4.10104 -2.64583,-7.3025 -1.64042,-3.22792 -6.4823,-4.81542 -10.34521,-4.81542 -3.86292,0 -8.70479,1.61396 -10.34521,4.81542 -1.64042,3.22791 -2.64583,7.3025 -2.64583,7.3025 0,0 4.47145,-1.37584 6.50875,-4.89479 z m 6.50875,-4.2598 c 0.97895,0 1.7727,0.79375 1.7727,1.77271 0,0.97896 -0.79375,1.77271 -1.7727,1.77271 -0.97896,0 -1.77271,-0.79375 -1.77271,-1.77271 0,-0.97896 0.79375,-1.77271 1.77271,-1.77271 z"
         id="path5132"
         style="stroke-width:0.264583;fill:#5c9ead" />
      <path
         fill="#3069b3"
         d="m 114.75357,121.06199 c 0,0 -3.51896,-1.40229 -8.04333,-0.9525 0,0 1.69333,3.36021 6.6675,4.70959 0,0 -7.22313,-0.13229 -10.16,2.72521 2.93687,2.88395 10.16,2.67229 10.16,2.67229 -5.00063,1.34937 -6.6675,4.78896 -6.6675,4.78896 4.52437,0.44979 8.04333,-0.9525 8.04333,-0.9525 -3.51896,2.03729 -4.89479,6.48229 -4.89479,6.48229 0,0 4.10104,-1.00542 7.3025,-2.64584 3.22792,-1.64041 4.81542,-6.48229 4.81542,-10.3452 0,-3.86292 -1.61396,-8.7048 -4.81542,-10.34521 -3.22792,-1.64042 -7.3025,-2.64584 -7.3025,-2.64584 0,0 1.37583,4.47146 4.89479,6.50875 z m 4.25979,6.50875 c 0,0.97896 -0.79375,1.77271 -1.7727,1.77271 -0.97896,0 -1.77271,-0.79375 -1.77271,-1.77271 0,-0.97895 0.79375,-1.7727 1.77271,-1.7727 0.97895,0 1.7727,0.79375 1.7727,1.7727 z"
         id="path5150"
         style="stroke-width:0.264583;fill:#5c9ead" />
    </g>
    <g
       id="g12404"
       style="fill:#fde7be">
      <path
         fill="#3069b3"
         d="m 124.96649,92.24887 c 1.37583,-0.185208 2.61937,-1.031875 2.61937,-1.031875 -1.05833,-0.687917 -1.93145,-1.005417 -2.61937,-1.11125 0.84667,-1.084792 1.11125,-2.566458 1.11125,-2.566458 -1.24354,0.264583 -2.06375,0.661458 -2.64583,1.084791 -0.18521,-1.375833 -1.03188,-2.619375 -1.03188,-2.619375 -0.68792,1.058334 -1.00542,1.931459 -1.11125,2.619375 -1.08479,-0.846666 -2.56646,-1.11125 -2.56646,-1.11125 0.26459,1.243542 0.66146,2.06375 1.08479,2.645834 -1.37583,0.185208 -2.61937,1.031875 -2.61937,1.031875 1.05833,0.687916 1.93146,1.005416 2.61937,1.11125 -0.84666,1.084791 -1.11125,2.566458 -1.11125,2.566458 1.24355,-0.264583 2.06375,-0.661458 2.64584,-1.084792 0.18521,1.375834 1.03187,2.619375 1.03187,2.619375 0.68792,-1.058333 1.00542,-1.931458 1.11125,-2.619375 1.08479,0.846667 2.56646,1.11125 2.56646,1.11125 -0.29104,-1.243541 -0.66146,-2.090208 -1.08479,-2.645833 z"
         id="path5100"
         style="stroke-width:0.264583;fill:#fde7be" />
      <path
         fill="#3069b3"
         d="m 169.07253,92.24887 c 1.37583,-0.185208 2.61938,-1.031875 2.61938,-1.031875 -1.05834,-0.687917 -1.93146,-1.005417 -2.61938,-1.11125 0.84667,-1.084792 1.11125,-2.566458 1.11125,-2.566458 -1.24354,0.264583 -2.06375,0.661458 -2.64583,1.084791 -0.18521,-1.375833 -1.03188,-2.619375 -1.03188,-2.619375 -0.68791,1.058334 -1.00541,1.931459 -1.11125,2.619375 -1.08479,-0.846666 -2.56646,-1.11125 -2.56646,-1.11125 0.26459,1.243542 0.66146,2.06375 1.0848,2.645834 -1.37584,0.185208 -2.61938,1.031875 -2.61938,1.031875 1.05833,0.687916 1.93146,1.005416 2.61938,1.11125 -0.84667,1.084791 -1.11125,2.566458 -1.11125,2.566458 1.24354,-0.264583 2.06375,-0.661458 2.64583,-1.084792 0.18521,1.375834 1.03187,2.619375 1.03187,2.619375 0.68792,-1.058333 1.00542,-1.931458 1.11125,-2.619375 1.0848,0.846667 2.56646,1.11125 2.56646,1.11125 -0.26458,-1.243541 -0.66146,-2.090208 -1.08479,-2.645833 z"
         id="path5102"
         style="stroke-width:0.264583;fill:#fde7be" />
      <path
         fill="#3069b3"
         d="m 179.73524,108.30908 c 0.18521,1.37583 1.03187,2.61937 1.03187,2.61937 0.68792,-1.05833 1.00542,-1.93146 1.11125,-2.61937 1.0848,0.84666 2.56646,1.11125 2.56646,1.11125 -0.26458,-1.24354 -0.66146,-2.06375 -1.08479,-2.64584 1.37583,-0.1852 2.61938,-1.03187 2.61938,-1.03187 -1.05834,-0.68792 -1.93146,-1.00542 -2.61938,-1.11125 0.84667,-1.08479 1.11125,-2.56646 1.11125,-2.56646 -1.24354,0.26458 -2.06375,0.66146 -2.64583,1.08479 -0.18521,-1.37583 -1.03188,-2.61937 -1.03188,-2.61937 -0.68791,1.05833 -1.00541,1.93146 -1.11125,2.61937 -1.08479,-0.84666 -2.56646,-1.11125 -2.56646,-1.11125 0.26459,1.24354 0.66146,2.06375 1.0848,2.64584 -1.37584,0.1852 -2.61938,1.03187 -2.61938,1.03187 1.05833,0.68792 1.93146,1.00542 2.61938,1.11125 -0.84667,1.08479 -1.11125,2.56646 -1.11125,2.56646 1.24354,-0.29104 2.0902,-0.66146 2.64583,-1.08479 z"
         id="path5118"
         style="stroke-width:0.264583;fill:#fde7be" />
      <path
         fill="#3069b3"
         d="m 179.73524,152.41512 c 0.18521,1.37583 1.03187,2.61937 1.03187,2.61937 0.68792,-1.05833 1.00542,-1.93145 1.11125,-2.61937 1.0848,0.84667 2.56646,1.11125 2.56646,1.11125 -0.26458,-1.24354 -0.66146,-2.06375 -1.08479,-2.64583 1.37583,-0.18521 2.61938,-1.03188 2.61938,-1.03188 -1.05834,-0.68792 -1.93146,-1.00542 -2.61938,-1.11125 0.84667,-1.08479 1.11125,-2.56646 1.11125,-2.56646 -1.24354,0.26459 -2.06375,0.66146 -2.64583,1.08479 -0.18521,-1.37583 -1.03188,-2.61937 -1.03188,-2.61937 -0.68791,1.05833 -1.00541,1.93146 -1.11125,2.61937 -1.08479,-0.84666 -2.56646,-1.11125 -2.56646,-1.11125 0.26459,1.24355 0.66146,2.06375 1.0848,2.64584 -1.37584,0.18521 -2.61938,1.03187 -2.61938,1.03187 1.05833,0.68792 1.93146,1.00542 2.61938,1.11125 -0.84667,1.08479 -1.11125,2.56646 -1.11125,2.56646 1.24354,-0.26458 2.0902,-0.66146 2.64583,-1.08479 z"
         id="path5120"
         style="stroke-width:0.264583;fill:#fde7be" />
      <path
         fill="#3069b3"
         d="m 163.67503,163.07783 c -1.37583,0.18521 -2.61937,1.03187 -2.61937,1.03187 1.05833,0.68792 1.93145,1.00542 2.61937,1.11125 -0.84667,1.08479 -1.11125,2.56646 -1.11125,2.56646 1.24354,-0.26458 2.06375,-0.66146 2.64583,-1.08479 0.18521,1.37583 1.03188,2.61937 1.03188,2.61937 0.68792,-1.05833 1.00542,-1.93145 1.11125,-2.61937 1.08479,0.84667 2.56646,1.11125 2.56646,1.11125 -0.26459,-1.24354 -0.66146,-2.06375 -1.08479,-2.64583 1.37583,-0.18521 2.61937,-1.03188 2.61937,-1.03188 -1.05833,-0.68792 -1.93146,-1.00542 -2.61937,-1.11125 0.84666,-1.08479 1.11125,-2.56646 1.11125,-2.56646 -1.24355,0.26459 -2.06375,0.66146 -2.64584,1.08479 -0.18521,-1.37583 -1.03187,-2.61937 -1.03187,-2.61937 -0.68792,1.05833 -1.00542,1.93146 -1.11125,2.61937 -1.08479,-0.84666 -2.56646,-1.11125 -2.56646,-1.11125 0.29104,1.24355 0.66146,2.09021 1.08479,2.64584 z"
         id="path5136"
         style="stroke-width:0.264583;fill:#fde7be" />
      <path
         fill="#3069b3"
         d="m 119.56899,163.07783 c -1.37583,0.18521 -2.61938,1.03187 -2.61938,1.03187 1.05834,0.68792 1.93146,1.00542 2.61938,1.11125 -0.84667,1.08479 -1.11125,2.56646 -1.11125,2.56646 1.24354,-0.26458 2.06375,-0.66146 2.64583,-1.08479 0.18521,1.37583 1.03188,2.61937 1.03188,2.61937 0.68791,-1.05833 1.00541,-1.93145 1.11125,-2.61937 1.08479,0.84667 2.56646,1.11125 2.56646,1.11125 -0.26459,-1.24354 -0.66146,-2.06375 -1.0848,-2.64583 1.37584,-0.18521 2.61938,-1.03188 2.61938,-1.03188 -1.05833,-0.68792 -1.93146,-1.00542 -2.61938,-1.11125 0.84667,-1.08479 1.11125,-2.56646 1.11125,-2.56646 -1.24354,0.26459 -2.06375,0.66146 -2.64583,1.08479 -0.18521,-1.37583 -1.03187,-2.61937 -1.03187,-2.61937 -0.68792,1.05833 -1.00542,1.93146 -1.11125,2.61937 -1.0848,-0.84666 -2.56646,-1.11125 -2.56646,-1.11125 0.26458,1.24355 0.66146,2.09021 1.08479,2.64584 z"
         id="path5138"
         style="stroke-width:0.264583;fill:#fde7be" />
      <path
         fill="#3069b3"
         d="m 108.90628,147.01762 c -0.18521,-1.37583 -1.03187,-2.61938 -1.03187,-2.61938 -0.68792,1.05834 -1.00542,1.93146 -1.11125,2.61938 -1.0848,-0.84667 -2.56646,-1.11125 -2.56646,-1.11125 0.26458,1.24354 0.66146,2.06375 1.08479,2.64583 -1.37583,0.18521 -2.61938,1.03188 -2.61938,1.03188 1.05834,0.68791 1.93146,1.00541 2.61938,1.11125 -0.84667,1.08479 -1.11125,2.56646 -1.11125,2.56646 1.24354,-0.26459 2.06375,-0.66146 2.64583,-1.0848 0.18521,1.37584 1.03188,2.61938 1.03188,2.61938 0.68791,-1.05833 1.00541,-1.93146 1.11125,-2.61938 1.08479,0.84667 2.56646,1.11125 2.56646,1.11125 -0.26459,-1.24354 -0.66146,-2.06375 -1.0848,-2.64583 1.37584,-0.18521 2.61938,-1.03187 2.61938,-1.03187 -1.05833,-0.68792 -1.93146,-1.00542 -2.61938,-1.11125 0.84667,-1.0848 1.11125,-2.56646 1.11125,-2.56646 -1.24354,0.29104 -2.0902,0.66146 -2.64583,1.08479 z"
         id="path5154"
         style="stroke-width:0.264583;fill:#fde7be" />
      <path
         fill="#3069b3"
         d="m 108.90628,102.91158 c -0.18521,-1.37584 -1.03187,-2.61938 -1.03187,-2.61938 -0.68792,1.05834 -1.00542,1.93146 -1.11125,2.61938 -1.0848,-0.84667 -2.56646,-1.11125 -2.56646,-1.11125 0.26458,1.24354 0.66146,2.06375 1.08479,2.64583 -1.37583,0.18521 -2.61938,1.03188 -2.61938,1.03188 1.05834,0.68791 1.93146,1.00541 2.61938,1.11125 -0.84667,1.08479 -1.11125,2.56645 -1.11125,2.56645 1.24354,-0.26458 2.06375,-0.66145 2.64583,-1.08479 0.18521,1.37584 1.03188,2.61938 1.03188,2.61938 0.68791,-1.05834 1.00541,-1.93146 1.11125,-2.61938 1.08479,0.84667 2.56646,1.11125 2.56646,1.11125 -0.26459,-1.24354 -0.66146,-2.06375 -1.0848,-2.64583 1.37584,-0.18521 2.61938,-1.03188 2.61938,-1.03188 -1.05833,-0.68791 -1.93146,-1.00541 -2.61938,-1.11125 0.84667,-1.08479 1.11125,-2.56645 1.11125,-2.56645 -1.24354,0.26458 -2.0902,0.66145 -2.64583,1.08479 z"
         id="path5156"
         style="stroke-width:0.264583;fill:#fde7be" />
    </g>
  </g>
</svg>
