<?xml version="1.0" encoding="UTF-8" standalone="no"?>
<svg
   xmlns:dc="http://purl.org/dc/elements/1.1/"
   xmlns:cc="http://creativecommons.org/ns#"
   xmlns:rdf="http://www.w3.org/1999/02/22-rdf-syntax-ns#"
   xmlns:svg="http://www.w3.org/2000/svg"
   xmlns="http://www.w3.org/2000/svg"
   xmlns:sodipodi="http://sodipodi.sourceforge.net/DTD/sodipodi-0.dtd"
   xmlns:inkscape="http://www.inkscape.org/namespaces/inkscape"
   width="89.799583mm"
   height="89.799583mm"
   viewBox="0 0 89.799583 89.799583"
   version="1.1"
   id="svg7749"
   inkscape:version="1.0.1 (3bc2e813f5, 2020-09-07)"
   sodipodi:docname="ceremony_10.svg">
  <defs
     id="defs7743" />
  <sodipodi:namedview
     id="base"
     pagecolor="#ffffff"
     bordercolor="#666666"
     borderopacity="1.0"
     inkscape:pageopacity="0.0"
     inkscape:pageshadow="2"
     inkscape:zoom="4.0542133"
     inkscape:cx="164.15022"
     inkscape:cy="169.7"
     inkscape:document-units="mm"
     inkscape:current-layer="layer1"
     inkscape:document-rotation="0"
     showgrid="false"
     fit-margin-top="0"
     fit-margin-left="0"
     fit-margin-right="0"
     fit-margin-bottom="0"
     inkscape:window-width="2560"
     inkscape:window-height="1566"
     inkscape:window-x="0"
     inkscape:window-y="0"
     inkscape:window-maximized="1" />
  <metadata
     id="metadata7746">
    <rdf:RDF>
      <cc:Work
         rdf:about="">
        <dc:format>image/svg+xml</dc:format>
        <dc:type
           rdf:resource="http://purl.org/dc/dcmitype/StillImage" />
        <dc:title></dc:title>
      </cc:Work>
    </rdf:RDF>
  </metadata>
  <g
     inkscape:label="Layer 1"
     inkscape:groupmode="layer"
     id="layer1"
     transform="translate(7.8581196,-78.320448)">
    <rect
       x="-7.8581195"
       y="78.32045"
       fill="#f1f2f2"
       width="89.799583"
       height="89.799583"
       id="rect4504"
       style="stroke-width:0.264583;fill:#511730" />
    <path
       fill="#3069b3"
       d="m 54.768753,132.95691 9.736667,-9.73667 -15.478125,-15.47812 -2.248959,-2.24896 v 0 l -9.736666,-9.73667 -17.753542,17.75354 -9.7366661,9.73667 16.0866661,16.08666 1.666875,1.66688 v 0 l 9.736667,9.73667 9.736666,-9.73667 3.995209,-3.99521 z M 37.04167,144.04295 16.218962,123.22024 37.04167,102.39753 57.864378,123.22024 Z"
       id="path4522"
       style="stroke-width:0.264583;fill:#fde7be" />
    <path
       fill="#3069b3"
       d="m 26.802295,133.45961 h 20.47875 v -20.47874 h -20.47875 z m 3.466042,-17.03916 h 13.546666 v 13.57312 H 30.268337 Z"
       id="path4524"
       style="stroke-width:0.264583;fill:#e94f37" />
    <g
       id="g8734"
       style="fill:#5c9ead">
      <path
         fill="#3069b3"
         d="m 37.04167,112.1342 c 0,0 3.122083,-1.64042 3.201458,-3.83646 0.07937,-2.19604 -3.069166,-1.50812 -3.201458,0 -0.132292,-1.50812 -3.280833,-2.19604 -3.201458,0 0.07937,2.16958 3.201458,3.83646 3.201458,3.83646 z"
         id="path4526"
         style="stroke-width:0.264583;fill:#5c9ead" />
      <path
         fill="#3069b3"
         d="m 51.96417,123.22024 c 1.508125,-0.13229 2.196041,-3.28083 0,-3.20146 -2.196042,0.0794 -3.836459,3.20146 -3.836459,3.20146 0,0 1.640417,3.12208 3.836459,3.20146 2.169583,0.0794 1.508125,-3.09563 0,-3.20146 z"
         id="path4528"
         style="stroke-width:0.264583;fill:#5c9ead" />
      <path
         fill="#3069b3"
         d="m 37.04167,134.30628 c 0,0 -3.122083,1.64042 -3.201458,3.83646 -0.07937,2.19604 3.069166,1.50812 3.201458,0 0.132292,1.50812 3.280833,2.19604 3.201458,0 -0.105833,-2.19604 -3.201458,-3.83646 -3.201458,-3.83646 z"
         id="path4530"
         style="stroke-width:0.264583;fill:#5c9ead" />
      <path
         fill="#3069b3"
         d="m 22.11917,119.99232 c -2.196042,-0.0794 -1.508125,3.06917 0,3.20146 -1.508125,0.13229 -2.196042,3.28083 0,3.20146 2.196042,-0.0794 3.836458,-3.20146 3.836458,-3.20146 0,0 -1.640416,-3.09562 -3.836458,-3.20146 z"
         id="path4532"
         style="stroke-width:0.264583;fill:#5c9ead" />
    </g>
    <g
       id="g8744"
       style="fill:#326273">
      <circle
         fill="#3069b3"
         cx="32.252716"
         cy="110.75836"
         r="0.95249999"
         id="circle4534"
         style="stroke-width:0.264583;fill:#326273" />
      <circle
         fill="#3069b3"
         cx="41.566051"
         cy="110.75836"
         r="0.95249999"
         id="circle4536"
         style="stroke-width:0.264583;fill:#326273" />
      <circle
         fill="#3069b3"
         cx="49.503551"
         cy="118.40482"
         r="0.95249999"
         id="circle4538"
         style="stroke-width:0.264583;fill:#326273" />
      <circle
         fill="#3069b3"
         cx="49.503551"
         cy="127.74461"
         r="0.95249999"
         id="circle4540"
         style="stroke-width:0.264583;fill:#326273" />
      <circle
         fill="#3069b3"
         cx="41.830635"
         cy="135.65565"
         r="0.95249999"
         id="circle4542"
         style="stroke-width:0.264583;fill:#326273" />
      <circle
         fill="#3069b3"
         cx="32.490829"
         cy="135.65565"
         r="0.95249999"
         id="circle4544"
         style="stroke-width:0.264583;fill:#326273" />
      <circle
         fill="#3069b3"
         cx="24.579798"
         cy="128.0092"
         r="0.95249999"
         id="circle4546"
         style="stroke-width:0.264583;fill:#326273" />
      <circle
         fill="#3069b3"
         cx="24.579798"
         cy="118.66941"
         r="0.95249999"
         id="circle4548"
         style="stroke-width:0.264583;fill:#326273" />
    </g>
    <path
       fill="#3069b3"
       d="m 41.275003,121.52691 c -0.05292,0 -0.105833,0 -0.132291,0 0.02646,-0.0265 0.05292,-0.0794 0.105833,-0.10584 0.820208,-1.08479 -0.370417,-1.79916 -0.79375,-1.5875 0.211667,-0.42333 -0.502708,-1.61396 -1.5875,-0.79375 -0.02646,0.0265 -0.07937,0.0529 -0.105833,0.10584 0,-0.0529 0,-0.10584 0,-0.1323 -0.185209,-1.34937 -1.534584,-1.00541 -1.693334,-0.55562 -0.15875,-0.44979 -1.481666,-0.79375 -1.693333,0.55562 0,0.0529 0,0.10584 0,0.1323 -0.02646,-0.0265 -0.07937,-0.0529 -0.105833,-0.10584 -1.084792,-0.82021 -1.799167,0.37042 -1.5875,0.79375 -0.423334,-0.21166 -1.613959,0.50271 -0.79375,1.5875 0.02646,0.0265 0.05292,0.0794 0.105833,0.10584 -0.05292,0 -0.105833,0 -0.132292,0 -1.349375,0.1852 -1.005416,1.53458 -0.555625,1.69333 -0.449791,0.15875 -0.79375,1.48167 0.555625,1.69333 0.05292,0 0.105834,0 0.132292,0 -0.02646,0.0265 -0.05292,0.0794 -0.105833,0.10584 -0.820209,1.08479 0.370416,1.79916 0.79375,1.5875 -0.211667,0.42333 0.502708,1.61395 1.5875,0.79375 0.02646,-0.0265 0.07937,-0.0529 0.105833,-0.10584 0,0.0529 0,0.10584 0,0.13229 0.185208,1.34938 1.534583,1.00542 1.693333,0.55563 0.15875,0.44979 1.481667,0.79375 1.693334,-0.55563 0,-0.0529 0,-0.10583 0,-0.13229 0.02646,0.0265 0.07937,0.0529 0.105833,0.10584 1.084792,0.8202 1.799167,-0.37042 1.5875,-0.79375 0.423333,0.21166 1.613958,-0.50271 0.79375,-1.5875 -0.02646,-0.0265 -0.05292,-0.0794 -0.105833,-0.10584 0.05292,0 0.105833,0 0.132291,0 1.349375,-0.18521 1.005417,-1.53458 0.555625,-1.69333 0.449792,-0.15875 0.79375,-1.50813 -0.555625,-1.69333 z m -2.460625,2.38125 c -0.02646,0 -0.05292,0 -0.05292,0 0.02646,0.0265 0.02646,0.0265 0.02646,0.0529 0.343958,0.44979 -0.15875,0.76729 -0.343958,0.66146 0.07937,0.18521 -0.211667,0.68792 -0.661459,0.34396 -0.02646,0 -0.02646,-0.0265 -0.05292,-0.0265 0,0.0265 0,0.0529 0,0.0529 -0.07937,0.58208 -0.661459,0.42333 -0.714375,0.23812 -0.05292,0.18521 -0.635,0.34396 -0.714375,-0.23812 0,-0.0265 0,-0.0529 0,-0.0529 -0.02646,0.0265 -0.02646,0.0265 -0.05292,0.0265 -0.449792,0.34396 -0.767292,-0.15875 -0.661458,-0.34396 -0.185209,0.0794 -0.687917,-0.21167 -0.343959,-0.66146 0,-0.0265 0.02646,-0.0265 0.02646,-0.0529 -0.02646,0 -0.05292,0 -0.05292,0 -0.582083,-0.0794 -0.423333,-0.66146 -0.238125,-0.71438 -0.185208,-0.0529 -0.343958,-0.635 0.238125,-0.71437 0.02646,0 0.05292,0 0.05292,0 -0.02646,-0.0265 -0.02646,-0.0265 -0.02646,-0.0529 -0.343958,-0.44979 0.15875,-0.76729 0.343959,-0.66146 -0.07937,-0.18521 0.211666,-0.68792 0.661458,-0.34396 0.02646,0 0.02646,0.0265 0.05292,0.0265 0,-0.0265 0,-0.0529 0,-0.0529 0.07937,-0.58208 0.661458,-0.42333 0.714375,-0.23812 0.05292,-0.18521 0.635,-0.34396 0.714375,0.23812 0,0.0265 0,0.0529 0,0.0529 0.02646,-0.0265 0.02646,-0.0265 0.05292,-0.0265 0.449792,-0.34396 0.767292,0.15875 0.661459,0.34396 0.185208,-0.0794 0.687916,0.21167 0.343958,0.66146 0,0.0265 -0.02646,0.0265 -0.02646,0.0529 0.02646,0 0.05292,0 0.05292,0 0.582084,0.0794 0.423334,0.66145 0.238125,0.71437 0.211667,0.0794 0.343959,0.635 -0.238125,0.71438 z"
       id="path4550"
       style="stroke-width:0.264583;fill:#fde7be" />
    <polygon
       fill="#3069b3"
       points="567.1,253.3 575.6,261.8 "
       id="polygon4558"
       transform="matrix(0.26458333,0,0,0.26458333,-103.26687,38.447741)"
       style="fill:#e94f37" />
    <polygon
       fill="#3069b3"
       points=""
       id="polygon4562"
       transform="matrix(0.26458333,0,0,0.26458333,-103.26687,38.447741)"
       style="fill:#e94f37" />
    <polygon
       fill="#3069b3"
       points=""
       id="polygon4568"
       transform="matrix(0.26458333,0,0,0.26458333,-103.26687,38.447741)"
       style="fill:#e94f37" />
    <g
       id="g8702"
       style="fill:#326273">
      <path
         fill="#3069b3"
         d="M 27.305003,105.4667 -1.8785379,83.294615 c -1.349375,-0.79375 -2.7252083,-1.825625 -4.1275,-3.148541 1.3229167,1.402291 2.3547916,2.778125 3.1485416,4.1275 l 22.1720833,29.183546 3.995208,-3.99521 z m -7.9375,4.33917 -16.4570827,-20.637505 20.7433327,16.351255 -2.143125,2.14312 z"
         id="path4552"
         style="stroke-width:0.264583;fill:#326273" />
      <path
         fill="#3069b3"
         d="m 50.773545,109.46191 3.995208,3.99521 22.172083,-29.183546 c 0.79375,-1.349375 1.825625,-2.725209 3.148542,-4.1275 -1.402292,1.322916 -2.778125,2.354791 -4.1275,3.148541 l -29.183542,22.172085 2.248959,2.24896 z m 20.293541,-20.399378 -16.35125,20.743338 -2.143125,-2.14313 -2.143125,-2.14312 10.080625,-8.043338 v 0 0 z"
         id="path4556"
         style="stroke-width:0.264583;fill:#326273" />
      <path
         fill="#3069b3"
         d="m 54.768753,132.95691 -3.995208,3.9952 -3.995209,3.99521 29.183542,22.17209 c 1.349375,0.79375 2.725208,1.82562 4.1275,3.14854 -1.322917,-1.40229 -2.354792,-2.77813 -3.148542,-4.1275 z m -4.339167,7.9375 2.143125,-2.14313 2.143125,-2.14312 16.457083,20.6375 -10.636249,-8.3873 v 0 0 z"
         id="path4564"
         style="stroke-width:0.264583;fill:#326273" />
      <path
         fill="#3069b3"
         d="m 23.283337,136.95211 -3.995209,-3.9952 -22.1720826,29.18354 c -0.79375,1.34937 -1.825625,2.72521 -3.1485416,4.1275 1.4022916,-1.32292 2.7781249,-2.35479 4.1274999,-3.14854 L 27.278545,140.94732 25.61167,139.28045 Z M 2.9897953,157.35149 11.377087,146.71524 v 0 0 l 7.963958,-10.10708 2.143125,2.14312 2.143125,2.14313 -10.080625,8.04333 v 0 0 z"
         id="path4570"
         style="stroke-width:0.264583;fill:#326273" />
    </g>
    <polygon
       fill="#3069b3"
       points="493.5,387.4 487.2,381.1 "
       id="polygon4572"
       transform="matrix(0.26458333,0,0,0.26458333,-103.26687,38.447741)"
       style="fill:#e94f37" />
    <g
       id="g8750"
       style="fill:#fde7be">
      <polygon
         fill="#3069b3"
         points="441.4,223.4 433.1,231.6 471.6,261.6 "
         id="polygon4554"
         transform="matrix(0.26458333,0,0,0.26458333,-103.26687,38.447741)"
         style="fill:#fde7be" />
      <polygon
         fill="#3069b3"
         points="627.2,231.5 619.1,223.1 589,261.6 "
         id="polygon4560"
         transform="matrix(0.26458333,0,0,0.26458333,-103.26687,38.447741)"
         style="fill:#fde7be" />
      <polygon
         fill="#3069b3"
         points="589,379.1 619.1,417.3 627.5,409.1 "
         id="polygon4566"
         transform="matrix(0.26458333,0,0,0.26458333,-103.26687,38.447741)"
         style="fill:#fde7be" />
      <polygon
         fill="#3069b3"
         points="471.6,379.1 433.3,409.2 441.5,417.6 "
         id="polygon4574"
         transform="matrix(0.26458333,0,0,0.26458333,-103.26687,38.447741)"
         style="fill:#fde7be" />
    </g>
    <polygon
       fill="#3069b3"
       points=""
       id="polygon4576"
       transform="matrix(0.26458333,0,0,0.26458333,-103.26687,38.447741)"
       style="fill:#e94f37" />
    <polygon
       fill="#3069b3"
       points=""
       id="polygon4578"
       transform="matrix(0.26458333,0,0,0.26458333,-103.26687,38.447741)"
       style="fill:#e94f37" />
    <g
       id="g8712"
       style="fill:#5c9ead">
      <path
         fill="#3069b3"
         d="m 11.377087,107.66274 c -3.7041667,-0.26458 -3.9422917,4.02167 -3.9422917,4.02167 -2.1166667,-7.09084 -7.32895827,-4.78896 -7.32895827,-4.78896 2.11666667,-0.79375 6.56166657,2.91042 4.81541657,8.59896 -0.79375,2.61937 0.1322917,4.47145 1.349375,5.68854 2.1960417,0.635 3.2808333,2.01083 3.2808333,2.01083 -4.6302083,-7.69937 1.8256251,-15.53104 1.8256251,-15.53104 z"
         id="path4580"
         style="stroke-width:0.264583;fill:#5c9ead" />
      <path
         fill="#3069b3"
         d="m 6.2706286,125.23107 c -1.2170833,1.21709 -2.143125,3.06917 -1.349375,5.68854 1.74625,5.68855 -2.6987499,9.41917 -4.81541657,8.59896 0,0 5.21229157,2.27542 7.32895827,-4.78896 0,0 0.2645833,4.28625 3.9422917,4.02167 0,0 -6.4558334,-7.83167 -1.8256251,-15.53104 0,0 -1.0847916,1.37583 -3.2808333,2.01083 z"
         id="path4582"
         style="stroke-width:0.264583;fill:#5c9ead" />
      <path
         fill="#3069b3"
         d="m 52.572711,97.555657 c 0.264584,-3.704167 -4.021666,-3.942292 -4.021666,-3.942292 7.090833,-2.116666 4.788958,-7.328958 4.788958,-7.328958 0.79375,2.116667 -2.910417,6.561667 -8.598958,4.815417 -2.619375,-0.79375 -4.471458,0.132291 -5.688542,1.349375 -0.635,2.196041 -2.010833,3.280833 -2.010833,3.280833 7.699375,-4.630208 15.531041,1.825625 15.531041,1.825625 z"
         id="path4606"
         style="stroke-width:0.264583;fill:#5c9ead" />
      <path
         fill="#3069b3"
         d="m 35.004378,92.449199 c -1.217083,-1.217084 -3.069166,-2.143125 -5.688541,-1.349375 -5.688542,1.74625 -9.419167,-2.69875 -8.598959,-4.815417 0,0 -2.275416,5.212292 4.788959,7.328958 0,0 -4.28625,0.264584 -4.021667,3.942292 0,0 7.831667,-6.455833 15.531042,-1.825625 0.02646,0 -1.375834,-1.084792 -2.010834,-3.280833 z"
         id="path4608"
         style="stroke-width:0.264583;fill:#5c9ead" />
      <path
         fill="#3069b3"
         d="m 62.679795,138.75128 c 3.704166,0.26458 3.942291,-4.02167 3.942291,-4.02167 2.116667,7.09084 7.328958,4.78896 7.328958,4.78896 -2.116666,0.79375 -6.561666,-2.91041 -4.815416,-8.59896 0.79375,-2.61937 -0.132292,-4.47145 -1.349375,-5.68854 -2.196042,-0.635 -3.280833,-2.01083 -3.280833,-2.01083 v 0 c 4.630208,7.69937 -1.825625,15.53104 -1.825625,15.53104 z"
         id="path4632"
         style="stroke-width:0.264583;fill:#5c9ead" />
      <path
         fill="#3069b3"
         d="m 67.812711,121.18295 c 1.217083,-1.21709 2.143125,-3.06917 1.349375,-5.68854 -1.74625,-5.68854 2.69875,-9.41917 4.815417,-8.59896 0,0 -5.212292,-2.27542 -7.328958,4.78896 0,0 -0.264584,-4.28625 -3.942292,-4.02167 0,0 6.455833,7.83167 1.825625,15.53104 0,0.0265 1.084792,-1.37583 3.280833,-2.01083 z"
         id="path4634"
         style="stroke-width:0.264583;fill:#5c9ead" />
      <path
         fill="#3069b3"
         d="m 21.510628,148.85836 c -0.264583,3.70417 4.021667,3.9423 4.021667,3.9423 -7.090833,2.11666 -4.788958,7.32895 -4.788958,7.32895 -0.79375,-2.11666 2.910416,-6.56166 8.598958,-4.81541 2.619375,0.79375 4.471458,-0.13229 5.688542,-1.34938 0.635,-2.19604 2.010833,-3.28083 2.010833,-3.28083 -7.725833,4.63021 -15.531042,-1.82563 -15.531042,-1.82563 z"
         id="path4658"
         style="stroke-width:0.264583;fill:#5c9ead" />
      <path
         fill="#3069b3"
         d="m 39.052503,153.96482 c 1.217084,1.21709 3.069167,2.14313 5.688542,1.34938 5.688541,-1.74625 9.419166,2.69875 8.598958,4.81541 0,0 2.275417,-5.21229 -4.788958,-7.32895 0,0 4.28625,-0.26459 4.021666,-3.9423 0,0 -7.831666,6.45584 -15.531041,1.82563 0,0 1.402292,1.08479 2.010833,3.28083 z"
         id="path4660"
         style="stroke-width:0.264583;fill:#5c9ead" />
    </g>
    <g
       id="g8728"
       style="fill:#e94f37">
      <path
         fill="#3069b3"
         d="m 6.2706286,121.18295 c -2.0372916,-0.58209 -5.0535416,-0.50271 -9.0487499,2.01083 3.9952083,2.51354 7.0114583,2.59292 9.0487499,2.01083 1.42875,-1.42875 3.2808333,-2.01083 3.2808333,-2.01083 0,0 -1.8520833,-0.58208 -3.2808333,-2.01083 z"
         id="path4584"
         style="stroke-width:0.264583;fill:#e94f37" />
      <path
         fill="#3069b3"
         d="m 39.052503,92.449199 c 0.582084,-2.037292 0.502709,-5.053542 -2.010833,-9.04875 -2.513542,3.995208 -2.592917,7.011458 -2.010833,9.04875 1.42875,1.42875 2.010833,3.280833 2.010833,3.280833 0,0 0.582083,-1.852083 2.010833,-3.280833 z"
         id="path4610"
         style="stroke-width:0.264583;fill:#e94f37" />
      <path
         fill="#3069b3"
         d="m 67.812711,125.23107 c 2.037292,0.58209 5.053542,0.50271 9.04875,-2.01083 -3.995208,-2.51354 -7.011458,-2.59292 -9.04875,-2.01083 -1.42875,1.42875 -3.280833,2.01083 -3.280833,2.01083 v 0 c 0,0 1.825625,0.58208 3.280833,2.01083 z"
         id="path4636"
         style="stroke-width:0.264583;fill:#e94f37" />
      <path
         fill="#3069b3"
         d="m 35.004378,153.96482 c -0.582083,2.03729 -0.502708,5.05354 2.010834,9.04875 2.513541,-3.99521 2.592916,-7.01146 2.010833,-9.04875 -1.42875,-1.42875 -2.010833,-3.28083 -2.010833,-3.28083 0,0 -0.555625,1.85208 -2.010834,3.28083 z"
         id="path4662"
         style="stroke-width:0.264583;fill:#e94f37" />
    </g>
    <g
       id="g8760"
       style="fill:#326273">
      <path
         fill="#3069b3"
         d="m 16.192503,132.08378 c -6.2706244,-2.11667 -6.6410411,-8.86354 -6.6410411,-8.86354 -4.7360416,8.46667 6.6410411,8.86354 6.6410411,8.86354 z"
         id="path4590"
         style="stroke-width:0.264583;fill:#326273" />
      <path
         fill="#3069b3"
         d="m 9.5514619,123.11441 c 0,0 0.3704167,-6.74688 6.6410411,-8.86354 0,-0.0265 -11.3770827,0.37041 -6.6410411,8.86354 z"
         id="path4592"
         style="stroke-width:0.264583;fill:#326273" />
      <path
         fill="#3069b3"
         d="m 28.15167,102.37107 c 2.116667,-6.270621 8.863542,-6.641038 8.863542,-6.641038 -8.466667,-4.736042 -8.863542,6.641038 -8.863542,6.641038 z"
         id="path4616"
         style="stroke-width:0.264583;fill:#326273" />
      <path
         fill="#3069b3"
         d="m 37.121045,95.730032 c 0,0 6.746875,0.370417 8.863541,6.641038 0.02646,0 -0.370416,-11.37708 -8.863541,-6.641038 z"
         id="path4618"
         style="stroke-width:0.264583;fill:#326273" />
      <path
         fill="#3069b3"
         d="m 57.864378,114.33024 c 6.270625,2.11667 6.641042,8.86354 6.641042,8.86354 4.736041,-8.46666 -6.641042,-8.86354 -6.641042,-8.86354 z"
         id="path4642"
         style="stroke-width:0.264583;fill:#326273" />
      <path
         fill="#3069b3"
         d="m 64.531878,123.29961 c 0,0 -0.370417,6.74688 -6.641042,8.86355 -0.02646,0.0264 11.350625,-0.37042 6.641042,-8.86355 z"
         id="path4644"
         style="stroke-width:0.264583;fill:#326273" />
      <path
         fill="#3069b3"
         d="m 45.905211,144.04295 c -2.116666,6.27062 -8.863541,6.64104 -8.863541,6.64104 8.466666,4.73604 8.863541,-6.64104 8.863541,-6.64104 z"
         id="path4668"
         style="stroke-width:0.264583;fill:#326273" />
      <path
         fill="#3069b3"
         d="m 36.935837,150.68399 c 0,0 -6.746875,-0.37042 -8.863542,-6.64104 0,0 0.370417,11.37708 8.863542,6.64104 z"
         id="path4670"
         style="stroke-width:0.264583;fill:#326273" />
    </g>
    <g
       id="g8722"
       style="fill:#e94f37">
      <circle
         fill="#3069b3"
         cx="1.2170854"
         cy="115.60024"
         r="2.1695833"
         id="circle4594"
         style="stroke-width:0.264583;fill:#e94f37" />
      <circle
         fill="#3069b3"
         cx="1.2170854"
         cy="131.55461"
         r="2.1695833"
         id="circle4596"
         style="stroke-width:0.264583;fill:#e94f37" />
      <circle
         fill="#3069b3"
         cx="44.661663"
         cy="87.39566"
         r="2.1695833"
         id="circle4620"
         style="stroke-width:0.264583;fill:#e94f37" />
      <circle
         fill="#3069b3"
         cx="28.707293"
         cy="87.39566"
         r="2.1695833"
         id="circle4622"
         style="stroke-width:0.264583;fill:#e94f37" />
      <circle
         fill="#3069b3"
         cx="72.866257"
         cy="130.81378"
         r="2.1695833"
         id="circle4646"
         style="stroke-width:0.264583;fill:#e94f37" />
      <circle
         fill="#3069b3"
         cx="72.866257"
         cy="114.85941"
         r="2.1695833"
         id="circle4648"
         style="stroke-width:0.264583;fill:#e94f37" />
      <circle
         fill="#3069b3"
         cx="29.421671"
         cy="159.01837"
         r="2.1695833"
         id="circle4672"
         style="stroke-width:0.264583;fill:#e94f37" />
      <circle
         fill="#3069b3"
         cx="45.376041"
         cy="159.01837"
         r="2.1695833"
         id="circle4674"
         style="stroke-width:0.264583;fill:#e94f37" />
    </g>
    <g
       id="g8696"
       style="fill:#5c9ead">
      <path
         fill="#3069b3"
         d="m -4.4185379,102.37107 c 0,0 7.3818749,-8.122705 1.5610416,-18.071038 l -3.1485416,-4.1275 c 0,-0.02646 4.8947916,15.795625 1.5875,22.198538 z"
         id="path4598"
         style="stroke-width:0.264583;fill:#5c9ead" />
      <path
         fill="#3069b3"
         d="m -2.8839546,84.300032 c -0.79375,-1.349375 -1.825625,-2.725208 -3.1485416,-4.1275 z"
         id="path4600"
         style="stroke-width:0.264583;fill:#5c9ead" />
      <path
         fill="#3069b3"
         d="m -4.4185379,144.04295 c 3.3337499,6.42937 -1.5875,22.225 -1.5875,22.225 l 3.1485416,-4.1275 c 5.8208333,-10.00125 -1.5610416,-18.0975 -1.5610416,-18.0975 z"
         id="path4602"
         style="stroke-width:0.264583;fill:#5c9ead" />
      <path
         fill="#3069b3"
         d="m -6.0060379,166.26795 c 1.3229167,-1.40229 2.3547916,-2.77813 3.1485416,-4.1275 z"
         id="path4604"
         style="stroke-width:0.264583;fill:#5c9ead" />
      <path
         fill="#3069b3"
         d="m 57.864378,81.733574 c 0,0 8.122708,7.381875 18.071041,1.561041 l 4.1275,-3.148541 c 0.02646,0 -15.769166,4.92125 -22.198541,1.5875 z"
         id="path4624"
         style="stroke-width:0.264583;fill:#5c9ead" />
      <path
         fill="#3069b3"
         d="m 75.961878,83.294615 c 1.349375,-0.79375 2.725208,-1.825625 4.1275,-3.148541 z"
         id="path4626"
         style="stroke-width:0.264583;fill:#5c9ead" />
      <path
         fill="#3069b3"
         d="m 16.192503,81.733574 c -6.4293744,3.33375 -22.2249992,-1.5875 -22.2249992,-1.5875 l 4.1274999,3.148541 C 8.0962536,89.115449 16.192503,81.733574 16.192503,81.733574 Z"
         id="path4628"
         style="stroke-width:0.264583;fill:#5c9ead" />
      <path
         fill="#3069b3"
         d="m -6.0060379,80.146074 c 1.4022917,1.322916 2.778125,2.354791 4.1275,3.148541 z"
         id="path4630"
         style="stroke-width:0.264583;fill:#5c9ead" />
      <path
         fill="#3069b3"
         d="m 78.501878,144.04295 c 0,0 -7.381875,8.12271 -1.561042,18.07104 l 3.148542,4.1275 c 0,0.0265 -4.92125,-15.79563 -1.5875,-22.19854 z"
         id="path4650"
         style="stroke-width:0.264583;fill:#5c9ead" />
      <path
         fill="#3069b3"
         d="m 80.089378,166.26795 -3.148542,-4.1275 c 0.79375,1.32291 1.825625,2.72521 3.148542,4.1275 z"
         id="path4652"
         style="stroke-width:0.264583;fill:#5c9ead" />
      <path
         fill="#3069b3"
         d="m 78.501878,102.37107 c -3.33375,-6.429371 1.5875,-22.224996 1.5875,-22.224996 l -3.148542,4.1275 c -5.820833,10.00125 1.561042,18.097496 1.561042,18.097496 z"
         id="path4654"
         style="stroke-width:0.264583;fill:#5c9ead" />
      <path
         fill="#3069b3"
         d="m 80.089378,80.146074 c -1.322917,1.402291 -2.354792,2.778125 -3.148542,4.1275 z"
         id="path4656"
         style="stroke-width:0.264583;fill:#5c9ead" />
      <path
         fill="#3069b3"
         d="m 16.192503,164.68045 c 0,0 -8.1227077,-7.38188 -18.0710409,-1.56104 l -4.1275,3.14854 c 0,0 15.7956248,-4.92125 22.1985409,-1.5875 z"
         id="path4676"
         style="stroke-width:0.264583;fill:#5c9ead" />
      <path
         fill="#3069b3"
         d="m -1.8785379,163.11941 c -1.349375,0.79375 -2.7252083,1.82562 -4.1275,3.14854 z"
         id="path4678"
         style="stroke-width:0.264583;fill:#5c9ead" />
      <path
         fill="#3069b3"
         d="m 57.864378,164.68045 c 6.429375,-3.33375 22.225,1.5875 22.225,1.5875 l -4.1275,-3.14854 c -9.974792,-5.82084 -18.0975,1.56104 -18.0975,1.56104 z"
         id="path4680"
         style="stroke-width:0.264583;fill:#5c9ead" />
      <path
         fill="#3069b3"
         d="m 80.089378,166.26795 c -1.402292,-1.32292 -2.778125,-2.35479 -4.1275,-3.14854 z"
         id="path4682"
         style="stroke-width:0.264583;fill:#5c9ead" />
    </g>
  </g>
</svg>
