<?xml version="1.0" encoding="UTF-8" standalone="no"?>
<svg
   xmlns:dc="http://purl.org/dc/elements/1.1/"
   xmlns:cc="http://creativecommons.org/ns#"
   xmlns:rdf="http://www.w3.org/1999/02/22-rdf-syntax-ns#"
   xmlns:svg="http://www.w3.org/2000/svg"
   xmlns="http://www.w3.org/2000/svg"
   xmlns:sodipodi="http://sodipodi.sourceforge.net/DTD/sodipodi-0.dtd"
   xmlns:inkscape="http://www.inkscape.org/namespaces/inkscape"
   width="89.799583mm"
   height="89.799583mm"
   viewBox="0 0 89.799583 89.799583"
   version="1.1"
   id="svg10037"
   inkscape:version="1.0.1 (3bc2e813f5, 2020-09-07)">
  <defs
     id="defs10031" />
  <sodipodi:namedview
     id="base"
     pagecolor="#ffffff"
     bordercolor="#666666"
     borderopacity="1.0"
     inkscape:pageopacity="0.0"
     inkscape:pageshadow="2"
     inkscape:zoom="4.0542133"
     inkscape:cx="169.7"
     inkscape:cy="169.7"
     inkscape:document-units="mm"
     inkscape:current-layer="layer1"
     inkscape:document-rotation="0"
     showgrid="false"
     fit-margin-top="0"
     fit-margin-left="0"
     fit-margin-right="0"
     fit-margin-bottom="0"
     inkscape:window-width="2560"
     inkscape:window-height="1566"
     inkscape:window-x="0"
     inkscape:window-y="0"
     inkscape:window-maximized="1" />
  <metadata
     id="metadata10034">
    <rdf:RDF>
      <cc:Work
         rdf:about="">
        <dc:format>image/svg+xml</dc:format>
        <dc:type
           rdf:resource="http://purl.org/dc/dcmitype/StillImage" />
        <dc:title></dc:title>
      </cc:Work>
    </rdf:RDF>
  </metadata>
  <g
     inkscape:label="Layer 1"
     inkscape:groupmode="layer"
     id="layer1"
     transform="translate(112.93551,106.88789)">
    <rect
       x="-112.93551"
       y="-106.88789"
       fill="#f1f2f2"
       width="89.799583"
       height="89.799583"
       id="rect4826"
       style="stroke-width:0.264583;fill:#272727" />
    <g
       id="g11084">
      <path
         fill="#3069b3"
         d="m -68.035717,-86.700182 -24.685625,24.685624 24.685625,24.685625 24.685624,-24.685625 z m -19.420417,24.712083 19.420417,-19.420417 19.420416,19.420417 -19.420416,19.420416 z"
         id="path4828"
         style="stroke-width:0.264583;fill:#f7f3e3" />
      <path
         fill="#3069b3"
         d="M -50.573218,-79.450599 H -85.498217 V -44.5256 h 34.924999 z m -31.194374,3.730625 h 27.463749 v 27.463749 h -27.463749 z"
         id="path4830"
         style="stroke-width:0.264583;fill:#f7f3e3" />
    </g>
    <path
       fill="#3069b3"
       d="m -68.035717,-72.148099 -10.16,10.16 10.16,10.159999 10.16,-10.159999 z m -6.614584,10.16 6.614584,-6.614584 6.614583,6.614584 -6.614583,6.614583 z"
       id="path4832"
       style="stroke-width:0.264583;fill:#f7f3e3" />
    <rect
       x="-69.967171"
       y="-63.919559"
       fill="#3069b3"
       width="3.8629167"
       height="3.8629167"
       id="rect4834"
       style="stroke-width:0.264583;fill:#a30015" />
    <g
       id="g11080"
       style="fill:#d45113">
      <circle
         fill="#3069b3"
         cx="-75.444061"
         cy="-69.264145"
         r="1.5081249"
         id="circle4838"
         style="stroke-width:0.264583;fill:#d45113" />
      <circle
         fill="#3069b3"
         cx="-60.891979"
         cy="-69.317055"
         r="1.5081249"
         id="circle4840"
         style="stroke-width:0.264583;fill:#d45113" />
      <circle
         fill="#3069b3"
         cx="-60.812592"
         cy="-54.764973"
         r="1.5081249"
         id="circle4842"
         style="stroke-width:0.264583;fill:#d45113" />
      <circle
         fill="#3069b3"
         cx="-75.364677"
         cy="-54.6856"
         r="1.5081249"
         id="circle4844"
         style="stroke-width:0.264583;fill:#d45113" />
    </g>
    <g
       id="g11120"
       style="fill:#628395">
      <path
         fill="#3069b3"
         d="m -70.708009,-87.970182 c 0,0 -2.804583,-2.407709 -4.736042,-0.502709 -1.931458,1.905 -0.07937,3.122084 -0.07937,3.122084 l -1.42875,3.624791 c 0.02646,-0.02646 7.646459,-4.339166 6.244167,-6.244166 z"
         id="path4848"
         style="stroke-width:0.264583;fill:#628395" />
      <path
         fill="#3069b3"
         d="m -65.336967,-87.970182 c 0,0 2.804583,-2.407709 4.736041,-0.502709 1.931459,1.905 0.07937,3.122084 0.07937,3.122084 l 1.42875,3.624791 c 0,-0.02646 -7.646458,-4.339166 -6.244166,-6.244166 z"
         id="path4850"
         style="stroke-width:0.264583;fill:#628395" />
      <path
         fill="#3069b3"
         d="m -42.053634,-64.660391 c 0,0 2.407708,-2.804583 0.502708,-4.736042 -1.905,-1.905 -3.122083,-0.07937 -3.122083,-0.07937 l -3.624792,-1.42875 c 0.02646,0 4.339167,7.646459 6.244167,6.244167 z"
         id="path4864"
         style="stroke-width:0.264583;fill:#628395" />
      <path
         fill="#3069b3"
         d="m -42.053634,-59.289349 c 0,0 2.407708,2.804583 0.502708,4.736041 -1.905,1.905 -3.122083,0.07937 -3.122083,0.07937 l -3.624792,1.42875 c 0.02646,-0.02646 4.339167,-7.646458 6.244167,-6.244166 z"
         id="path4866"
         style="stroke-width:0.264583;fill:#628395" />
      <path
         fill="#3069b3"
         d="m -65.363426,-36.006016 c 0,0 2.804584,2.407708 4.736042,0.502708 1.905,-1.905 0.07937,-3.122083 0.07937,-3.122083 l 1.42875,-3.624792 c -0.02646,0.02646 -7.646458,4.339167 -6.244167,6.244167 z"
         id="path4880"
         style="stroke-width:0.264583;fill:#628395" />
      <path
         fill="#3069b3"
         d="m -70.734467,-36.006016 c 0,0 -2.804584,2.407708 -4.736042,0.502708 -1.905,-1.905 -0.07937,-3.122083 -0.07937,-3.122083 l -1.42875,-3.624792 c 0.02646,0.02646 7.646458,4.339167 6.244167,6.244167 z"
         id="path4882"
         style="stroke-width:0.264583;fill:#628395" />
      <path
         fill="#3069b3"
         d="m -94.0178,-59.315808 c 0,0 -2.407709,2.804584 -0.502709,4.736042 1.905,1.905 3.122084,0.07937 3.122084,0.07937 l 3.624791,1.42875 c -0.02646,-0.02646 -4.339166,-7.646458 -6.244166,-6.244167 z"
         id="path4896"
         style="stroke-width:0.264583;fill:#628395" />
      <path
         fill="#3069b3"
         d="m -94.0178,-64.686849 c 0,0 -2.407709,-2.804584 -0.502709,-4.736042 1.905,-1.905 3.122084,-0.07937 3.122084,-0.07937 l 3.624791,-1.42875 c -0.02646,0 -4.339166,7.646458 -6.244166,6.244167 z"
         id="path4898"
         style="stroke-width:0.264583;fill:#628395" />
    </g>
    <g
       id="g11126"
       style="fill:#628395">
      <path
         fill="#3069b3"
         d="m -66.024884,-96.066432 c 0.105833,-1.005417 0.07937,-3.413125 -2.010833,-5.635628 -2.06375,2.222503 -2.116667,4.630211 -2.010834,5.635628 -0.582083,-1.693334 -4.28625,-2.460625 -3.889375,1.508125 0.423334,4.312708 5.900209,6.0325 5.900209,6.0325 0,0 5.476875,-1.719792 5.900208,-6.0325 0.396875,-3.96875 -3.307292,-3.201459 -3.889375,-1.508125 z m -1.984375,5.635625 c 0,0 -2.910417,-1.402292 -2.513542,-3.122084 0.396875,-1.719791 2.196042,-0.608541 2.513542,0 0.3175,-0.608541 2.116667,-1.719791 2.513542,0 0.370416,1.693334 -2.513542,3.122084 -2.513542,3.122084 z"
         id="path4854"
         style="stroke-width:0.264583;fill:#628395" />
      <path
         fill="#3069b3"
         d="m -33.957384,-59.977266 c 1.005416,0.105833 3.413124,0.07937 5.635624,-2.010833 -2.2225,-2.06375 -4.630208,-2.116667 -5.635624,-2.010834 1.693333,-0.582083 2.460625,-4.28625 -1.508125,-3.889375 -4.312709,0.423334 -6.0325,5.900209 -6.0325,5.900209 0,0 1.719791,5.476875 6.0325,5.900208 3.96875,0.396875 3.201458,-3.307292 1.508125,-3.889375 z m -5.635625,-2.010833 c 0,0 1.402291,-2.910417 3.122083,-2.513542 1.719792,0.396875 0.608542,2.196042 0,2.513542 0.608542,0.3175 1.719792,2.116666 0,2.513541 -1.693333,0.396875 -3.122083,-2.513541 -3.122083,-2.513541 z"
         id="path4870"
         style="stroke-width:0.264583;fill:#628395" />
      <path
         fill="#3069b3"
         d="m -70.046551,-27.909766 c -0.105833,1.005416 -0.07938,3.413124 2.010834,5.635624 2.06375,-2.2225 2.116666,-4.630208 2.010833,-5.635624 0.582083,1.693333 4.28625,2.460624 3.889375,-1.508125 -0.423333,-4.312709 -5.900208,-6.0325 -5.900208,-6.0325 0,0 -5.476875,1.719791 -5.900209,6.0325 -0.396875,3.968749 3.307292,3.201458 3.889375,1.508125 z m 2.010834,-5.635625 c 0,0 2.910416,1.402291 2.513541,3.122083 -0.396875,1.719792 -2.196041,0.608542 -2.513541,0 -0.3175,0.608542 -2.116667,1.719792 -2.513542,0 -0.396875,-1.693333 2.513542,-3.122083 2.513542,-3.122083 z"
         id="path4886"
         style="stroke-width:0.264583;fill:#628395" />
      <path
         fill="#3069b3"
         d="m -102.11405,-63.998933 c -1.00542,-0.105833 -3.41313,-0.07938 -5.63563,2.010834 2.2225,2.06375 4.63021,2.116666 5.63563,2.010833 -1.69333,0.582083 -2.46063,4.28625 1.50812,3.889375 4.312713,-0.423333 6.032505,-5.900208 6.032505,-5.900208 0,0 -1.719792,-5.476875 -6.032505,-5.900209 -3.96875,-0.396875 -3.20145,3.307292 -1.50812,3.889375 z m 5.635625,1.984375 c 0,0 -1.402292,2.910417 -3.122084,2.513542 -1.719791,-0.396875 -0.608541,-2.196042 0,-2.513542 -0.608541,-0.3175 -1.719791,-2.116666 0,-2.513541 1.693334,-0.370417 3.122084,2.513541 3.122084,2.513541 z"
         id="path4902"
         style="stroke-width:0.264583;fill:#628395" />
    </g>
    <g
       id="g11102"
       style="fill:#d45113">
      <circle
         fill="#3069b3"
         cx="-79.624458"
         cy="-83.710388"
         r="1.9579166"
         id="circle4856"
         style="stroke-width:0.264583;fill:#d45113" />
      <circle
         fill="#3069b3"
         cx="-56.394062"
         cy="-83.710388"
         r="1.9579166"
         id="circle4858"
         style="stroke-width:0.264583;fill:#d45113" />
      <circle
         fill="#3069b3"
         cx="-46.313412"
         cy="-73.60331"
         r="1.9579166"
         id="circle4872"
         style="stroke-width:0.264583;fill:#d45113" />
      <circle
         fill="#3069b3"
         cx="-46.313412"
         cy="-50.372887"
         r="1.9579166"
         id="circle4874"
         style="stroke-width:0.264583;fill:#d45113" />
      <circle
         fill="#3069b3"
         cx="-56.420517"
         cy="-40.265808"
         r="1.9579166"
         id="circle4888"
         style="stroke-width:0.264583;fill:#d45113" />
      <circle
         fill="#3069b3"
         cx="-79.650909"
         cy="-40.265808"
         r="1.9579166"
         id="circle4890"
         style="stroke-width:0.264583;fill:#d45113" />
      <circle
         fill="#3069b3"
         cx="-89.758018"
         cy="-50.399349"
         r="1.9579166"
         id="circle4904"
         style="stroke-width:0.264583;fill:#d45113" />
      <circle
         fill="#3069b3"
         cx="-89.758018"
         cy="-73.629768"
         r="1.9579166"
         id="circle4906"
         style="stroke-width:0.264583;fill:#d45113" />
    </g>
    <circle
       fill="#3069b3"
       cx="-68.035728"
       cy="-61.988102"
       r="1.0054166"
       id="circle4916"
       style="stroke-width:0.264583;fill:#272727" />
    <g
       id="g11136"
       style="fill:#a30015">
      <path
         fill="#3069b3"
         d="m -88.646759,-82.599141 c 0,0 -7.514166,-8.863541 -6.614583,-14.2875 1.11125,-6.773329 10.821458,-8.069789 13.440833,-1.640416 2.619375,6.429375 -5.715,8.043333 -6.720416,5.344583 -1.005417,-2.69875 0.767291,-3.148542 0.767291,-3.148542 0,0 0.211667,2.196042 1.772709,1.217084 1.561041,-0.978959 -0.767292,-4.365625 -3.757084,-2.487084 -2.54,1.5875 -3.042708,5.265209 1.11125,15.001875 z"
         id="path4918"
         style="fill:#a30015;stroke-width:0.264583" />
      <path
         fill="#3069b3"
         d="m -88.593842,-82.519766 c 0,0 -8.863542,-7.514166 -14.287498,-6.614583 -6.77334,1.11125 -8.06979,10.821458 -1.64042,13.440833 6.429376,2.619375 8.043335,-5.715 5.344585,-6.720416 -2.698755,-1.005417 -3.148545,0.767291 -3.148545,0.767291 0,0 2.19604,0.211667 1.21709,1.772708 -0.97896,1.5875 -4.36563,-0.767291 -2.48709,-3.757083 1.5875,-2.54 5.265211,-3.042708 15.001878,1.11125 z"
         id="path4920"
         style="fill:#a30015;stroke-width:0.264583" />
      <path
         fill="#3069b3"
         d="m -47.424676,-82.599141 c 0,0 8.863542,-7.514166 14.2875,-6.614583 6.773333,1.11125 8.069791,10.821458 1.640417,13.440833 -6.429375,2.619375 -8.043334,-5.715 -5.344584,-6.720416 2.69875,-1.005417 3.148542,0.767291 3.148542,0.767291 0,0 -2.196042,0.211667 -1.217083,1.772708 0.978958,1.5875 4.365624,-0.767291 2.487083,-3.757083 -1.5875,-2.54 -5.265208,-3.042708 -15.001875,1.11125 z"
         id="path4932"
         style="fill:#a30015;stroke-width:0.264583" />
      <path
         fill="#3069b3"
         d="m -47.504051,-82.546224 c 0,0 7.514167,-8.863542 6.614583,-14.2875 -1.11125,-6.773336 -10.821458,-8.069796 -13.440833,-1.640417 -2.619375,6.429375 5.715,8.043334 6.720417,5.344584 1.005416,-2.69875 -0.767292,-3.148542 -0.767292,-3.148542 0,0 -0.211667,2.196042 -1.772708,1.217083 -1.5875,-0.978958 0.767291,-4.365625 3.757083,-2.487083 2.54,1.5875 3.042708,5.265208 -1.11125,15.001875 z"
         id="path4934"
         style="fill:#a30015;stroke-width:0.264583" />
      <path
         fill="#3069b3"
         d="m -47.424676,-41.377058 c 0,0 7.514167,8.863542 6.614583,14.2875 -1.11125,6.773333 -10.821458,8.069791 -13.440833,1.640416 -2.619375,-6.429374 5.715,-8.043333 6.720417,-5.344583 1.005416,2.69875 -0.767292,3.148542 -0.767292,3.148542 0,0 -0.211667,-2.196042 -1.772708,-1.217083 -1.561042,0.978958 0.767291,4.365624 3.757083,2.487083 2.54,-1.613958 3.042708,-5.265208 -1.11125,-15.001875 z"
         id="path4946"
         style="fill:#a30015;stroke-width:0.264583" />
      <path
         fill="#3069b3"
         d="m -47.477593,-41.456433 c 0,0 8.863542,7.514167 14.2875,6.614583 6.773333,-1.11125 8.069792,-10.821458 1.640417,-13.440833 -6.429375,-2.619375 -8.043333,5.715 -5.344583,6.720417 2.69875,1.005416 3.148541,-0.767292 3.148541,-0.767292 0,0 -2.196041,-0.211667 -1.217083,-1.772708 0.978958,-1.5875 4.365625,0.767291 2.487083,3.757083 -1.5875,2.54 -5.265208,3.042708 -15.001875,-1.11125 z"
         id="path4948"
         style="fill:#a30015;stroke-width:0.264583" />
      <path
         fill="#3069b3"
         d="m -88.646759,-41.377058 c 0,0 -8.863541,7.514167 -14.287501,6.614583 -6.77333,-1.11125 -8.06979,-10.821458 -1.64042,-13.440833 6.42938,-2.619375 8.043338,5.715 5.344588,6.720417 -2.698748,1.005416 -3.148538,-0.767292 -3.148538,-0.767292 0,0 2.19604,-0.211667 1.21708,-1.772708 -0.97896,-1.5875 -4.36563,0.767291 -2.48708,3.757083 1.61395,2.54 5.265205,3.042708 15.001871,-1.11125 z"
         id="path4960"
         style="fill:#a30015;stroke-width:0.264583" />
      <path
         fill="#3069b3"
         d="m -88.567384,-41.429975 c 0,0 -7.514166,8.863542 -6.614583,14.2875 1.11125,6.773333 10.821458,8.069792 13.440833,1.640417 2.619375,-6.429375 -5.715,-8.043333 -6.720416,-5.344583 -1.005417,2.69875 0.767291,3.148541 0.767291,3.148541 0,0 0.211667,-2.196041 1.772709,-1.217083 1.5875,0.978958 -0.767292,4.365625 -3.757084,2.487083 -2.54,-1.5875 -3.042708,-5.265208 1.11125,-15.001875 z"
         id="path4962"
         style="fill:#a30015;stroke-width:0.264583" />
    </g>
    <g
       id="g11142"
       style="fill:#628395">
      <path
         fill="#3069b3"
         d="m -91.530717,-85.483099 c 0,0 -10.239373,-4.577292 -13.414373,-13.414375 0,0 8.016873,2.037292 13.414373,13.414375 z"
         id="path4922"
         style="fill:#628395;stroke-width:0.264583" />
      <path
         fill="#3069b3"
         d="m -44.540718,-85.483099 c 0,0 4.577292,-10.239375 13.414375,-13.414375 0,0 -2.037291,7.990417 -13.414375,13.414375 z"
         id="path4936"
         style="fill:#628395;stroke-width:0.264583" />
      <path
         fill="#3069b3"
         d="m -44.540718,-38.4931 c 0,0 10.239375,4.577292 13.414375,13.414375 0,0 -7.990416,-2.037292 -13.414375,-13.414375 z"
         id="path4950"
         style="fill:#628395;stroke-width:0.264583" />
      <path
         fill="#3069b3"
         d="m -91.530717,-38.4931 c 0,0 -4.577292,10.239375 -13.414373,13.414375 0,0 2.03729,-8.016875 13.414373,-13.414375 z"
         id="path4964"
         style="fill:#628395;stroke-width:0.264583" />
    </g>
    <g
       id="g11154"
       style="fill:#a30015">
      <circle
         fill="#3069b3"
         cx="-107.40571"
         cy="-101.3581"
         r="1.9579166"
         id="circle4924"
         style="fill:#a30015;stroke-width:0.264583" />
      <circle
         fill="#3069b3"
         cx="-28.665718"
         cy="-101.3581"
         r="1.9579166"
         id="circle4938"
         style="fill:#a30015;stroke-width:0.264583" />
      <circle
         fill="#3069b3"
         cx="-28.665718"
         cy="-22.618099"
         r="1.9579166"
         id="circle4952"
         style="fill:#a30015;stroke-width:0.264583" />
      <circle
         fill="#3069b3"
         cx="-107.40571"
         cy="-22.618099"
         r="1.9579166"
         id="circle4966"
         style="fill:#a30015;stroke-width:0.264583" />
    </g>
    <g
       id="g11160"
       style="fill:#d45113">
      <circle
         fill="#3069b3"
         cx="-110.52781"
         cy="-104.48019"
         r="1.1377084"
         id="circle4926"
         style="fill:#d45113;stroke-width:0.264583" />
      <circle
         fill="#3069b3"
         cx="-25.543621"
         cy="-104.48019"
         r="1.1377084"
         id="circle4940"
         style="fill:#d45113;stroke-width:0.264583" />
      <circle
         fill="#3069b3"
         cx="-25.543621"
         cy="-19.522478"
         r="1.1377084"
         id="circle4954"
         style="fill:#d45113;stroke-width:0.264583" />
      <circle
         fill="#3069b3"
         cx="-110.52781"
         cy="-19.522478"
         r="1.1377084"
         id="circle4968"
         style="fill:#d45113;stroke-width:0.264583" />
    </g>
    <g
       id="g11148">
      <circle
         fill="#3069b3"
         cx="-86.874054"
         cy="-80.85289"
         r="1.3758333"
         id="circle4928"
         style="fill:#f7f3e3;stroke-width:0.264583" />
      <circle
         fill="#3069b3"
         cx="-49.170925"
         cy="-80.85289"
         r="1.3758333"
         id="circle4942"
         style="fill:#f7f3e3;stroke-width:0.264583" />
      <circle
         fill="#3069b3"
         cx="-49.170925"
         cy="-43.149765"
         r="1.3758333"
         id="circle4956"
         style="fill:#f7f3e3;stroke-width:0.264583" />
      <circle
         fill="#3069b3"
         cx="-86.874054"
         cy="-43.149765"
         r="1.3758333"
         id="circle4970"
         style="fill:#f7f3e3;stroke-width:0.264583" />
    </g>
  </g>
</svg>
