<?xml version="1.0" encoding="UTF-8" standalone="no"?>
<svg
   xmlns:dc="http://purl.org/dc/elements/1.1/"
   xmlns:cc="http://creativecommons.org/ns#"
   xmlns:rdf="http://www.w3.org/1999/02/22-rdf-syntax-ns#"
   xmlns:svg="http://www.w3.org/2000/svg"
   xmlns="http://www.w3.org/2000/svg"
   xmlns:sodipodi="http://sodipodi.sourceforge.net/DTD/sodipodi-0.dtd"
   xmlns:inkscape="http://www.inkscape.org/namespaces/inkscape"
   viewBox="321.145 827.711 3135.4 3135.37"
   xml:space="preserve"
   version="1.1"
   id="svg4794"
   sodipodi:docname="family_4.svg"
   width="3135.3999"
   height="3135.3701"
   inkscape:version="1.0.1 (3bc2e813f5, 2020-09-07)"><metadata
   id="metadata4800"><rdf:RDF><cc:Work
       rdf:about=""><dc:format>image/svg+xml</dc:format><dc:type
         rdf:resource="http://purl.org/dc/dcmitype/StillImage" /><dc:title /></cc:Work></rdf:RDF></metadata><defs
   id="defs4798" /><sodipodi:namedview
   pagecolor="#ffffff"
   bordercolor="#666666"
   borderopacity="1"
   objecttolerance="10"
   gridtolerance="10"
   guidetolerance="10"
   inkscape:pageopacity="0"
   inkscape:pageshadow="2"
   inkscape:window-width="1880"
   inkscape:window-height="1046"
   id="namedview4796"
   showgrid="false"
   fit-margin-top="0"
   fit-margin-left="0"
   fit-margin-right="0"
   fit-margin-bottom="0"
   inkscape:zoom="0.27"
   inkscape:cx="1567.7"
   inkscape:cy="1567.6851"
   inkscape:window-x="40"
   inkscape:window-y="0"
   inkscape:window-maximized="1"
   inkscape:current-layer="svg4794"
   inkscape:document-rotation="0" />
	 <path
   id="path70"
   style="fill:#62466b;fill-opacity:1;fill-rule:nonzero;stroke:none"
   d="m 3456.545,827.711 h -3135.4 v 3135.37 h 3135.4 V 827.711"
   inkscape:connector-curvature="0" /><path
   id="path74"
   style="fill:#d7fdec;fill-opacity:1;fill-rule:nonzero;stroke:none"
   d="m 2307.875,2353.071 c 37.89,-57.56 69.78,-114.97 95.29,-170.73 -57.46,-21.38 -120.61,-39.43 -188.1,-53.34 l -49.62,-10.23 -10.23,-49.62 c -13.91,-67.49 -31.96,-130.64 -53.34,-188.11 -55.76,25.52 -113.17,57.41 -170.73,95.3 l -42.32,27.85 -42.32,-27.85 c -57.56,-37.89 -114.97,-69.78 -170.73,-95.29 -21.38,57.47 -39.43,120.61 -53.34,188.1 l -10.23,49.62 -49.62,10.23 c -67.49,13.91 -130.63,31.96 -188.1,53.34 25.52,55.76 57.4,113.17 95.29,170.73 l 27.86,42.32 -27.86,42.32 c -37.89,57.56 -69.77,114.98 -95.29,170.73 57.47,21.38 120.61,39.43 188.1,53.34 l 49.62,10.23 10.23,49.62 c 13.91,67.49 31.96,130.64 53.34,188.11 55.76,-25.52 113.17,-57.41 170.73,-95.3 l 42.32,-27.85 42.32,27.86 c 57.56,37.88 114.98,69.77 170.73,95.29 21.38,-57.47 39.44,-120.61 53.35,-188.11 l 10.22,-49.62 49.62,-10.23 c 67.5,-13.91 130.64,-31.96 188.11,-53.34 -25.52,-55.75 -57.41,-113.17 -95.3,-170.73 l -27.85,-42.32 27.85,-42.32"
   inkscape:connector-curvature="0" /><g
   id="g11212"
   style="fill:#bf9aca"><path
     id="path72"
     style="fill:#bf9aca;fill-opacity:1;fill-rule:nonzero;stroke:none"
     d="m 2760.305,3266.871 c 22.76,-92.41 15.88,-206.85 -17.91,-333.36 -76.3,28.34 -157.45,52.93 -242.18,73.27 -20.34,84.73 -44.93,165.88 -73.28,242.19 126.51,33.79 240.96,40.67 333.37,17.9"
     inkscape:connector-curvature="0" /><path
     id="path78"
     style="fill:#bf9aca;fill-opacity:1;fill-rule:nonzero;stroke:none"
     d="m 1017.345,3266.871 c 92.42,22.77 206.86,15.89 333.37,-17.91 -28.34,-76.3 -52.94,-157.45 -73.27,-242.18 -84.73,-20.34 -165.88,-44.93 -242.18,-73.28 -33.8,126.52 -40.68,240.96 -17.92,333.37"
     inkscape:connector-curvature="0" /><path
     id="path82"
     style="fill:#bf9aca;fill-opacity:1;fill-rule:nonzero;stroke:none"
     d="m 1017.345,1523.921 c -22.76,92.4 -15.88,206.85 17.92,333.36 76.3,-28.34 157.45,-52.94 242.18,-73.27 20.33,-84.73 44.92,-165.88 73.27,-242.18 -126.52,-33.79 -240.96,-40.67 -333.37,-17.91"
     inkscape:connector-curvature="0" /><path
     id="path86"
     style="fill:#bf9aca;fill-opacity:1;fill-rule:nonzero;stroke:none"
     d="m 2760.295,1523.921 c -92.4,-22.78 -206.85,-15.9 -333.36,17.89 28.35,76.31 52.94,157.46 73.27,242.2 84.73,20.33 165.88,44.93 242.18,73.27 33.8,-126.51 40.68,-240.96 17.91,-333.36"
     inkscape:connector-curvature="0" /></g><g
   id="g11218"
   style="fill:#ff8360"><path
     id="path76"
     style="fill:#ff8360;fill-opacity:1;fill-rule:nonzero;stroke:none"
     d="m 1888.825,3627.851 c 81.44,-49.24 157.5,-135.03 223.06,-248.39 -73.99,-33.91 -148.77,-73.91 -223.06,-119.45 -74.29,45.54 -149.06,85.53 -223.05,119.44 65.56,113.36 141.62,199.15 223.05,248.4"
     inkscape:connector-curvature="0" /><path
     id="path80"
     style="fill:#ff8360;fill-opacity:1;fill-rule:nonzero;stroke:none"
     d="m 656.375,2395.401 c 49.24,81.43 135.03,157.49 248.39,223.05 33.91,-74 73.9,-148.77 119.44,-223.06 -45.54,-74.29 -85.53,-149.06 -119.44,-223.05 -113.36,65.56 -199.15,141.62 -248.39,223.06"
     inkscape:connector-curvature="0" /><path
     id="path84"
     style="fill:#ff8360;fill-opacity:1;fill-rule:nonzero;stroke:none"
     d="m 1888.825,1162.941 c -81.43,49.24 -157.49,135.03 -223.05,248.38 73.99,33.91 148.77,73.91 223.05,119.44 74.29,-45.53 149.06,-85.52 223.06,-119.43 -65.56,-113.35 -141.62,-199.14 -223.06,-248.39"
     inkscape:connector-curvature="0" /><path
     id="path88"
     style="fill:#ff8360;fill-opacity:1;fill-rule:nonzero;stroke:none"
     d="m 2872.895,2172.331 c -33.91,74 -73.91,148.77 -119.44,223.06 45.53,74.29 85.53,149.06 119.44,223.06 113.35,-65.56 199.14,-141.62 248.39,-223.06 -49.24,-81.44 -135.04,-157.5 -248.39,-223.06"
     inkscape:connector-curvature="0" /></g><path
   id="path90"
   style="fill:#ff8360;fill-opacity:1;fill-rule:nonzero;stroke:none"
   d="m 2834.785,2062.521 c -43.29,108.16 -101.48,220.17 -173.98,332.87 72.5,112.7 130.69,224.71 173.98,332.88 183.22,-89.85 314.96,-204.73 375.46,-332.88 -60.5,-128.14 -192.23,-243.02 -375.46,-332.87 z m -11.55,-601.53 c -133.4,-47.81 -307.79,-35.9 -500.9,30.14 45.87,107.09 83.94,227.44 112.36,358.39 130.95,28.43 251.3,66.49 358.4,112.36 66.03,-193.09 77.94,-367.48 30.14,-500.89 z m -934.41,-387.05 c -128.14,60.54 -243.02,192.27 -332.87,375.5 108.17,43.29 220.18,101.47 332.87,173.97 112.73,-72.52 224.73,-130.59 332.91,-173.88 -89.85,-183.27 -204.74,-315.04 -332.91,-375.59 z m -934.41,387.05 c -47.8,133.41 -35.88,307.8 30.15,500.89 107.09,-45.87 227.44,-83.93 358.39,-112.36 28.43,-130.95 66.49,-251.3 112.36,-358.4 -193.09,-66.02 -367.48,-77.94 -500.9,-30.13 z m -387.04,934.41 c 60.53,128.14 192.27,243.02 375.5,332.86 43.29,-108.16 101.47,-220.17 173.97,-332.87 -72.5,-112.69 -130.68,-224.7 -173.97,-332.87 -183.23,89.85 -314.96,204.73 -375.5,332.88 z m 387.04,934.4 c 133.43,47.83 307.81,35.91 500.91,-30.13 -45.88,-107.1 -83.94,-227.45 -112.37,-358.41 -130.95,-28.42 -251.3,-66.48 -358.39,-112.36 -66.03,193.1 -77.95,367.48 -30.15,500.9 z m 934.41,387.05 c 128.15,-60.54 243.03,-192.27 332.88,-375.5 -108.17,-43.29 -220.18,-101.48 -332.88,-173.98 -112.69,72.5 -224.7,130.68 -332.87,173.97 89.85,183.23 204.73,314.97 332.87,375.51 z m 696.19,-1342.01 c 76.93,-116.87 137.91,-232.58 182.15,-343.26 -109.55,-46.99 -234.49,-85.69 -371.54,-113.94 l -24.08,-4.97 -4.97,-24.09 c -28.25,-137.03 -66.95,-261.98 -113.93,-371.52 -110.68,44.24 -226.4,105.22 -343.27,182.14 l -20.55,13.53 -20.54,-13.53 c -116.87,-76.93 -232.59,-137.91 -343.28,-182.15 -46.98,109.55 -85.68,234.5 -113.93,371.54 l -4.97,24.08 -24.08,4.97 c -137.04,28.25 -261.98,66.95 -371.53,113.94 44.24,110.68 105.22,226.39 182.15,343.26 l 13.52,20.55 -13.52,20.54 c -76.93,116.88 -137.91,232.59 -182.15,343.28 109.54,46.98 234.49,85.68 371.53,113.93 l 24.08,4.97 4.97,24.08 c 28.25,137.05 66.95,262 113.94,371.55 110.68,-44.25 226.4,-105.23 343.27,-182.17 l 20.54,-13.52 20.55,13.52 c 116.87,76.94 232.58,137.92 343.27,182.16 46.99,-109.55 85.69,-234.49 113.93,-371.54 l 4.97,-24.08 24.09,-4.97 c 137.04,-28.24 261.98,-66.94 371.53,-113.93 -44.24,-110.68 -105.22,-226.4 -182.15,-343.28 l -13.53,-20.54 z m 238.22,954.96 c 47.81,-133.42 35.89,-307.8 -30.14,-500.9 -107.1,45.88 -227.44,83.94 -358.39,112.36 -28.43,130.96 -66.49,251.31 -112.37,358.4 193.1,66.04 367.49,77.95 500.9,30.14 z m 462.41,-919.74 c -64.6,151.32 -214.66,285.76 -424.81,387.95 76.35,220.86 87.38,422.03 26.04,574.69 l -5.94,14.79 -14.8,5.95 c -152.66,61.33 -353.84,50.3 -574.69,-26.04 -102.19,210.16 -236.64,360.21 -387.95,424.78 l -14.67,6.26 -14.67,-6.26 c -151.31,-64.58 -285.76,-214.63 -387.94,-424.79 -220.86,76.35 -422.04,87.38 -574.7,26.05 l -14.79,-5.95 -5.95,-14.79 c -61.33,-152.66 -50.3,-353.83 26.05,-574.69 -210.16,-102.19 -360.21,-236.63 -424.78,-387.94 l -6.26,-14.67 6.26,-14.67 c 64.57,-151.32 214.62,-285.77 424.78,-387.95 -76.35,-220.86 -87.38,-422.03 -26.05,-574.69 l 5.95,-14.8 14.79,-5.95 c 152.68,-61.34 353.85,-50.3 574.7,26.04 102.19,-210.15 236.63,-360.2 387.94,-424.77 l 14.67,-6.26 14.67,6.26 c 151.32,64.58 285.78,214.64 387.96,424.81 125.18,-43.27 244.06,-65.65 351.34,-65.65 81.97,0 157.21,13.01 223.33,39.57 l 14.8,5.95 5.95,14.8 c 61.33,152.66 50.3,353.83 -26.04,574.69 210.16,102.18 360.21,236.63 424.81,387.94 l 6.2,14.67 -6.2,14.67"
   inkscape:connector-curvature="0" /><g
   id="g11206"
   style="fill:#ff8360"><path
     id="path92"
     style="fill:#ff8360;fill-opacity:1;fill-rule:nonzero;stroke:none"
     d="m 425.965,3858.251 319.26,-85.54 c 141.89,-38.02 189.42,-215.39 85.55,-319.26 v 0 c -103.88,-103.87 -281.24,-56.35 -319.26,85.54 l -85.55,319.26"
     inkscape:connector-curvature="0" /><path
     id="path94"
     style="fill:#ff8360;fill-opacity:1;fill-rule:nonzero;stroke:none"
     d="m 3351.645,3858.251 -319.22,-85.54 c -141.89,-38.02 -189.41,-215.39 -85.54,-319.26 v 0 c 103.87,-103.87 281.26,-56.35 319.26,85.54 l 85.5,319.26"
     inkscape:connector-curvature="0" /><path
     id="path96"
     style="fill:#ff8360;fill-opacity:1;fill-rule:nonzero;stroke:none"
     d="m 425.965,932.531 319.26,85.55 c 141.89,38.02 189.42,215.38 85.55,319.26 v 0 c -103.88,103.87 -281.24,56.34 -319.26,-85.55 l -85.55,-319.26"
     inkscape:connector-curvature="0" /><path
     id="path98"
     style="fill:#ff8360;fill-opacity:1;fill-rule:nonzero;stroke:none"
     d="m 3351.645,932.531 -319.22,85.55 c -141.89,38.02 -189.41,215.38 -85.54,319.26 v 0 c 103.87,103.87 281.26,56.34 319.26,-85.55 l 85.5,-319.26"
     inkscape:connector-curvature="0" /></g></svg>
