<?xml version="1.0" encoding="UTF-8" standalone="no"?>
<svg
   xmlns:dc="http://purl.org/dc/elements/1.1/"
   xmlns:cc="http://creativecommons.org/ns#"
   xmlns:rdf="http://www.w3.org/1999/02/22-rdf-syntax-ns#"
   xmlns:svg="http://www.w3.org/2000/svg"
   xmlns="http://www.w3.org/2000/svg"
   xmlns:sodipodi="http://sodipodi.sourceforge.net/DTD/sodipodi-0.dtd"
   xmlns:inkscape="http://www.inkscape.org/namespaces/inkscape"
   width="89.799583mm"
   height="89.799583mm"
   viewBox="0 0 89.799583 89.799583"
   version="1.1"
   id="svg12590"
   inkscape:version="1.0.1 (3bc2e813f5, 2020-09-07)"
   sodipodi:docname="family_14.svg">
  <defs
     id="defs12584" />
  <sodipodi:namedview
     id="base"
     pagecolor="#ffffff"
     bordercolor="#666666"
     borderopacity="1.0"
     inkscape:pageopacity="0.0"
     inkscape:pageshadow="2"
     inkscape:zoom="2.5220978"
     inkscape:cx="169.7"
     inkscape:cy="169.7"
     inkscape:document-units="mm"
     inkscape:current-layer="layer1"
     inkscape:document-rotation="0"
     showgrid="false"
     fit-margin-top="0"
     fit-margin-left="0"
     fit-margin-right="0"
     fit-margin-bottom="0"
     inkscape:window-width="2560"
     inkscape:window-height="1566"
     inkscape:window-x="0"
     inkscape:window-y="0"
     inkscape:window-maximized="1" />
  <metadata
     id="metadata12587">
    <rdf:RDF>
      <cc:Work
         rdf:about="">
        <dc:format>image/svg+xml</dc:format>
        <dc:type
           rdf:resource="http://purl.org/dc/dcmitype/StillImage" />
        <dc:title></dc:title>
      </cc:Work>
    </rdf:RDF>
  </metadata>
  <g
     inkscape:label="Layer 1"
     inkscape:groupmode="layer"
     id="layer1"
     transform="translate(422.12003,293.60813)">
    <rect
       x="-422.12003"
       y="-293.60812"
       fill="#3069b3"
       width="89.799583"
       height="89.799583"
       id="rect5166"
       style="stroke-width:0.264583;fill:#ff8360" />
    <path
       fill="#ffffff"
       d="m -377.22024,-256.06375 c -4.04812,0 -7.35542,3.28083 -7.35542,7.35541 0,4.04813 3.28084,7.35542 7.35542,7.35542 4.07458,0 7.35542,-3.30729 7.35542,-7.38188 0,-4.04812 -3.28084,-7.32895 -7.35542,-7.32895 z m 0,13.14979 c -3.20146,0 -5.82083,-2.59292 -5.82083,-5.82084 0,-3.20145 2.59291,-5.82083 5.82083,-5.82083 3.20146,0 5.82083,2.59292 5.82083,5.82083 0,3.22792 -2.61937,5.82084 -5.82083,5.82084 z"
       id="path5168"
       style="stroke-width:0.264583;fill:#62466b" />
    <circle
       fill="#ffffff"
       cx="-377.22025"
       cy="-248.7348"
       r="3.6512499"
       id="circle5170"
       style="stroke-width:0.264583;fill:#62466b" />
    <g
       id="g13685"
       style="fill:#62466b">
      <path
         fill="#ffffff"
         d="m -377.22024,-260.11188 c -0.66146,-1.29646 -2.59292,-0.82021 -2.24896,0.60854 0.34396,1.42875 2.24896,2.43417 2.24896,2.43417 0,0 1.905,-1.00542 2.24896,-2.43417 0.34396,-1.40229 -1.5875,-1.87854 -2.24896,-0.60854 z"
         id="path5172"
         style="stroke-width:0.264583;fill:#62466b" />
      <path
         fill="#ffffff"
         d="m -365.84316,-248.7348 c 1.29646,-0.66145 0.82021,-2.59291 -0.60854,-2.24895 -1.42875,0.34395 -2.43416,2.24895 -2.43416,2.24895 0,0 1.00541,1.905 2.43416,2.24896 1.42875,0.34396 1.905,-1.5875 0.60854,-2.24896 z"
         id="path5176"
         style="stroke-width:0.264583;fill:#62466b" />
      <path
         fill="#ffffff"
         d="m -377.22024,-237.33125 c 0.66146,1.29645 2.59292,0.8202 2.24896,-0.60855 -0.34396,-1.42875 -2.24896,-2.43416 -2.24896,-2.43416 0,0 -1.905,1.00541 -2.24896,2.43416 -0.34396,1.4023 1.5875,1.87855 2.24896,0.60855 z"
         id="path5180"
         style="stroke-width:0.264583;fill:#62466b" />
      <path
         fill="#ffffff"
         d="m -388.59732,-248.7348 c -1.29646,0.66146 -0.82021,2.59292 0.60854,2.24896 1.42875,-0.34396 2.43417,-2.24896 2.43417,-2.24896 0,0 -1.00542,-1.905 -2.43417,-2.24895 -1.42875,-0.3175 -1.87854,1.61395 -0.60854,2.24895 z"
         id="path5184"
         style="stroke-width:0.264583;fill:#62466b" />
    </g>
    <g
       id="g13691"
       style="fill:#bf9aca">
      <path
         fill="#ffffff"
         d="m -369.17691,-256.77813 c 0.4498,-1.37583 -1.24354,-2.40771 -2.01083,-1.16417 -0.76729,1.24355 -0.13229,3.3073 -0.13229,3.3073 0,0 2.06375,0.635 3.30729,-0.1323 1.24354,-0.74083 0.21167,-2.43416 -1.16417,-2.01083 z"
         id="path5174"
         style="stroke-width:0.264583;fill:#bf9aca" />
      <path
         fill="#ffffff"
         d="m -369.17691,-240.665 c 1.37584,0.44979 2.40771,-1.24355 1.16417,-2.01084 -1.24354,-0.76729 -3.30729,-0.13229 -3.30729,-0.13229 0,0 -0.635,2.06375 0.13229,3.30729 0.76729,1.21709 2.46063,0.18521 2.01083,-1.16416 z"
         id="path5178"
         style="stroke-width:0.264583;fill:#bf9aca" />
      <path
         fill="#ffffff"
         d="m -385.26357,-240.665 c -0.44979,1.37583 1.24354,2.4077 2.01083,1.16416 0.76729,-1.24354 0.13229,-3.30729 0.13229,-3.30729 0,0 -2.06375,-0.635 -3.30729,0.13229 -1.24354,0.76729 -0.21166,2.43417 1.16417,2.01084 z"
         id="path5182"
         style="stroke-width:0.264583;fill:#bf9aca" />
      <path
         fill="#ffffff"
         d="m -385.26357,-256.77813 c -1.37583,-0.44979 -2.40771,1.24354 -1.16417,2.01083 1.24354,0.7673 3.30729,0.1323 3.30729,0.1323 0,0 0.635,-2.06375 -0.13229,-3.3073 -0.74083,-1.21708 -2.46062,-0.21166 -2.01083,1.16417 z"
         id="path5186"
         style="stroke-width:0.264583;fill:#bf9aca" />
    </g>
    <circle
       fill="#ffffff"
       cx="-377.22025"
       cy="-248.7348"
       r="2.3018749"
       id="circle5188"
       style="stroke-width:0.264583;fill:#bf9aca" />
    <path
       fill="#ffffff"
       d="m -377.22024,-267.0175 c -10.10708,0 -18.30916,8.20208 -18.30916,18.30916 0,10.10709 8.20208,18.30917 18.30916,18.30917 10.10708,0 18.30917,-8.20208 18.30917,-18.30917 0,-10.10708 -8.20209,-18.30916 -18.30917,-18.30916 z m 14.68438,11.1125 c 0.635,0 1.1377,0.5027 1.1377,1.1377 0,0.635 -0.5027,1.13771 -1.1377,1.13771 -0.635,0 -1.13771,-0.50271 -1.13771,-1.13771 0,-0.635 0.50271,-1.1377 1.13771,-1.1377 z m -4.52438,-5.2123 h 2.2225 v 2.2225 h -2.2225 z m -4.84187,-3.06916 c 0.44979,-0.44979 1.16416,-0.44979 1.61395,0 0.4498,0.44979 0.4498,1.16416 0,1.61396 -0.44979,0.44979 -1.16416,0.44979 -1.61395,0 -0.4498,-0.4498 -0.4498,-1.16417 0,-1.61396 z m -5.31813,-2.06375 1.5875,1.5875 -1.5875,1.5875 -1.5875,-1.5875 z m -6.0325,1.69333 c 0.635,0 1.13771,0.50271 1.13771,1.13771 0,0.635 -0.50271,1.13771 -1.13771,1.13771 -0.635,0 -1.13771,-0.50271 -1.13771,-1.13771 0,-0.635 0.50271,-1.13771 1.13771,-1.13771 z m -6.35,3.43958 h 2.2225 v 2.2225 h -2.2225 z m -3.09562,5.45042 c 0.44979,-0.44979 1.16416,-0.44979 1.61396,0 0.44979,0.44979 0.44979,1.16417 0,1.61396 -0.4498,0.44979 -1.16417,0.44979 -1.61396,0 -0.44979,-0.42333 -0.44979,-1.16417 0,-1.61396 z m -2.03729,6.93208 1.5875,-1.5875 1.5875,1.5875 -1.5875,1.5875 z m 2.83104,7.19667 c -0.635,0 -1.13771,-0.50271 -1.13771,-1.13771 0,-0.635 0.50271,-1.13771 1.13771,-1.13771 0.635,0 1.13771,0.50271 1.13771,1.13771 0,0.635 -0.50271,1.13771 -1.13771,1.13771 z m 4.52437,5.21229 h -2.2225 v -2.24896 h 2.2225 z m 4.86833,3.06917 c -0.44979,0.44979 -1.16416,0.44979 -1.61395,0 -0.4498,-0.44979 -0.4498,-1.16417 0,-1.61396 0.44979,-0.44979 1.16416,-0.44979 1.61395,0 0.4498,0.44979 0.4498,1.16417 0,1.61396 z m 5.29167,2.06375 -1.5875,-1.5875 1.5875,-1.5875 1.5875,1.5875 z m 6.0325,-1.69333 c -0.635,0 -1.13771,-0.50271 -1.13771,-1.13771 0,-0.635 0.50271,-1.13771 1.13771,-1.13771 0.635,0 1.13771,0.50271 1.13771,1.13771 0.0265,0.635 -0.50271,1.13771 -1.13771,1.13771 z m 6.35,-3.43959 h -2.2225 v -2.24896 h 2.2225 z m -12.3825,1.32292 c -7.56708,0 -13.70541,-6.13833 -13.70541,-13.70542 0,-7.56708 6.13833,-13.70541 13.70541,-13.70541 7.56708,0 13.70542,6.13833 13.70542,13.70541 0,7.56709 -6.13834,13.70542 -13.70542,13.70542 z m 15.47813,-6.77333 c -0.4498,0.44979 -1.16417,0.44979 -1.61396,0 -0.44979,-0.4498 -0.44979,-1.16417 0,-1.61396 0.44979,-0.44979 1.16416,-0.44979 1.61396,0 0.44979,0.42333 0.44979,1.16416 0,1.61396 z m -1.11125,-6.95855 1.5875,-1.5875 1.5875,1.5875 -1.5875,1.5875 z"
       id="path5190"
       style="stroke-width:0.264583;fill:#0e402d" />
    <g
       id="g13651"
       style="fill:#62466b">
      <path
         fill="#ffffff"
         d="m -369.07107,-268.4198 h -17.145 v -0.8202 c 0,-0.0529 -0.13229,-6.05896 -4.25979,-6.58813 -1.13771,-0.13229 -2.01084,0.15875 -2.51354,0.87313 -0.50271,0.68791 -0.55563,1.71979 -0.18521,2.51354 0.18521,0.39687 0.58208,0.84666 1.29646,0.87312 0.635,0.0265 1.08479,-0.15875 1.27,-0.50271 0.15875,-0.26458 0.13229,-0.55562 0.0265,-0.71437 -0.0529,-0.0529 -0.0529,-0.0529 -0.10583,-0.0529 -0.44979,0.0529 -0.87312,-0.29104 -0.89958,-0.74083 -0.0529,-0.44979 0.29104,-0.87313 0.74083,-0.89958 0.66146,-0.0794 1.27,0.23812 1.64042,0.79375 0.44979,0.68791 0.47625,1.66687 0.0529,2.43416 -0.5027,0.89959 -1.50812,1.40229 -2.75166,1.37584 -1.19063,-0.0265 -2.19604,-0.68792 -2.72521,-1.77271 -0.66146,-1.32292 -0.52917,-3.01625 0.29104,-4.20688 0.50271,-0.71437 1.69333,-1.85208 4.07458,-1.56104 4.02167,0.50271 5.3975,4.65667 5.66209,7.38188 h 14.73729 c 0.26458,-2.72521 1.64041,-6.87917 5.66208,-7.38188 2.38125,-0.29104 3.57188,0.84667 4.07458,1.56104 0.84667,1.19063 0.9525,2.88396 0.29105,4.20688 -0.55563,1.11125 -1.56105,1.74625 -2.72521,1.77271 -1.24354,0.0265 -2.24896,-0.47625 -2.75167,-1.37584 -0.42333,-0.76729 -0.42333,-1.74625 0.0529,-2.43416 0.37041,-0.55563 0.97896,-0.87313 1.64041,-0.79375 0.4498,0.0529 0.79375,0.44979 0.74084,0.89958 -0.0529,0.44979 -0.44979,0.79375 -0.89959,0.74083 -0.0529,0 -0.0529,0 -0.10583,0.0529 -0.10583,0.15875 -0.13229,0.44979 0.0265,0.71437 0.18521,0.34396 0.635,0.52917 1.27,0.50271 0.71437,-0.0265 1.11125,-0.47625 1.29646,-0.87312 0.39687,-0.76729 0.3175,-1.79917 -0.18521,-2.51354 -0.50271,-0.71438 -1.37583,-1.00542 -2.51354,-0.87313 -4.1275,0.50271 -4.25979,6.50875 -4.25979,6.58813 v 0.8202 z"
         id="path5196"
         style="stroke-width:0.264583;fill:#62466b" />
      <path
         fill="#ffffff"
         d="m -357.50878,-240.55917 v -17.145 h 0.82021 c 0.0529,0 6.05896,-0.13229 6.58812,-4.25979 0.13229,-1.13771 -0.15875,-2.01084 -0.87312,-2.51354 -0.68792,-0.50271 -1.71979,-0.55563 -2.51354,-0.18521 -0.39688,0.18521 -0.84667,0.58208 -0.87313,1.29646 -0.0265,0.635 0.15875,1.08479 0.50271,1.27 0.26458,0.15875 0.55562,0.13229 0.71437,0.0265 0.0529,-0.0529 0.0529,-0.0529 0.0529,-0.10583 -0.0529,-0.44979 0.29104,-0.87312 0.74083,-0.89958 0.4498,-0.0265 0.87313,0.29104 0.89959,0.74083 0.0794,0.66146 -0.23813,1.27 -0.79375,1.64042 -0.68792,0.44979 -1.66688,0.47625 -2.43417,0.0529 -0.89958,-0.5027 -1.40229,-1.50812 -1.37583,-2.75166 0.0265,-1.19063 0.68791,-2.19604 1.77271,-2.72521 1.32291,-0.66146 3.01625,-0.52917 4.20687,0.29104 0.71438,0.50271 1.85208,1.69333 1.56104,4.07458 -0.50271,4.02167 -4.65666,5.3975 -7.38187,5.66209 v 14.73729 c 2.72521,0.26458 6.87916,1.64042 7.38187,5.66208 0.29104,2.38125 -0.84666,3.57188 -1.56104,4.07459 -1.19062,0.84666 -2.88396,0.9525 -4.20687,0.29104 -1.11125,-0.55563 -1.74625,-1.56104 -1.77271,-2.72521 -0.0265,-1.24354 0.47625,-2.24896 1.37583,-2.75167 0.76729,-0.42333 1.74625,-0.42333 2.43417,0.0529 0.55562,0.37042 0.87312,0.97896 0.79375,1.64042 -0.0529,0.44979 -0.44979,0.79375 -0.89959,0.74083 -0.44979,-0.0529 -0.79375,-0.44979 -0.74083,-0.89958 0,-0.0529 0,-0.0529 -0.0529,-0.10584 -0.15875,-0.10583 -0.44979,-0.13229 -0.71437,0.0265 -0.34396,0.18521 -0.52917,0.635 -0.50271,1.27 0.0265,0.71438 0.47625,1.11125 0.87313,1.29646 0.76729,0.39687 1.79916,0.3175 2.51354,-0.18521 0.71437,-0.50271 1.00541,-1.37583 0.87312,-2.51354 -0.50271,-4.1275 -6.50875,-4.25979 -6.58812,-4.25979 h -0.82021 z"
         id="path5210"
         style="stroke-width:0.264583;fill:#62466b" />
      <path
         fill="#ffffff"
         d="m -385.3694,-229.02334 h 17.14499 v 0.82021 c 0,0.0529 0.1323,6.05896 4.2598,6.58813 1.1377,0.13229 2.01083,-0.15875 2.51354,-0.87313 0.50271,-0.68792 0.55562,-1.71979 0.18521,-2.51354 -0.18521,-0.39688 -0.58209,-0.84667 -1.29646,-0.87313 -0.635,-0.0265 -1.08479,0.15875 -1.27,0.50271 -0.15875,0.26459 -0.13229,0.55563 -0.0265,0.71438 0.0529,0.0529 0.0529,0.0529 0.10583,0.0529 0.44979,-0.0529 0.87313,0.29105 0.89959,0.74084 0.0265,0.44979 -0.29105,0.87312 -0.74084,0.89958 -0.66146,0.0794 -1.27,-0.23812 -1.64041,-0.79375 -0.4498,-0.68792 -0.47625,-1.66687 -0.0529,-2.43417 0.50271,-0.89958 1.50812,-1.40229 2.75167,-1.37583 1.19062,0.0265 2.19604,0.68792 2.7252,1.77271 0.66146,1.32292 0.52917,3.01625 -0.29104,4.20687 -0.50271,0.71438 -1.69333,1.85209 -4.07458,1.56105 -4.02167,-0.50271 -5.3975,-4.65667 -5.66208,-7.38188 h -14.7373 c -0.26458,2.72521 -1.64041,6.87917 -5.66208,7.38188 -2.38125,0.29104 -3.57187,-0.84667 -4.07458,-1.56105 -0.84667,-1.19062 -0.9525,-2.88395 -0.29104,-4.20687 0.55562,-1.11125 1.56104,-1.74625 2.72521,-1.77271 1.24354,-0.0265 2.24895,0.47625 2.75166,1.37583 0.42334,0.7673 0.42334,1.74625 -0.0529,2.43417 -0.37042,0.55563 -0.97896,0.87313 -1.64042,0.79375 -0.44979,-0.0529 -0.79375,-0.44979 -0.74083,-0.89958 0.0529,-0.44979 0.44979,-0.79375 0.89958,-0.74084 0.0529,0 0.0529,0 0.10583,-0.0529 0.10584,-0.15875 0.13229,-0.44979 -0.0265,-0.71438 -0.1852,-0.34396 -0.635,-0.52916 -1.27,-0.50271 -0.71437,0.0265 -1.11125,0.47625 -1.29645,0.87313 -0.39688,0.76729 -0.3175,1.79917 0.1852,2.51354 0.50271,0.71438 1.37584,1.00542 2.51355,0.87313 4.1275,-0.50271 4.25979,-6.50875 4.25979,-6.58813 v -0.82021 z"
         id="path5224"
         style="stroke-width:0.264583;fill:#62466b" />
      <path
         fill="#ffffff"
         d="m -396.9317,-256.88396 v 17.145 h -0.8202 c -0.0529,0 -6.05896,0.13229 -6.58813,4.25979 -0.13229,1.13771 0.15875,2.01083 0.87313,2.51354 0.68791,0.50271 1.71979,0.55563 2.51354,0.18521 0.39687,-0.18521 0.84666,-0.58208 0.87312,-1.29646 0.0265,-0.635 -0.15875,-1.08479 -0.50271,-1.27 -0.26458,-0.15875 -0.55562,-0.13229 -0.71437,-0.0265 -0.0529,0.0529 -0.0529,0.0529 -0.0529,0.10584 0.0529,0.44979 -0.29104,0.87312 -0.74083,0.89958 -0.44979,0.0529 -0.87313,-0.29104 -0.89958,-0.74083 -0.0794,-0.66146 0.23812,-1.27 0.79375,-1.64042 0.68791,-0.44979 1.66687,-0.47625 2.43416,-0.0529 0.89959,0.50271 1.40229,1.50813 1.37584,2.75167 -0.0265,1.19062 -0.68792,2.19604 -1.77271,2.72521 -1.32292,0.66146 -3.01625,0.52916 -4.20688,-0.29104 -0.71437,-0.50271 -1.85208,-1.69334 -1.56104,-4.07459 0.50271,-4.02166 4.65667,-5.3975 7.38188,-5.66208 v -14.73729 c -2.72521,-0.26459 -6.87917,-1.64042 -7.38188,-5.66209 -0.29104,-2.38125 0.84667,-3.57187 1.56104,-4.07458 1.19063,-0.84667 2.88396,-0.9525 4.20688,-0.29104 1.11125,0.55562 1.74625,1.56104 1.77271,2.72521 0.0265,1.24354 -0.47625,2.24896 -1.37584,2.75166 -0.76729,0.42334 -1.74625,0.42334 -2.43416,-0.0529 -0.55563,-0.37042 -0.87313,-0.97896 -0.79375,-1.64042 0.0529,-0.44979 0.44979,-0.79375 0.89958,-0.74083 0.44979,0.0529 0.79375,0.44979 0.74083,0.89958 0,0.0529 0,0.0529 0.0529,0.10583 0.15875,0.10584 0.44979,0.1323 0.71437,-0.0265 0.34396,-0.18521 0.52917,-0.635 0.50271,-1.27 -0.0265,-0.71438 -0.47625,-1.11125 -0.87312,-1.29646 -0.76729,-0.39688 -1.79917,-0.3175 -2.51354,0.18521 -0.71438,0.5027 -1.00542,1.37583 -0.87313,2.51354 0.50271,4.1275 6.50875,4.25979 6.58813,4.25979 h 0.8202 z"
         id="path5238"
         style="stroke-width:0.264583;fill:#62466b" />
    </g>
    <g
       id="g13663"
       style="fill:#62466b">
      <path
         fill="#ffffff"
         d="m -373.56899,-278.07709 c -0.15875,-4.68312 -3.65125,-8.36083 -3.65125,-8.36083 0,0 -3.4925,3.70417 -3.65125,8.36083 -0.15875,4.68313 3.65125,5.79438 3.65125,5.79438 0,0 3.83646,-1.11125 3.65125,-5.79438 z m -3.65125,3.46604 c 0,0 -2.27542,-0.66145 -2.16958,-3.46604 0.10583,-2.77812 2.16958,-4.97416 2.16958,-4.97416 0,0 2.09021,2.19604 2.16958,4.97416 0.10584,2.80459 -2.16958,3.46604 -2.16958,3.46604 z"
         id="path5200"
         style="stroke-width:0.264583;fill:#62466b" />
      <path
         fill="#ffffff"
         d="m -347.85149,-245.05709 c 4.68313,-0.15875 8.36083,-3.65125 8.36083,-3.65125 0,0 -3.70416,-3.4925 -8.36083,-3.65125 -4.68312,-0.15875 -5.79437,3.65125 -5.79437,3.65125 0,0 1.11125,3.81 5.79437,3.65125 z m -3.46604,-3.67771 c 0,0 0.66146,-2.27541 3.46604,-2.16958 2.77813,0.10583 4.97417,2.16958 4.97417,2.16958 0,0 -2.19604,2.09021 -4.97417,2.16959 -2.80458,0.13229 -3.46604,-2.16959 -3.46604,-2.16959 z"
         id="path5214"
         style="stroke-width:0.264583;fill:#62466b" />
      <path
         fill="#ffffff"
         d="m -380.87149,-219.36605 c 0.15875,4.68313 3.65125,8.36084 3.65125,8.36084 0,0 3.4925,-3.70417 3.65125,-8.36084 0.15875,-4.68312 -3.65125,-5.79437 -3.65125,-5.79437 0,0 -3.81,1.11125 -3.65125,5.79437 z m 3.65125,-3.46604 c 0,0 2.27542,0.66146 2.16958,3.46604 -0.10583,2.77813 -2.16958,4.97417 -2.16958,4.97417 0,0 -2.09021,-2.19604 -2.16958,-4.97417 -0.10584,-2.80458 2.16958,-3.46604 2.16958,-3.46604 z"
         id="path5228"
         style="stroke-width:0.264583;fill:#62466b" />
      <path
         fill="#ffffff"
         d="m -406.56253,-252.38605 c -4.68312,0.15875 -8.36083,3.65125 -8.36083,3.65125 0,0 3.70416,3.4925 8.36083,3.65125 4.68313,0.15875 5.79438,-3.65125 5.79438,-3.65125 0,0 -1.13771,-3.81 -5.79438,-3.65125 z m 3.46604,3.65125 c 0,0 -0.66146,2.27542 -3.46604,2.16959 -2.77812,-0.10584 -4.97417,-2.16959 -4.97417,-2.16959 0,0 2.19605,-2.0902 4.97417,-2.16958 2.77813,-0.0794 3.46604,2.16958 3.46604,2.16958 z"
         id="path5242"
         style="stroke-width:0.264583;fill:#62466b" />
    </g>
    <g
       id="g13673"
       style="fill:#d7fdec">
      <path
         fill="#ffffff"
         d="m -381.77107,-277.12459 c -1.61396,-2.24896 -4.52438,-2.93687 -4.52438,-2.93687 0,0 -0.52916,2.96333 0.92605,5.31812 1.42874,2.35479 3.70416,1.66688 3.70416,1.66688 0,0 1.50813,-1.79917 -0.10583,-4.04813 z"
         id="path5202"
         style="stroke-width:0.264583;fill:#d7fdec" />
      <path
         fill="#ffffff"
         d="m -372.74878,-273.07646 c 0,0 2.24896,0.68791 3.70417,-1.66688 1.4552,-2.35479 0.92604,-5.31812 0.92604,-5.31812 0,0 -2.93688,0.68791 -4.52438,2.93687 -1.64041,2.24896 -0.10583,4.04813 -0.10583,4.04813 z"
         id="path5204"
         style="stroke-width:0.264583;fill:#d7fdec" />
      <path
         fill="#ffffff"
         d="m -348.80399,-253.28563 c 2.24896,-1.61396 2.93688,-4.52437 2.93688,-4.52437 0,0 -2.96334,-0.52917 -5.31813,0.92604 -2.35479,1.42875 -1.66687,3.70416 -1.66687,3.70416 0,0 1.7727,1.50813 4.04812,-0.10583 z"
         id="path5216"
         style="stroke-width:0.264583;fill:#d7fdec" />
      <path
         fill="#ffffff"
         d="m -352.87857,-244.26334 c 0,0 -0.68792,2.24896 1.66687,3.70417 2.35479,1.42875 5.31813,0.92604 5.31813,0.92604 0,0 -0.68792,-2.93687 -2.93688,-4.52437 -2.24896,-1.61396 -4.04812,-0.10584 -4.04812,-0.10584 z"
         id="path5218"
         style="stroke-width:0.264583;fill:#d7fdec" />
      <path
         fill="#ffffff"
         d="m -372.66941,-220.31855 c 1.61396,2.24896 4.52438,2.93688 4.52438,2.93688 0,0 0.52917,-2.96333 -0.92604,-5.31813 -1.42875,-2.35479 -3.70417,-1.66687 -3.70417,-1.66687 0,0 -1.48167,1.79917 0.10583,4.04812 z"
         id="path5230"
         style="stroke-width:0.264583;fill:#d7fdec" />
      <path
         fill="#ffffff"
         d="m -381.66524,-224.36667 c 0,0 -2.24896,-0.68792 -3.70416,1.66687 -1.42875,2.3548 -0.92605,5.31813 -0.92605,5.31813 0,0 2.93688,-0.68792 4.52438,-2.93688 1.61396,-2.24895 0.10583,-4.04812 0.10583,-4.04812 z"
         id="path5232"
         style="stroke-width:0.264583;fill:#d7fdec" />
      <path
         fill="#ffffff"
         d="m -405.61003,-244.1575 c -2.24896,1.61395 -2.93687,4.52437 -2.93687,4.52437 0,0 2.96333,0.52917 5.31812,-0.92604 2.35479,-1.45521 1.66688,-3.70417 1.66688,-3.70417 0,0 -1.79917,-1.50812 -4.04813,0.10584 z"
         id="path5244"
         style="stroke-width:0.264583;fill:#d7fdec" />
      <path
         fill="#ffffff"
         d="m -401.5619,-253.1798 c 0,0 0.68791,-2.24895 -1.66688,-3.70416 -2.35479,-1.45521 -5.31812,-0.92604 -5.31812,-0.92604 0,0 0.68791,2.93687 2.93687,4.52437 2.24896,1.5875 4.04813,0.10583 4.04813,0.10583 z"
         id="path5246"
         style="stroke-width:0.264583;fill:#d7fdec" />
    </g>
    <g
       id="g13657"
       style="fill:#bf9aca">
      <path
         fill="#ffffff"
         d="m -377.22024,-280.51125 c 0,0 -0.82021,0.87312 -0.84667,1.95791 -0.0265,1.11125 0.84667,1.37584 0.84667,1.37584 0,0 0.89958,-0.26459 0.84667,-1.37584 -0.0265,-1.08479 -0.84667,-1.95791 -0.84667,-1.95791 z"
         id="path5206"
         style="stroke-width:0.264583;fill:#bf9aca" />
      <path
         fill="#ffffff"
         d="m -345.44378,-248.7348 c 0,0 -0.87313,-0.8202 -1.95792,-0.84666 -1.11125,-0.0265 -1.37583,0.84666 -1.37583,0.84666 0,0 0.26458,0.89959 1.37583,0.84667 1.08479,-0.0265 1.95792,-0.84667 1.95792,-0.84667 z"
         id="path5220"
         style="stroke-width:0.264583;fill:#bf9aca" />
      <path
         fill="#ffffff"
         d="m -377.22024,-216.93188 c 0,0 0.82021,-0.87312 0.84667,-1.95792 0.0265,-1.11125 -0.84667,-1.37583 -0.84667,-1.37583 0,0 -0.89958,0.26458 -0.84667,1.37583 0.0265,1.0848 0.84667,1.95792 0.84667,1.95792 z"
         id="path5234"
         style="stroke-width:0.264583;fill:#bf9aca" />
      <path
         fill="#ffffff"
         d="m -408.9967,-248.7348 c 0,0 0.87313,0.82021 1.95792,0.84667 1.11125,0.0265 1.37583,-0.84667 1.37583,-0.84667 0,0 -0.26458,-0.89958 -1.37583,-0.84666 -1.08479,0.0265 -1.95792,0.84666 -1.95792,0.84666 z"
         id="path5248"
         style="stroke-width:0.264583;fill:#bf9aca" />
    </g>
    <g
       id="g13635"
       style="fill:#bf9aca">
      <path
         fill="#ffffff"
         d="m -396.11149,-267.62605 c 0,0 -17.09208,-10.6627 -14.2875,-14.2875 2.83104,-3.59833 14.2875,14.2875 14.2875,14.2875 z"
         id="path5252"
         style="stroke-width:0.264583;fill:#bf9aca" />
      <path
         fill="#ffffff"
         d="m -358.32899,-267.62605 c 0,0 10.66271,-17.09208 14.2875,-14.2875 3.62479,2.83105 -14.2875,14.2875 -14.2875,14.2875 z"
         id="path5274"
         style="stroke-width:0.264583;fill:#bf9aca" />
      <path
         fill="#ffffff"
         d="m -358.32899,-229.81709 c 0,0 17.09208,10.66271 14.2875,14.2875 -2.80458,3.59834 -14.2875,-14.2875 -14.2875,-14.2875 z"
         id="path5296"
         style="stroke-width:0.264583;fill:#bf9aca" />
      <path
         fill="#ffffff"
         d="m -396.11149,-229.81709 c 0,0 -10.66271,17.09209 -14.2875,14.2875 -3.62479,-2.80458 14.2875,-14.2875 14.2875,-14.2875 z"
         id="path5318"
         style="stroke-width:0.264583;fill:#bf9aca" />
    </g>
    <g
       id="g13645"
       style="fill:#62466b">
      <path
         fill="#ffffff"
         d="m -396.11149,-267.62605 c 0,0 -8.70479,-14.2875 -4.65666,-15.79562 4.04812,-1.50813 4.65666,15.79562 4.65666,15.79562 z"
         id="path5254"
         style="stroke-width:0.264583;fill:#62466b" />
      <path
         fill="#ffffff"
         d="m -396.11149,-267.62605 c 0,0 -14.2875,-8.70479 -15.79562,-4.65666 -1.50813,4.04812 15.79562,4.65666 15.79562,4.65666 z"
         id="path5256"
         style="stroke-width:0.264583;fill:#62466b" />
      <path
         fill="#ffffff"
         d="m -358.32899,-267.62605 c 0,0 14.2875,-8.70479 15.79563,-4.65666 1.50812,4.04812 -15.79563,4.65666 -15.79563,4.65666 z"
         id="path5276"
         style="stroke-width:0.264583;fill:#62466b" />
      <path
         fill="#ffffff"
         d="m -358.32899,-267.62605 c 0,0 8.70479,-14.2875 4.65667,-15.79562 -4.04813,-1.50813 -4.65667,15.79562 -4.65667,15.79562 z"
         id="path5278"
         style="stroke-width:0.264583;fill:#62466b" />
      <path
         fill="#ffffff"
         d="m -358.32899,-229.81709 c 0,0 8.70479,14.2875 4.65667,15.79563 -4.04813,1.50812 -4.65667,-15.79563 -4.65667,-15.79563 z"
         id="path5298"
         style="stroke-width:0.264583;fill:#62466b" />
      <path
         fill="#ffffff"
         d="m -358.32899,-229.81709 c 0,0 14.2875,8.70479 15.79563,4.65667 1.50812,-4.04813 -15.79563,-4.65667 -15.79563,-4.65667 z"
         id="path5300"
         style="stroke-width:0.264583;fill:#62466b" />
      <path
         fill="#ffffff"
         d="m -396.11149,-229.81709 c 0,0 -14.2875,8.70479 -15.79562,4.65667 -1.50813,-4.04813 15.79562,-4.65667 15.79562,-4.65667 z"
         id="path5320"
         style="stroke-width:0.264583;fill:#62466b" />
      <path
         fill="#ffffff"
         d="m -396.11149,-229.81709 c 0,0 -8.70479,14.2875 -4.65666,15.79563 4.04812,1.50812 4.65666,-15.79563 4.65666,-15.79563 z"
         id="path5322"
         style="stroke-width:0.264583;fill:#62466b" />
    </g>
    <g
       id="g13679"
       style="fill:#bf9aca">
      <circle
         fill="#ffffff"
         cx="-392.91003"
         cy="-264.39813"
         r="2.4077084"
         id="circle5260"
         style="stroke-width:0.264583;fill:#bf9aca" />
      <circle
         fill="#ffffff"
         cx="-361.53046"
         cy="-264.39813"
         r="2.4077084"
         id="circle5282"
         style="stroke-width:0.264583;fill:#bf9aca" />
      <circle
         fill="#ffffff"
         cx="-361.53046"
         cy="-233.045"
         r="2.4077084"
         id="circle5304"
         style="stroke-width:0.264583;fill:#bf9aca" />
      <circle
         fill="#ffffff"
         cx="-392.91003"
         cy="-233.045"
         r="2.4077084"
         id="circle5326"
         style="stroke-width:0.264583;fill:#bf9aca" />
    </g>
    <g
       id="g13629"
       style="fill:#62466b">
      <path
         fill="#ffffff"
         d="m -421.19399,-292.70854 c 0,0 -0.74083,13.65249 2.8575,13.36145 4.73604,-0.39687 -2.8575,-13.36145 -2.8575,-13.36145 z"
         id="path5262"
         style="stroke-width:0.264583;fill:#62466b" />
      <path
         fill="#ffffff"
         d="m -421.27336,-292.65563 c 0,0 13.6525,-0.74083 13.36146,2.8575 -0.39688,4.73604 -13.36146,-2.8575 -13.36146,-2.8575 z"
         id="path5264"
         style="stroke-width:0.264583;fill:#62466b" />
      <path
         fill="#ffffff"
         d="m -333.22003,-292.70854 c 0,0 -13.6525,-0.74084 -13.36146,2.85749 0.39688,4.73605 13.36146,-2.85749 13.36146,-2.85749 z"
         id="path5284"
         style="stroke-width:0.264583;fill:#62466b" />
      <path
         fill="#ffffff"
         d="m -333.29941,-292.76146 c 0,0 0.74084,13.6525 -2.8575,13.36146 -4.73604,-0.42334 2.8575,-13.36146 2.8575,-13.36146 z"
         id="path5286"
         style="stroke-width:0.264583;fill:#62466b" />
      <path
         fill="#ffffff"
         d="m -333.22003,-204.73459 c 0,0 0.74083,-13.6525 -2.8575,-13.36146 -4.73604,0.39688 2.8575,13.36146 2.8575,13.36146 z"
         id="path5306"
         style="stroke-width:0.264583;fill:#62466b" />
      <path
         fill="#ffffff"
         d="m -333.16711,-204.7875 c 0,0 -13.6525,0.74083 -13.36146,-2.8575 0.39687,-4.73605 13.36146,2.8575 13.36146,2.8575 z"
         id="path5308"
         style="stroke-width:0.264583;fill:#62466b" />
      <path
         fill="#ffffff"
         d="m -421.19399,-204.73459 c 0,0 13.6525,0.74084 13.36146,-2.8575 -0.42333,-4.73604 -13.36146,2.8575 -13.36146,2.8575 z"
         id="path5328"
         style="stroke-width:0.264583;fill:#62466b" />
      <path
         fill="#ffffff"
         d="m -421.14107,-204.68167 c 0,0 -0.74083,-13.6525 2.8575,-13.36146 4.73604,0.42333 -2.8575,13.36146 -2.8575,13.36146 z"
         id="path5330"
         style="stroke-width:0.264583;fill:#62466b" />
    </g>
    <g
       id="g13619"
       style="fill:#bf9aca">
      <path
         fill="#ffffff"
         d="m -421.27336,-292.65563 c 0,0 5.68854,10.39813 8.09625,7.99042 2.40771,-2.40771 -8.09625,-7.99042 -8.09625,-7.99042 z"
         id="path5266"
         style="stroke-width:0.264583;fill:#bf9aca" />
      <path
         fill="#ffffff"
         d="m -333.29941,-292.76146 c 0,0 -10.39812,5.68854 -7.99041,8.09625 2.40771,2.40771 7.99041,-8.09625 7.99041,-8.09625 z"
         id="path5288"
         style="stroke-width:0.264583;fill:#bf9aca" />
      <path
         fill="#ffffff"
         d="m -333.16711,-204.7875 c 0,0 -5.68855,-10.39813 -8.09625,-7.99042 -2.40771,2.40771 8.09625,7.99042 8.09625,7.99042 z"
         id="path5310"
         style="stroke-width:0.264583;fill:#bf9aca" />
      <path
         fill="#ffffff"
         d="m -421.14107,-204.68167 c 0,0 10.39812,-5.68854 7.99042,-8.09625 -2.40771,-2.40771 -7.99042,8.09625 -7.99042,8.09625 z"
         id="path5332"
         style="stroke-width:0.264583;fill:#bf9aca" />
    </g>
    <g
       id="g13697"
       style="fill:#d7fdec">
      <circle
         fill="#ffffff"
         cx="-411.85419"
         cy="-283.20999"
         r="1.2964584"
         id="circle5270"
         style="stroke-width:0.264583;fill:#d7fdec" />
      <circle
         fill="#ffffff"
         cx="-342.74503"
         cy="-283.34229"
         r="1.2964584"
         id="circle5292"
         style="stroke-width:0.264583;fill:#d7fdec" />
      <circle
         fill="#ffffff"
         cx="-342.58627"
         cy="-214.23312"
         r="1.2964584"
         id="circle5314"
         style="stroke-width:0.264583;fill:#d7fdec" />
      <circle
         fill="#ffffff"
         cx="-411.69543"
         cy="-214.10083"
         r="1.2964584"
         id="circle5336"
         style="stroke-width:0.264583;fill:#d7fdec" />
    </g>
  </g>
</svg>
