<?xml version="1.0" encoding="UTF-8" standalone="no"?>
<svg
   xmlns:dc="http://purl.org/dc/elements/1.1/"
   xmlns:cc="http://creativecommons.org/ns#"
   xmlns:rdf="http://www.w3.org/1999/02/22-rdf-syntax-ns#"
   xmlns:svg="http://www.w3.org/2000/svg"
   xmlns="http://www.w3.org/2000/svg"
   xmlns:sodipodi="http://sodipodi.sourceforge.net/DTD/sodipodi-0.dtd"
   xmlns:inkscape="http://www.inkscape.org/namespaces/inkscape"
   width="89.799583mm"
   height="89.799583mm"
   viewBox="0 0 89.799583 89.799583"
   version="1.1"
   id="svg9017"
   inkscape:version="1.0.1 (3bc2e813f5, 2020-09-07)"
   sodipodi:docname="family_11.svg">
  <defs
     id="defs9011" />
  <sodipodi:namedview
     id="base"
     pagecolor="#ffffff"
     bordercolor="#666666"
     borderopacity="1.0"
     inkscape:pageopacity="0.0"
     inkscape:pageshadow="2"
     inkscape:zoom="4.0542133"
     inkscape:cx="169.7"
     inkscape:cy="169.7"
     inkscape:document-units="mm"
     inkscape:current-layer="layer1"
     inkscape:document-rotation="0"
     showgrid="false"
     fit-margin-top="0"
     fit-margin-left="0"
     fit-margin-right="0"
     fit-margin-bottom="0"
     inkscape:window-width="2560"
     inkscape:window-height="1566"
     inkscape:window-x="0"
     inkscape:window-y="0"
     inkscape:window-maximized="1" />
  <metadata
     id="metadata9014">
    <rdf:RDF>
      <cc:Work
         rdf:about="">
        <dc:format>image/svg+xml</dc:format>
        <dc:type
           rdf:resource="http://purl.org/dc/dcmitype/StillImage" />
        <dc:title></dc:title>
      </cc:Work>
    </rdf:RDF>
  </metadata>
  <g
     inkscape:label="Layer 1"
     inkscape:groupmode="layer"
     id="layer1"
     transform="translate(60.774789,41.875981)">
    <rect
       x="-60.774788"
       y="-41.87598"
       fill="#3069b3"
       width="89.799583"
       height="89.799583"
       id="rect4688"
       style="stroke-width:0.264583;fill:#62466b" />
    <path
       fill="#ffffff"
       d="m 2.5400019,3.0238109 c 0,-10.1864582 -8.2549999,-18.4149999 -18.4149999,-18.4149999 -10.186458,0 -18.415,8.2550001 -18.415,18.4149999 0,10.1600001 8.255,18.4150001 18.415,18.4150001 10.16,0 18.4149999,-8.255 18.4149999,-18.4150001 z M 0.18521023,10.246936 -1.2964564,9.6383942 -0.87312309,8.5800609 0.60854356,9.1886025 Z M 1.7197935,3.5794359 H 0.13229357 V 2.4417276 H 1.7197935 Z M 0.1587519,-4.278689 0.58208523,-3.2203557 -0.87312309,-2.611814 -1.2964564,-3.6701473 Z m -3.9952083,-5.5562499 0.79375,0.79375 -1.11125,1.11125 -0.79375,-0.79375 z m -5.8472916,-3.6512501 1.0583333,0.423333 -0.6085416,1.481667 -1.0583337,-0.423333 z m -6.773333,-1.11125 h 1.137708 v 1.5875 h -1.137708 z m -5.662083,1.137708 0.608541,1.455209 -1.058333,0.423333 -0.608542,-1.455208 z m -5.820834,3.6247921 1.11125,1.11125 -0.79375,0.79375 -1.11125,-1.11125 z m -3.995208,5.6091666 1.481667,0.6085416 -0.423334,1.0583334 -1.481666,-0.6085417 z m -1.561042,6.6674999 h 1.5875 v 1.1377083 h -1.5875 z m 1.5875,7.8581254 -0.423333,-1.0583338 1.455208,-0.6085417 0.423334,1.0583333 z m 3.96875,5.556249 -0.79375,-0.79375 1.11125,-1.11125 0.79375,0.79375 z m 5.87375,3.65125 -1.058333,-0.423333 0.608542,-1.481667 1.058333,0.423334 z m 6.746875,1.11125 h -1.137708 v -1.5875 h 1.137708 z m 5.6885417,-1.137708 -0.6085417,-1.455208 1.0583334,-0.423334 0.6085416,1.455209 z m -6.2441667,-1.402292 c -8.334375,0 -15.08125,-6.746875 -15.08125,-15.0812494 0,-8.3343749 6.746875,-15.0812496 15.08125,-15.0812496 8.334375,0 15.08124991,6.7468747 15.08124991,15.0812496 0,8.3343744 -6.74687491,15.0812494 -15.08124991,15.0812494 z m 12.0385416,-2.2225 -1.11125,-1.11125 0.79375,-0.79375 1.11125,1.11125 z"
       id="path4690"
       style="stroke-width:0.264583;fill:#bf9aca" />
    <path
       fill="#ffffff"
       d="m -15.874998,-10.999106 c -7.725833,0 -13.996458,6.2706254 -13.996458,13.9964586 0,7.7258334 6.270625,13.9964584 13.996458,13.9964584 7.7258333,0 13.9964583,-6.270625 13.9964583,-13.9964584 0,-7.7258332 -6.270625,-13.9964586 -13.9964583,-13.9964586 z m 9.2339583,16.2718752 -9.2339583,-2.2754166 8.1227083,4.9212499 0.47625,3.6777085 -3.6777083,-0.47625 -4.92125,-8.1227084 2.275417,9.2339584 -2.275417,2.963333 -2.275417,-2.963333 2.275417,-9.2339584 -4.92125,8.1227084 -3.677708,0.47625 0.47625,-3.6512501 8.122708,-4.92125 -9.233958,2.2754167 -2.963333,-2.2754167 2.963333,-2.27541661 9.233958,2.27541661 -8.122708,-4.9477082 -0.47625,-3.6777083 3.677708,0.47625 4.92125,8.1227082 -2.275417,-9.2339582 2.275417,-2.9633333 2.275417,2.9633333 -2.275417,9.2339582 4.92125,-8.1227082 3.6777083,-0.47625 -0.47625,3.6777083 -8.1227083,4.9212499 9.2339583,-2.27541664 2.9633333,2.27541664 z"
       id="path4692"
       style="stroke-width:0.264583;fill:#ff8360" />
    <g
       id="g9860"
       style="fill:#ff8360">
      <path
         fill="#ffffff"
         d="m -15.874998,-20.100772 c -4.312708,0 -3.942292,4.471458 -3.942292,4.471458 1.455209,-0.502708 3.942292,-0.449791 3.942292,-0.449791 0,0 2.487083,-0.05292 3.942292,0.449791 0,-0.02646 0.343958,-4.471458 -3.942292,-4.471458 z"
         id="path4694"
         style="stroke-width:0.264583;fill:#ff8360" />
      <path
         fill="#ffffff"
         d="M 2.7781269,-0.94493902 C 3.2808352,0.5102693 3.2279185,2.9973526 3.2279185,2.9973526 c 0,0 0.052917,2.4870833 -0.4497916,3.9422916 0,0 4.4714582,0.3439583 4.4714582,-3.9422916 0,-4.2862499 -4.4714582,-3.94229162 -4.4714582,-3.94229162 z"
         id="path4698"
         style="stroke-width:0.264583;fill:#ff8360" />
      <path
         fill="#ffffff"
         d="m -15.874998,26.148394 c 4.312708,0 3.942292,-4.471458 3.942292,-4.471458 -1.455209,0.502708 -3.942292,0.449791 -3.942292,0.449791 0,0 -2.487083,0.05292 -3.942292,-0.449791 -0.02646,0 -0.370416,4.471458 3.942292,4.471458 z"
         id="path4702"
         style="stroke-width:0.264583;fill:#ff8360" />
      <path
         fill="#ffffff"
         d="m -34.528123,6.9661025 c -0.502708,-1.4552083 -0.449791,-3.9422916 -0.449791,-3.9422916 0,0 -0.05292,-2.48708327 0.449791,-3.94229158 0,0 -4.471458,-0.34395832 -4.471458,3.94229158 0,4.28625 4.471458,3.9422916 4.471458,3.9422916 z"
         id="path4706"
         style="stroke-width:0.264583;fill:#ff8360" />
    </g>
    <g
       id="g9866"
       style="fill:#d7fdec">
      <path
         fill="#ffffff"
         d="m -2.3812481,-10.496397 c 0,0 1.79916667,1.7197914 2.48708333,3.1220831 0,0 3.41312497,-2.9104171 0.37041666,-5.9531251 -3.04270829,-3.042708 -5.95312489,0.370417 -5.95312489,0.370417 1.4022916,0.661458 3.0956249,2.460625 3.0956249,2.460625 z"
         id="path4696"
         style="stroke-width:0.264583;fill:#d7fdec" />
      <path
         fill="#ffffff"
         d="M 0.47625189,19.375061 C 3.5189602,16.332352 0.10583523,13.421936 0.10583523,13.421936 c -0.66145832,1.402291 -2.48708333,3.122083 -2.48708333,3.122083 0,0 -1.7197916,1.799167 -3.1220833,2.487083 0.026458,-0.02646 2.936875,3.386667 5.97958329,0.343959 z"
         id="path4700"
         style="stroke-width:0.264583;fill:#d7fdec" />
      <path
         fill="#ffffff"
         d="m -26.273123,19.004644 c -1.402291,-0.661458 -3.122083,-2.487083 -3.122083,-2.487083 0,0 -1.799167,-1.719792 -2.487083,-3.122084 0,0 -3.413125,2.910417 -0.370417,5.953125 3.069167,3.069167 5.979583,-0.343958 5.979583,-0.343958 z"
         id="path4704"
         style="stroke-width:0.264583;fill:#d7fdec" />
      <path
         fill="#ffffff"
         d="m -31.855831,-7.3743139 c 0.661458,-1.4022917 2.487083,-3.1220831 2.487083,-3.1220831 0,0 1.719792,-1.799167 3.122084,-2.487084 0,0 -2.910417,-3.413124 -5.953125,-0.370416 -3.069167,3.042708 0.343958,5.9795831 0.343958,5.9795831 z"
         id="path4708"
         style="stroke-width:0.264583;fill:#d7fdec" />
    </g>
    <g
       id="g9876"
       style="fill:#bf9aca">
      <path
         fill="#ffffff"
         d="m -25.638123,-13.486189 c 0,0 2.804584,-1.42875 4.894792,-1.931458 0,0 -1.084792,-2.460625 -3.571875,-1.27 -2.169583,1.031875 -1.322917,3.201458 -1.322917,3.201458 z"
         id="path4710"
         style="stroke-width:0.264583;fill:#bf9aca" />
      <path
         fill="#ffffff"
         d="m -11.112498,-15.549939 c 0,0 2.9897917,0.978958 4.841875,2.090208 0,0 0.9789583,-2.513541 -1.6139583,-3.439583 -2.2754167,-0.79375 -3.2279167,1.349375 -3.2279167,1.349375 z"
         id="path4712"
         style="stroke-width:0.264583;fill:#bf9aca" />
      <path
         fill="#ffffff"
         d="m 3.8364602,-5.4163973 c -1.031875,-2.1695833 -3.20145831,-1.3229166 -3.20145831,-1.3229166 0,0 1.42875001,2.8045833 1.93145831,4.8947916 -0.026458,0 2.4341666,-1.0847917 1.27,-3.571875 z"
         id="path4714"
         style="stroke-width:0.264583;fill:#bf9aca" />
      <path
         fill="#ffffff"
         d="M 4.0216685,10.987769 C 4.8418768,8.7123525 2.6987519,7.7863109 2.6987519,7.7863109 c 0,0 -0.9789584,2.9897921 -2.09020834,4.8418751 -0.0264583,-0.02646 2.48708334,0.9525 3.41312494,-1.640417 z"
         id="path4716"
         style="stroke-width:0.264583;fill:#bf9aca" />
      <path
         fill="#ffffff"
         d="m -6.1383314,19.507352 c 0,0 -2.8045833,1.42875 -4.8947916,1.931459 0,0 1.0847917,2.460625 3.571875,1.27 2.1695833,-1.031875 1.3229166,-3.201459 1.3229166,-3.201459 z"
         id="path4718"
         style="stroke-width:0.264583;fill:#bf9aca" />
      <path
         fill="#ffffff"
         d="m -20.637498,21.571102 c 0,0 -2.989791,-0.978958 -4.841875,-2.090208 0,0 -0.978958,2.513542 1.613959,3.439583 2.275416,0.79375 3.227916,-1.349375 3.227916,-1.349375 z"
         id="path4720"
         style="stroke-width:0.264583;fill:#bf9aca" />
      <path
         fill="#ffffff"
         d="m -35.586456,11.437561 c 1.031875,2.169583 3.201458,1.322916 3.201458,1.322916 0,0 -1.42875,-2.8045828 -1.931458,-4.8947911 0,0 -2.460625,1.0847916 -1.27,3.5718751 z"
         id="path4722"
         style="stroke-width:0.264583;fill:#bf9aca" />
      <path
         fill="#ffffff"
         d="m -35.771664,-4.9666056 c -0.820209,2.2754166 1.322916,3.2014583 1.322916,3.2014583 0,0 0.978959,-2.9897917 2.090209,-4.841875 0.02646,0.026458 -2.487084,-0.9525 -3.413125,1.6404167 z"
         id="path4724"
         style="stroke-width:0.264583;fill:#bf9aca" />
    </g>
    <g
       id="g9900"
       style="fill:#d7fdec">
      <path
         fill="#ffffff"
         d="m -26.273123,-23.540355 c 5.265208,-2.2225 1.137709,-6.746875 -0.9525,-5.423959 0,0 1.455209,0.873125 0.423334,1.772709 -1.005417,0.899583 -3.466042,-1.508125 -0.9525,-3.175 2.434166,-1.613959 6.323541,1.534583 11.377083,8.069791 0.238125,0.423334 0.423333,0.661459 0.423333,0.661459 0,-0.02646 0.02646,-0.02646 0.02646,-0.05292 0,0.02646 0.02646,0.02646 0.02646,0.05292 0,0 0,-0.02646 -0.02646,-0.07937 5.265209,-6.932084 9.3133337,-10.292292 11.8268753,-8.651875 2.5135416,1.666875 0.052917,4.074583 -0.9525,3.175 -1.0054167,-0.899584 0.4233333,-1.772709 0.4233333,-1.772709 -2.1166666,-1.296458 -6.2441666,3.227917 -0.9525,5.423959 5.2652083,2.2225 10.6097916,-8.334375 1.7727083,-10.768542 -4.9477082,-1.349375 -8.1491669,2.778125 -10.0541669,6.6675 0.3175,-2.751667 -0.02646,-6.323542 -2.143125,-10.4775 -2.06375,4.074583 -2.434166,7.567083 -2.169583,10.265833 -1.905,-3.836458 -5.08,-7.77875 -9.948333,-6.455833 -8.757708,2.434167 -3.413125,12.991042 1.852083,10.768542 z"
         id="path4726"
         style="stroke-width:0.264583;fill:#d7fdec" />
      <path
         fill="#ffffff"
         d="M 25.241252,2.9444359 C 21.166668,0.88068596 17.674168,0.5102693 14.975418,0.77485263 18.811877,-1.1301473 22.754168,-4.3051473 21.431252,-9.1734806 19.023543,-18.010564 8.4666685,-12.665981 10.66271,-7.4007723 c 2.2225,5.2652083 6.746875,1.1377083 5.423958,-0.9525 0,0 -0.873125,1.4552084 -1.772708,0.4233334 -0.899583,-1.031875 1.508125,-3.4660421 3.175,-0.9525 1.613958,2.4341666 -1.534583,6.3235416 -8.0697916,11.3770832 -0.4233333,0.238125 -0.6614583,0.4233333 -0.6614583,0.4233333 0.026458,0 0.026458,0.026458 0.052917,0.026458 -0.026458,0 -0.026458,0.026458 -0.052917,0.026458 0,0 0.026458,0 0.079375,-0.026458 6.9320829,5.2652083 10.2922919,9.3133334 8.6518749,11.8268754 -1.666875,2.513541 -4.074583,0.05292 -3.175,-0.9525 0.899583,-1.005417 1.772708,0.423333 1.772708,0.423333 1.296459,-2.116667 -3.227916,-6.2441668 -5.423958,-0.9525 -2.2224999,5.265208 8.334375,10.609792 10.768542,1.772708 1.349375,-4.947708 -2.778125,-8.1491664 -6.6675,-10.0541664 2.725208,0.3704167 6.297083,0.026458 10.4775,-2.0637497 z"
         id="path4732"
         style="stroke-width:0.264583;fill:#d7fdec" />
      <path
         fill="#ffffff"
         d="m -5.476873,29.561519 c -5.265208,2.2225 -1.1377083,6.746875 0.9525,5.423958 0,0 -1.4552084,-0.873125 -0.4233334,-1.772708 1.0054167,-0.899583 3.4660417,1.508125 0.9525,3.175 -2.4341666,1.613958 -6.3235416,-1.534583 -11.3770836,-8.069792 -0.238125,-0.423333 -0.423333,-0.661458 -0.423333,-0.661458 0,0.02646 -0.02646,0.02646 -0.02646,0.05292 0,-0.02646 -0.02646,-0.02646 -0.02646,-0.05292 0,0 0,0.02646 0.02646,0.07937 -5.265208,6.932083 -9.313333,10.292291 -11.826875,8.651875 -2.513542,-1.666875 -0.05292,-4.074583 0.9525,-3.175 1.005417,0.899583 -0.423333,1.772708 -0.423333,1.772708 2.116666,1.296459 6.244166,-3.227916 0.9525,-5.423958 -5.265209,-2.2225 -10.609792,8.334375 -1.772709,10.768541 4.947709,1.349375 8.149167,-2.778125 10.054167,-6.667499 -0.3175,2.751666 0.02646,6.323541 2.143125,10.477499 2.06375,-4.074583 2.434166,-7.567083 2.169583,-10.265833 1.905,3.836458 5.08,7.77875 9.9483333,6.455833 8.7577082,-2.434166 3.41312494,-12.991041 -1.8520833,-10.768541 z"
         id="path4738"
         style="stroke-width:0.264583;fill:#d7fdec" />
      <path
         fill="#ffffff"
         d="m -42.412706,13.395477 c -2.2225,-5.2652078 -6.746875,-1.137708 -5.423958,0.9525 0,0 0.873125,-1.455208 1.772708,-0.423333 0.899583,1.005417 -1.508125,3.466042 -3.175,0.9525 -1.613958,-2.434167 1.534584,-6.3235415 8.069792,-11.3770831 0.423333,-0.238125 0.661458,-0.4233333 0.661458,-0.4233333 -0.02646,0 -0.02646,-0.026458 -0.05292,-0.026458 0.02646,0 0.02646,-0.026458 0.05292,-0.026458 0,0 -0.02646,0 -0.07937,0.026458 -6.932083,-5.2652083 -10.292291,-9.3133333 -8.651875,-11.8268749 1.666875,-2.5135417 4.074583,-0.052917 3.175,0.9525 -0.899583,1.0054167 -1.772708,-0.4233333 -1.772708,-0.4233333 -1.296458,2.1166666 3.227916,6.2441666 5.423958,0.9525 2.2225,-5.2652084 -8.334375,-10.6097914 -10.768541,-1.7727083 -1.349375,4.9477082 2.778125,8.14916652 6.667499,10.05416649 -2.751666,-0.31749999 -6.323541,0.0264583 -10.477499,2.14312501 4.074583,2.0637499 7.567083,2.4341666 10.265833,2.1695833 -3.836458,1.9049999 -7.77875,5.0800001 -6.455833,9.9483331 2.407708,8.784166 12.964583,3.439583 10.768541,-1.852084 z"
         id="path4744"
         style="stroke-width:0.264583;fill:#d7fdec" />
    </g>
    <g
       id="g9926"
       style="fill:#ff8360">
      <circle
         fill="#ffffff"
         cx="-21.537085"
         cy="-22.746605"
         r="2.06375"
         id="circle4728"
         style="stroke-width:0.264583;fill:#ff8360" />
      <circle
         fill="#ffffff"
         cx="-10.318745"
         cy="-22.746605"
         r="2.06375"
         id="circle4730"
         style="stroke-width:0.264583;fill:#ff8360" />
      <circle
         fill="#ffffff"
         cx="9.8954124"
         cy="-2.6382723"
         r="2.06375"
         id="circle4734"
         style="stroke-width:0.264583;fill:#ff8360" />
      <circle
         fill="#ffffff"
         cx="9.8954124"
         cy="8.5800591"
         r="2.06375"
         id="circle4736"
         style="stroke-width:0.264583;fill:#ff8360" />
      <circle
         fill="#ffffff"
         cx="-10.239373"
         cy="28.767773"
         r="2.06375"
         id="circle4740"
         style="stroke-width:0.264583;fill:#ff8360" />
      <circle
         fill="#ffffff"
         cx="-21.457712"
         cy="28.767773"
         r="2.06375"
         id="circle4742"
         style="stroke-width:0.264583;fill:#ff8360" />
      <circle
         fill="#ffffff"
         cx="-41.645416"
         cy="8.6594391"
         r="2.06375"
         id="circle4746"
         style="stroke-width:0.264583;fill:#ff8360" />
      <circle
         fill="#ffffff"
         cx="-41.645416"
         cy="-2.5589006"
         r="2.06375"
         id="circle4748"
         style="stroke-width:0.264583;fill:#ff8360" />
    </g>
    <path
       fill="#ffffff"
       d="m -59.319581,-39.65348 c 0.02646,-0.264584 0.02646,-0.396875 0.02646,-0.396875 0,0 0,0.132291 -0.02646,0.396875 z"
       id="path4754"
       style="stroke-width:0.264583;fill:#ff8360" />
    <path
       fill="#ffffff"
       d="m -59.081456,-40.076814 c 0.449792,0.05292 0.899584,0.105834 1.349375,0.15875 -0.423333,-0.105833 -0.873125,-0.15875 -1.349375,-0.15875 z"
       id="path4758"
       style="stroke-width:0.264583;fill:#ff8360" />
    <path
       fill="#ffffff"
       d="m -59.028539,-37.933689 c -0.07937,-0.687916 -0.185208,-1.375833 -0.264583,-2.116666 0,0 0,0.15875 -0.02646,0.396875 0,0.370416 0.05292,1.005416 0.291042,1.719791 z"
       id="path4760"
       style="stroke-width:0.264583;fill:#ff8360" />
    <path
       fill="#ffffff"
       d="m 27.516668,-40.076814 c 0,0 0,0.15875 0.02646,0.396875 0,-0.238125 -0.02646,-0.396875 -0.02646,-0.396875 z"
       id="path4772"
       style="stroke-width:0.264583;fill:#ff8360" />
    <path
       fill="#ffffff"
       d="m 25.982085,-39.918064 c 0.423333,-0.05292 0.873125,-0.105833 1.349375,-0.15875 -0.47625,0 -0.926042,0.05292 -1.349375,0.15875 z"
       id="path4776"
       style="stroke-width:0.264583;fill:#ff8360" />
    <path
       fill="#ffffff"
       d="m 27.543127,-39.65348 c -0.02646,-0.264584 -0.02646,-0.396875 -0.02646,-0.396875 -0.07937,0.740833 -0.15875,1.455208 -0.264583,2.116666 0.264583,-0.714375 0.291042,-1.349375 0.291042,-1.719791 z"
       id="path4778"
       style="stroke-width:0.264583;fill:#ff8360" />
    <path
       fill="#ffffff"
       d="m -59.266664,46.097977 c 0,0 0,-0.15875 -0.02646,-0.396875 0,0.238125 0.02646,0.396875 0.02646,0.396875 z"
       id="path4790"
       style="stroke-width:0.264583;fill:#ff8360" />
    <path
       fill="#ffffff"
       d="m -57.758539,45.939227 c -0.423333,0.05292 -0.873125,0.105833 -1.349375,0.15875 0.502708,0 0.9525,-0.05292 1.349375,-0.15875 z"
       id="path4794"
       style="stroke-width:0.264583;fill:#ff8360" />
    <path
       fill="#ffffff"
       d="m -59.319581,45.674644 c 0.02646,0.264583 0.02646,0.396875 0.02646,0.396875 0.07937,-0.740834 0.15875,-1.455209 0.264583,-2.116667 -0.238125,0.740833 -0.291042,1.349375 -0.291042,1.719792 z"
       id="path4796"
       style="stroke-width:0.264583;fill:#ff8360" />
    <g
       id="g9910"
       style="fill:#0e402d">
      <path
         fill="#ffffff"
         d="m -57.758539,-39.918064 c 15.425208,1.957917 15.213541,6.879167 14.208125,7.963959 -1.058334,1.137708 -3.01625,-0.15875 -2.275417,-0.820209 0.767292,-0.687916 1.349375,0.370417 1.349375,0.370417 0,0 0.687917,-1.508125 -1.27,-2.248958 -1.957916,-0.740834 -3.995208,2.989791 -0.529167,5.027083 3.466042,2.037292 8.810625,-1.878542 5.3975,-6.799792 -3.413125,-4.92125 -18.388541,-3.704166 -18.388541,-3.704166 0.05292,0 0.105833,0 0.15875,0.02646 0.502708,0.02646 0.9525,0.07937 1.349375,0.185208 z"
         id="path4750"
         style="stroke-width:0.264583;fill:#0e402d" />
      <path
         fill="#ffffff"
         d="m -55.588956,-21.661814 c 4.894792,3.413125 8.810625,-1.931458 6.799792,-5.3975 -2.037292,-3.466041 -5.767917,-1.42875 -5.027083,0.529167 0.740833,1.957917 2.248958,1.27 2.248958,1.27 0,0 -1.058333,-0.608542 -0.370417,-1.349375 0.687917,-0.767292 1.957917,1.217083 0.820209,2.275417 -1.084792,1.005416 -5.900209,1.217083 -7.884584,-13.599584 -0.238125,-0.714375 -0.291041,-1.322916 -0.291041,-1.719791 -0.15875,2.407708 -0.714375,14.896041 3.704166,17.991666 z"
         id="path4752"
         style="stroke-width:0.264583;fill:#0e402d" />
      <path
         fill="#ffffff"
         d="m 14.499168,-29.599314 c 3.466042,-2.037291 1.42875,-5.767916 -0.529166,-5.027083 -1.957917,0.740833 -1.27,2.248958 -1.27,2.248958 0,0 0.608541,-1.058333 1.349375,-0.370416 0.767291,0.687916 -1.217084,1.957916 -2.275417,0.820208 -1.031875,-1.084792 -1.217083,-6.0325 14.208125,-7.963958 0.423333,-0.105834 0.873125,-0.15875 1.349375,-0.15875 0.05292,0 0.105833,0 0.15875,-0.02646 0,0 -14.975417,-1.217083 -18.3885415,3.704167 -3.413125,4.868333 1.9314585,8.810625 5.3974995,6.773334 z"
         id="path4768"
         style="stroke-width:0.264583;fill:#0e402d" />
      <path
         fill="#ffffff"
         d="m 27.252085,-37.933689 c -2.010833,14.790209 -6.799792,14.605 -7.884583,13.599584 -1.137709,-1.058334 0.15875,-3.01625 0.820208,-2.275417 0.687917,0.767292 -0.370417,1.349375 -0.370417,1.349375 0,0 1.508125,0.687917 2.248959,-1.27 0.740833,-1.957917 -2.989792,-3.995208 -5.027084,-0.529167 -2.037291,3.466042 1.878542,8.810625 6.799792,5.3975 4.418542,-3.095625 3.862917,-15.583958 3.730625,-17.991666 -0.02646,0.370416 -0.05292,1.005416 -0.3175,1.719791 z"
         id="path4770"
         style="stroke-width:0.264583;fill:#0e402d" />
      <path
         fill="#ffffff"
         d="m -46.275623,35.620477 c -3.466041,2.037292 -1.428749,5.767917 0.529167,5.027083 1.957917,-0.740833 1.27,-2.248958 1.27,-2.248958 0,0 -0.608542,1.058333 -1.349375,0.370417 -0.767292,-0.687917 1.217083,-1.957917 2.275417,-0.820209 1.031875,1.084792 1.217083,6.0325 -14.208125,7.963959 -0.423333,0.105833 -0.873125,0.15875 -1.349375,0.15875 -0.05292,0 -0.105833,0 -0.15875,0.02646 0,0 14.975416,1.217083 18.388541,-3.704167 3.439584,-4.868333 -1.905,-8.810624 -5.3975,-6.773333 z"
         id="path4786"
         style="stroke-width:0.264583;fill:#0e402d" />
      <path
         fill="#ffffff"
         d="m -59.028539,43.954852 c 2.010833,-14.790208 6.799792,-14.605 7.884583,-13.599583 1.137709,1.058333 -0.15875,3.01625 -0.820208,2.275417 -0.687917,-0.767292 0.370417,-1.349375 0.370417,-1.349375 0,0 -1.508125,-0.687917 -2.248959,1.27 -0.740833,1.957916 2.989792,3.995208 5.027084,0.529166 2.037291,-3.466041 -1.878542,-8.810625 -6.799792,-5.3975 -4.418542,3.095625 -3.862917,15.583958 -3.730625,17.991667 0.02646,-0.370417 0.07937,-0.978959 0.3175,-1.719792 z"
         id="path4788"
         style="stroke-width:0.264583;fill:#0e402d" />
      <path
         fill="#ffffff"
         d="M 25.982085,45.939227 C 10.556877,43.98131 10.768543,39.06006 11.77396,37.975269 c 1.058333,-1.137708 3.01625,0.15875 2.275417,0.820208 -0.767292,0.687917 -1.349375,-0.370417 -1.349375,-0.370417 0,0 -0.687917,1.508125 1.27,2.248959 1.957916,0.740833 3.995208,-2.989792 0.529166,-5.027083 -3.466041,-2.037292 -8.8106245,1.878541 -5.3974995,6.799791 3.4131245,4.894792 18.3885415,3.704167 18.3885415,3.704167 -0.05292,0 -0.105833,0 -0.15875,-0.02646 -0.47625,-0.02646 -0.926042,-0.07937 -1.349375,-0.185208 z"
         id="path4804"
         style="stroke-width:0.264583;fill:#0e402d" />
      <path
         fill="#ffffff"
         d="m 23.812502,27.682977 c -4.894792,-3.413125 -8.810625,1.931459 -6.799792,5.3975 2.037292,3.466042 5.767917,1.42875 5.027083,-0.529166 -0.740833,-1.957917 -2.248958,-1.27 -2.248958,-1.27 0,0 1.058333,0.608541 0.370417,1.349375 -0.687917,0.767291 -1.957917,-1.217084 -0.820209,-2.275417 1.084792,-1.005417 5.900209,-1.217083 7.884584,13.599583 0.238125,0.714375 0.291041,1.322917 0.291041,1.719792 0.185209,-2.407709 0.714375,-14.896042 -3.704166,-17.991667 z"
         id="path4806"
         style="stroke-width:0.264583;fill:#0e402d" />
    </g>
    <g
       id="g9916"
       style="fill:#ff8360">
      <path
         fill="#ffffff"
         d="m -52.678539,-33.224105 c 0,0 -0.820208,-5.662084 -5.08,-6.693959 -0.423333,-0.05292 -0.873125,-0.105833 -1.349375,-0.15875 -0.05292,0 -0.132292,0 -0.185208,0 0.07937,0.740834 0.15875,1.455209 0.264583,2.116667 0.555625,1.613958 2.090208,3.704167 6.35,4.736042 z"
         id="path4756"
         style="stroke-width:0.264583;fill:#ff8360" />
      <path
         fill="#ffffff"
         d="m 20.902085,-33.224105 c 4.259792,-1.031875 5.794375,-3.122084 6.35,-4.709584 0.07937,-0.687916 0.185208,-1.375833 0.264583,-2.116666 -0.05292,0 -0.132291,0 -0.185208,0 -0.449792,0.05292 -0.899583,0.105833 -1.349375,0.15875 -4.259792,1.005416 -5.08,6.6675 -5.08,6.6675 z"
         id="path4774"
         style="stroke-width:0.264583;fill:#ff8360" />
      <path
         fill="#ffffff"
         d="m -52.678539,39.245269 c -4.259792,1.031875 -5.794375,3.122083 -6.35,4.709583 -0.07937,0.687917 -0.185208,1.375833 -0.264583,2.116667 0.05292,0 0.132291,0 0.185208,0 0.449792,-0.05292 0.899583,-0.105834 1.349375,-0.15875 4.28625,-1.005417 5.08,-6.6675 5.08,-6.6675 z"
         id="path4792"
         style="stroke-width:0.264583;fill:#ff8360" />
      <path
         fill="#ffffff"
         d="m 20.902085,39.245269 c 0,0 0.820208,5.662083 5.08,6.693958 0.423333,0.05292 0.873125,0.105833 1.349375,0.15875 0.05292,0 0.132292,0 0.185208,0 -0.07937,-0.740833 -0.15875,-1.455208 -0.264583,-2.116667 -0.529167,-1.613958 -2.090208,-3.704166 -6.35,-4.736041 z"
         id="path4808"
         style="stroke-width:0.264583;fill:#ff8360" />
    </g>
    <path
       fill="#ffffff"
       d="m 27.543127,45.674644 c -0.02646,0.264583 -0.02646,0.396875 -0.02646,0.396875 0,0 0.02646,-0.132292 0.02646,-0.396875 z"
       id="path4810"
       style="stroke-width:0.264583;fill:#ff8360" />
    <path
       fill="#ffffff"
       d="m 27.33146,46.097977 c -0.449792,-0.05292 -0.899583,-0.105833 -1.349375,-0.15875 0.423333,0.105833 0.873125,0.15875 1.349375,0.15875 z"
       id="path4812"
       style="stroke-width:0.264583;fill:#ff8360" />
    <path
       fill="#ffffff"
       d="m 27.252085,43.954852 c 0.07937,0.687917 0.185208,1.375833 0.264583,2.116667 0,0 0,-0.15875 0.02646,-0.396875 0,-0.370417 -0.02646,-0.978959 -0.291042,-1.719792 z"
       id="path4814"
       style="stroke-width:0.264583;fill:#ff8360" />
    <g
       id="g9882"
       style="fill:#ff8360">
      <circle
         fill="#ffffff"
         cx="-35.242496"
         cy="-16.740564"
         r="2.6458333"
         id="circle4762"
         style="stroke-width:0.264583;fill:#ff8360" />
      <circle
         fill="#ffffff"
         cx="3.4925084"
         cy="-16.740564"
         r="2.6458333"
         id="circle4780"
         style="stroke-width:0.264583;fill:#ff8360" />
      <circle
         fill="#ffffff"
         cx="-35.242496"
         cy="22.761728"
         r="2.6458333"
         id="circle4798"
         style="stroke-width:0.264583;fill:#ff8360" />
      <circle
         fill="#ffffff"
         cx="3.4925084"
         cy="22.761728"
         r="2.6458333"
         id="circle4816"
         style="stroke-width:0.264583;fill:#ff8360" />
    </g>
    <g
       id="g9888"
       style="fill:#0e402d">
      <circle
         fill="#ffffff"
         cx="-40.296032"
         cy="-21.238482"
         r="1.7462499"
         id="circle4764"
         style="stroke-width:0.264583;fill:#0e402d" />
      <circle
         fill="#ffffff"
         cx="8.5460434"
         cy="-21.238482"
         r="1.7462499"
         id="circle4782"
         style="stroke-width:0.264583;fill:#0e402d" />
      <circle
         fill="#ffffff"
         cx="-40.296032"
         cy="27.259644"
         r="1.7462499"
         id="circle4800"
         style="stroke-width:0.264583;fill:#0e402d" />
      <circle
         fill="#ffffff"
         cx="8.5460434"
         cy="27.259644"
         r="1.7462499"
         id="circle4818"
         style="stroke-width:0.264583;fill:#0e402d" />
    </g>
    <g
       id="g9894"
       style="fill:#d7fdec">
      <circle
         fill="#ffffff"
         cx="-44.423542"
         cy="-24.757441"
         r="1.2435416"
         id="circle4766"
         style="stroke-width:0.264583;fill:#d7fdec" />
      <circle
         fill="#ffffff"
         cx="12.647085"
         cy="-24.757441"
         r="1.2435416"
         id="circle4784"
         style="stroke-width:0.264583;fill:#d7fdec" />
      <circle
         fill="#ffffff"
         cx="-44.423542"
         cy="30.778599"
         r="1.2435416"
         id="circle4802"
         style="stroke-width:0.264583;fill:#d7fdec" />
      <circle
         fill="#ffffff"
         cx="12.647085"
         cy="30.778599"
         r="1.2435416"
         id="circle4820"
         style="stroke-width:0.264583;fill:#d7fdec" />
    </g>
  </g>
</svg>
