<?xml version="1.0" encoding="UTF-8" standalone="no"?>
<svg
   xmlns:dc="http://purl.org/dc/elements/1.1/"
   xmlns:cc="http://creativecommons.org/ns#"
   xmlns:rdf="http://www.w3.org/1999/02/22-rdf-syntax-ns#"
   xmlns:svg="http://www.w3.org/2000/svg"
   xmlns="http://www.w3.org/2000/svg"
   xmlns:sodipodi="http://sodipodi.sourceforge.net/DTD/sodipodi-0.dtd"
   xmlns:inkscape="http://www.inkscape.org/namespaces/inkscape"
   width="89.799583mm"
   height="89.799583mm"
   viewBox="0 0 89.799583 89.799583"
   version="1.1"
   id="svg14657"
   inkscape:version="1.0.1 (3bc2e813f5, 2020-09-07)"
   sodipodi:docname="forest_16.svg">
  <defs
     id="defs14651" />
  <sodipodi:namedview
     id="base"
     pagecolor="#ffffff"
     bordercolor="#666666"
     borderopacity="1.0"
     inkscape:pageopacity="0.0"
     inkscape:pageshadow="2"
     inkscape:zoom="4.0542133"
     inkscape:cx="169.7"
     inkscape:cy="169.7"
     inkscape:document-units="mm"
     inkscape:current-layer="layer1"
     inkscape:document-rotation="0"
     showgrid="false"
     inkscape:window-width="2560"
     inkscape:window-height="1566"
     inkscape:window-x="0"
     inkscape:window-y="0"
     inkscape:window-maximized="1" />
  <metadata
     id="metadata14654">
    <rdf:RDF>
      <cc:Work
         rdf:about="">
        <dc:format>image/svg+xml</dc:format>
        <dc:type
           rdf:resource="http://purl.org/dc/dcmitype/StillImage" />
        <dc:title></dc:title>
      </cc:Work>
    </rdf:RDF>
  </metadata>
  <g
     inkscape:label="Layer 1"
     inkscape:groupmode="layer"
     id="layer1"
     transform="translate(106.88788,7.8581283)">
    <rect
       x="-106.88788"
       y="-7.8581281"
       fill="#3069b3"
       width="89.799583"
       height="89.799583"
       id="rect5436"
       style="stroke-width:0.264583;fill:#24a019" />
    <path
       fill="#ffffff"
       d="m -62.014562,19.870205 c -9.472084,0 -17.145,7.672916 -17.145,17.144999 0,9.472084 7.672916,17.145 17.145,17.145 9.472083,0 17.144999,-7.672916 17.144999,-17.145 0,-9.445624 -7.672916,-17.144999 -17.144999,-17.144999 z m 10.107083,5.715 c 0.370417,-0.370417 0.978958,-0.370417 1.349375,0 0.370416,0.370416 0.370416,0.978958 0,1.349375 -0.370417,0.370416 -0.978958,0.370416 -1.349375,0 -0.370417,-0.396875 -0.370417,-0.978959 0,-1.349375 z m -10.107083,-4.7625 c 0.529166,0 0.9525,0.423333 0.9525,0.9525 0,0.529166 -0.423334,0.9525 -0.9525,0.9525 -0.529167,0 -0.9525,-0.423334 -0.9525,-0.9525 0,-0.529167 0.449791,-0.9525 0.9525,-0.9525 z m -11.43,4.7625 c 0.370416,-0.370417 0.978958,-0.370417 1.349375,0 0.370416,0.370416 0.370416,0.978958 0,1.349375 -0.370417,0.370416 -0.978959,0.370416 -1.349375,0 -0.370417,-0.396875 -0.370417,-0.978959 0,-1.349375 z m -3.81,12.382499 c -0.529167,0 -0.9525,-0.423333 -0.9525,-0.9525 0,-0.529166 0.423333,-0.9525 0.9525,-0.9525 0.529166,0 0.9525,0.423334 0.9525,0.9525 0,0.529167 -0.423334,0.9525 -0.9525,0.9525 z m 5.132916,10.503959 c -0.370416,0.370416 -0.978958,0.370416 -1.349375,0 -0.370416,-0.370417 -0.370416,-0.978959 0,-1.349375 0.370417,-0.370417 0.978959,-0.370417 1.349375,0 0.370417,0.396875 0.370417,0.978958 0,1.349375 z m 10.107084,4.7625 c -0.529167,0 -0.9525,-0.423334 -0.9525,-0.9525 0,-0.529167 0.423333,-0.9525 0.9525,-0.9525 0.529166,0 0.9525,0.423333 0.9525,0.9525 0,0.529166 -0.423334,0.9525 -0.9525,0.9525 z m 11.456458,-4.7625 c -0.370417,0.370416 -0.978958,0.370416 -1.349375,0 -0.370417,-0.370417 -0.370417,-0.978959 0,-1.349375 0.370417,-0.370417 0.978958,-0.370417 1.349375,0 0.370416,0.396875 0.370416,0.978958 0,1.349375 z m -11.456458,2.06375 c -7.46125,0 -13.520209,-6.058959 -13.520209,-13.520209 0,-7.461249 6.058959,-13.520208 13.520209,-13.520208 7.46125,0 13.520208,6.058959 13.520208,13.520208 0,7.487709 -6.058958,13.520209 -13.520208,13.520209 z m 15.266458,-12.567709 c -0.529167,0 -0.9525,-0.423333 -0.9525,-0.9525 0,-0.529166 0.423333,-0.9525 0.9525,-0.9525 0.529166,0 0.9525,0.423334 0.9525,0.9525 -0.02646,0.529167 -0.449792,0.9525 -0.9525,0.9525 z"
       id="path5438"
       style="stroke-width:0.264583;fill:#00ff00" />
    <path
       fill="#ffffff"
       d="m -62.014562,24.764996 c -6.773334,0 -12.250209,5.476875 -12.250209,12.250208 0,6.773334 5.476875,12.250209 12.250209,12.250209 6.773333,0 12.250208,-5.476875 12.250208,-12.250209 0,-6.773333 -5.476875,-12.250208 -12.250208,-12.250208 z m 0,22.277917 c -5.529792,0 -10.027709,-4.497917 -10.027709,-10.027709 0,-5.529791 4.497917,-10.027708 10.027709,-10.027708 5.529791,0 10.027708,4.497917 10.027708,10.027708 0,5.529792 -4.471458,10.027709 -10.027708,10.027709 z"
       id="path5440"
       style="stroke-width:0.264583;fill:#4e5340" />
    <path
       fill="#ffffff"
       d="m -62.014562,29.553955 c -4.1275,0 -7.487709,3.360208 -7.487709,7.487708 0,4.1275 3.360209,7.487708 7.487709,7.487708 4.1275,0 7.487708,-3.360208 7.487708,-7.487708 0,-4.153958 -3.360208,-7.487708 -7.487708,-7.487708 z m 3.836458,7.911041 c 0.9525,1.217083 0.370417,2.037292 0.370417,2.037292 -0.449792,-1.190625 -1.693334,-1.825625 -2.725209,-2.169584 -0.132291,0.582084 -0.582083,1.031875 -1.164166,1.164167 0.3175,1.005417 0.9525,2.248958 2.169583,2.725208 0,0 -0.820208,0.582084 -2.037292,-0.370416 0,0 0.926042,0.899583 -0.449791,2.2225 -1.375834,-1.296459 -0.449792,-2.2225 -0.449792,-2.2225 -1.217083,0.9525 -2.037292,0.370416 -2.037292,0.370416 1.190625,-0.449791 1.825625,-1.693333 2.169584,-2.725208 -0.582084,-0.132292 -1.031875,-0.582083 -1.164167,-1.164167 -1.005417,0.3175 -2.248958,0.9525 -2.725208,2.169584 0,0 -0.582084,-0.820209 0.370416,-2.037292 0,0 -0.899583,0.926042 -2.2225,-0.449792 1.296459,-1.375833 2.2225,-0.449791 2.2225,-0.449791 -0.9525,-1.217084 -0.370416,-2.037292 -0.370416,-2.037292 0.449791,1.190625 1.693333,1.825625 2.725208,2.169583 0.132292,-0.582083 0.582083,-1.031875 1.164167,-1.164166 -0.3175,-1.005417 -0.9525,-2.248958 -2.169584,-2.725208 0,0 0.820209,-0.582084 2.037292,0.370416 0,0 -0.926042,-0.899583 0.449792,-2.2225 1.375833,1.296459 0.449791,2.2225 0.449791,2.2225 1.217084,-0.9525 2.037292,-0.370416 2.037292,-0.370416 -1.190625,0.449791 -1.825625,1.693333 -2.169583,2.725208 0.582083,0.132291 1.031875,0.582083 1.164166,1.164166 1.005417,-0.3175 2.248959,-0.9525 2.725209,-2.169583 0,0 0.582083,0.820208 -0.370417,2.037292 0,0 0.899583,-0.926042 2.2225,0.449791 -1.322917,1.402292 -2.2225,0.449792 -2.2225,0.449792 z"
       id="path5442"
       style="stroke-width:0.264583;fill:#fde7be" />
    <g
       id="g15619"
       style="fill:#00ff00">
      <path
         fill="#ffffff"
         d="m -60.188937,6.0589549 c 0,0 2.725208,-5.13291664 -1.799167,-10.2658332 -4.524375,5.13291656 -1.799167,10.2658332 -1.799167,10.2658332 -3.518958,-4.0216667 -8.016875,-3.5189583 -8.016875,-3.5189583 0.423334,4.7360416 5.000625,9.2604164 6.852709,10.3452084 1.852083,1.084791 2.989791,5.027083 2.989791,5.027083 0,0 1.137709,-3.915833 2.989792,-5.027083 1.852083,-1.11125 6.429375,-5.6356252 6.852708,-10.3452084 -0.05292,0 -4.550833,-0.5027084 -8.069791,3.5189583 z m -0.820209,5.7679161 c -0.608541,0.370417 -1.005416,1.666875 -1.005416,1.666875 0,0 -0.370417,-1.322916 -1.005417,-1.666875 -0.608542,-0.370416 -2.143125,-1.8785412 -2.275417,-3.4660412 0,0 2.116667,0.3439584 3.280834,1.6933332 1.164166,-1.3493748 3.280833,-1.6933332 3.280833,-1.6933332 -0.132292,1.5875 -1.666875,3.0956252 -2.275417,3.4660412 z"
         id="path5448"
         style="stroke-width:0.264583;fill:#00ff00" />
      <path
         fill="#ffffff"
         d="m -31.031854,38.840829 c 0,0 5.132916,2.725209 10.265833,-1.799166 -5.132917,-4.524375 -10.265833,-1.799167 -10.265833,-1.799167 4.021666,-3.518958 3.518958,-8.016875 3.518958,-8.016875 -4.736042,0.423334 -9.260417,5.000625 -10.345208,6.852709 -1.084792,1.852083 -5.027084,2.989791 -5.027084,2.989791 0,0 3.915834,1.137708 5.027084,2.989792 1.11125,1.852083 5.635625,6.429375 10.345208,6.852708 0,-0.05292 0.502708,-4.550833 -3.518958,-8.069792 z m -5.794375,-0.820208 c -0.370417,-0.608542 -1.666875,-1.005417 -1.666875,-1.005417 0,0 1.296458,-0.370416 1.666875,-1.005416 0.370416,-0.608542 1.878541,-2.143125 3.466041,-2.275417 0,0 -0.343958,2.116667 -1.693333,3.280833 1.349375,1.164167 1.693333,3.280834 1.693333,3.280834 -1.5875,-0.132292 -3.095625,-1.666875 -3.466041,-2.275417 z"
         id="path5460"
         style="stroke-width:0.264583;fill:#00ff00" />
      <path
         fill="#ffffff"
         d="m -63.813729,67.997912 c 0,0 -2.725208,5.132917 1.799167,10.265834 4.524375,-5.132917 1.799166,-10.265834 1.799166,-10.265834 3.518959,4.021667 8.016875,3.518959 8.016875,3.518959 -0.423333,-4.736042 -5.000625,-9.260417 -6.852708,-10.345209 -1.852083,-1.084791 -2.989792,-5.027083 -2.989792,-5.027083 0,0 -1.137708,3.915834 -2.989791,5.027083 -1.852084,1.11125 -6.429375,5.635625 -6.852709,10.345209 0.05292,0 4.550834,0.502708 8.069792,-3.518959 z m 0.820208,-5.767916 c 0.608542,-0.370417 1.005417,-1.666875 1.005417,-1.666875 0,0 0.370417,1.322916 1.005417,1.666875 0.608541,0.370416 2.143125,1.878541 2.275416,3.466041 0,0 -2.116666,-0.343958 -3.280833,-1.693333 -1.164167,1.349375 -3.280833,1.693333 -3.280833,1.693333 0.105833,-1.5875 1.640416,-3.095625 2.275416,-3.466041 z"
         id="path5472"
         style="stroke-width:0.264583;fill:#00ff00" />
      <path
         fill="#ffffff"
         d="m -92.970812,35.216038 c 0,0 -5.132917,-2.725208 -10.265838,1.799166 5.132921,4.524375 10.265838,1.799167 10.265838,1.799167 -4.021667,3.518958 -3.518958,8.016875 -3.518958,8.016875 4.736041,-0.423333 9.260416,-5.000625 10.345208,-6.852708 1.11125,-1.852084 5.027083,-2.989792 5.027083,-2.989792 0,0 -3.915833,-1.137708 -5.027083,-2.989791 -1.11125,-1.852084 -5.635625,-6.429375 -10.345208,-6.852709 0,0.05292 -0.502709,4.550834 3.518958,8.069792 z m 5.767917,0.820208 c 0.370416,0.608542 1.666875,1.005417 1.666875,1.005417 0,0 -1.296459,0.370416 -1.666875,1.005416 -0.370417,0.608542 -1.878542,2.143125 -3.466042,2.275417 0,0 0.343958,-2.116667 1.693333,-3.280833 -1.349375,-1.164167 -1.693333,-3.280833 -1.693333,-3.280833 1.5875,0.132291 3.095625,1.666874 3.466042,2.275416 z"
         id="path5484"
         style="stroke-width:0.264583;fill:#00ff00" />
    </g>
    <g
       id="g15629"
       style="fill:#4e5340">
      <path
         fill="#ffffff"
         d="m -62.014562,17.938746 c 0,0 -4.550834,-9.5514578 -11.721042,-7.434791 -7.170208,2.116666 -3.757083,8.255 -0.529167,7.434791 3.227917,-0.79375 1.984375,-4.312708 0.529167,-4.312708 0,-0.02646 3.783542,-2.645833 11.721042,4.312708 z"
         id="path5450"
         style="stroke-width:0.264583;fill:#4e5340" />
      <path
         fill="#ffffff"
         d="m -62.014562,17.938746 c 0,0 4.550833,-9.5514578 11.721041,-7.434791 7.170208,2.116666 3.757083,8.255 0.529167,7.434791 -3.227917,-0.79375 -1.984375,-4.312708 -0.529167,-4.312708 0.02646,-0.02646 -3.757083,-2.645833 -11.721041,4.312708 z"
         id="path5452"
         style="stroke-width:0.264583;fill:#4e5340" />
      <path
         fill="#ffffff"
         d="m -42.911646,37.015204 c 0,0 9.551458,-4.550833 7.434792,-11.721041 -2.116667,-7.170208 -8.255,-3.757083 -7.434792,-0.529167 0.820208,3.227917 4.312708,1.984375 4.312708,0.529167 0.02646,0 2.619375,3.783542 -4.312708,11.721041 z"
         id="path5462"
         style="stroke-width:0.264583;fill:#4e5340" />
      <path
         fill="#ffffff"
         d="m -42.911646,37.015204 c 0,0 9.551458,4.550834 7.434792,11.721042 -2.116667,7.170208 -8.255,3.757083 -7.434792,0.529167 0.820208,-3.227917 4.312708,-1.984375 4.312708,-0.529167 0.02646,0.02646 2.619375,-3.757083 -4.312708,-11.721042 z"
         id="path5464"
         style="stroke-width:0.264583;fill:#4e5340" />
      <path
         fill="#ffffff"
         d="m -62.014562,56.118121 c 0,0 4.550833,9.551458 11.721041,7.434791 7.170208,-2.116666 3.757083,-8.254999 0.529167,-7.434791 -3.227917,0.79375 -1.984375,4.312708 -0.529167,4.312708 0.02646,0.02646 -3.757083,2.645833 -11.721041,-4.312708 z"
         id="path5474"
         style="stroke-width:0.264583;fill:#4e5340" />
      <path
         fill="#ffffff"
         d="m -62.014562,56.118121 c 0,0 -4.550834,9.551458 -11.721042,7.434791 -7.170208,-2.116666 -3.757083,-8.254999 -0.529167,-7.434791 3.227917,0.79375 1.984375,4.312708 0.529167,4.312708 0,0.02646 3.783542,2.645833 11.721042,-4.312708 z"
         id="path5476"
         style="stroke-width:0.264583;fill:#4e5340" />
      <path
         fill="#ffffff"
         d="m -81.117479,37.015204 c 0,0 -9.551458,4.550834 -7.434791,11.721042 2.116666,7.170208 8.255,3.757083 7.434791,0.529167 -0.820208,-3.227917 -4.312708,-1.984375 -4.312708,-0.529167 0,0.02646 -2.619375,-3.757083 4.312708,-11.721042 z"
         id="path5486"
         style="stroke-width:0.264583;fill:#4e5340" />
      <path
         fill="#ffffff"
         d="m -81.117479,37.015204 c 0,0 -9.551458,-4.550833 -7.434791,-11.721041 2.116666,-7.170208 8.255,-3.757083 7.434791,-0.529167 -0.820208,3.227917 -4.312708,1.984375 -4.312708,0.529167 0,0 -2.619375,3.783542 4.312708,11.721041 z"
         id="path5488"
         style="stroke-width:0.264583;fill:#4e5340" />
    </g>
    <g
       id="g15639"
       style="fill:#fde7be">
      <path
         fill="#ffffff"
         d="m -62.014562,17.938746 c 0,0 -4.418542,-2.672291 -6.0325,-1.666875 -1.322917,0.820209 -0.3175,1.719792 -0.3175,1.719792 0,0 -1.137709,0.185208 -1.11125,1.878542 0,0 4.550833,-2.460625 7.46125,-1.931459 z"
         id="path5454"
         style="stroke-width:0.264583;fill:#fde7be" />
      <path
         fill="#ffffff"
         d="m -62.014562,17.938746 c 0,0 4.418541,-2.672291 6.0325,-1.666875 1.322916,0.820209 0.3175,1.719792 0.3175,1.719792 0,0 1.137708,0.185208 1.11125,1.878542 0.02646,0 -4.524375,-2.460625 -7.46125,-1.931459 z"
         id="path5456"
         style="stroke-width:0.264583;fill:#fde7be" />
      <path
         fill="#ffffff"
         d="m -42.911646,37.015204 c 0,0 2.672292,-4.418541 1.666875,-6.032499 -0.820208,-1.322917 -1.719792,-0.3175 -1.719792,-0.3175 0,0 -0.185208,-1.137709 -1.878541,-1.11125 -0.02646,0 2.460625,4.550833 1.931458,7.461249 z"
         id="path5466"
         style="stroke-width:0.264583;fill:#fde7be" />
      <path
         fill="#ffffff"
         d="m -42.911646,37.015204 c 0,0 2.672292,4.418542 1.666875,6.0325 -0.820208,1.322917 -1.719792,0.3175 -1.719792,0.3175 0,0 -0.185208,1.137709 -1.878541,1.11125 -0.02646,0.02646 2.460625,-4.524375 1.931458,-7.46125 z"
         id="path5468"
         style="stroke-width:0.264583;fill:#fde7be" />
      <path
         fill="#ffffff"
         d="m -62.014562,56.118121 c 0,0 4.418541,2.672292 6.0325,1.666875 1.322916,-0.820208 0.3175,-1.719792 0.3175,-1.719792 0,0 1.137708,-0.185208 1.11125,-1.878541 0.02646,0 -4.524375,2.460625 -7.46125,1.931458 z"
         id="path5478"
         style="stroke-width:0.264583;fill:#fde7be" />
      <path
         fill="#ffffff"
         d="m -62.014562,56.118121 c 0,0 -4.418542,2.672292 -6.0325,1.666875 -1.322917,-0.820208 -0.3175,-1.719792 -0.3175,-1.719792 0,0 -1.137709,-0.185208 -1.11125,-1.878541 0,0 4.550833,2.460625 7.46125,1.931458 z"
         id="path5480"
         style="stroke-width:0.264583;fill:#fde7be" />
      <path
         fill="#ffffff"
         d="m -81.117479,37.015204 c 0,0 -2.672291,4.418542 -1.666875,6.0325 0.820209,1.322917 1.719792,0.3175 1.719792,0.3175 0,0 0.185208,1.137709 1.878542,1.11125 0.02646,0.02646 -2.460625,-4.524375 -1.931459,-7.46125 z"
         id="path5490"
         style="stroke-width:0.264583;fill:#fde7be" />
      <path
         fill="#ffffff"
         d="m -81.117479,37.015204 c 0,0 -2.672291,-4.418541 -1.666875,-6.032499 0.820209,-1.322917 1.719792,-0.3175 1.719792,-0.3175 0,0 0.185208,-1.137709 1.878542,-1.11125 0.02646,0 -2.460625,4.550833 -1.931459,7.461249 z"
         id="path5492"
         style="stroke-width:0.264583;fill:#fde7be" />
    </g>
    <g
       id="g15613"
       style="fill:#4e5340">
      <path
         fill="#ffffff"
         d="m -79.159562,19.870205 c 0,0 1.957916,-19.81729173 -5.291667,-23.2833334 -7.77875,-3.7041666 -11.535833,4.524375 -7.725833,7.7787499 3.81,3.254375 6.693958,-1.2170833 5.318125,-2.8574999 -1.375833,-1.64041666 -3.545417,-0.60854168 -3.545417,0.079375 0,0 -0.635,-2.40770832 2.06375,-2.7252083 3.466042,-0.396875 7.884584,6.9056249 9.181042,21.0079167 z"
         id="path5496"
         style="stroke-width:0.264583;fill:#4e5340" />
      <path
         fill="#ffffff"
         d="m -79.159562,19.896663 c 0,0 -19.817292,1.957917 -23.283338,-5.291667 -3.70416,-7.7787495 4.52438,-11.5358328 7.778755,-7.7258328 3.254375,3.8099998 -1.217084,6.6939578 -2.8575,5.3181248 -1.640417,-1.375833 -0.608542,-3.5454165 0.07938,-3.5454165 0,0 -2.407709,-0.635 -2.725205,2.0637495 -0.39688,3.439584 6.905621,7.884584 21.007913,9.181042 z"
         id="path5502"
         style="stroke-width:0.264583;fill:#4e5340" />
      <path
         fill="#ffffff"
         d="m -44.869563,19.870205 c 0,0 19.817292,1.957916 23.283333,-5.291667 3.704167,-7.7787498 -4.524374,-11.5358331 -7.778749,-7.7258332 -3.254375,3.8100002 1.217083,6.6939582 2.8575,5.3181252 1.666875,-1.349375 0.608541,-3.5454168 -0.07937,-3.5454168 0,0 2.407708,-0.635 2.725208,2.0637498 0.423333,3.466042 -6.879167,7.911042 -21.007917,9.181042 z"
         id="path5518"
         style="stroke-width:0.264583;fill:#4e5340" />
      <path
         fill="#ffffff"
         d="m -44.869563,19.870205 c 0,0 -1.957916,-19.81729173 5.291667,-23.2833334 7.77875,-3.7041666 11.535833,4.524375 7.725833,7.7787499 -3.81,3.254375 -6.693958,-1.2170833 -5.318125,-2.8574999 1.375834,-1.64041666 3.545417,-0.60854168 3.545417,0.079375 0,0 0.635,-2.40770832 -2.06375,-2.7252083 -3.439583,-0.396875 -7.884583,6.9056249 -9.181042,21.0079167 z"
         id="path5524"
         style="stroke-width:0.264583;fill:#4e5340" />
      <path
         fill="#ffffff"
         d="m -44.869563,54.186663 c 0,0 -1.957916,19.817291 5.291667,23.283333 7.77875,3.704166 11.535833,-4.524375 7.725833,-7.77875 -3.81,-3.254375 -6.693958,1.217083 -5.318125,2.8575 1.375834,1.640416 3.545417,0.608541 3.545417,-0.07937 0,0 0.635,2.407708 -2.06375,2.725208 -3.439583,0.396875 -7.884583,-6.905625 -9.181042,-21.007916 z"
         id="path5540"
         style="stroke-width:0.264583;fill:#4e5340" />
      <path
         fill="#ffffff"
         d="m -44.869563,54.160204 c 0,0 19.817292,-1.957916 23.283333,5.291667 3.704167,7.77875 -4.524374,11.535833 -7.778749,7.725833 -3.254375,-3.81 1.217083,-6.693958 2.8575,-5.318125 1.666875,1.349375 0.608541,3.545417 -0.07937,3.545417 0,0 2.407708,0.635 2.725208,-2.06375 0.423333,-3.439583 -6.879167,-7.884583 -21.007917,-9.181042 z"
         id="path5546"
         style="stroke-width:0.264583;fill:#4e5340" />
      <path
         fill="#ffffff"
         d="m -79.159562,54.186663 c 0,0 -19.817292,-1.957917 -23.283338,5.291666 -3.70416,7.77875 4.52438,11.535833 7.778755,7.725833 3.254375,-3.81 -1.217084,-6.693958 -2.8575,-5.318125 -1.666875,1.349375 -0.608542,3.545417 0.07938,3.545417 0,0 -2.407709,0.635 -2.725205,-2.06375 -0.39688,-3.466041 6.905621,-7.911041 21.007913,-9.181041 z"
         id="path5562"
         style="stroke-width:0.264583;fill:#4e5340" />
      <path
         fill="#ffffff"
         d="m -79.159562,54.186663 c 0,0 1.957916,19.817291 -5.291667,23.283333 -7.77875,3.704166 -11.535833,-4.524375 -7.725833,-7.77875 3.81,-3.254375 6.693958,1.217083 5.318125,2.8575 -1.375833,1.640416 -3.545417,0.608541 -3.545417,-0.07937 0,0 -0.635,2.407708 2.06375,2.725208 3.466042,0.396875 7.911042,-6.905625 9.181042,-21.007916 z"
         id="path5568"
         style="stroke-width:0.264583;fill:#4e5340" />
    </g>
    <g
       id="g15673"
       style="fill:#511730">
      <path
         fill="#ffffff"
         d="m -79.159562,19.870205 c 0,0 -9.710208,-10.6362502 -6.773333,-12.5941668 3.4925,-2.3283333 6.773333,12.5941668 6.773333,12.5941668 z"
         id="path5498"
         style="stroke-width:0.264583;fill:#511730" />
      <path
         fill="#ffffff"
         d="m -79.159562,19.896663 c 0,0 -10.63625,-9.710208 -12.594167,-6.773333 -2.328333,3.4925 12.594167,6.773333 12.594167,6.773333 z"
         id="path5504"
         style="stroke-width:0.264583;fill:#511730" />
      <path
         fill="#ffffff"
         d="m -44.869563,19.870205 c 0,0 10.63625,-9.710209 12.594167,-6.773334 2.354792,3.4925 -12.594167,6.773334 -12.594167,6.773334 z"
         id="path5520"
         style="stroke-width:0.264583;fill:#511730" />
      <path
         fill="#ffffff"
         d="m -44.869563,19.870205 c 0,0 9.710209,-10.6362502 6.773334,-12.5941668 -3.4925,-2.3283333 -6.773334,12.5941668 -6.773334,12.5941668 z"
         id="path5526"
         style="stroke-width:0.264583;fill:#511730" />
      <path
         fill="#ffffff"
         d="m -44.869563,54.186663 c 0,0 9.710209,10.636249 6.773334,12.594166 -3.4925,2.328333 -6.773334,-12.594166 -6.773334,-12.594166 z"
         id="path5542"
         style="stroke-width:0.264583;fill:#511730" />
      <path
         fill="#ffffff"
         d="m -44.869563,54.160204 c 0,0 10.63625,9.710208 12.594167,6.773333 2.354792,-3.492499 -12.594167,-6.773333 -12.594167,-6.773333 z"
         id="path5548"
         style="stroke-width:0.264583;fill:#511730" />
      <path
         fill="#ffffff"
         d="m -79.159562,54.186663 c 0,0 -10.63625,9.710208 -12.594167,6.773333 -2.328333,-3.4925 12.594167,-6.773333 12.594167,-6.773333 z"
         id="path5564"
         style="stroke-width:0.264583;fill:#511730" />
      <path
         fill="#ffffff"
         d="m -79.159562,54.186663 c 0,0 -9.710208,10.636249 -6.773333,12.594166 3.4925,2.328333 6.773333,-12.594166 6.773333,-12.594166 z"
         id="path5570"
         style="stroke-width:0.264583;fill:#511730" />
    </g>
    <g
       id="g15651"
       style="fill:#00ff00">
      <path
         fill="#ffffff"
         d="m -86.48852,12.567705 c 0,0 -4.577292,-0.978959 -6.746875,-6.7468751 0.02646,0 4.392083,0.7408333 6.746875,6.7468751 z"
         id="path5508"
         style="stroke-width:0.264583;fill:#00ff00" />
      <path
         fill="#ffffff"
         d="m -37.540604,12.567705 c 0,0 0.978958,-4.5772918 6.746875,-6.7468751 0,0 -0.740834,4.3656251 -6.746875,6.7468751 z"
         id="path5530"
         style="stroke-width:0.264583;fill:#00ff00" />
      <path
         fill="#ffffff"
         d="m -37.540604,61.489162 c 0,0 4.577291,0.978959 6.746875,6.746875 0,0 -4.365625,-0.740833 -6.746875,-6.746875 z"
         id="path5552"
         style="stroke-width:0.264583;fill:#00ff00" />
      <path
         fill="#ffffff"
         d="m -86.48852,61.489162 c 0,0 -0.978959,4.577292 -6.746875,6.746875 0.02646,0 0.767291,-4.365625 6.746875,-6.746875 z"
         id="path5574"
         style="stroke-width:0.264583;fill:#00ff00" />
    </g>
    <g
       id="g15657"
       style="fill:#511730">
      <circle
         fill="#ffffff"
         cx="-96.807266"
         cy="2.2489581"
         r="1.9314584"
         id="circle5510"
         style="stroke-width:0.264583;fill:#511730" />
      <circle
         fill="#ffffff"
         cx="-27.221848"
         cy="2.2489581"
         r="1.9314584"
         id="circle5532"
         style="stroke-width:0.264583;fill:#511730" />
      <circle
         fill="#ffffff"
         cx="-27.221848"
         cy="71.807907"
         r="1.9314584"
         id="circle5554"
         style="stroke-width:0.264583;fill:#511730" />
      <circle
         fill="#ffffff"
         cx="-96.807266"
         cy="71.807907"
         r="1.9314584"
         id="circle5576"
         style="stroke-width:0.264583;fill:#511730" />
    </g>
    <g
       id="g15663"
       style="fill:#00ff00">
      <path
         fill="#ffffff"
         d="m -98.71227,0.3174966 c 0,0 -3.73063,0.18520833 -5.74146,-5.7414583 0,0 5.159376,1.190625 5.74146,5.7414583 z"
         id="path5512"
         style="stroke-width:0.264583;fill:#00ff00" />
      <path
         fill="#ffffff"
         d="m -25.290396,0.3174966 c 0,0 -0.185208,-3.730625 5.741458,-5.7414583 -0.02646,0 -1.190625,5.1858333 -5.741458,5.7414583 z"
         id="path5534"
         style="stroke-width:0.264583;fill:#00ff00" />
      <path
         fill="#ffffff"
         d="m -25.290396,73.739371 c 0,0 3.730625,-0.185209 5.741458,5.741458 -0.02646,0 -5.185833,-1.190625 -5.741458,-5.741458 z"
         id="path5556"
         style="stroke-width:0.264583;fill:#00ff00" />
      <path
         fill="#ffffff"
         d="m -98.71227,73.739371 c 0,0 0.185208,3.730625 -5.74146,5.741458 0,0 1.16417,-5.185833 5.74146,-5.741458 z"
         id="path5578"
         style="stroke-width:0.264583;fill:#00ff00" />
    </g>
    <g
       id="g15645"
       style="fill:#fde7be">
      <circle
         fill="#ffffff"
         cx="-76.646027"
         cy="22.383743"
         r="2.0372915"
         id="circle5514"
         style="stroke-width:0.264583;fill:#fde7be" />
      <circle
         fill="#ffffff"
         cx="-47.383118"
         cy="22.383743"
         r="2.0372915"
         id="circle5536"
         style="stroke-width:0.264583;fill:#fde7be" />
      <circle
         fill="#ffffff"
         cx="-47.356632"
         cy="51.673122"
         r="2.0372915"
         id="circle5558"
         style="stroke-width:0.264583;fill:#fde7be" />
      <circle
         fill="#ffffff"
         cx="-76.646027"
         cy="51.673122"
         r="2.0372915"
         id="circle5580"
         style="stroke-width:0.264583;fill:#fde7be" />
    </g>
  </g>
</svg>
