<?xml version="1.0" encoding="UTF-8" standalone="no"?>
<svg
   xmlns:dc="http://purl.org/dc/elements/1.1/"
   xmlns:cc="http://creativecommons.org/ns#"
   xmlns:rdf="http://www.w3.org/1999/02/22-rdf-syntax-ns#"
   xmlns:svg="http://www.w3.org/2000/svg"
   xmlns="http://www.w3.org/2000/svg"
   xmlns:sodipodi="http://sodipodi.sourceforge.net/DTD/sodipodi-0.dtd"
   xmlns:inkscape="http://www.inkscape.org/namespaces/inkscape"
   width="89.799583mm"
   height="89.799583mm"
   viewBox="0 0 89.799583 89.799583"
   version="1.1"
   id="svg6798"
   inkscape:version="1.0.1 (3bc2e813f5, 2020-09-07)"
   sodipodi:docname="forest_9.svg">
  <defs
     id="defs6792" />
  <sodipodi:namedview
     id="base"
     pagecolor="#ffffff"
     bordercolor="#666666"
     borderopacity="1.0"
     inkscape:pageopacity="0.0"
     inkscape:pageshadow="2"
     inkscape:zoom="4.0542133"
     inkscape:cx="169.7"
     inkscape:cy="169.7"
     inkscape:document-units="mm"
     inkscape:current-layer="layer1"
     inkscape:document-rotation="0"
     showgrid="false"
     fit-margin-top="0"
     fit-margin-left="0"
     fit-margin-right="0"
     fit-margin-bottom="0"
     inkscape:window-width="2560"
     inkscape:window-height="1566"
     inkscape:window-x="0"
     inkscape:window-y="0"
     inkscape:window-maximized="1" />
  <metadata
     id="metadata6795">
    <rdf:RDF>
      <cc:Work
         rdf:about="">
        <dc:format>image/svg+xml</dc:format>
        <dc:type
           rdf:resource="http://purl.org/dc/dcmitype/StillImage" />
        <dc:title></dc:title>
      </cc:Work>
    </rdf:RDF>
  </metadata>
  <g
     inkscape:label="Layer 1"
     inkscape:groupmode="layer"
     id="layer1"
     transform="translate(-42.090332,-56.511517)">
    <rect
       x="42.090332"
       y="56.511517"
       fill="#3069b3"
       width="89.799583"
       height="89.799583"
       id="rect4438"
       style="stroke-width:0.264583;fill:#4e5340" />
    <path
       fill="#ffffff"
       d="m 87.069498,126.65256 c 13.943542,0 25.241252,-11.29771 25.241252,-25.24125 0,-13.943543 -11.29771,-25.241251 -25.241252,-25.241251 -13.943541,0 -25.241249,11.297708 -25.241249,25.241251 0,13.94354 11.297708,25.24125 25.241249,25.24125 z m -17.039166,-8.22854 c -0.132292,-5.50334 3.81,-3.81 3.81,-3.81 0,0 1.693333,3.94229 -3.81,3.81 z m -0.370417,-17.01271 c 0,-9.604376 7.77875,-17.383126 17.383125,-17.383126 9.604375,0 17.38312,7.77875 17.38312,17.383126 0,9.60437 -7.778745,17.38312 -17.38312,17.38312 -9.577917,0 -17.383125,-7.77875 -17.383125,-17.38312 z m 6.323542,17.93875 c -0.291042,0.29104 -0.79375,0.29104 -1.11125,0 -0.291042,-0.29104 -0.291042,-0.79375 0,-1.11125 0.291042,-0.29104 0.79375,-0.29104 1.11125,0 0.291041,0.3175 0.291041,0.79375 0,1.11125 z m 1.878541,4.28625 c -2.222499,-5.02708 2.06375,-4.97417 2.06375,-4.97417 0,0 3.069167,2.98979 -2.06375,4.97417 z m 5.847292,-1.40229 c -0.15875,0.39687 -0.608542,0.58208 -1.005417,0.42333 -0.396875,-0.15875 -0.582083,-0.60854 -0.423333,-1.00542 0.15875,-0.39687 0.608542,-0.58208 1.005417,-0.42333 0.396875,0.13229 0.582083,0.60854 0.423333,1.00542 z m 3.360208,3.22791 c -3.96875,-3.81 0,-5.37104 0,-5.37104 0,0 3.96875,1.5875 0,5.37104 z m 4.074584,-2.75166 c -0.423334,0 -0.767292,-0.34396 -0.767292,-0.76729 0,-0.42334 0.343958,-0.7673 0.767292,-0.7673 0.423333,0 0.767291,0.34396 0.767291,0.7673 0,0.42333 -0.343958,0.76729 -0.767291,0.76729 z m 5.159375,0.92604 c -5.132917,-1.98438 -2.06375,-4.97417 -2.06375,-4.97417 0,0 4.259791,-0.0529 2.06375,4.97417 z m 2.69875,-4.1275 c -0.396875,0.15875 -0.846667,-0.0265 -1.005417,-0.42333 -0.15875,-0.39688 0.02646,-0.84667 0.423333,-1.00542 0.396875,-0.15875 0.846667,0.0265 1.005417,0.42333 0.15875,0.39688 -0.02646,0.84667 -0.423333,1.00542 z m 5.080003,-1.08479 c -5.503337,0.13229 -3.81,-3.81 -3.81,-3.81 0,0 3.94229,-1.69334 3.81,3.81 z m 0.92604,-4.84188 c -0.29104,0.29104 -0.79375,0.29104 -1.11125,0 -0.29104,-0.29104 -0.29104,-0.79375 0,-1.11125 0.29104,-0.29104 0.79375,-0.29104 1.11125,0 0.3175,0.3175 0.3175,0.82021 0,1.11125 z m -0.66146,-5.02708 c 0,0 2.98979,-3.06917 4.97417,2.06375 -5.02709,2.19604 -4.97417,-2.06375 -4.97417,-2.06375 z m 2.54,-3.36021 c 0.15875,-0.39687 0.60854,-0.58208 1.00542,-0.42333 0.39687,0.15875 0.58208,0.60854 0.42333,1.00541 -0.15875,0.39688 -0.60854,0.58209 -1.00542,0.42334 -0.42333,-0.15875 -0.60854,-0.60854 -0.42333,-1.00542 z m 4.25979,-3.78354 c -3.81,3.96875 -5.37104,0 -5.37104,0 0,0 1.56104,-3.995209 5.37104,0 z m -4.33917,-4.074584 c 0,-0.423334 0.34396,-0.767292 0.7673,-0.767292 0.42333,0 0.76729,0.343958 0.76729,0.767292 0,0.423333 -0.34396,0.767291 -0.76729,0.767291 -0.39688,0 -0.7673,-0.343958 -0.7673,-0.767291 z m 2.48709,-5.159375 c -1.98438,5.132916 -4.97417,2.06375 -4.97417,2.06375 0,0 -0.0529,-4.28625 4.97417,-2.06375 z m -4.10104,-2.69875 c 0.15875,0.396875 -0.0265,0.846666 -0.42334,1.005416 -0.39687,0.15875 -0.84666,-0.02646 -1.00541,-0.423333 -0.15875,-0.396875 0.0265,-0.846667 0.42333,-1.005417 0.37042,-0.15875 0.84667,0.02646 1.00542,0.423334 z m -1.11125,-5.106459 c 0.13229,5.503334 -3.81,3.81 -3.81,3.81 0,0 -1.666878,-3.942291 3.81,-3.81 z m -5.92667,-0.926041 c 0.291042,-0.291042 0.79375,-0.291042 1.11125,0 0.291042,0.291041 0.291042,0.79375 0,1.11125 -0.291042,0.291041 -0.79375,0.291041 -1.11125,0 -0.291042,-0.3175 -0.291042,-0.79375 0,-1.11125 z m -1.878542,-4.28625 c 2.2225,5.027083 -2.06375,4.974166 -2.06375,4.974166 0,0 -3.069166,-2.989791 2.06375,-4.974166 z m -5.847291,1.402292 c 0.15875,-0.396875 0.608541,-0.582084 1.005416,-0.423334 0.396875,0.15875 0.582084,0.608542 0.423334,1.005417 -0.15875,0.396875 -0.608542,0.582083 -1.005417,0.423333 -0.396875,-0.132291 -0.582083,-0.608541 -0.423333,-1.005416 z m -3.360209,-3.227917 c 3.96875,3.81 0,5.371042 0,5.371042 0,0 -3.96875,-1.5875 0,-5.371042 z m -4.074583,2.751667 c 0.423333,0 0.767292,0.343958 0.767292,0.767291 0,0.423334 -0.343959,0.767292 -0.767292,0.767292 -0.423333,0 -0.767292,-0.343958 -0.767292,-0.767292 0,-0.423333 0.343959,-0.767291 0.767292,-0.767291 z M 77.83554,79.159851 c 5.132917,1.984375 2.06375,4.974166 2.06375,4.974166 0,0 -4.259791,0.05292 -2.06375,-4.974166 z m -2.69875,4.1275 c 0.396875,-0.15875 0.846667,0.02646 1.005417,0.423333 0.15875,0.396875 -0.02646,0.846667 -0.423333,1.005417 -0.396875,0.15875 -0.846667,-0.02646 -1.005417,-0.423334 -0.15875,-0.396875 0.02646,-0.846666 0.423333,-1.005416 z m -5.106458,1.084791 c 5.503333,-0.132291 3.81,3.81 3.81,3.81 0,0 -3.915833,1.693334 -3.81,-3.81 z m -0.899583,4.841875 c 0.291041,-0.291041 0.79375,-0.291041 1.11125,0 0.291041,0.291042 0.291041,0.79375 0,1.11125 -0.291042,0.291042 -0.79375,0.291042 -1.11125,0 -0.3175,-0.3175 -0.3175,-0.820208 0,-1.11125 z m 0.661458,5.053542 c 0,0 -2.989792,3.069167 -4.974167,-2.06375 5.027084,-2.2225 4.974167,2.06375 4.974167,2.06375 z m -2.54,3.33375 c -0.15875,0.396875 -0.608542,0.582083 -1.005417,0.423333 -0.396875,-0.15875 -0.582083,-0.608541 -0.423333,-1.005416 0.15875,-0.396875 0.608542,-0.582084 1.005417,-0.423334 0.396875,0.15875 0.582083,0.608542 0.423333,1.005417 z m -4.259792,3.810001 c 3.81,-3.968751 5.371042,0 5.371042,0 0,0 -1.5875,3.96875 -5.371042,0 z m 4.312709,4.04812 c 0,0.42334 -0.343959,0.7673 -0.767292,0.7673 -0.423333,0 -0.767292,-0.34396 -0.767292,-0.7673 0,-0.42333 0.343959,-0.76729 0.767292,-0.76729 0.423333,0 0.767292,0.34396 0.767292,0.76729 z m -2.487084,5.15938 c 1.984375,-5.13292 4.974167,-2.06375 4.974167,-2.06375 0,0 0.07937,4.28625 -4.974167,2.06375 z m 4.1275,2.69875 c -0.15875,-0.39688 0.02646,-0.84667 0.423334,-1.00542 0.396875,-0.15875 0.846666,0.0265 1.005416,0.42334 0.15875,0.39687 -0.02646,0.84666 -0.423333,1.00541 -0.396875,0.15875 -0.846667,-0.0265 -1.005417,-0.42333 z"
       id="path4440"
       style="stroke-width:0.264583;fill:#24a019" />
    <path
       fill="#ffffff"
       d="m 87.069498,116.25443 c 8.202084,0 14.869582,-6.64104 14.869582,-14.86958 0,-8.228541 -6.64104,-14.869583 -14.869582,-14.869583 -8.202083,0 -14.869583,6.641042 -14.869583,14.869583 0,8.22854 6.6675,14.86958 14.869583,14.86958 z m -3.227916,-4.1275 -1.825625,2.19605 -0.211667,-2.77813 2.672292,-3.86292 z m 6.6675,0.15875 -0.846667,-4.6302 2.69875,3.59833 0.264583,2.83104 z m 6.693958,-5.60916 -3.862917,-2.67229 4.471459,0.635 2.196038,1.82562 z m 2.566458,-10.821461 -1.825625,2.116667 -4.630208,0.846666 3.598333,-2.69875 z m -9.472083,-5.185833 1.825625,-2.196042 0.211667,2.778125 -2.672292,3.862917 z m -6.6675,-0.15875 0.846667,4.630208 -2.69875,-3.598333 -0.264584,-2.831042 z m -5.318125,2.143125 c 2.989792,-3.175 8.73125,8.731249 8.73125,8.731249 0,0 -4.339167,-12.223749 0,-12.356041 4.339167,-0.132292 0,12.356041 0,12.356041 0,0 5.582708,-11.721041 8.73125,-8.731249 3.175,2.989791 -8.73125,8.731249 -8.73125,8.731249 0,0 12.22375,-4.339166 12.356042,0 0.132291,4.33917 -12.356042,0 -12.356042,0 0,0 11.721042,5.58271 8.73125,8.73125 -2.989792,3.175 -8.73125,-8.73125 -8.73125,-8.73125 0,0 4.339167,12.22375 0,12.35604 -4.339167,0.13229 0,-12.35604 0,-12.35604 0,0 -5.582708,11.72104 -8.73125,8.73125 -3.175,-2.98979 8.73125,-8.73125 8.73125,-8.73125 0,0 -12.22375,4.33917 -12.356041,0 -0.132292,-4.339166 12.356041,0 12.356041,0 0,0 -11.694583,-5.556249 -8.73125,-8.731249 z m -1.375833,3.466041 3.862916,2.672292 -4.471458,-0.635 -2.196041,-1.825625 z m -0.767292,8.704788 4.630208,-0.84666 -3.598333,2.69875 -2.831041,0.26458 z"
       id="path4442"
       style="stroke-width:0.264583;fill:#fde7be" />
    <g
       id="g5510"
       style="fill:#00ff00">
      <path
         fill="#ffffff"
         d="m 119.82491,103.68673 c 2.11667,0 2.56646,-1.69334 4.445,-2.27542 -1.87854,-0.58208 -2.32833,-2.275418 -4.445,-2.275418 -2.11666,0 -3.54541,2.275418 -3.54541,2.275418 0,0 1.42875,2.27542 3.54541,2.27542 z"
         id="path4444"
         style="stroke-width:0.264583;fill:#00ff00" />
      <path
         fill="#ffffff"
         d="m 89.344915,68.655893 c 0,-2.116667 -1.693333,-2.566459 -2.275417,-4.445 -0.582083,1.878541 -2.275416,2.328333 -2.275416,4.445 0,2.116666 2.275416,3.545416 2.275416,3.545416 0,0 2.275417,-1.455208 2.275417,-3.545416 z"
         id="path4452"
         style="stroke-width:0.264583;fill:#00ff00" />
      <path
         fill="#ffffff"
         d="m 84.794082,134.14027 c 0,2.11666 1.693333,2.56646 2.275416,4.445 0.582084,-1.87854 2.275417,-2.32834 2.275417,-4.445 0,-2.11667 -2.275417,-3.54542 -2.275417,-3.54542 0,0 -2.275416,1.45521 -2.275416,3.54542 z"
         id="path4460"
         style="stroke-width:0.264583;fill:#00ff00" />
      <path
         fill="#ffffff"
         d="m 54.314082,99.109434 c -2.116667,0 -2.566458,1.693336 -4.445,2.275416 1.878542,0.58208 2.328333,2.27542 4.445,2.27542 2.116667,0 3.545417,-2.27542 3.545417,-2.27542 0,0 -1.42875,-2.275416 -3.545417,-2.275416 z"
         id="path4468"
         style="stroke-width:0.264583;fill:#00ff00" />
    </g>
    <g
       id="g7513"
       style="fill:#24a019">
      <path
         fill="#ffffff"
         d="m 119.137,92.124434 c -4.81542,2.513542 -5.13292,9.286876 -5.13292,9.286876 0,0 0.29104,6.77333 5.13292,9.28687 4.81541,2.51355 4.28625,5.00063 4.28625,5.00063 0,0 1.87854,-3.59833 -0.44979,-5.05354 0,0 2.32833,1.27 3.91583,-0.52917 0,0 -0.97896,-2.38125 -5.13292,-2.43417 -4.15396,-0.0529 -5.50333,-6.27062 -5.50333,-6.27062 0,0 1.34937,-6.217709 5.50333,-6.270626 4.15396,-0.05292 5.13292,-2.434167 5.13292,-2.434167 -1.5875,-1.799166 -3.91583,-0.529166 -3.91583,-0.529166 2.32833,-1.42875 0.44979,-5.053542 0.44979,-5.053542 0,0 0.55562,2.487083 -4.28625,5.000625 z"
         id="path4446"
         style="stroke-width:0.264583;fill:#24a019" />
      <path
         fill="#ffffff"
         d="m 77.782623,69.317351 c 2.513542,4.815417 9.286875,5.132917 9.286875,5.132917 0,0 6.773334,-0.291042 9.286875,-5.132917 2.513542,-4.815417 5.000627,-4.28625 5.000627,-4.28625 0,0 -3.598335,-1.878542 -5.053543,0.449792 0,0 1.27,-2.328334 -0.529167,-3.915834 0,0 -2.38125,0.978959 -2.434167,5.132917 -0.05292,4.153958 -6.270625,5.503333 -6.270625,5.503333 0,0 -6.217708,-1.349375 -6.270625,-5.503333 -0.05292,-4.153958 -2.434166,-5.132917 -2.434166,-5.132917 -1.799167,1.5875 -0.529167,3.915834 -0.529167,3.915834 -1.42875,-2.328334 -5.053541,-0.449792 -5.053541,-0.449792 0,0 2.487083,-0.529167 5.000624,4.28625 z"
         id="path4454"
         style="stroke-width:0.264583;fill:#24a019" />
      <path
         fill="#ffffff"
         d="m 96.356373,133.47881 c -2.513541,-4.81542 -9.286875,-5.13292 -9.286875,-5.13292 0,0 -6.773333,0.29104 -9.286875,5.13292 -2.513541,4.84187 -5.000624,4.28625 -5.000624,4.28625 0,0 3.598333,1.87854 5.053541,-0.44979 0,0 -1.27,2.32833 0.529167,3.91583 0,0 2.38125,-0.97896 2.434166,-5.13292 0.05292,-4.15395 6.270625,-5.50333 6.270625,-5.50333 0,0 6.217709,1.34938 6.270625,5.50333 0.05292,4.15396 2.434167,5.13292 2.434167,5.13292 1.799167,-1.5875 0.529167,-3.91583 0.529167,-3.91583 1.42875,2.32833 5.053543,0.44979 5.053543,0.44979 0,0 -2.513543,0.52917 -5.000627,-4.28625 z"
         id="path4462"
         style="stroke-width:0.264583;fill:#24a019" />
      <path
         fill="#ffffff"
         d="m 55.001999,110.67173 c 4.815416,-2.51355 5.132916,-9.28688 5.132916,-9.28688 0,0 -0.291041,-6.773333 -5.132916,-9.286874 -4.815417,-2.513542 -4.28625,-5.000625 -4.28625,-5.000625 0,0 -1.878542,3.598333 0.449791,5.053541 0,0 -2.328333,-1.27 -3.915833,0.529167 0,0 0.978959,2.38125 5.132917,2.434167 4.153958,0.05292 5.503333,6.270624 5.503333,6.270624 0,0 -1.349375,6.21771 -5.503333,6.27063 -4.153958,0.0529 -5.132917,2.43416 -5.132917,2.43416 1.5875,1.79917 3.915833,0.52917 3.915833,0.52917 -2.328333,1.42875 -0.449791,5.05354 -0.449791,5.05354 0,0 -0.555625,-2.48708 4.28625,-5.00062 z"
         id="path4470"
         style="stroke-width:0.264583;fill:#24a019" />
    </g>
    <g
       id="g7523"
       style="fill:#511730">
      <path
         fill="#ffffff"
         d="m 111.43762,88.393809 c 0.39688,2.672292 3.175,1.613958 2.91042,0.264583 0,0 -1.13771,0.79375 -1.45521,-0.502708 -0.29104,-1.296458 1.905,-1.666875 2.35479,0.238125 0.44979,1.905 -1.27,7.434792 -1.27,7.434792 0,0 4.63021,-5.450417 2.8575,-8.73125 -1.71979,-3.280834 -5.79437,-1.375834 -5.3975,1.296458 z"
         id="path4448"
         style="stroke-width:0.264583;fill:#511730" />
      <path
         fill="#ffffff"
         d="m 116.88804,115.72527 c 1.77271,-3.28084 -2.8575,-8.73125 -2.8575,-8.73125 0,0 1.71979,5.50333 1.27,7.43479 -0.44979,1.905 -2.67229,1.56104 -2.35479,0.23812 0.29104,-1.29645 1.45521,-0.5027 1.45521,-0.5027 0.29104,-1.34938 -2.48709,-2.40771 -2.91042,0.26458 -0.44979,2.64583 3.62479,4.55083 5.3975,1.29646 z"
         id="path4450"
         style="stroke-width:0.264583;fill:#511730" />
      <path
         fill="#ffffff"
         d="m 74.051999,77.016726 c 2.672291,-0.396875 1.613958,-3.175 0.264583,-2.910417 0,0 0.79375,1.137709 -0.502708,1.455209 -1.296459,0.291041 -1.666875,-1.905 0.238125,-2.354792 1.905,-0.449792 7.434791,1.27 7.434791,1.27 0,0 -5.450416,-4.630208 -8.73125,-2.8575 -3.280833,1.719792 -1.375833,5.794375 1.296459,5.3975 z"
         id="path4456"
         style="stroke-width:0.264583;fill:#511730" />
      <path
         fill="#ffffff"
         d="m 92.652207,74.450268 c 0,0 5.503333,-1.719792 7.434793,-1.27 1.905,0.449791 1.56104,2.672291 0.23812,2.354791 -1.296455,-0.291041 -0.502705,-1.455208 -0.502705,-1.455208 -1.349375,-0.291042 -2.407708,2.487083 0.264585,2.910417 2.67229,0.396875 4.57729,-3.677709 1.29646,-5.423959 -3.280837,-1.74625 -8.731253,2.883959 -8.731253,2.883959 z"
         id="path4458"
         style="stroke-width:0.264583;fill:#511730" />
      <path
         fill="#ffffff"
         d="m 100.087,125.77943 c -2.672293,0.39688 -1.61396,3.175 -0.264585,2.91042 0,0 -0.79375,-1.13771 0.502705,-1.45521 1.29646,-0.29104 1.66688,1.905 -0.23812,2.35479 -1.905002,0.4498 -7.434793,-1.27 -7.434793,-1.27 0,0 5.450416,4.63021 8.731253,2.8575 3.28083,-1.71979 1.37583,-5.79437 -1.29646,-5.3975 z"
         id="path4464"
         style="stroke-width:0.264583;fill:#511730" />
      <path
         fill="#ffffff"
         d="m 81.48679,128.34589 c 0,0 -5.503333,1.71979 -7.434791,1.27 -1.905,-0.44979 -1.561042,-2.67229 -0.238125,-2.35479 1.296458,0.29104 0.502708,1.45521 0.502708,1.45521 1.349375,0.29104 2.407708,-2.48708 -0.264583,-2.91042 -2.672292,-0.39687 -4.577292,3.67771 -1.296459,5.42396 3.254375,1.74625 8.73125,-2.88396 8.73125,-2.88396 z"
         id="path4466"
         style="stroke-width:0.264583;fill:#511730" />
      <path
         fill="#ffffff"
         d="m 62.674915,114.42881 c -0.396875,-2.67229 -3.175,-1.61396 -2.910416,-0.26458 0,0 1.137708,-0.79375 1.455208,0.5027 0.291042,1.29646 -1.905,1.66688 -2.354792,-0.23812 -0.449791,-1.905 1.27,-7.43479 1.27,-7.43479 0,0 -4.630208,5.45041 -2.8575,8.73125 1.74625,3.25437 5.820834,1.34937 5.3975,-1.29646 z"
         id="path4472"
         style="stroke-width:0.264583;fill:#511730" />
      <path
         fill="#ffffff"
         d="m 59.790957,88.631934 c -0.291042,1.349375 2.487083,2.407708 2.910417,-0.264583 0.423333,-2.672292 -3.677709,-4.577292 -5.423959,-1.296459 -1.772708,3.280834 2.8575,8.73125 2.8575,8.73125 0,0 -1.719791,-5.503333 -1.27,-7.434791 0.449792,-1.905 2.672292,-1.561042 2.354792,-0.238125 -0.291042,1.322916 -1.42875,0.502708 -1.42875,0.502708 z"
         id="path4474"
         style="stroke-width:0.264583;fill:#511730" />
    </g>
    <g
       id="g7497"
       style="fill:#00ff00">
      <path
         fill="#ffffff"
         d="m 43.836582,76.778601 c 0,0 4.709584,-5.529792 3.439584,-12.117917 1.640416,1.561042 4.048124,3.175 7.619999,4.577292 0,0 -0.820208,-4.339167 -4.365625,-7.699375 6.535209,1.190625 11.985625,-3.466042 11.985625,-3.466042 H 43.836582 c 0,0 0,0.05292 0,0.185209 z"
         id="path4476"
         style="stroke-width:0.264583;fill:#00ff00" />
      <path
         fill="#ffffff"
         d="m 123.60846,61.565059 c -3.54542,3.360209 -4.36563,7.699375 -4.36563,7.699375 3.57188,-1.42875 5.97958,-3.042708 7.62,-4.577291 -1.27,6.614583 3.43958,12.117916 3.43958,12.117916 V 58.284226 c 0,-0.105833 0,-0.185208 0,-0.185208 h -18.70604 c 0,-0.02646 5.45042,4.630208 12.01209,3.466041 z"
         id="path4482"
         style="stroke-width:0.264583;fill:#00ff00" />
      <path
         fill="#ffffff"
         d="m 130.30241,126.01756 c 0,0 -4.70958,5.52979 -3.43958,12.11792 -1.64042,-1.56105 -4.04812,-3.175 -7.62,-4.5773 0,0 0.82021,4.33917 4.36563,7.69938 -6.53521,-1.19063 -11.98563,3.46604 -11.98563,3.46604 h 18.70604 c 0,0 0,-0.0529 0,-0.18521 v -18.52083 z"
         id="path4488"
         style="stroke-width:0.264583;fill:#00ff00" />
      <path
         fill="#ffffff"
         d="m 50.53054,141.2311 c 3.545417,-3.36021 4.365625,-7.69937 4.365625,-7.69937 -3.571875,1.42875 -5.979583,3.0427 -7.619999,4.57729 1.27,-6.61459 -3.439584,-12.11792 -3.439584,-12.11792 v 18.52083 c 0,0.10584 0,0.18521 0,0.18521 h 18.706042 c -0.02646,0.0265 -5.476875,-4.63021 -12.012084,-3.46604 z"
         id="path4494"
         style="stroke-width:0.264583;fill:#00ff00" />
    </g>
    <g
       id="g7507"
       style="fill:#24a019">
      <path
         fill="#ffffff"
         d="m 67.119915,69.872976 c 1.534584,-1.719792 0.582084,-4.736042 -2.487083,-4.1275 0,0 1.375833,-4.1275 5.609167,-5.926667 0,0 -7.805209,1.005417 -8.625417,6.0325 -0.820208,5.027084 3.96875,5.741459 5.503333,4.021667 z"
         id="path4478"
         style="stroke-width:0.264583;fill:#24a019" />
      <path
         fill="#ffffff"
         d="m 52.885332,75.667351 c -5.027083,0.820208 -6.0325,8.625416 -6.0325,8.625416 1.799167,-4.233333 5.926667,-5.609166 5.926667,-5.609166 -0.608542,3.069167 2.407708,4.021667 4.1275,2.487083 1.719791,-1.561041 1.005416,-6.323541 -4.021667,-5.503333 z"
         id="path4480"
         style="stroke-width:0.264583;fill:#24a019" />
      <path
         fill="#ffffff"
         d="m 109.47971,65.745476 c -3.06917,-0.608542 -4.02167,2.407708 -2.48709,4.1275 1.53459,1.719792 6.29709,1.005417 5.50334,-4.021667 -0.79375,-5.027083 -8.62542,-6.0325 -8.62542,-6.0325 4.23333,1.799167 5.60917,5.926667 5.60917,5.926667 z"
         id="path4484"
         style="stroke-width:0.264583;fill:#24a019" />
      <path
         fill="#ffffff"
         d="m 121.22721,75.667351 c -5.02709,-0.820208 -5.74146,3.96875 -4.02167,5.503333 1.71979,1.534584 4.73604,0.582084 4.1275,-2.487083 0,0 4.1275,1.375833 5.92667,5.609166 0,0 -1.00542,-7.805208 -6.0325,-8.625416 z"
         id="path4486"
         style="stroke-width:0.264583;fill:#24a019" />
      <path
         fill="#ffffff"
         d="m 106.99262,132.92318 c -1.53458,1.7198 -0.58208,4.73605 2.48709,4.1275 0,0 -1.37584,4.1275 -5.60917,5.92667 0,0 7.80521,-1.00542 8.62542,-6.0325 0.8202,-5.02708 -3.9423,-5.74146 -5.50334,-4.02167 z"
         id="path4490"
         style="stroke-width:0.264583;fill:#24a019" />
      <path
         fill="#ffffff"
         d="m 121.22721,127.12881 c 5.02708,-0.82021 6.0325,-8.62542 6.0325,-8.62542 -1.79917,4.23334 -5.92667,5.60917 -5.92667,5.60917 0.60854,-3.06917 -2.40771,-4.02167 -4.1275,-2.48708 -1.69333,1.56104 -1.00542,6.32354 4.02167,5.50333 z"
         id="path4492"
         style="stroke-width:0.264583;fill:#24a019" />
      <path
         fill="#ffffff"
         d="m 64.632832,137.05068 c 3.069167,0.60855 4.021667,-2.4077 2.487083,-4.1275 -1.534583,-1.71979 -6.297083,-1.00541 -5.503333,4.02167 0.820208,5.02708 8.625417,6.0325 8.625417,6.0325 -4.206875,-1.79917 -5.609167,-5.92667 -5.609167,-5.92667 z"
         id="path4496"
         style="stroke-width:0.264583;fill:#24a019" />
      <path
         fill="#ffffff"
         d="m 52.885332,127.12881 c 5.027083,0.82021 5.741458,-3.96875 4.021667,-5.50333 -1.719792,-1.53459 -4.736042,-0.58209 -4.1275,2.48708 0,0 -4.1275,-1.37583 -5.926667,-5.60917 0,0 1.005417,7.80521 6.0325,8.62542 z"
         id="path4498"
         style="stroke-width:0.264583;fill:#24a019" />
    </g>
  </g>
</svg>
