<?xml version="1.0" encoding="UTF-8" standalone="no"?>
<svg
   xmlns:dc="http://purl.org/dc/elements/1.1/"
   xmlns:cc="http://creativecommons.org/ns#"
   xmlns:rdf="http://www.w3.org/1999/02/22-rdf-syntax-ns#"
   xmlns:svg="http://www.w3.org/2000/svg"
   xmlns="http://www.w3.org/2000/svg"
   xmlns:sodipodi="http://sodipodi.sourceforge.net/DTD/sodipodi-0.dtd"
   xmlns:inkscape="http://www.inkscape.org/namespaces/inkscape"
   viewBox="321.145 827.711 3135.3702 3135.37"
   xml:space="preserve"
   version="1.1"
   id="svg4645"
   sodipodi:docname="machine_6.svg"
   width="3135.3701"
   height="3135.3701"
   inkscape:version="1.0.1 (3bc2e813f5, 2020-09-07)"><metadata
   id="metadata4651"><rdf:RDF><cc:Work
       rdf:about=""><dc:format>image/svg+xml</dc:format><dc:type
         rdf:resource="http://purl.org/dc/dcmitype/StillImage" /><dc:title></dc:title></cc:Work></rdf:RDF></metadata><defs
   id="defs4649" /><sodipodi:namedview
   pagecolor="#ffffff"
   bordercolor="#666666"
   borderopacity="1"
   objecttolerance="10"
   gridtolerance="10"
   guidetolerance="10"
   inkscape:pageopacity="0"
   inkscape:pageshadow="2"
   inkscape:window-width="1880"
   inkscape:window-height="1046"
   id="namedview4647"
   showgrid="false"
   fit-margin-top="0"
   fit-margin-left="0"
   fit-margin-right="0"
   fit-margin-bottom="0"
   inkscape:zoom="0.27301402"
   inkscape:cx="1567.6851"
   inkscape:cy="1567.6851"
   inkscape:window-x="40"
   inkscape:window-y="0"
   inkscape:window-maximized="1"
   inkscape:current-layer="svg4645"
   inkscape:document-rotation="0" />
	 <path
   id="path38"
   style="fill:#e94f37;fill-opacity:1;fill-rule:nonzero;stroke:none"
   d="M 3456.515,827.711 H 321.145 v 3135.37 h 3135.37 V 827.711"
   inkscape:connector-curvature="0" /><path
   id="path40"
   style="fill:#326273;fill-opacity:1;fill-rule:nonzero;stroke:none"
   d="m 1888.835,3714.201 c -245.65,0 -472.41,-265.86 -591.81,-693.83 l -7.23,-25.93 -25.94,-7.24 c -427.97,-119.4 -693.83,-346.17 -693.83,-591.81 0,-245.64 265.86,-472.41 693.83,-591.8 l 25.94,-7.24 7.23,-25.93 c 119.4,-427.97 346.16,-693.84 591.81,-693.84 245.64,0 472.4,265.87 591.8,693.84 l 7.23,25.93 25.94,7.24 c 427.97,119.4 693.83,346.17 693.83,591.8 0,245.64 -265.86,472.41 -693.83,591.81 l -25.94,7.24 -7.23,25.93 c -119.4,427.97 -346.16,693.83 -591.8,693.83 z m 0,-2733.13 c -285.04,0 -542.76,281.97 -676.43,737.89 -455.93,133.68 -737.89,391.4 -737.89,676.43 0,285.04 281.96,542.75 737.89,676.43 133.67,455.93 391.39,737.89 676.43,737.89 285.03,0 542.75,-281.96 676.42,-737.89 455.93,-133.68 737.89,-391.4 737.89,-676.43 0,-285.03 -281.96,-542.74 -737.89,-676.43 -133.67,-455.92 -391.39,-737.89 -676.42,-737.89"
   inkscape:connector-curvature="0" /><path
   id="path42"
   style="fill:#5c9ead;fill-opacity:1;fill-rule:nonzero;stroke:none"
   d="m 2723.325,3229.881 c -155.44,155.43 -467.15,130.7 -813.51,-64.56 l -20.98,-11.83 -20.99,11.83 c -346.36,195.26 -658.07,219.99 -813.5,64.56 -155.44,-155.43 -130.7,-467.15 64.55,-813.5 l 11.83,-20.99 -11.83,-20.99 c -195.25,-346.35 -219.99,-658.07 -64.55,-813.5 155.43,-155.43 467.14,-130.69 813.5,64.56 l 20.98,11.83 20.99,-11.83 c 346.36,-195.25 658.07,-219.99 813.5,-64.55 155.44,155.43 130.7,467.14 -64.55,813.49 l -11.84,21 11.83,20.98 c 195.26,346.35 220,658.07 64.57,813.5 z M 993.905,1500.461 c -180.36,180.37 -165.02,521.86 38.89,894.93 -203.91,373.08 -219.25,714.57 -38.89,894.93 180.36,180.36 521.84,165.01 894.93,-38.89 373.07,203.9 714.56,219.25 894.92,38.89 180.36,-180.36 165.02,-521.85 -38.89,-894.93 203.9,-373.08 219.24,-714.56 38.89,-894.92 -180.36,-180.36 -521.84,-165.02 -894.93,38.89 -373.07,-203.91 -714.56,-219.25 -894.92,-38.9"
   inkscape:connector-curvature="0" /><path
   id="path44"
   style="fill:#fde7be;fill-opacity:1;fill-rule:nonzero;stroke:none"
   d="m 1888.825,2632.381 181.39,200.91 -13.81,-270.32 270.32,13.81 -200.91,-181.39 200.91,-181.38 -270.32,13.81 13.81,-270.32 -181.39,200.9 -181.38,-200.9 13.81,270.32 -270.32,-13.81 200.91,181.38 -200.91,181.39 270.32,-13.81 -13.81,270.32 181.38,-200.91"
   inkscape:connector-curvature="0" /><g
   id="g11132"><path
     id="path46"
     style="fill:#fde7be;fill-opacity:1;fill-rule:nonzero;stroke:none"
     d="m 778.765,3686.521 c 0,-75.38 -61.11,-136.49 -136.5,-136.49 -75.38,0 -136.49,61.11 -136.49,136.49 0,75.39 61.11,136.5 136.49,136.5 75.39,0 136.5,-61.11 136.5,-136.5"
     inkscape:connector-curvature="0" /><path
     id="path48"
     style="fill:#fde7be;fill-opacity:1;fill-rule:nonzero;stroke:none"
     d="m 3271.885,3686.521 c 0,-75.38 -61.12,-136.49 -136.5,-136.49 -75.38,0 -136.49,61.11 -136.49,136.49 0,75.39 61.11,136.5 136.49,136.5 75.38,0 136.5,-61.11 136.5,-136.5"
     inkscape:connector-curvature="0" /><path
     id="path50"
     style="fill:#fde7be;fill-opacity:1;fill-rule:nonzero;stroke:none"
     d="m 778.765,1104.261 c 0,-75.38 -61.11,-136.49 -136.5,-136.49 -75.38,0 -136.49,61.11 -136.49,136.49 0,75.39 61.11,136.5 136.49,136.5 75.39,0 136.5,-61.11 136.5,-136.5"
     inkscape:connector-curvature="0" /><path
     id="path52"
     style="fill:#fde7be;fill-opacity:1;fill-rule:nonzero;stroke:none"
     d="m 3271.885,1104.261 c 0,-75.38 -61.12,-136.49 -136.5,-136.49 -75.38,0 -136.49,61.11 -136.49,136.49 0,75.39 61.11,136.5 136.49,136.5 75.38,0 136.5,-61.11 136.5,-136.5"
     inkscape:connector-curvature="0" /></g><g
   id="g11142"><path
     id="path54"
     style="fill:#511730;fill-opacity:1;fill-rule:nonzero;stroke:none"
     d="m 2524.145,2577.641 c -35.96,-14.61 -76.95,2.7 -91.56,38.66 -14.6,35.95 2.7,76.94 38.66,91.55 35.96,14.6 76.94,-2.7 91.55,-38.66 14.61,-35.95 -2.7,-76.94 -38.65,-91.55"
     inkscape:connector-curvature="0" /><path
     id="path56"
     style="fill:#511730;fill-opacity:1;fill-rule:nonzero;stroke:none"
     d="m 1306.415,2082.941 c -35.96,-14.61 -76.95,2.7 -91.55,38.65 -14.61,35.96 2.7,76.95 38.65,91.55 35.96,14.61 76.95,-2.7 91.55,-38.65 14.61,-35.96 -2.7,-76.95 -38.65,-91.55"
     inkscape:connector-curvature="0" /><path
     id="path58"
     style="fill:#511730;fill-opacity:1;fill-rule:nonzero;stroke:none"
     d="m 2071.075,1760.081 c -14.6,35.96 2.7,76.94 38.66,91.55 35.95,14.61 76.94,-2.7 91.55,-38.65 14.61,-35.96 -2.7,-76.95 -38.66,-91.55 -35.95,-14.61 -76.94,2.7 -91.55,38.65"
     inkscape:connector-curvature="0" /><path
     id="path60"
     style="fill:#511730;fill-opacity:1;fill-rule:nonzero;stroke:none"
     d="m 1576.375,2977.811 c -14.61,35.95 2.7,76.94 38.65,91.55 35.96,14.61 76.95,-2.7 91.55,-38.66 14.61,-35.95 -2.69,-76.94 -38.65,-91.55 -35.96,-14.6 -76.94,2.7 -91.55,38.66"
     inkscape:connector-curvature="0" /><path
     id="path62"
     style="fill:#511730;fill-opacity:1;fill-rule:nonzero;stroke:none"
     d="m 2466.935,2075.031 c -35.76,15.09 -52.5,56.32 -37.41,92.07 15.1,35.75 56.32,52.5 92.07,37.4 35.75,-15.09 52.5,-56.31 37.4,-92.07 -15.09,-35.75 -56.31,-52.5 -92.06,-37.4"
     inkscape:connector-curvature="0" /><path
     id="path64"
     style="fill:#511730;fill-opacity:1;fill-rule:nonzero;stroke:none"
     d="m 1256.055,2586.281 c -35.75,15.1 -52.49,56.32 -37.4,92.07 15.1,35.76 56.32,52.5 92.07,37.41 35.75,-15.1 52.5,-56.32 37.4,-92.07 -15.09,-35.76 -56.31,-52.5 -92.07,-37.41"
     inkscape:connector-curvature="0" /><path
     id="path66"
     style="fill:#511730;fill-opacity:1;fill-rule:nonzero;stroke:none"
     d="m 1568.465,1817.291 c 15.1,35.75 56.32,52.5 92.07,37.4 35.75,-15.09 52.5,-56.31 37.4,-92.07 -15.09,-35.75 -56.31,-52.5 -92.07,-37.4 -35.75,15.1 -52.5,56.32 -37.4,92.07"
     inkscape:connector-curvature="0" /><path
     id="path68"
     style="fill:#511730;fill-opacity:1;fill-rule:nonzero;stroke:none"
     d="m 2079.715,3028.161 c 15.1,35.75 56.32,52.5 92.07,37.4 35.76,-15.09 52.5,-56.31 37.41,-92.06 -15.1,-35.76 -56.32,-52.5 -92.07,-37.41 -35.75,15.1 -52.5,56.32 -37.41,92.07"
     inkscape:connector-curvature="0" /></g></svg>
