<?xml version="1.0" encoding="UTF-8" standalone="no"?>
<svg
   xmlns:dc="http://purl.org/dc/elements/1.1/"
   xmlns:cc="http://creativecommons.org/ns#"
   xmlns:rdf="http://www.w3.org/1999/02/22-rdf-syntax-ns#"
   xmlns:svg="http://www.w3.org/2000/svg"
   xmlns="http://www.w3.org/2000/svg"
   xmlns:sodipodi="http://sodipodi.sourceforge.net/DTD/sodipodi-0.dtd"
   xmlns:inkscape="http://www.inkscape.org/namespaces/inkscape"
   viewBox="321.145 827.711 3135.3702 3135.3678"
   xml:space="preserve"
   version="1.1"
   id="svg124"
   sodipodi:docname="machine_2.svg"
   width="3135.3701"
   height="3135.3679"
   inkscape:version="1.0.1 (3bc2e813f5, 2020-09-07)"><metadata
   id="metadata130"><rdf:RDF><cc:Work
       rdf:about=""><dc:format>image/svg+xml</dc:format><dc:type
         rdf:resource="http://purl.org/dc/dcmitype/StillImage" /><dc:title></dc:title></cc:Work></rdf:RDF></metadata><defs
   id="defs128" /><sodipodi:namedview
   pagecolor="#ffffff"
   bordercolor="#666666"
   borderopacity="1"
   objecttolerance="10"
   gridtolerance="10"
   guidetolerance="10"
   inkscape:pageopacity="0"
   inkscape:pageshadow="2"
   inkscape:window-width="1880"
   inkscape:window-height="1046"
   id="namedview126"
   showgrid="false"
   inkscape:zoom="0.27301421"
   inkscape:cx="1567.6851"
   inkscape:cy="1567.684"
   inkscape:window-x="40"
   inkscape:window-y="0"
   inkscape:window-maximized="1"
   inkscape:current-layer="svg124"
   fit-margin-top="0"
   fit-margin-left="0"
   fit-margin-right="0"
   fit-margin-bottom="0"
   inkscape:document-rotation="0" />
	 <path
   id="path206"
   style="fill:#511730;fill-opacity:1;fill-rule:nonzero;stroke:none"
   d="M 3456.515,827.711 H 321.145 v 3135.368 h 3135.37 V 827.711"
   inkscape:connector-curvature="0" /><path
   id="path208"
   style="fill:#5c9ead;fill-opacity:1;fill-rule:nonzero;stroke:none"
   d="m 1888.835,3426.099 c -191.98,0 -369.21,-207.78 -462.53,-542.26 l -5.65,-20.27 -20.27,-5.65 c -334.48,-93.32 -542.26,-270.55 -542.26,-462.52 0,-191.98 207.78,-369.21 542.26,-462.52 l 20.27,-5.66 5.65,-20.27 c 93.32,-334.47 270.55,-542.26 462.53,-542.26 191.98,0 369.2,207.79 462.51,542.26 l 5.66,20.27 20.27,5.66 c 334.48,93.31 542.25,270.54 542.25,462.52 0,191.97 -207.77,369.2 -542.25,462.52 l -20.27,5.65 -5.66,20.27 c -93.31,334.48 -270.53,542.26 -462.51,542.26 z m 0,-2136.05 c -222.77,0 -424.19,220.36 -528.66,576.69 -356.33,104.47 -576.69,305.89 -576.69,528.66 0,222.76 220.36,424.18 576.69,528.65 104.47,356.33 305.89,576.69 528.66,576.69 222.76,0 424.18,-220.36 528.65,-576.69 356.33,-104.48 576.69,-305.89 576.69,-528.65 0,-222.77 -220.36,-424.18 -576.69,-528.66 -104.47,-356.33 -305.89,-576.69 -528.65,-576.69"
   inkscape:connector-curvature="0" /><g
   id="g3273"
   style="fill:#e94f37"><path
     id="path210"
     style="fill:#e94f37;fill-opacity:1;fill-rule:nonzero;stroke:none"
     d="m 1888.825,2284.529 165.26,-286.24 c 73.45,-127.22 -18.36,-286.24 -165.26,-286.24 v 0 c -146.89,0 -238.7,159.02 -165.26,286.24 l 165.26,286.24"
     inkscape:connector-curvature="0" /><path
     id="path212"
     style="fill:#e94f37;fill-opacity:1;fill-rule:nonzero;stroke:none"
     d="m 1888.825,2506.259 -165.26,286.24 c -73.44,127.22 18.37,286.24 165.26,286.24 v 0 c 146.9,0 238.71,-159.02 165.26,-286.24 l -165.26,-286.24"
     inkscape:connector-curvature="0" /><path
     id="path214"
     style="fill:#e94f37;fill-opacity:1;fill-rule:nonzero;stroke:none"
     d="m 1777.965,2395.399 -286.24,-165.26 c -127.22,-73.45 -286.24,18.36 -286.24,165.26 v 0 c 0,146.89 159.02,238.7 286.24,165.26 l 286.24,-165.26"
     inkscape:connector-curvature="0" /><path
     id="path216"
     style="fill:#e94f37;fill-opacity:1;fill-rule:nonzero;stroke:none"
     d="m 1999.695,2395.399 286.24,165.26 c 127.22,73.44 286.24,-18.37 286.24,-165.26 v 0 c 0,-146.9 -159.02,-238.71 -286.24,-165.26 l -286.24,165.26"
     inkscape:connector-curvature="0" /></g><path
   id="path218"
   style="fill:#326273;fill-opacity:1;fill-rule:nonzero;stroke:none"
   d="m 3153.335,2070.229 c -28.12,-24.52 -56.46,-48.58 -84.25,-73.11 6.21,79.91 24.86,159.21 67.46,227.55 42.6,68.32 108.55,120.49 182.4,152.41 h 0.7 c 15.68,-127.41 -76.89,-228.88 -166.31,-306.85 z m -240.18,-673.98 -0.47,0.48 c -28.74,72.53 -38.78,153.3 -22.79,229.64 17,81.14 61.07,152.85 114.77,215.55 2.12,-34.03 4.84,-68.11 7.34,-102.3 8.83,-120.82 5.03,-262.33 -98.85,-343.37 z m -360.12,-124.92 c -37.19,2.55 -74.23,5.63 -111.2,7.94 60.88,52.08 130.12,94.94 208.55,113.13 78.42,18.2 161.94,8.46 236.73,-21.2 l 0.5,-0.49 c -79.01,-101.18 -216.21,-107.48 -334.58,-99.38 z m -646.4,-306.739 0.01,0.66 c 30.96,71.619 80.97,135.829 146.26,178.499 69.4,45.35 151.27,64.9 233.58,71.26 -22.57,-25.55 -44.75,-51.58 -67.16,-77.52 -79.18,-91.68 -181.93,-189.059 -312.69,-172.899 z m -342.97,166.299 c -24.52,28.13 -48.58,56.46 -73.1,84.25 79.9,-6.21 159.2,-24.86 227.54,-67.47 68.32,-42.59 120.49,-108.53 152.4,-182.391 l 0.01,-0.688 c -127.42,-15.679 -228.88,76.869 -306.85,166.299 z m -673.98,240.18 0.48,0.47 c 72.53,28.74 153.3,38.78 229.64,22.79 81.14,-17 152.85,-61.07 215.55,-114.77 -34.03,-2.12 -68.11,-4.84 -102.31,-7.34 -120.82,-8.83 -262.32,-5.03 -343.36,98.85 z m -124.92,360.11 c 2.54,37.2 5.63,74.24 7.94,111.21 52.08,-60.88 94.94,-130.12 113.13,-208.55 18.19,-78.42 8.45,-161.95 -21.21,-236.74 l -0.48,-0.49 c -101.19,79.01 -107.48,216.2 -99.38,334.57 z m -306.74,646.41 0.66,-0.01 c 71.61,-30.97 135.82,-80.97 178.5,-146.26 45.35,-69.4 64.9,-151.27 71.26,-233.58 -25.56,22.57 -51.58,44.75 -77.53,67.16 -91.67,79.18 -189.05,181.93 -172.89,312.69 z m 166.3,342.97 c 28.12,24.52 56.46,48.58 84.25,73.11 -6.21,-79.91 -24.86,-159.21 -67.46,-227.55 -42.6,-68.32 -108.55,-120.49 -182.4,-152.4 l -0.7,-0.01 c -15.68,127.42 76.88,228.88 166.31,306.85 z m 240.18,673.98 0.47,-0.48 c 28.73,-72.53 38.77,-153.29 22.79,-229.64 -17,-81.14 -61.07,-152.85 -114.78,-215.55 -2.11,34.03 -4.83,68.11 -7.33,102.31 -8.83,120.81 -5.04,262.33 98.85,343.36 z m 360.11,124.92 c 37.2,-2.55 74.24,-5.63 111.2,-7.94 -60.87,-52.08 -130.11,-94.94 -208.54,-113.13 -78.42,-18.19 -161.94,-8.45 -236.73,21.2 l -0.5,0.49 c 79.01,101.19 216.2,107.48 334.57,99.38 z m 646.41,306.75 -0.01,-0.67 c -30.97,-71.61 -80.97,-135.82 -146.26,-178.5 -69.4,-45.35 -151.27,-64.9 -233.58,-71.26 22.57,25.56 44.74,51.58 67.16,77.53 79.18,91.68 181.93,189.05 312.69,172.9 z m 342.97,-166.31 c 24.52,-28.12 48.58,-56.46 73.11,-84.25 -79.91,6.21 -159.21,24.86 -227.55,67.47 -68.32,42.59 -120.49,108.53 -152.4,182.39 l -0.01,0.7 c 127.41,15.68 228.88,-76.88 306.85,-166.31 z m 673.98,-240.18 -0.48,-0.47 c -72.53,-28.73 -153.3,-38.78 -229.64,-22.78 -81.14,16.99 -152.85,61.07 -215.55,114.77 34.03,2.11 68.11,4.83 102.31,7.33 120.82,8.84 262.32,5.04 343.36,-98.85 z m 124.92,-360.11 c -2.55,-37.2 -5.63,-74.24 -7.94,-111.21 -52.08,60.88 -94.94,130.12 -113.13,208.55 -18.19,78.42 -8.45,161.95 21.2,236.74 l 0.49,0.49 c 101.19,-79.01 107.48,-216.2 99.38,-334.57 z m -11.43,-1125.41 c -31.76,-31.64 -61.64,-65.2 -87.89,-102.66 -72.89,-104 -122.42,-266.44 -73.01,-388.22 -121.77,49.46 -284.23,-0.03 -388.25,-72.87 -37.44,-26.22 -71.04,-56.09 -102.77,-87.85 -44.87,0.09 -89.75,-2.59 -134.81,-10.51 -125.09,-22 -274.97,-101.84 -326.14,-222.89 -51.14,121.08 -201.01,200.96 -326.07,223 -45.04,7.94 -89.96,10.58 -134.89,10.55 -31.64,31.77 -65.2,61.65 -102.66,87.9 -104,72.89 -266.44,122.42 -388.22,73.01 49.46,121.77 -0.03,284.23 -72.87,388.25 -26.22,37.44 -56.1,71.05 -87.85,102.77 0.09,44.87 -2.59,89.75 -10.51,134.81 -22,125.09 -101.84,274.97 -222.89,326.14 121.08,51.13 200.96,201.01 223,326.07 7.94,45.04 10.58,89.96 10.55,134.89 31.77,31.65 61.65,65.2 87.9,102.66 72.89,104 122.42,266.44 73.01,388.22 121.77,-49.46 284.23,0.03 388.25,72.87 37.44,26.22 71.04,56.09 102.77,87.85 44.87,-0.08 89.75,2.59 134.81,10.51 125.09,22.01 274.97,101.84 326.14,222.89 51.13,-121.08 201.01,-200.96 326.07,-223 45.04,-7.94 89.96,-10.58 134.89,-10.55 31.64,-31.77 65.2,-61.65 102.66,-87.9 104,-72.89 266.44,-122.42 388.21,-73.01 -49.45,-121.77 0.04,-284.23 72.88,-388.25 26.22,-37.44 56.09,-71.04 87.85,-102.77 -0.09,-44.87 2.58,-89.74 10.51,-134.81 22,-125.09 101.84,-274.97 222.89,-326.14 -121.08,-51.13 -200.96,-201.01 -223.01,-326.06 -7.93,-45.05 -10.57,-89.97 -10.55,-134.9 z m 318.17,479 -0.66,0.01 c -71.61,30.97 -135.83,80.97 -178.5,146.26 -45.36,69.4 -64.9,151.27 -71.26,233.58 25.55,-22.57 51.58,-44.74 77.53,-67.16 91.67,-79.18 189.05,-181.93 172.89,-312.69 z m -252.71,469.94 c 4.02,194.31 63.92,436.1 -121.27,568.71 -132.54,185.23 -374.35,125.42 -568.67,121.47 -134.56,140.24 -263.18,353.57 -487.89,316.39 -224.7,37.26 -353.39,-176.02 -488.01,-316.22 -194.31,4.02 -436.1,63.92 -568.71,-121.27 -185.23,-132.54 -125.42,-374.35 -121.47,-568.67 -140.24,-134.56 -353.57,-263.18 -316.39,-487.89 -37.26,-224.7 176.02,-353.39 316.22,-488 -4.02,-194.32 -63.92,-436.11 121.27,-568.72 132.54,-185.23 374.35,-125.42 568.67,-121.47 134.56,-140.24 263.18,-353.57 487.89,-316.39 224.7,-37.258 353.39,176.02 488.01,316.22 194.31,-4.02 436.1,-63.92 568.71,121.27 185.23,132.54 125.42,374.35 121.47,568.67 140.24,134.56 353.57,263.18 316.39,487.89 37.26,224.7 -176.03,353.39 -316.22,488.01"
   inkscape:connector-curvature="0" /></svg>
