<?xml version="1.0" encoding="UTF-8" standalone="no"?>
<svg
   xmlns:dc="http://purl.org/dc/elements/1.1/"
   xmlns:cc="http://creativecommons.org/ns#"
   xmlns:rdf="http://www.w3.org/1999/02/22-rdf-syntax-ns#"
   xmlns:svg="http://www.w3.org/2000/svg"
   xmlns="http://www.w3.org/2000/svg"
   xmlns:sodipodi="http://sodipodi.sourceforge.net/DTD/sodipodi-0.dtd"
   xmlns:inkscape="http://www.inkscape.org/namespaces/inkscape"
   width="78.435463mm"
   height="78.43573mm"
   viewBox="0 0 78.435463 78.43573"
   version="1.1"
   id="svg2167"
   inkscape:version="1.0.1 (3bc2e813f5, 2020-09-07)"
   sodipodi:docname="machine_1.svg">
  <defs
     id="defs2161" />
  <sodipodi:namedview
     id="base"
     pagecolor="#ffffff"
     bordercolor="#666666"
     borderopacity="1.0"
     inkscape:pageopacity="0.0"
     inkscape:pageshadow="2"
     inkscape:zoom="1"
     inkscape:cx="124.29593"
     inkscape:cy="147.17245"
     inkscape:document-units="mm"
     inkscape:current-layer="layer1"
     inkscape:document-rotation="0"
     showgrid="false"
     fit-margin-top="0"
     fit-margin-left="0"
     fit-margin-right="0"
     fit-margin-bottom="0"
     inkscape:pagecheckerboard="true"
     inkscape:snap-object-midpoints="true"
     inkscape:snap-center="true"
     inkscape:snap-page="true"
     inkscape:window-width="1880"
     inkscape:window-height="1046"
     inkscape:window-x="40"
     inkscape:window-y="0"
     inkscape:window-maximized="1" />
  <metadata
     id="metadata2164">
    <rdf:RDF>
      <cc:Work
         rdf:about="">
        <dc:format>image/svg+xml</dc:format>
        <dc:type
           rdf:resource="http://purl.org/dc/dcmitype/StillImage" />
        <dc:title></dc:title>
      </cc:Work>
    </rdf:RDF>
  </metadata>
  <g
     inkscape:label="Layer 1"
     inkscape:groupmode="layer"
     id="layer1"
     transform="translate(-59.81203,-53.386302)">
    <rect
       style="fill:#511730;fill-opacity:0.998512;stroke-width:1"
       id="rect5899"
       width="78.435463"
       height="78.43573"
       x="59.812031"
       y="53.386303" />
    <path
       fill="#692369"
       d="m 132.4854,88.274789 c 2.6e-4,5.29e-4 5.3e-4,5.29e-4 7.9e-4,0.0013 0.002,0.0019 0.004,0.0032 0.005,0.0053 0.006,-0.02196 0.0111,-0.04419 0.0161,-0.06641 5.3e-4,-0.0074 10e-4,-0.01535 0.002,-0.0217 0,-0.0011 0,-0.0019 0,-0.0029 -0.0296,-0.0032 -0.0635,-0.0066 -0.0876,-0.0077 0.002,0.0029 0.004,0.0053 0.006,0.0082 0.0183,0.02805 0.0376,0.05609 0.0577,0.08387 z"
       id="path1113"
       style="stroke-width:0.264583" />
    <polygon
       fill="#692369"
       points="675.125,162.718 675.126,162.717 675.124,162.717 "
       id="polygon1115"
       transform="matrix(0.26458333,0,0,0.26458333,-46.190635,45.349848)" />
    <path
       fill="#692369"
       d="m 132.4973,88.287489 c 0.002,-0.01085 0.004,-0.02408 0.006,-0.0381 -0.003,0.01561 -0.005,0.02752 -0.007,0.03704 5.3e-4,5.29e-4 7.9e-4,7.94e-4 0.001,0.0011 z"
       id="path1117"
       style="stroke-width:0.264583" />
    <polygon
       fill="#692369"
       points="422.604,194.478 422.603,194.479 422.605,194.479 "
       id="polygon1119"
       transform="matrix(0.26458333,0,0,0.26458333,-46.190635,45.349848)" />
    <path
       fill="#692369"
       d="m 65.574126,96.933014 c -2.64e-4,-7.94e-4 -5.29e-4,-7.94e-4 -7.94e-4,-0.0013 -0.0016,-0.0021 -0.0037,-0.0034 -0.0053,-0.0053 -0.0061,0.02196 -0.01111,0.04419 -0.01614,0.06615 -5.29e-4,0.0077 -0.0013,0.01561 -0.0016,0.02196 0,5.29e-4 0,0.0019 0,0.0029 0.0299,0.0032 0.0635,0.0069 0.08758,0.0079 -0.0021,-0.0029 -0.0042,-0.0053 -0.0061,-0.0082 -0.01826,-0.02884 -0.03757,-0.05636 -0.05768,-0.08414 z"
       id="path1121"
       style="stroke-width:0.264583" />
    <polygon
       fill="#692369"
       points="422.112,158.814 422.112,158.813 422.111,158.813 "
       id="polygon1123"
       transform="matrix(0.26458333,0,0,0.26458333,-46.190635,45.349848)" />
    <path
       fill="#692369"
       d="m 65.561955,96.920314 c -0.0019,0.01058 -0.004,0.02408 -0.0058,0.0381 0.0029,-0.01614 0.0053,-0.02778 0.0069,-0.03704 -2.65e-4,-2.64e-4 -7.94e-4,-7.93e-4 -0.0011,-0.0011 z"
       id="path1125"
       style="stroke-width:0.264583" />
    <path
       fill="#692369"
       d="m 65.420139,87.159835 c 2.64e-4,0.0063 0.0011,0.01402 0.0016,0.02143 0.0048,0.02249 0.0098,0.04472 0.01614,0.06694 0.0016,-0.0019 0.0037,-0.0034 0.0053,-0.0053 2.65e-4,-2.64e-4 2.65e-4,-7.94e-4 7.94e-4,-0.0011 0.01984,-0.02778 0.03916,-0.05583 0.05768,-0.08467 0.0019,-0.0029 0.0042,-0.0053 0.0061,-0.0082 -0.02408,0.0011 -0.05768,0.0048 -0.08758,0.0079 0,0.0011 0,0.0021 0,0.0029 z"
       id="path1127"
       style="stroke-width:0.264583" />
    <path
       fill="#692369"
       d="m 65.431516,87.254291 c 2.64e-4,-2.64e-4 5.29e-4,-5.29e-4 0.0011,-5.29e-4 -0.0016,-0.0093 -0.004,-0.02143 -0.0069,-0.03731 0.0019,0.01402 0.004,0.02725 0.0058,0.03784 z"
       id="path1129"
       style="stroke-width:0.264583" />
    <path
       fill="#692369"
       d="m 132.62801,97.953247 c -2.7e-4,2.65e-4 -5.3e-4,5.3e-4 -10e-4,5.3e-4 0.002,0.0095 0.004,0.02143 0.007,0.03731 -0.002,-0.01376 -0.004,-0.02699 -0.006,-0.03784 z"
       id="path1131"
       style="stroke-width:0.264583" />
    <path
       fill="#692369"
       d="m 94.700782,59.148398 c 5.29e-4,-2.65e-4 5.29e-4,-5.29e-4 0.0013,-0.0011 0.0019,-0.0016 0.0032,-0.0034 0.0053,-0.0053 -0.02223,-0.0061 -0.04419,-0.01111 -0.06615,-0.01588 -0.0079,-5.29e-4 -0.01587,-0.0013 -0.02222,-0.0016 -5.29e-4,0 -0.0019,0 -0.0029,0 -0.0034,0.0299 -0.0069,0.0635 -0.0077,0.08758 0.0029,-0.0024 0.0053,-0.0042 0.0079,-0.0061 0.02884,-0.01826 0.05636,-0.03784 0.0844,-0.05768 z"
       id="path1133"
       style="stroke-width:0.264583" />
    <path
       fill="#692369"
       d="m 105.92811,74.762254 c -2.6e-4,0 -2.6e-4,0 0,0 -5.3e-4,0.0032 -0.001,0.005 -0.002,0.0071 5.3e-4,5.29e-4 0.001,2.64e-4 0.002,0.0013 -2.7e-4,-0.0029 -2.7e-4,-0.0056 -2.7e-4,-0.0085 z"
       id="path1135"
       style="stroke-width:0.264583" />
    <polygon
       fill="#692369"
       points="568.649,51.844 568.648,51.844 568.649,51.846 "
       id="polygon1137"
       transform="matrix(0.26458333,0,0,0.26458333,-46.190635,45.349848)" />
    <path
       fill="#692369"
       d="m 104.39062,59.0169 c 2.6e-4,7.94e-4 5.3e-4,7.94e-4 7.9e-4,0.0011 0.0281,0.01984 0.0561,0.03916 0.0847,0.05768 0.003,0.0019 0.005,0.004 0.008,0.0061 -0.001,-0.02408 -0.005,-0.05821 -0.008,-0.08758 -0.001,0 -0.002,0 -0.003,0 -0.006,0 -0.014,7.93e-4 -0.0214,0.0016 -0.0222,0.005 -0.0447,0.0098 -0.0667,0.01588 0.002,0.0019 0.003,0.004 0.005,0.0053 z"
       id="path1139"
       style="stroke-width:0.264583" />
    <path
       fill="#692369"
       d="m 104.41734,58.999702 c -0.014,0.0019 -0.0275,0.004 -0.0381,0.0058 2.6e-4,2.64e-4 5.3e-4,5.29e-4 5.3e-4,7.94e-4 0.01,-0.0013 0.0214,-0.0034 0.0376,-0.0066 z"
       id="path1141"
       style="stroke-width:0.264583" />
    <path
       fill="#692369"
       d="m 116.87128,99.501854 c -0.003,-2.65e-4 -0.005,-7.94e-4 -0.007,-0.0016 -8e-4,5.29e-4 -8e-4,0.0013 -10e-4,0.0021 0.003,-2.65e-4 0.006,-2.65e-4 0.008,-2.65e-4 0,-2.64e-4 0,-2.64e-4 0,-2.64e-4 z"
       id="path1143"
       style="stroke-width:0.264583" />
    <path
       fill="#692369"
       d="m 94.713482,59.135962 c -0.01085,-0.0019 -0.02408,-0.004 -0.0381,-0.0058 0.01587,0.0029 0.02778,0.0053 0.03704,0.0069 2.64e-4,-2.65e-4 5.29e-4,-5.29e-4 0.0011,-0.0011 z"
       id="path1145"
       style="stroke-width:0.264583" />
    <polygon
       fill="#692369"
       points="675.617,198.382 675.617,198.383 675.618,198.383 "
       id="polygon1147"
       transform="matrix(0.26458333,0,0,0.26458333,-46.190635,45.349848)" />
    <path
       fill="#692369"
       d="m 93.164876,74.892693 c -5.29e-4,0.0029 -5.29e-4,0.0056 -7.94e-4,0.0082 0.0013,-5.3e-4 0.0016,-5.3e-4 0.0026,-7.94e-4 -5.29e-4,-0.0024 -0.0016,-0.0042 -0.0019,-0.0074 z"
       id="path1149"
       style="stroke-width:0.264583" />
    <polygon
       fill="#692369"
       points="532.983,52.336 532.983,52.339 532.984,52.337 "
       id="polygon1151"
       transform="matrix(0.26458333,0,0,0.26458333,-46.190635,45.349848)" />
    <path
       fill="#692369"
       d="m 116.74137,86.739147 -5.3e-4,-2.64e-4 c -0.003,0 -0.006,0 -0.008,-2.65e-4 5.3e-4,7.94e-4 5.3e-4,0.0013 0.001,0.0021 0.002,-7.94e-4 0.004,-0.0013 0.007,-0.0016 z"
       id="path1153"
       style="stroke-width:0.264583" />
    <path
       fill="#692369"
       d="m 132.63939,98.047704 c -2.7e-4,-0.0063 -0.001,-0.01402 -0.002,-0.02143 -0.005,-0.02249 -0.01,-0.04471 -0.0164,-0.06694 -0.002,0.0019 -0.004,0.0032 -0.005,0.0053 -2.6e-4,2.65e-4 -2.6e-4,5.3e-4 -7.9e-4,0.0011 -0.0196,0.02778 -0.0392,0.05583 -0.0577,0.08467 -0.002,0.0029 -0.004,0.0053 -0.006,0.0082 0.0241,-7.94e-4 0.058,-0.0045 0.0876,-0.0077 2.7e-4,-0.0011 2.7e-4,-0.0021 2.7e-4,-0.0032 z"
       id="path1155"
       style="stroke-width:0.264583" />
    <path
       fill="#692369"
       d="m 81.188247,85.70595 c 0.0032,2.64e-4 0.0048,0.0011 0.0071,0.0016 5.3e-4,-5.29e-4 5.3e-4,-0.0013 0.0013,-0.0024 -0.0032,5.29e-4 -0.0058,5.29e-4 -0.0085,7.94e-4 0,0 0,0 0,0 z"
       id="path1157"
       style="stroke-width:0.264583" />
    <polygon
       fill="#692369"
       points="564.745,304.86 564.745,304.857 564.744,304.857 "
       id="polygon1159"
       transform="matrix(0.26458333,0,0,0.26458333,-46.190635,45.349848)" />
    <path
       fill="#692369"
       d="m 81.318157,98.46892 h 2.65e-4 c 0.0029,2.65e-4 0.0056,2.65e-4 0.0079,5.29e-4 -5.29e-4,-0.0013 -5.29e-4,-0.0016 -7.94e-4,-0.0026 -0.0021,7.93e-4 -0.0037,0.0016 -0.0074,0.0021 z"
       id="path1161"
       style="stroke-width:0.264583" />
    <path
       fill="#692369"
       d="m 103.34604,126.07184 c 0.0109,0.002 0.0241,0.004 0.0381,0.006 -0.0159,-0.003 -0.0278,-0.005 -0.037,-0.007 -2.6e-4,5.3e-4 -5.3e-4,5.3e-4 -10e-4,10e-4 z"
       id="path1163"
       style="stroke-width:0.264583" />
    <path
       fill="#692369"
       d="m 92.131413,110.44555 c 2.65e-4,0 2.65e-4,0 0,0 7.94e-4,-0.003 0.0013,-0.005 0.0021,-0.007 -7.94e-4,-5.3e-4 -0.0013,-5.3e-4 -0.0024,-0.001 2.64e-4,0.003 2.64e-4,0.006 2.64e-4,0.008 z"
       id="path1167"
       style="stroke-width:0.264583" />
    <path
       fill="#692369"
       d="m 103.35901,126.05967 c -8e-4,0 -8e-4,5.3e-4 -0.002,5.3e-4 -0.002,0.002 -0.003,0.004 -0.005,0.005 0.0222,0.006 0.0442,0.0111 0.0664,0.0164 0.008,8e-4 0.0156,0.001 0.022,0.001 7.9e-4,0 0.002,0 0.003,0 0.003,-0.0299 0.007,-0.0635 0.008,-0.0878 -0.003,0.003 -0.006,0.005 -0.008,0.007 -0.0288,0.018 -0.0563,0.0376 -0.0841,0.0577 z"
       id="path1169"
       style="stroke-width:0.264583" />
    <path
       fill="#692369"
       d="m 104.89465,110.31511 c 2.6e-4,-0.003 2.6e-4,-0.006 5.3e-4,-0.008 -10e-4,5.3e-4 -0.002,5.3e-4 -0.003,8e-4 5.3e-4,0.002 0.002,0.004 0.002,0.007 z"
       id="path1171"
       style="stroke-width:0.264583" />
    <path
       fill="#692369"
       d="m 93.642184,126.2081 c 0.01402,-0.002 0.02752,-0.004 0.0381,-0.006 -2.65e-4,-5.3e-4 -5.29e-4,-5.3e-4 -5.29e-4,-0.001 -0.0098,0.002 -0.02143,0.004 -0.03757,0.007 z"
       id="path1173"
       style="stroke-width:0.264583" />
    <path
       fill="#692369"
       d="m 93.668907,126.19064 c -2.65e-4,-8e-4 -5.29e-4,-8e-4 -7.94e-4,-8e-4 -0.02778,-0.0201 -0.05583,-0.0394 -0.08467,-0.0577 -0.0032,-0.002 -0.0053,-0.005 -0.0082,-0.006 0.0011,0.0238 0.0048,0.0577 0.0079,0.0876 7.94e-4,0 0.0019,0 0.0029,0 0.0064,0 0.01402,-7.9e-4 0.02143,-0.001 0.02223,-0.005 0.04471,-0.01 0.06694,-0.0164 -0.0024,-0.002 -0.0037,-0.004 -0.0056,-0.005 z"
       id="path1175"
       style="stroke-width:0.264583" />
    <polygon
       fill="#692369"
       points="529.08,305.352 529.079,305.352 "
       id="polygon1177"
       transform="matrix(0.26458333,0,0,0.26458333,-46.190635,45.349848)" />
    <g
       id="g5943"
       style="fill:#fde7be">
      <path
         fill="#869acf"
         d="m 116.88609,67.178766 c 0.24765,-2.125662 0.19924,-4.882356 1.30123,-6.751902 0.45746,-0.775758 2.08623,-2.456391 3.11361,-1.597289 0.13176,0.110067 0.24183,0.293952 0.31538,0.50165 -0.4183,-0.176213 -0.92577,-0.104511 -1.13665,0.389731 -0.28707,0.672042 -0.34633,1.067594 -0.28125,1.807633 0.0408,0.464344 0.39529,0.988748 0.93292,0.933186 3.2057,-0.330465 3.07208,-5.450417 -0.0855,-5.59435 -1.99628,-0.09075 -3.54383,1.434306 -4.41642,3.100387 -1.13771,2.1717 -0.51303,4.933157 -0.22596,7.21069 0.0384,0.309298 0.44609,0.312208 0.4826,2.64e-4 z"
         id="path1179"
         style="stroke-width:0.264583;fill:#fde7be" />
      <path
         fill="#869acf"
         d="m 100.99495,92.01097 c 1.50681,-0.543454 2.77363,-2.092589 3.86398,-3.215745 1.51844,-1.564482 3.15621,-3.046413 4.94453,-4.299215 3.26867,-2.290762 6.72862,-3.926417 10.66536,-4.658783 1.83938,-0.342107 3.92192,-0.713052 5.78696,-0.326232 1.07024,0.221721 3.79889,0.976842 3.73698,2.446338 -0.0651,1.551252 -2.12434,2.720181 -3.55097,2.658533 -0.19394,-0.0085 -0.41037,-0.04313 -0.61675,-0.106627 1.22899,-0.700881 1.81848,-2.237316 0.6813,-3.585104 -1.6203,-1.919817 -3.46921,1.444096 -3.52239,2.743994 -0.204,5.015971 9.76683,2.838185 8.60478,-1.926167 -0.53711,-2.202127 -3.26443,-3.276864 -5.22341,-3.832225 -3.06652,-0.868891 -6.40265,-0.110596 -9.39668,0.725752 -1.25068,0.34925 -2.4712,0.838994 -3.65469,1.418961 1.63328,-1.626923 3.26126,-3.259138 4.87469,-4.905904 4.59951,-4.693709 8.96911,-9.605434 13.56598,-14.295967 0.19685,-0.200819 -0.10742,-0.505354 -0.30824,-0.308504 -0.14896,0.145521 -0.29951,0.289189 -0.4482,0.434446 -0.0609,-0.11774 -0.22331,-0.187325 -0.34714,-0.06588 -4.6908,4.596871 -9.60226,8.96673 -14.29596,13.565982 -1.24778,1.222639 -2.48815,2.452687 -3.72428,3.687233 0.57415,-1.175544 1.05437,-2.389717 1.40097,-3.630877 0.83635,-2.993761 1.59464,-6.329892 0.72575,-9.396413 -0.55536,-1.958975 -1.62983,-4.6863 -3.83196,-5.223668 -4.76435,-1.16205 -6.94214,8.809037 -1.92617,8.604779 1.2999,-0.05292 4.66355,-1.901825 2.74373,-3.522133 -1.34805,-1.137444 -2.88395,-0.547423 -3.5851,0.681302 -0.0635,-0.206375 -0.0984,-0.42254 -0.10663,-0.616744 -0.0617,-1.426369 1.10728,-3.485886 2.65854,-3.550973 1.46923,-0.06191 2.22435,2.667 2.44607,3.737239 0.38682,1.864784 0.0161,3.947584 -0.32597,5.786967 -0.73263,3.936471 -2.36802,7.396427 -4.65878,10.66509 -1.2528,1.788318 -2.73473,3.426089 -4.29922,4.944533 -1.12315,1.090348 -2.67255,2.356908 -3.21574,3.863975 -0.0699,0.19341 0.0347,0.347662 0.186,0.42201 -0.0971,0.172244 -0.1905,0.345546 -0.27781,0.519906 -0.13759,0.272786 0.0905,0.682625 0.43047,0.560123 z"
         id="path1187"
         style="stroke-width:0.264583;fill:#fde7be" />
      <path
         fill="#869acf"
         d="m 131.07623,74.479679 c -1.86955,1.101989 -4.62624,1.053571 -6.75217,1.301221 -0.31194,0.03625 -0.30903,0.443971 0,0.482864 2.2778,0.286809 5.03925,0.911225 7.21095,-0.226218 1.66582,-0.872596 3.19114,-2.420144 3.10013,-4.416425 -0.14367,-3.157802 -5.26389,-3.291417 -5.59409,-0.08572 -0.0556,0.537897 0.46858,0.892175 0.93292,0.933185 0.74004,0.06482 1.13559,0.0056 1.80737,-0.281252 0.49424,-0.211402 0.56647,-0.718344 0.39,-1.136385 0.2077,0.07329 0.39158,0.183356 0.50165,0.315118 0.85963,1.027113 -0.821,2.656152 -1.59676,3.113617 z"
         id="path1189"
         style="stroke-width:0.264583;fill:#fde7be" />
      <path
         fill="#869acf"
         d="m 73.604759,75.230831 c 0.309298,-0.03889 0.311944,-0.446617 0,-0.483129 -2.125662,-0.24765 -4.882356,-0.199231 -6.751902,-1.300956 -0.775758,-0.457465 -2.455862,-2.086505 -1.597289,-3.113617 0.110331,-0.131763 0.294481,-0.241829 0.50165,-0.315383 -0.176213,0.41857 -0.104511,0.925777 0.389996,1.13665 0.671777,0.286808 1.067329,0.346339 1.807368,0.281252 0.464609,-0.04075 0.988748,-0.395288 0.933186,-0.933186 -0.330465,-3.205691 -5.450152,-3.071812 -5.594086,0.08573 -0.09102,1.996017 1.434042,3.543565 3.100388,4.416161 2.171435,1.137708 4.933156,0.513291 7.210689,0.226483 z"
         id="path1197"
         style="stroke-width:0.264583;fill:#fde7be" />
      <path
         fill="#869acf"
         d="M 95.220953,86.774602 C 93.656736,85.256422 92.17454,83.618652 90.921738,81.830068 88.63124,78.561406 86.995586,75.10145 86.26322,71.164979 c -0.342107,-1.839383 -0.713052,-3.922183 -0.326232,-5.786967 0.221721,-1.069975 0.976842,-3.799152 2.446338,-3.737239 1.550987,0.06535 2.720181,2.124604 2.658533,3.550973 -0.0079,0.194204 -0.04313,0.410368 -0.106362,0.616743 -0.701411,-1.228725 -2.237582,-1.818481 -3.585634,-0.681302 -1.919816,1.620309 1.444096,3.469217 2.743994,3.522134 5.015706,0.204258 2.838185,-9.766829 -1.926167,-8.604779 -2.202127,0.537104 -3.276864,3.264429 -3.832225,5.223668 -0.868891,3.066521 -0.110595,6.402652 0.725753,9.396413 0.411691,1.4732 1.00965,2.908564 1.731962,4.285985 -1.760273,-1.735667 -3.525573,-3.4671 -5.299075,-5.189008 -4.556654,-4.424363 -9.313333,-8.644202 -13.847233,-13.08735 -0.200819,-0.197115 -0.505354,0.107421 -0.308504,0.308504 4.596871,4.690533 8.966729,9.602258 13.565981,14.295967 1.222639,1.24751 2.452952,2.488141 3.687498,3.724539 -1.176073,-0.574146 -2.390246,-1.054629 -3.631407,-1.401233 -2.993495,-0.836348 -6.329891,-1.594644 -9.396147,-0.725752 -1.95924,0.55536 -4.6863,1.629833 -5.223669,3.83196 -1.162315,4.764352 8.808508,6.942137 8.604514,1.926431 -0.05292,-1.299898 -1.901825,-4.663545 -3.522133,-2.743993 -1.137179,1.347787 -0.547158,2.883958 0.681302,3.585104 -0.206375,0.06376 -0.422539,0.09843 -0.616743,0.106891 -1.426634,0.06165 -3.485621,-1.107545 -3.550973,-2.658533 -0.06191,-1.469231 2.667264,-2.224617 3.736975,-2.446337 1.865047,-0.386821 3.947583,-0.01588 5.786966,0.326231 3.936736,0.732631 7.396427,2.368021 10.665619,4.658783 1.788054,1.252802 3.425825,2.734733 4.944268,4.299215 1.090084,1.12342 2.356909,2.672556 3.863975,3.215745 0.193411,0.06985 0.347663,-0.0344 0.422275,-0.186002 0.172244,0.0971 0.345546,0.1905 0.519907,0.277813 0.273314,0.137319 0.683418,-0.09075 0.560652,-0.431006 -0.543984,-1.506802 -2.092854,-2.773627 -3.216275,-3.863975 z"
         id="path1205"
         style="stroke-width:0.264583;fill:#fde7be" />
      <path
         fill="#869acf"
         d="m 77.961124,62.592479 c 0.537898,0.0553 0.892439,-0.468577 0.933185,-0.933185 0.06509,-0.74004 0.0056,-1.135592 -0.281252,-1.807634 -0.210873,-0.494241 -0.718079,-0.566473 -1.136121,-0.389731 0.07329,-0.207698 0.183621,-0.391848 0.315119,-0.50165 1.027113,-0.859102 2.656417,0.821531 3.113617,1.59729 1.101989,1.869281 1.053571,4.626239 1.301221,6.751902 0.03625,0.311943 0.44397,0.308768 0.482864,0 0.286808,-2.277798 0.91149,-5.039254 -0.226219,-7.210954 -0.872595,-1.665817 -2.420143,-3.19114 -4.41616,-3.100123 -3.158067,0.143668 -3.291681,5.26362 -0.08625,5.594085 z"
         id="path1207"
         style="stroke-width:0.264583;fill:#fde7be" />
      <path
         fill="#869acf"
         d="m 81.17343,118.02904 c -0.24765,2.12566 -0.199231,4.88235 -1.301221,6.75163 -0.457464,0.77576 -2.086239,2.45613 -3.113616,1.59756 -0.131763,-0.11033 -0.24183,-0.29475 -0.315384,-0.50165 0.418307,0.17595 0.925777,0.10477 1.13665,-0.39026 0.286809,-0.67178 0.34634,-1.06707 0.281252,-1.80711 -0.04101,-0.46487 -0.395287,-0.98874 -0.933185,-0.93345 -3.205692,0.33047 -3.072077,5.45042 0.08572,5.59435 1.996017,0.091 3.543564,-1.43377 4.416425,-3.10038 1.137444,-2.17117 0.513027,-4.93316 0.226219,-7.21043 -0.03889,-0.30983 -0.446352,-0.31221 -0.482865,-2.6e-4 z"
         id="path1215"
         style="stroke-width:0.264583;fill:#fde7be" />
      <path
         fill="#869acf"
         d="m 97.064569,93.196833 c -1.506802,0.543189 -2.773627,2.092325 -3.863975,3.215746 -1.518179,1.564481 -3.156214,3.046412 -4.944533,4.299211 -3.268662,2.29077 -6.728618,3.92616 -10.665354,4.65879 -1.839383,0.3421 -3.921919,0.71305 -5.786966,0.32623 -1.069975,-0.22172 -3.798888,-0.97684 -3.736975,-2.44634 0.06535,-1.55099 2.124604,-2.72018 3.550973,-2.65853 0.194204,0.008 0.410368,0.0431 0.616743,0.10636 -1.228989,0.70141 -1.818481,2.23758 -0.681302,3.58537 1.620308,1.91981 3.469217,-1.4441 3.522133,-2.744 0.203994,-5.015702 -9.766829,-2.837916 -8.604779,1.92644 0.537105,2.20212 3.26443,3.27686 5.223669,3.83196 3.066521,0.86889 6.402652,0.11059 9.396412,-0.72576 1.4732,-0.41169 2.9083,-1.00965 4.285721,-1.73196 -1.735666,1.76054 -3.4671,3.52557 -5.189008,5.29908 -4.424362,4.55665 -8.643937,9.31333 -13.08735,13.84723 -0.197114,0.20055 0.107421,0.50509 0.30824,0.3085 4.690798,-4.59713 9.602258,-8.96699 14.296231,-13.56624 1.24751,-1.22264 2.488141,-2.45295 3.724539,-3.6875 -0.57441,1.17581 -1.054629,2.38998 -1.401233,3.63114 -0.836612,2.9935 -1.594644,6.32989 -0.725752,9.39615 0.55536,1.95871 1.629833,4.68656 3.83196,5.22314 4.764352,1.16284 6.942138,-8.80851 1.926432,-8.60425 -1.299898,0.0529 -4.663811,1.90182 -2.743994,3.52213 1.348052,1.13718 2.883958,0.54716 3.585104,-0.6813 0.06377,0.20664 0.09843,0.4228 0.106892,0.61674 0.06138,1.42664 -1.107546,3.48589 -2.658534,3.55124 -1.469495,0.0617 -2.224616,-2.66726 -2.446337,-3.73697 -0.386821,-1.86505 -0.01587,-3.94785 0.325967,-5.78723 0.732895,-3.93674 2.36802,-7.3967 4.658783,-10.66562 1.252802,-1.78806 2.734733,-3.42583 4.299214,-4.944272 1.123421,-1.090348 2.672557,-2.356908 3.215746,-3.863975 0.06985,-0.19341 -0.0344,-0.347662 -0.186002,-0.422275 0.0971,-0.172244 0.1905,-0.345281 0.277813,-0.519641 0.137847,-0.272257 -0.09022,-0.682361 -0.430478,-0.559594 z"
         id="path1223"
         style="stroke-width:0.264583;fill:#fde7be" />
      <path
         fill="#869acf"
         d="m 66.983297,110.72839 c 1.869546,-1.10199 4.626239,-1.05357 6.751902,-1.30122 0.311944,-0.0365 0.309033,-0.44397 0,-0.48287 -2.277798,-0.2868 -5.039254,-0.91149 -7.21069,0.22622 -1.666081,0.8726 -3.191139,2.42015 -3.100122,4.41616 0.143668,3.1578 5.263885,3.29142 5.594085,0.0857 0.05556,-0.53764 -0.468577,-0.89218 -0.933186,-0.93292 -0.740039,-0.0651 -1.135591,-0.006 -1.807368,0.28125 -0.494506,0.21087 -0.566473,0.71808 -0.389996,1.13612 -0.207698,-0.0733 -0.391583,-0.18362 -0.50165,-0.31512 -0.859367,-1.02738 0.821267,-2.65615 1.597025,-3.11335 z"
         id="path1225"
         style="stroke-width:0.264583;fill:#fde7be" />
      <path
         fill="#869acf"
         d="m 131.91231,114.05367 c -0.67178,-0.28681 -1.06733,-0.34634 -1.80737,-0.28125 -0.46461,0.041 -0.98848,0.39529 -0.93292,0.93319 0.3302,3.20569 5.45015,3.07207 5.59409,-0.0857 0.091,-1.99602 -1.43405,-3.54356 -3.10066,-4.41642 -2.17117,-1.13745 -4.93315,-0.51303 -7.21042,-0.22622 -0.3093,0.0389 -0.31194,0.44661 0,0.48286 2.1254,0.24765 4.88236,0.19923 6.75217,1.30122 0.77575,0.45747 2.45586,2.08624 1.59702,3.11362 -0.11033,0.13176 -0.29422,0.24183 -0.50165,0.31538 0.17568,-0.4183 0.10425,-0.92577 -0.39026,-1.13665 z"
         id="path1233"
         style="stroke-width:0.264583;fill:#fde7be" />
      <path
         fill="#869acf"
         d="m 117.15544,109.92908 c -1.22264,-1.24751 -2.45295,-2.48814 -3.68776,-3.72427 1.17607,0.57414 2.39024,1.05436 3.6314,1.40097 2.9935,0.83661 6.33016,1.59464 9.39615,0.72575 1.95924,-0.55536 4.68657,-1.6301 5.22367,-3.83223 1.16231,-4.764084 -8.80877,-6.942134 -8.60451,-1.92616 0.0529,1.29989 1.90182,4.66354 3.52239,2.74399 1.13718,-1.34805 0.54716,-2.88396 -0.6813,-3.5851 0.20638,-0.0635 0.42281,-0.0984 0.61675,-0.10663 1.42663,-0.0617 3.48562,1.10755 3.55097,2.65853 0.0619,1.46923 -2.66727,2.22462 -3.73698,2.44634 -1.86504,0.38682 -3.94758,0.0159 -5.78696,-0.32623 -3.93674,-0.73263 -7.39643,-2.36802 -10.66562,-4.65878 -1.78806,-1.25281 -3.42556,-2.734738 -4.94427,-4.299219 -1.09008,-1.123421 -2.35691,-2.672556 -3.86398,-3.215746 -0.19341,-0.06985 -0.34739,0.0344 -0.42227,0.186002 -0.17224,-0.0971 -0.34555,-0.1905 -0.51964,-0.277812 -0.273581,-0.137319 -0.683686,0.09102 -0.560919,0.431006 0.543459,1.506802 2.092329,2.773627 3.215749,3.863975 1.56421,1.518444 3.04641,3.156214 4.29921,4.944534 2.29076,3.26866 3.92615,6.72862 4.65852,10.66535 0.34211,1.83939 0.71305,3.92192 0.32623,5.78697 -0.22172,1.07024 -0.97684,3.79889 -2.44634,3.73724 -1.55098,-0.0656 -2.71991,-2.12434 -2.65853,-3.55124 0.008,-0.19394 0.0431,-0.41037 0.10636,-0.61648 0.70141,1.22899 2.23758,1.81848 3.58564,0.68104 1.91981,-1.62031 -1.4441,-3.46922 -2.744,-3.52213 -5.0157,-0.204 -2.83792,9.76709 1.92643,8.60504 2.20187,-0.53737 3.27687,-3.26443 3.83196,-5.22367 0.8689,-3.06652 0.1106,-6.40265 -0.72575,-9.39641 -0.41169,-1.4732 -1.00965,-2.90856 -1.73196,-4.28599 1.76054,1.73594 3.52557,3.4671 5.29907,5.18928 4.55666,4.42436 9.31334,8.64393 13.84724,13.08708 0.20108,0.19738 0.50535,-0.10715 0.3085,-0.30824 -4.59608,-4.69132 -8.9662,-9.60278 -13.56545,-14.29676 z"
         id="path1241"
         style="stroke-width:0.264583;fill:#fde7be" />
      <path
         fill="#869acf"
         d="m 120.09814,122.61506 c -0.53764,-0.055 -0.89218,0.46858 -0.93292,0.93345 -0.0651,0.74004 -0.006,1.13533 0.28125,1.8071 0.21087,0.49451 0.71808,0.56701 1.13612,0.39026 -0.0733,0.2077 -0.18362,0.39132 -0.31486,0.50165 -1.02737,0.85884 -2.65641,-0.82153 -3.11388,-1.59755 -1.10172,-1.86928 -1.0533,-4.62598 -1.30095,-6.75164 -0.0365,-0.31194 -0.44424,-0.30903 -0.48313,0 -0.28681,2.2778 -0.91123,5.03926 0.22622,7.21069 0.87286,1.66608 2.42014,3.19114 4.41616,3.10012 3.15806,-0.14313 3.29168,-5.26362 0.086,-5.59408 z"
         id="path1243"
         style="stroke-width:0.264583;fill:#fde7be" />
    </g>
    <g
       id="g5919"
       style="fill:#326273">
      <path
         fill="#ffc851"
         d="m 103.58073,60.475283 c 0.25955,0.287867 0.59954,0.488156 1.01309,0.445029 1.34117,-0.1397 1.92087,-2.21271 0.95964,-3.113087 -0.69744,-0.652992 -1.86954,-0.489215 -2.50957,0.16219 -0.78052,0.794543 -0.34264,2.033587 0.53684,2.505868 z m 0.87127,-1.479285 c 0.007,-5.29e-4 0.0151,-0.0016 0.0214,-0.0016 0.001,0 0.002,0 0.003,0 0.003,0.02937 0.007,0.0635 0.008,0.08758 -0.003,-0.0024 -0.005,-0.0042 -0.008,-0.0061 -0.0286,-0.01852 -0.0566,-0.0381 -0.0847,-0.05768 -2.6e-4,-2.65e-4 -5.3e-4,-2.65e-4 -7.9e-4,-0.0011 -0.002,-0.0013 -0.003,-0.0034 -0.005,-0.0053 0.022,-0.0061 0.0444,-0.01111 0.0667,-0.01588 z m -0.0347,0.0037 c -0.0161,0.0029 -0.0278,0.0053 -0.0376,0.0069 0,-2.64e-4 -2.7e-4,-5.29e-4 -5.3e-4,-7.94e-4 0.0106,-0.0021 0.0241,-0.004 0.0381,-0.0061 z m -0.15293,0.0672 v 2.65e-4 c -2.6e-4,2.64e-4 0,-2.65e-4 0,-2.65e-4 z"
         id="path1183"
         style="fill:#326273;stroke-width:0.264583" />
      <path
         fill="#ffc851"
         d="m 130.58278,88.072647 c -0.0431,0.413544 0.15716,0.753269 0.44503,1.01309 0.47202,0.87974 1.71159,1.317625 2.50613,0.537104 0.65141,-0.640027 0.81545,-1.812396 0.16219,-2.509573 -0.90038,-0.961496 -2.97339,-0.381793 -3.11335,0.959379 z m 1.85341,0.329671 c 0,-2.64e-4 -2.7e-4,-2.64e-4 0,0 -2.7e-4,-2.64e-4 0,-2.64e-4 0,0 0,-2.64e-4 0,-2.64e-4 0,0 z m 0.0611,-0.114829 c -2.6e-4,-2.64e-4 -5.2e-4,-5.29e-4 -0.001,-0.0011 0.002,-0.0093 0.004,-0.02143 0.007,-0.03704 -0.002,0.01402 -0.004,0.02752 -0.006,0.0381 z m 0.0114,-0.09737 c 0,0.0011 0,0.0019 0,0.0029 -2.6e-4,0.0063 -0.001,0.01429 -0.002,0.0217 -0.005,0.02249 -0.01,0.04445 -0.0161,0.06641 -0.002,-0.0019 -0.003,-0.0032 -0.005,-0.0053 -2.6e-4,-5.29e-4 -5.3e-4,-5.29e-4 -7.9e-4,-0.0013 -0.0198,-0.02778 -0.0392,-0.05583 -0.0579,-0.0844 -0.002,-0.0029 -0.004,-0.0053 -0.006,-0.0082 0.0243,0.0016 0.0582,0.005 0.0878,0.0082 z"
         id="path1193"
         style="fill:#326273;stroke-width:0.264583" />
      <path
         fill="#ffc851"
         d="m 64.232953,86.08007 c -0.652991,0.697177 -0.489214,1.869546 0.16219,2.509573 0.794544,0.780521 2.033852,0.342636 2.506133,-0.536839 0.287867,-0.259557 0.488156,-0.599546 0.445029,-1.013354 -0.140229,-1.340909 -2.213239,-1.920611 -3.113352,-0.95938 z m 1.198563,1.174221 c -0.0019,-0.01085 -0.004,-0.02381 -0.0058,-0.03784 0.0029,0.01588 0.0053,0.02778 0.0069,0.03731 -5.29e-4,0 -7.94e-4,2.65e-4 -0.0011,5.3e-4 z m 0.06165,0.115094 c -2.65e-4,0 -2.65e-4,-2.65e-4 -2.65e-4,-2.65e-4 2.65e-4,0 2.65e-4,0 2.65e-4,0 0,2.65e-4 0,0 0,2.65e-4 z m 0.0085,-0.211931 c -0.01852,0.02884 -0.0381,0.05688 -0.05768,0.08467 -2.64e-4,2.65e-4 -2.64e-4,5.3e-4 -7.94e-4,0.0011 -0.0016,0.0019 -0.0034,0.0032 -0.0053,0.0053 -0.0063,-0.02196 -0.01138,-0.04445 -0.01614,-0.06694 -5.29e-4,-0.0074 -0.0013,-0.01508 -0.0016,-0.02143 0,-7.94e-4 0,-0.0019 0,-0.0029 0.0299,-0.0032 0.0635,-0.0069 0.08758,-0.0079 -0.0019,0.0029 -0.0042,0.0053 -0.0061,0.0082 z"
         id="path1201"
         style="fill:#326273;stroke-width:0.264583" />
      <path
         fill="#ffc851"
         d="m 94.498376,61.050752 c 0.413808,0.04339 0.753533,-0.157163 1.013354,-0.445029 0.879475,-0.472017 1.31736,-1.711325 0.536575,-2.505869 -0.640027,-0.651404 -1.812396,-0.815446 -2.509308,-0.162189 -0.961232,0.900377 -0.38153,2.973122 0.959379,3.113087 z m 0.329406,-1.853671 c 0,2.65e-4 2.65e-4,2.65e-4 0,0 2.65e-4,2.65e-4 2.65e-4,5.29e-4 0,5.29e-4 0,2.65e-4 0,-2.64e-4 0,-5.29e-4 z m -0.1143,-0.06112 c -5.29e-4,2.65e-4 -7.94e-4,7.94e-4 -0.0011,0.0011 -0.009,-0.0016 -0.02117,-0.004 -0.03704,-0.0069 0.01402,0.0021 0.02725,0.0042 0.0381,0.0058 z m -0.09737,-0.01111 c 0.0011,0 0.0024,0 0.0029,0 0.0063,2.64e-4 0.01429,7.94e-4 0.02222,0.0016 0.02196,0.005 0.04392,0.0098 0.06615,0.01587 -0.0021,0.0016 -0.0034,0.0037 -0.0053,0.0053 -7.94e-4,2.65e-4 -7.94e-4,7.94e-4 -0.0013,0.0011 -0.02778,0.01984 -0.05556,0.03916 -0.0844,0.05768 -0.0029,0.0019 -0.0053,0.004 -0.0079,0.0061 5.3e-4,-0.02408 0.0042,-0.05768 0.0077,-0.08758 z"
         id="path1211"
         style="fill:#326273;stroke-width:0.264583" />
      <path
         fill="#ffc851"
         d="m 94.478797,124.73252 c -0.259557,-0.28813 -0.599811,-0.48816 -1.013355,-0.44529 -1.341172,0.14023 -1.920875,2.21271 -0.959379,3.11335 0.697177,0.65299 1.869281,0.48948 2.509309,-0.16219 0.780785,-0.79481 0.3429,-2.03385 -0.536575,-2.50587 z m -0.871538,1.47955 c -0.0074,5.3e-4 -0.01508,0.001 -0.02143,0.001 -0.0011,0 -0.0021,0 -0.0029,0 -0.0034,-0.0299 -0.0069,-0.0638 -0.0079,-0.0876 0.0032,0.002 0.0053,0.004 0.0082,0.006 0.02884,0.018 0.05689,0.0376 0.08467,0.0577 2.64e-4,0 5.29e-4,0 7.93e-4,8e-4 0.0021,10e-4 0.0034,0.003 0.0056,0.005 -0.02223,0.006 -0.04471,0.0111 -0.06694,0.0161 z m 0.03493,-0.004 c 0.01614,-0.003 0.02778,-0.006 0.03757,-0.007 0,7.9e-4 2.64e-4,7.9e-4 5.29e-4,0.001 -0.01085,0.002 -0.02408,0.004 -0.0381,0.006 z m 0.152665,-0.0672 v 0 c 2.64e-4,0 0,0 0,0 z"
         id="path1219"
         style="fill:#326273;stroke-width:0.264583" />
      <path
         fill="#ffc851"
         d="m 67.47648,97.135156 c 0.04313,-0.413809 -0.157162,-0.753269 -0.445029,-1.013354 -0.472017,-0.879475 -1.711589,-1.317361 -2.506133,-0.53684 -0.651404,0.640027 -0.815446,1.812396 -0.16219,2.509573 0.900642,0.961231 2.973652,0.381794 3.113352,-0.959379 z m -1.853141,-0.329671 c 0,0 2.64e-4,0 2.64e-4,2.64e-4 0,0 -2.64e-4,0 -5.29e-4,0 2.65e-4,0 2.65e-4,-2.64e-4 2.65e-4,-2.64e-4 z m -0.06138,0.114829 c 2.65e-4,2.65e-4 5.29e-4,5.29e-4 0.0011,7.94e-4 -0.0016,0.0093 -0.004,0.02117 -0.0069,0.03704 0.0019,-0.01376 0.004,-0.02725 0.0058,-0.03784 z m -0.01138,0.09737 c 0,-7.94e-4 0,-0.0021 0,-0.0029 2.65e-4,-0.0066 0.0011,-0.01429 0.0016,-0.02196 0.005,-0.02196 0.0098,-0.04419 0.01614,-0.06615 0.0016,0.0019 0.0034,0.0032 0.0053,0.0053 2.65e-4,5.29e-4 5.29e-4,5.29e-4 7.94e-4,0.0013 0.01984,0.02778 0.03916,0.0553 0.05768,0.0844 0.0021,0.0029 0.004,0.0053 0.0061,0.0082 -0.02408,-0.0013 -0.05768,-0.005 -0.08758,-0.0082 z"
         id="path1229"
         style="fill:#326273;stroke-width:0.264583" />
      <path
         fill="#ffc851"
         d="m 133.82657,99.127733 c 0.65299,-0.697177 0.48922,-1.869546 -0.16219,-2.509573 -0.79454,-0.780521 -2.03385,-0.342636 -2.50613,0.536839 -0.28787,0.259557 -0.48816,0.599546 -0.44503,1.013355 0.14023,1.340908 2.21324,1.920606 3.11335,0.959379 z m -1.19856,-1.174486 c 0.002,0.01085 0.004,0.02408 0.006,0.0381 -0.003,-0.01588 -0.005,-0.02778 -0.007,-0.03731 5.3e-4,0 7.9e-4,-2.64e-4 10e-4,-7.94e-4 z m -0.0616,-0.114829 c 2.7e-4,0 2.7e-4,2.65e-4 0,0 0,2.65e-4 0,2.65e-4 0,0 0,0 0,2.65e-4 0,0 z m -0.008,0.211931 c 0.0183,-0.02884 0.0381,-0.05662 0.0577,-0.08467 5.3e-4,-2.65e-4 5.3e-4,-5.29e-4 8e-4,-0.0011 0.002,-0.0019 0.004,-0.0032 0.005,-0.0053 0.006,0.02196 0.0114,0.04445 0.0164,0.06694 5.3e-4,0.0074 0.001,0.01482 0.002,0.02143 0,0.0011 0,0.0019 0,0.0029 -0.0296,0.0032 -0.0635,0.0069 -0.0876,0.0077 0.001,-0.0026 0.004,-0.005 0.006,-0.0079 z"
         id="path1237"
         style="fill:#326273;stroke-width:0.264583" />
      <path
         fill="#ffc851"
         d="m 103.56088,124.15705 c -0.4138,-0.0429 -0.75326,0.15716 -1.01335,0.44556 -0.87948,0.47175 -1.31736,1.71106 -0.53658,2.5056 0.64003,0.65167 1.8124,0.81518 2.50931,0.16219 0.9615,-0.90064 0.3818,-2.97338 -0.95938,-3.11335 z m -0.3294,1.85367 c 0,-7.9e-4 -2.7e-4,-7.9e-4 -2.7e-4,-7.9e-4 0,0 0,0 2.7e-4,0 0,0 0,0 0,7.9e-4 z m 0.11456,0.0611 c 5.3e-4,-7.9e-4 8e-4,-7.9e-4 0.001,-0.001 0.009,0.002 0.0212,0.004 0.037,0.007 -0.014,-0.002 -0.0272,-0.004 -0.0381,-0.006 z m 0.0974,0.0111 c -7.9e-4,0 -0.002,0 -0.003,0 -0.006,0 -0.0143,-5.3e-4 -0.022,-0.001 -0.0222,-0.005 -0.0442,-0.01 -0.0664,-0.0164 0.002,-0.001 0.003,-0.003 0.005,-0.005 7.9e-4,0 7.9e-4,-5.2e-4 0.002,-5.2e-4 0.0278,-0.0201 0.0553,-0.0397 0.0841,-0.058 0.003,-0.002 0.005,-0.004 0.008,-0.007 -10e-4,0.0246 -0.005,0.0582 -0.008,0.0881 z"
         id="path1247"
         style="fill:#326273;stroke-width:0.264583" />
    </g>
    <g
       id="g5929"
       style="fill:#e94f37">
      <path
         fill="#ffc851"
         d="m 128.3878,58.39804 c 0.0572,0.433387 -0.16457,0.936624 -0.32756,1.301749 -0.38047,0.854075 -0.75353,1.709738 -1.12474,2.555611 -0.0857,0.195262 0.16721,0.449792 0.32438,0.250296 0.39555,-0.503502 0.95991,-0.885296 1.37107,-1.401763 0.44423,-0.557741 0.77523,-1.151466 1.02288,-1.819275 0.42386,-1.142735 -0.10345,-3.367881 -1.63328,-3.365235 -1.4978,0.0024 -2.47994,1.096169 -1.34858,2.345002 0.57838,0.638969 1.29276,0.552185 1.71583,0.133615 z"
         id="path1185"
         style="fill:#e94f37;stroke-width:0.264583" />
      <path
         fill="#ffc851"
         d="m 128.9974,65.407116 c -0.19976,0.157163 0.0548,0.40984 0.25029,0.32438 0.84561,-0.371211 1.70154,-0.744273 2.55535,-1.125009 0.36539,-0.162983 0.86889,-0.384704 1.30201,-0.327289 -0.41883,0.423333 -0.50535,1.136914 0.13362,1.715823 1.24909,1.131358 2.34262,0.149225 2.345,-1.348582 0.003,-1.530085 -2.22224,-2.057135 -3.36524,-1.633272 -0.6678,0.24765 -1.26153,0.578643 -1.81954,1.022879 -0.51593,0.410898 -0.89826,0.975518 -1.40149,1.37107 z"
         id="path1195"
         style="fill:#e94f37;stroke-width:0.264583" />
      <path
         fill="#ffc851"
         d="m 64.690153,64.961823 c 0.639234,-0.578644 0.55245,-1.292754 0.134144,-1.715823 0.432858,-0.05715 0.936625,0.164571 1.30175,0.327554 0.85381,0.380735 1.709473,0.753533 2.555346,1.125008 0.195527,0.08573 0.450056,-0.167216 0.250296,-0.324379 -0.503238,-0.395816 -0.885296,-0.960173 -1.401763,-1.371071 -0.558006,-0.4445 -1.151731,-0.775493 -1.819539,-1.023143 -1.142471,-0.423863 -3.367617,0.103187 -3.364971,1.633273 0.0021,1.497806 1.095904,2.479939 2.344737,1.348581 z"
         id="path1203"
         style="fill:#e94f37;stroke-width:0.264583" />
      <path
         fill="#ffc851"
         d="m 70.462039,61.234373 c 0.410897,0.516466 0.975254,0.898525 1.37107,1.401762 0.157163,0.199496 0.40984,-0.05503 0.32438,-0.250296 -0.371475,-0.845872 -0.744273,-1.7018 -1.125009,-2.55561 -0.162983,-0.365125 -0.384704,-0.868892 -0.327025,-1.30175 0.422804,0.418571 1.136915,0.505354 1.715559,-0.133879 1.131358,-1.248833 0.149225,-2.342621 -1.348582,-2.345002 -1.530085,-0.0026 -2.057135,2.222235 -1.633273,3.365235 0.247386,0.668073 0.57838,1.261798 1.02288,1.81954 z"
         id="path1213"
         style="fill:#e94f37;stroke-width:0.264583" />
      <path
         fill="#ffc851"
         d="m 69.671464,126.80923 c -0.05715,-0.43285 0.16457,-0.93662 0.327554,-1.30148 0.380735,-0.85381 0.753798,-1.71 1.125008,-2.55561 0.08572,-0.19526 -0.167217,-0.44979 -0.324379,-0.24977 -0.395552,0.50297 -0.959908,0.8853 -1.371071,1.4015 -0.444235,0.55801 -0.775494,1.15147 -1.023144,1.81954 -0.423862,1.14247 0.103188,3.36762 1.633273,3.36497 1.497806,-0.002 2.480204,-1.09564 1.348581,-2.34447 -0.578379,-0.63977 -1.292489,-0.55272 -1.715822,-0.13468 z"
         id="path1221"
         style="fill:#e94f37;stroke-width:0.264583" />
      <path
         fill="#ffc851"
         d="m 69.062128,119.80069 c 0.199496,-0.15717 -0.05477,-0.40984 -0.250296,-0.32412 -0.845873,0.37121 -1.701535,0.74427 -2.55561,1.12501 -0.365125,0.16272 -0.868892,0.38444 -1.30175,0.32703 0.418835,-0.42307 0.505354,-1.13692 -0.133615,-1.71556 -1.248833,-1.13136 -2.34262,-0.14923 -2.345002,1.34858 -0.0026,1.52982 2.222236,2.05687 3.364971,1.63327 0.667808,-0.24765 1.261533,-0.57864 1.81954,-1.02314 0.516202,-0.4109 0.89826,-0.97526 1.401762,-1.37107 z"
         id="path1231"
         style="fill:#e94f37;stroke-width:0.264583" />
      <path
         fill="#ffc851"
         d="m 133.36911,120.24598 c -0.63897,0.57891 -0.55245,1.29302 -0.13415,1.71609 -0.43286,0.0572 -0.93662,-0.16484 -1.30175,-0.32782 -0.85381,-0.38047 -1.70947,-0.75353 -2.55534,-1.12474 -0.19527,-0.0857 -0.44979,0.16721 -0.25003,0.32437 0.50323,0.39556 0.88556,0.96018 1.40176,1.37134 0.558,0.44397 1.15173,0.77496 1.81954,1.02288 1.14247,0.42413 3.36788,-0.10319 3.36523,-1.63327 -0.002,-1.49807 -1.09617,-2.48021 -2.34526,-1.34885 z"
         id="path1239"
         style="fill:#e94f37;stroke-width:0.264583" />
      <path
         fill="#ffc851"
         d="m 127.59749,123.97317 c -0.4109,-0.51594 -0.97526,-0.89853 -1.37108,-1.4015 -0.15716,-0.20003 -0.40983,0.0545 -0.32437,0.24976 0.37147,0.84588 0.74427,1.70233 1.125,2.55561 0.16299,0.36566 0.38471,0.86916 0.32703,1.30202 -0.42281,-0.41857 -1.13692,-0.50535 -1.71556,0.13388 -1.13109,1.2491 -0.14896,2.34262 1.34885,2.34447 1.52982,0.003 2.05687,-2.2217 1.63327,-3.36497 -0.24765,-0.66754 -0.57864,-1.26074 -1.02314,-1.81927 z"
         id="path1249"
         style="fill:#e94f37;stroke-width:0.264583" />
    </g>
    <g
       id="g5909"
       style="fill:#5c9ead">
      <path
         fill="#ffc851"
         d="m 103.19497,74.873114 c -0.10637,1.009121 0.39661,2.2606 1.32027,2.781829 0.34898,0.307446 0.83317,0.499534 1.47558,0.496094 2.04337,-0.01138 3.25331,-2.067719 2.58312,-3.909483 -0.47254,-1.298575 -1.66793,-2.160323 -3.07049,-1.89865 -1.24089,0.23151 -2.17699,1.287727 -2.30848,2.53021 z m 2.73288,-0.111125 c 0,2.65e-4 0,2.65e-4 0,0 2.6e-4,0.0032 2.6e-4,0.0058 5.3e-4,0.0087 -8e-4,-0.0011 -0.002,-7.94e-4 -0.002,-0.0013 5.3e-4,-0.0021 0.001,-0.004 0.002,-0.0074 z"
         id="path1181"
         style="fill:#5c9ead;stroke-width:0.264583" />
      <path
         fill="#ffc851"
         d="m 80.667547,83.059323 c -1.298575,0.472545 -2.160059,1.667933 -1.89865,3.070754 0.231775,1.24116 1.287462,2.177256 2.53021,2.308225 1.009121,0.106362 2.2606,-0.396611 2.781829,-1.320271 0.307711,-0.348721 0.499534,-0.833173 0.495829,-1.475581 -0.01111,-2.043377 -2.067718,-3.253317 -3.909218,-2.583127 z m 0.527579,2.648214 c -0.0024,-5.29e-4 -0.004,-0.0013 -0.0071,-0.0016 0,0 0,0 0,-2.65e-4 0.0029,0 0.0056,0 0.0085,-2.65e-4 -5.29e-4,7.94e-4 -5.29e-4,0.0016 -0.0013,0.0021 z"
         id="path1199"
         style="fill:#5c9ead;stroke-width:0.264583" />
      <path
         fill="#ffc851"
         d="m 93.589003,72.473608 c -1.402821,-0.261673 -2.597944,0.600075 -3.07049,1.89865 -0.670189,1.8415 0.53975,3.898106 2.583392,3.909483 0.642408,0.0034 1.126596,-0.188118 1.475317,-0.496093 0.92366,-0.52123 1.426897,-1.772709 1.32027,-2.78183 -0.131233,-1.242747 -1.067329,-2.298964 -2.308489,-2.53021 z m -0.424921,2.427288 c 2.65e-4,-0.0026 2.65e-4,-0.0053 7.94e-4,-0.0082 v -2.64e-4 c 2.64e-4,0.0034 0.0013,0.0053 0.0019,0.0074 -0.0011,5.29e-4 -0.0013,5.29e-4 -0.0026,0.0011 z"
         id="path1209"
         style="fill:#5c9ead;stroke-width:0.264583" />
      <path
         fill="#ffc851"
         d="m 94.864294,110.33442 c 0.106363,-1.00885 -0.39661,-2.2606 -1.32027,-2.78182 -0.348986,-0.30772 -0.833173,-0.49954 -1.475582,-0.49583 -2.043377,0.0111 -3.253316,2.06771 -2.583127,3.90921 0.472546,1.29858 1.667934,2.16006 3.07049,1.89865 1.241425,-0.23151 2.177256,-1.28719 2.308489,-2.53021 z m -2.732616,0.11113 c 0,0 0,0 0,0 -2.65e-4,-0.003 -2.65e-4,-0.006 -5.29e-4,-0.008 0.0011,5.3e-4 0.0016,5.3e-4 0.0024,0.001 -7.94e-4,0.002 -0.0013,0.004 -0.0019,0.007 z"
         id="path1217"
         style="fill:#5c9ead;stroke-width:0.264583" />
      <path
         fill="#ffc851"
         d="m 81.429547,95.736304 c -1.242748,0.131233 -2.298965,1.067064 -2.530211,2.308225 -0.261673,1.40282 0.600075,2.598211 1.89865,3.070751 1.8415,0.67019 3.897842,-0.53975 3.909219,-2.583124 0.0037,-0.642409 -0.188119,-1.126596 -0.495829,-1.475582 -0.521229,-0.92366 -1.772708,-1.426633 -2.781829,-1.32027 z m -0.110861,2.732616 h -2.64e-4 c 0.0037,-2.64e-4 0.0053,-0.0013 0.0074,-0.0019 2.65e-4,7.94e-4 2.65e-4,0.0013 7.94e-4,0.0026 -0.0026,-5.29e-4 -0.005,-5.29e-4 -0.0079,-7.94e-4 z"
         id="path1227"
         style="fill:#5c9ead;stroke-width:0.264583"
         inkscape:transform-center-x="17.249893"
         inkscape:transform-center-y="5.9073937" />
      <path
         fill="#ffc851"
         d="m 117.39198,102.14822 c 1.29857,-0.47255 2.16006,-1.66794 1.89891,-3.070494 -0.23177,-1.24116 -1.28772,-2.177256 -2.53021,-2.308489 -1.00912,-0.106363 -2.2606,0.39661 -2.78209,1.320271 -0.30745,0.348985 -0.49954,0.833173 -0.49583,1.475581 0.0109,2.043641 2.06772,3.253581 3.90922,2.583131 z m -0.52758,-2.647954 c 0.002,5.29e-4 0.004,0.0013 0.007,0.0016 0,0 0,0 0,2.64e-4 -0.003,0 -0.006,0 -0.008,2.65e-4 5.2e-4,-7.94e-4 5.2e-4,-0.0013 0.001,-0.0021 z"
         id="path1235"
         style="fill:#5c9ead;stroke-width:0.264583" />
      <path
         fill="#ffc851"
         d="m 104.47052,112.73446 c 1.40282,0.26167 2.59795,-0.60008 3.07049,-1.89865 0.67019,-1.8415 -0.53975,-3.89784 -2.58339,-3.90922 -0.64214,-0.004 -1.1266,0.18812 -1.47532,0.49583 -0.92366,0.52123 -1.4269,1.77297 -1.32027,2.78183 0.13124,1.24248 1.06707,2.2987 2.30849,2.53021 z m 0.42466,-2.42755 c -2.7e-4,0.003 -2.7e-4,0.005 -5.3e-4,0.008 v 2.6e-4 c -5.3e-4,-0.004 -0.002,-0.005 -0.002,-0.007 10e-4,0 10e-4,0 0.003,-7.9e-4 z"
         id="path1245"
         style="fill:#5c9ead;stroke-width:0.264583" />
      <path
         fill="#ffc851"
         d="m 116.62997,89.472028 c 1.24275,-0.131233 2.29897,-1.067064 2.53021,-2.308225 0.26168,-1.40282 -0.60007,-2.598211 -1.89865,-3.070751 -1.8415,-0.67019 -3.89784,0.53975 -3.90922,2.583124 -0.004,0.642409 0.18812,1.126596 0.49583,1.475582 0.52123,0.92366 1.77271,1.426633 2.78183,1.32027 z m 0.11086,-2.732616 h 2.7e-4 c -0.004,2.64e-4 -0.005,0.0013 -0.007,0.0019 -2.7e-4,-7.94e-4 -2.7e-4,-0.0013 -8e-4,-0.0026 0.003,5.29e-4 0.005,5.29e-4 0.008,7.94e-4 z"
         id="path5895"
         style="fill:#5c9ead;stroke-width:0.264583"
         inkscape:transform-center-x="-17.249885"
         inkscape:transform-center-y="-5.9073938" />
    </g>
  </g>
</svg>
