<?xml version="1.0" encoding="UTF-8" standalone="no"?>
<svg
   xmlns:dc="http://purl.org/dc/elements/1.1/"
   xmlns:cc="http://creativecommons.org/ns#"
   xmlns:rdf="http://www.w3.org/1999/02/22-rdf-syntax-ns#"
   xmlns:svg="http://www.w3.org/2000/svg"
   xmlns="http://www.w3.org/2000/svg"
   xmlns:sodipodi="http://sodipodi.sourceforge.net/DTD/sodipodi-0.dtd"
   xmlns:inkscape="http://www.inkscape.org/namespaces/inkscape"
   viewBox="321.145 827.711 3135.4 3135.371"
   xml:space="preserve"
   version="1.1"
   id="svg4347"
   sodipodi:docname="machine_5.svg"
   width="3135.3999"
   height="3135.3711"
   inkscape:version="1.0.1 (3bc2e813f5, 2020-09-07)"><metadata
   id="metadata4353"><rdf:RDF><cc:Work
       rdf:about=""><dc:format>image/svg+xml</dc:format><dc:type
         rdf:resource="http://purl.org/dc/dcmitype/StillImage" /><dc:title></dc:title></cc:Work></rdf:RDF></metadata><defs
   id="defs4351" /><sodipodi:namedview
   pagecolor="#ffffff"
   bordercolor="#666666"
   borderopacity="1"
   objecttolerance="10"
   gridtolerance="10"
   guidetolerance="10"
   inkscape:pageopacity="0"
   inkscape:pageshadow="2"
   inkscape:window-width="1880"
   inkscape:window-height="1046"
   id="namedview4349"
   showgrid="false"
   fit-margin-top="0"
   fit-margin-left="0"
   fit-margin-right="0"
   fit-margin-bottom="0"
   inkscape:zoom="0.27301394"
   inkscape:cx="1567.7"
   inkscape:cy="1567.6855"
   inkscape:window-x="40"
   inkscape:window-y="0"
   inkscape:window-maximized="1"
   inkscape:current-layer="svg4347"
   inkscape:document-rotation="0" />
	 <path
   id="path220"
   style="fill:#e94f37;fill-opacity:1;fill-rule:nonzero;stroke:none"
   d="m 3456.545,827.711 h -3135.4 v 3135.371 h 3135.4 V 827.711"
   inkscape:connector-curvature="0" /><path
   id="path222"
   style="fill:#326273;fill-opacity:1;fill-rule:nonzero;stroke:none"
   d="m 2840.745,1443.472 c -2.8,-1.98 -5.4,-4.36 -7.7,-7.49 -73.7,-100.1 -205.5,-106.17 -318.9,-98.43 -106.7,7.28 -212,19.39 -318.4,0.65 -117.7,-20.73 -258.8,-95.89 -306.9,-209.83 -48.2,113.95 -189.2,189.11 -307,209.83 -103.4,18.22 -206.2,7.57 -310.1,-0.04 -115.6,-8.47 -251.5,-4.88 -327.1,97.82 -2.3,3.12 -5,5.49 -7.7,7.48 -2,2.79 -4.4,5.45 -7.5,7.75 -100.1,73.67 -106.2,205.5 -98.5,318.85 7.3,106.73 19.4,212.02 0.7,318.41 -20.7,117.73 -95.9,258.78 -209.9,306.92 114,48.15 189.2,189.22 209.9,306.93 18.2,103.48 7.6,206.25 -0.1,310.1 -8.4,115.64 -4.8,251.57 97.9,327.16 3.1,2.29 5.4,4.94 7.4,7.73 2.8,1.99 5.5,4.37 7.8,7.49 73.7,100.11 205.5,106.18 318.8,98.44 106.8,-7.28 212.1,-19.39 318.4,-0.65 117.8,20.72 258.8,95.89 307,209.83 48.1,-113.95 189.2,-189.11 306.9,-209.84 103.5,-18.22 206.2,-7.57 310.1,0.04 115.6,8.48 251.6,4.89 327.2,-97.82 2.3,-3.12 4.9,-5.48 7.7,-7.47 2,-2.79 4.4,-5.45 7.5,-7.75 100.1,-73.67 106.2,-205.5 98.4,-318.85 -7.3,-106.73 -19.4,-212.02 -0.6,-318.41 20.7,-117.73 95.9,-258.78 209.8,-306.93 -114,-48.14 -189.1,-189.21 -209.8,-306.92 -18.3,-103.48 -7.6,-206.25 0,-310.1 8.5,-115.65 4.9,-251.57 -97.8,-327.16 -3.1,-2.3 -5.5,-4.95 -7.5,-7.74 z m 226.9,468.62 c -1.7,107.18 12.2,219.98 69.9,312.66 42.6,68.38 108.6,120.61 182.5,152.56 18.8,-0.37 38.2,1.46 58.3,6.01 4.9,1.12 4.6,8.29 0,9.56 -2.9,0.78 -5.6,1.68 -8.4,2.51 2.8,0.83 5.5,1.74 8.4,2.51 4.6,1.28 4.9,8.45 0,9.57 -20.1,4.55 -39.5,6.38 -58.2,6 -71.7,30.99 -136,81.02 -178.7,146.36 -61.1,93.45 -75.5,209.54 -73.8,318.86 3,195.32 65.6,440.37 -121.3,574.2 -133.9,186.95 -378.9,124.37 -574.2,121.34 -107.2,-1.66 -220,12.16 -312.7,69.92 -68.4,42.62 -120.6,108.61 -152.5,182.51 0.3,18.74 -1.5,38.14 -6.1,58.22 -1.1,4.94 -8.2,4.64 -9.5,0 -0.8,-2.81 -1.7,-5.6 -2.5,-8.4 -0.9,2.8 -1.8,5.59 -2.5,8.4 -1.3,4.64 -8.5,4.94 -9.6,0 -4.6,-20.07 -6.4,-39.46 -6,-58.2 -31,-71.67 -81,-135.94 -146.4,-178.66 -93.4,-61.11 -209.5,-75.48 -318.8,-73.79 -195.3,3.03 -440.4,65.61 -574.2,-121.34 -187,-133.83 -124.4,-378.88 -121.4,-574.2 1.7,-107.17 -12.1,-219.97 -69.9,-312.66 -42.6,-68.38 -108.6,-120.6 -182.5,-152.56 -18.7,0.38 -38.1,-1.45 -58.2,-6 -5,-1.12 -4.7,-8.29 0,-9.57 2.8,-0.77 5.6,-1.67 8.4,-2.5 -2.8,-0.84 -5.6,-1.74 -8.4,-2.52 -4.7,-1.27 -5,-8.44 0,-9.56 20.1,-4.55 39.4,-6.38 58.2,-6.01 71.7,-30.98 135.9,-81.01 178.6,-146.35 61.1,-93.46 75.5,-209.54 73.8,-318.87 -3,-195.31 -65.6,-440.37 121.4,-574.19 133.8,-186.96 378.9,-124.37 574.2,-121.34 107.1,1.66 219.9,-12.16 312.6,-69.92 68.4,-42.62 120.6,-108.61 152.6,-182.521 -0.4,-18.738 1.4,-38.129 6,-58.207 1.1,-4.941 8.3,-4.64 9.6,0 0.7,2.809 1.6,5.598 2.5,8.399 0.8,-2.801 1.7,-5.59 2.5,-8.399 1.3,-4.64 8.4,-4.941 9.5,0 4.6,20.071 6.4,39.457 6.1,58.188 30.9,71.68 81,135.95 146.3,178.67 93.5,61.1 209.5,75.48 318.9,73.79 195.3,-3.03 440.3,-65.61 574.2,121.34 186.9,133.82 124.3,378.88 121.3,574.19"
   inkscape:connector-curvature="0" /><g
   id="g11166"
   style="fill:#5c9ead"><path
     id="path224"
     style="fill:#5c9ead;fill-opacity:1;fill-rule:nonzero;stroke:none"
     d="m 3456.545,2102.862 c -28.1,-31.49 -59,-60.57 -89.6,-87.28 -100.2,-87.33 -203.2,-169.16 -280.2,-279.04 -85.2,-121.58 -143.1,-311.46 -85.3,-453.79 -142.3,57.78 -332.2,-0.1 -453.8,-85.26 -106.9,-74.88 -187.7,-174.47 -272.3,-272.351 -28.6,-33.199 -59.9,-67.047 -94,-97.43 h 106.7 c 61.2,64.563 117.7,135.691 175.2,195.021 87.1,89.88 191.7,171.62 315.9,200.46 91.7,21.28 189.3,9.91 276.7,-24.74 15.2,-15.78 32.7,-30.29 53.1,-43.11 5,-3.16 10.7,3.01 7.9,7.89 -1.7,2.97 -3.3,6.02 -4.9,9.02 3,-1.63 6.1,-3.19 9,-4.87 4.9,-2.77 11.1,2.89 7.9,7.9 -12.8,20.34 -27.3,37.86 -43.1,53.02 -33.6,84.78 -45.3,179.18 -26.7,268.41 26.8,127.65 110.8,235.39 202.4,324.28 59.4,57.51 130.5,113.99 195.1,175.19 v 106.68"
     inkscape:connector-curvature="0" /><path
     id="path226"
     style="fill:#5c9ead;fill-opacity:1;fill-rule:nonzero;stroke:none"
     d="m 1509.045,917.301 c -87.4,100.121 -169.2,203.211 -279.1,280.191 -121.6,85.18 -311.4,143.04 -453.8,85.26 57.8,142.34 -0.1,332.23 -85.2,453.79 -74.9,106.88 -174.5,187.77 -272.4,272.29 -33.2,28.66 -67,59.98 -97.4,94.08 v -106.73 c 64.5,-61.2 135.7,-117.68 195,-175.19 89.9,-87.14 171.6,-191.71 200.5,-315.95 21.2,-91.67 9.9,-189.3 -24.8,-276.72 -15.8,-15.17 -30.3,-32.7 -43.1,-53.04 -3.1,-5 3,-10.67 7.9,-7.9 3,1.68 6,3.25 9,4.87 -1.6,-3 -3.2,-6.05 -4.8,-9.01 -2.8,-4.89 2.9,-11.06 7.9,-7.9 20.3,12.82 37.8,27.32 53,43.1 84.8,33.6 179.2,45.36 268.4,26.68 127.6,-26.71 235.4,-110.71 324.3,-202.39 57.5,-59.33 114,-130.458 175.2,-195.021 h 106.6 c -31.5,28.012 -60.5,58.961 -87.2,89.59"
     inkscape:connector-curvature="0" /><path
     id="path228"
     style="fill:#5c9ead;fill-opacity:1;fill-rule:nonzero;stroke:none"
     d="m 2268.645,3873.492 c 87.3,-100.12 169.1,-203.21 279,-280.19 121.6,-85.18 311.5,-143.04 453.8,-85.26 -57.8,-142.34 0.1,-332.23 85.3,-453.79 74.9,-106.88 174.4,-187.77 272.3,-272.29 33.2,-28.66 67.1,-59.98 97.5,-94.08 v 106.73 c -64.6,61.2 -135.7,117.68 -195.1,175.19 -89.8,87.14 -171.6,191.71 -200.4,315.95 -21.3,91.67 -9.9,189.3 24.7,276.72 15.8,15.17 30.3,32.69 43.1,53.04 3.2,5 -3,10.67 -7.9,7.9 -2.9,-1.69 -6,-3.25 -9,-4.87 1.6,3 3.2,6.05 4.9,9.01 2.8,4.88 -2.9,11.06 -7.9,7.9 -20.4,-12.82 -37.9,-27.32 -53,-43.1 -84.8,-33.6 -179.2,-45.36 -268.4,-26.68 -127.7,26.71 -235.4,110.71 -324.3,202.39 -57.5,59.33 -114,130.46 -175.2,195.02 h -106.7 c 31.5,-28.01 60.6,-58.96 87.3,-89.59"
     inkscape:connector-curvature="0" /><path
     id="path230"
     style="fill:#5c9ead;fill-opacity:1;fill-rule:nonzero;stroke:none"
     d="m 321.145,2687.932 c 28,31.49 58.9,60.57 89.6,87.28 100.1,87.32 203.2,169.16 280.2,279.04 85.1,121.58 143,311.45 85.2,453.79 142.4,-57.79 332.3,0.09 453.8,85.26 106.9,74.87 187.8,174.47 272.3,272.35 28.7,33.2 60,67.05 94.1,97.43 h -106.7 c -61.2,-64.56 -117.7,-135.69 -175.2,-195.02 -87.2,-89.88 -191.7,-171.62 -316,-200.46 -91.7,-21.28 -189.3,-9.92 -276.7,24.74 -15.2,15.78 -32.7,30.29 -53,43.11 -5,3.15 -10.7,-3.02 -7.9,-7.9 1.6,-2.96 3.2,-6.01 4.8,-9.01 -3,1.63 -6,3.18 -9,4.87 -4.9,2.77 -11,-2.9 -7.9,-7.9 12.8,-20.34 27.3,-37.86 43.1,-53.02 33.6,-84.78 45.4,-179.18 26.7,-268.42 -26.7,-127.64 -110.7,-235.38 -202.4,-324.27 -59.3,-57.51 -130.5,-113.99 -195,-175.19 v -106.68"
     inkscape:connector-curvature="0" /></g><g
   id="g11172"><path
     id="path232"
     style="fill:#511730;fill-opacity:1;fill-rule:nonzero;stroke:none"
     d="m 425.945,3858.252 319.3,-85.54 c 141.9,-38.02 189.4,-215.39 85.5,-319.26 v 0 c -103.9,-103.87 -281.2,-56.35 -319.2,85.54 l -85.6,319.26"
     inkscape:connector-curvature="0" /><path
     id="path234"
     style="fill:#511730;fill-opacity:1;fill-rule:nonzero;stroke:none"
     d="m 3351.645,3858.252 -319.2,-85.54 c -141.9,-38.02 -189.4,-215.39 -85.6,-319.26 v 0 c 103.9,-103.87 281.3,-56.35 319.3,85.54 l 85.5,319.26"
     inkscape:connector-curvature="0" /><path
     id="path236"
     style="fill:#511730;fill-opacity:1;fill-rule:nonzero;stroke:none"
     d="m 425.945,932.543 319.3,85.539 c 141.9,38.02 189.4,215.38 85.5,319.26 v 0 c -103.9,103.87 -281.2,56.35 -319.2,-85.55 l -85.6,-319.249"
     inkscape:connector-curvature="0" /><path
     id="path238"
     style="fill:#511730;fill-opacity:1;fill-rule:nonzero;stroke:none"
     d="m 3351.645,932.543 -319.2,85.539 c -141.9,38.02 -189.4,215.38 -85.6,319.26 v 0 c 103.9,103.87 281.3,56.35 319.3,-85.55 l 85.5,-319.249"
     inkscape:connector-curvature="0" /></g><path
   id="path240"
   style="fill:#fde7be;fill-opacity:1;fill-rule:nonzero;stroke:none"
   d="m 2307.845,2353.072 c 37.9,-57.56 69.8,-114.97 95.3,-170.73 -57.5,-21.38 -120.6,-39.43 -188.1,-53.34 l -49.6,-10.23 -10.2,-49.62 c -14,-67.49 -32,-130.64 -53.4,-188.1 -55.7,25.51 -113.2,57.4 -170.7,95.29 l -42.3,27.85 -42.4,-27.85 c -57.5,-37.89 -114.9,-69.77 -170.7,-95.29 -21.4,57.47 -39.4,120.61 -53.3,188.1 l -10.3,49.62 -49.6,10.23 c -67.5,13.91 -130.6,31.96 -188.1,53.34 25.5,55.76 57.4,113.17 95.3,170.73 l 27.9,42.32 -27.9,42.32 c -37.9,57.56 -69.8,114.98 -95.3,170.73 57.5,21.38 120.6,39.43 188.1,53.34 l 49.6,10.23 10.3,49.62 c 13.9,67.49 31.9,130.64 53.3,188.11 55.8,-25.52 113.2,-57.41 170.7,-95.3 l 42.4,-27.85 42.3,27.86 c 57.6,37.89 115,69.77 170.7,95.29 21.4,-57.47 39.5,-120.61 53.4,-188.11 l 10.2,-49.62 49.6,-10.23 c 67.5,-13.91 130.6,-31.96 188.1,-53.34 -25.5,-55.75 -57.4,-113.17 -95.3,-170.73 l -27.8,-42.32 27.8,-42.32"
   inkscape:connector-curvature="0" /><g
   id="g11182"><path
     id="path242"
     style="fill:#fde7be;fill-opacity:1;fill-rule:nonzero;stroke:none"
     d="m 2693.645,2626.692 c -45.5,-18.49 -97.4,3.42 -115.9,48.94 -18.5,45.51 3.4,97.4 48.9,115.89 45.6,18.5 97.4,-3.41 115.9,-48.93 18.5,-45.52 -3.4,-97.41 -48.9,-115.9"
     inkscape:connector-curvature="0" /><path
     id="path244"
     style="fill:#fde7be;fill-opacity:1;fill-rule:nonzero;stroke:none"
     d="m 1152.045,2000.422 c -45.5,-18.49 -97.4,3.42 -115.9,48.94 -18.5,45.52 3.4,97.41 49,115.9 45.5,18.49 97.4,-3.42 115.9,-48.94 18.5,-45.51 -3.5,-97.4 -49,-115.9"
     inkscape:connector-curvature="0" /><path
     id="path246"
     style="fill:#fde7be;fill-opacity:1;fill-rule:nonzero;stroke:none"
     d="m 2120.145,1591.712 c -18.5,45.51 3.4,97.4 48.9,115.89 45.5,18.5 97.4,-3.41 115.9,-48.93 18.5,-45.52 -3.4,-97.41 -48.9,-115.9 -45.6,-18.49 -97.5,3.42 -115.9,48.94"
     inkscape:connector-curvature="0" /><path
     id="path248"
     style="fill:#fde7be;fill-opacity:1;fill-rule:nonzero;stroke:none"
     d="m 1493.845,3133.282 c -18.5,45.52 3.4,97.41 48.9,115.9 45.5,18.49 97.4,-3.42 115.9,-48.94 18.5,-45.51 -3.4,-97.4 -48.9,-115.89 -45.5,-18.5 -97.4,3.41 -115.9,48.93"
     inkscape:connector-curvature="0" /><path
     id="path250"
     style="fill:#fde7be;fill-opacity:1;fill-rule:nonzero;stroke:none"
     d="m 2621.245,1990.412 c -45.3,19.11 -66.5,71.3 -47.4,116.56 19.1,45.26 71.3,66.46 116.6,47.35 45.2,-19.11 66.4,-71.3 47.3,-116.56 -19.1,-45.26 -71.3,-66.46 -116.5,-47.35"
     inkscape:connector-curvature="0" /><path
     id="path252"
     style="fill:#fde7be;fill-opacity:1;fill-rule:nonzero;stroke:none"
     d="m 1088.345,2637.632 c -45.3,19.11 -66.5,71.3 -47.4,116.56 19.1,45.26 71.3,66.46 116.6,47.35 45.3,-19.11 66.4,-71.3 47.3,-116.56 -19.1,-45.26 -71.3,-66.46 -116.5,-47.35"
     inkscape:connector-curvature="0" /><path
     id="path254"
     style="fill:#fde7be;fill-opacity:1;fill-rule:nonzero;stroke:none"
     d="m 1483.845,1664.132 c 19.1,45.26 71.3,66.46 116.5,47.35 45.3,-19.11 66.5,-71.29 47.4,-116.56 -19.1,-45.26 -71.3,-66.46 -116.6,-47.35 -45.2,19.11 -66.4,71.3 -47.3,116.56"
     inkscape:connector-curvature="0" /><path
     id="path256"
     style="fill:#fde7be;fill-opacity:1;fill-rule:nonzero;stroke:none"
     d="m 2131.045,3197.022 c 19.1,45.27 71.3,66.47 116.5,47.35 45.3,-19.11 66.5,-71.29 47.4,-116.55 -19.1,-45.26 -71.3,-66.46 -116.6,-47.35 -45.2,19.11 -66.4,71.29 -47.3,116.55"
     inkscape:connector-curvature="0" /></g></svg>
