<?xml version="1.0" encoding="UTF-8" standalone="no"?>
<svg
   xmlns:dc="http://purl.org/dc/elements/1.1/"
   xmlns:cc="http://creativecommons.org/ns#"
   xmlns:rdf="http://www.w3.org/1999/02/22-rdf-syntax-ns#"
   xmlns:svg="http://www.w3.org/2000/svg"
   xmlns="http://www.w3.org/2000/svg"
   xmlns:sodipodi="http://sodipodi.sourceforge.net/DTD/sodipodi-0.dtd"
   xmlns:inkscape="http://www.inkscape.org/namespaces/inkscape"
   width="89.799583mm"
   height="89.799583mm"
   viewBox="0 0 89.799583 89.799583"
   version="1.1"
   id="svg13777"
   inkscape:version="1.0.1 (3bc2e813f5, 2020-09-07)"
   sodipodi:docname="portuguese_15.svg">
  <defs
     id="defs13771" />
  <sodipodi:namedview
     id="base"
     pagecolor="#ffffff"
     bordercolor="#666666"
     borderopacity="1.0"
     inkscape:pageopacity="0.0"
     inkscape:pageshadow="2"
     inkscape:zoom="4.0542133"
     inkscape:cx="164.15022"
     inkscape:cy="169.7"
     inkscape:document-units="mm"
     inkscape:current-layer="layer1"
     inkscape:document-rotation="0"
     showgrid="false"
     fit-margin-top="0"
     fit-margin-left="0"
     fit-margin-right="0"
     fit-margin-bottom="0"
     inkscape:window-width="2560"
     inkscape:window-height="1566"
     inkscape:window-x="0"
     inkscape:window-y="0"
     inkscape:window-maximized="1" />
  <metadata
     id="metadata13774">
    <rdf:RDF>
      <cc:Work
         rdf:about="">
        <dc:format>image/svg+xml</dc:format>
        <dc:type
           rdf:resource="http://purl.org/dc/dcmitype/StillImage" />
        <dc:title></dc:title>
      </cc:Work>
    </rdf:RDF>
  </metadata>
  <g
     inkscape:label="Layer 1"
     inkscape:groupmode="layer"
     id="layer1"
     transform="translate(24.489081,26.000978)">
    <rect
       x="-24.48908"
       y="-26.000978"
       fill="#f1f2f2"
       width="89.799583"
       height="89.799583"
       id="rect5344"
       style="stroke-width:0.264583;fill:#fde7be" />
    <g
       id="g14531"
       style="fill:#5690d1">
      <path
         fill="#3069b3"
         d="m 23.056537,0.82777136 c 0,0 2.2225,-5.29166656 -2.672292,-10.26583316 C 15.515912,-4.4638952 17.711954,0.82777136 17.711954,0.82777136 14.245912,-4.5961869 6.7052873,-2.3472286 6.7052873,-2.3472286 17.420912,2.626938 20.384245,18.872354 20.384245,18.872354 c 0,0 2.963334,-16.245416 13.678959,-21.2195826 0,0.026458 -7.540625,-2.2489583 -11.006667,3.17499996 z"
         id="path5346"
         style="stroke-width:0.264583;fill:#5690d1" />
      <path
         fill="#3069b3"
         d="m 38.455287,21.544646 c 0,0 5.291666,2.2225 10.265833,-2.672292 -4.974167,-4.868333 -10.265833,-2.672291 -10.265833,-2.672291 5.423958,-3.466042 3.175,-11.0066667 3.175,-11.0066667 C 36.65612,15.909021 20.410704,18.872354 20.410704,18.872354 c 0,0 16.245416,2.963334 21.219583,13.678959 -0.02646,0 2.248958,-7.540625 -3.175,-11.006667 z"
         id="path5348"
         style="stroke-width:0.264583;fill:#5690d1" />
      <path
         fill="#3069b3"
         d="m 17.738412,36.943396 c 0,0 -2.2225,5.291667 2.672292,10.265833 4.868333,-4.974166 2.672291,-10.265833 2.672291,-10.265833 3.466042,5.423958 11.006667,3.175 11.006667,3.175 C 23.374037,35.144229 20.410704,18.898813 20.410704,18.898813 c 0,0 -2.963334,16.245416 -13.6789584,21.219583 0,-0.02646 7.5406254,2.248958 11.0066664,-3.175 z"
         id="path5350"
         style="stroke-width:0.264583;fill:#5690d1" />
      <path
         fill="#3069b3"
         d="m 2.3661207,16.226521 c 0,0 -5.2916666,-2.2225 -10.2658332,2.672292 4.9741666,4.868333 10.2658332,2.672291 10.2658332,2.672291 -5.4239583,3.466042 -3.175,11.006667 -3.175,11.006667 C 4.1652873,21.862146 20.410704,18.898813 20.410704,18.898813 c 0,0 -16.2454167,-2.963333 -21.2195833,-13.6789584 0,0 -2.2754166,7.5406254 3.175,11.0066664 z"
         id="path5352"
         style="stroke-width:0.264583;fill:#5690d1" />
    </g>
    <g
       id="g14537"
       style="fill:#d9f1fc">
      <path
         fill="#3069b3"
         d="m 15.54237,14.03048 c 0,0 0.07938,-8.228542 -8.8106244,-8.8106254 0,0 1.349375,8.1491664 8.8106244,8.8106254 z"
         id="path5354"
         style="stroke-width:0.264583;fill:#d9f1fc" />
      <path
         fill="#3069b3"
         d="m 25.252579,14.03048 c 0,0 8.228541,0.07937 8.810625,-8.8106254 0,0 -8.122709,1.349375 -8.810625,8.8106254 z"
         id="path5356"
         style="stroke-width:0.264583;fill:#d9f1fc" />
      <path
         fill="#3069b3"
         d="m 25.252579,23.740688 c 0,0 -0.07938,8.228541 8.810625,8.810625 0,0 -1.349375,-8.149167 -8.810625,-8.810625 z"
         id="path5358"
         style="stroke-width:0.264583;fill:#d9f1fc" />
      <path
         fill="#3069b3"
         d="m 15.54237,23.740688 c 0,0 -8.2285411,-0.07937 -8.8106244,8.810625 0,0 8.1491664,-1.349375 8.8106244,-8.810625 z"
         id="path5360"
         style="stroke-width:0.264583;fill:#d9f1fc" />
    </g>
    <g
       id="g14525"
       style="fill:#5690d1">
      <path
         fill="#3069b3"
         d="m 3.345079,1.8067297 c 0,0 -10.3452082,-11.2447915 -5.3710416,-18.0181247 4.5508333,-6.244167 14.0493746,-1.058333 11.9327082,4.974167 -2.1166667,6.0324994 -7.9904166,2.4077078 -7.0908333,-0.15875 0,0 2.5135417,1.7727078 3.4395833,-0.767292 0.9260417,-2.54 -5.26520825,-4.524375 -6.00604158,0 C -0.4913793,-7.6388952 3.345079,1.8067297 3.345079,1.8067297 Z"
         id="path5362"
         style="stroke-width:0.264583;fill:#5690d1" />
      <path
         fill="#3069b3"
         d="m 3.345079,1.8067297 c 0,0 -11.2447915,-10.3452082 -18.018125,-5.3710416 -6.244166,4.55083326 -1.058333,14.0493749 4.9741668,11.9327082 6.0324999,-2.1166667 2.4077083,-7.9904166 -0.15875,-7.0908333 0,0 1.7727083,2.5135417 -0.7672918,3.4395833 -2.54,0.9260417 -4.524375,-5.26520825 0,-6.0060416 4.5243751,-0.7408333 13.97,3.095625 13.97,3.095625 z"
         id="path5364"
         style="stroke-width:0.264583;fill:#5690d1" />
      <path
         fill="#3069b3"
         d="m 37.476329,1.8067297 c 0,0 11.244791,-10.3452082 18.018124,-5.3710416 6.244167,4.55083326 1.058334,14.0493749 -4.974166,11.9327082 -6.0325,-2.1166667 -2.407709,-7.9904166 0.15875,-7.0908333 0,0 -1.772709,2.5135417 0.767291,3.4395833 2.54,0.9260417 4.524375,-5.26520825 0,-6.0060416 -4.524375,-0.7408333 -13.969999,3.095625 -13.969999,3.095625 z"
         id="path5372"
         style="stroke-width:0.264583;fill:#5690d1" />
      <path
         fill="#3069b3"
         d="m 37.476329,1.8067297 c 0,0 10.345208,-11.2447915 5.371041,-18.0181247 -4.550833,-6.244167 -14.049375,-1.058333 -11.932708,4.974167 2.116667,6.0324994 7.990417,2.4077078 7.090833,-0.15875 0,0 -2.513541,1.7727078 -3.439583,-0.767292 -0.926042,-2.54 5.265208,-4.524375 6.006042,0 0.740833,4.5243748 -3.095625,13.9699997 -3.095625,13.9699997 z"
         id="path5374"
         style="stroke-width:0.264583;fill:#5690d1" />
      <path
         fill="#3069b3"
         d="m 37.476329,35.937979 c 0,0 10.345208,11.244792 5.371041,18.018125 -4.550833,6.244167 -14.049375,1.058333 -11.932708,-4.974167 2.116667,-6.0325 7.990417,-2.407708 7.090833,0.15875 0,0 -2.513541,-1.772708 -3.439583,0.767292 -0.926042,2.54 5.265208,4.524375 6.006042,0 0.740833,-4.524375 -3.095625,-13.97 -3.095625,-13.97 z"
         id="path5382"
         style="stroke-width:0.264583;fill:#5690d1" />
      <path
         fill="#3069b3"
         d="m 37.476329,35.937979 c 0,0 11.244791,10.345208 18.018124,5.371042 6.244167,-4.550833 1.058334,-14.049375 -4.974166,-11.932708 -6.0325,2.116666 -2.407709,7.990416 0.15875,7.090833 0,0 -1.772709,-2.513542 0.767291,-3.439583 2.54,-0.926042 4.524375,5.265208 0,6.006041 -4.524375,0.740834 -13.969999,-3.095625 -13.969999,-3.095625 z"
         id="path5384"
         style="stroke-width:0.264583;fill:#5690d1" />
      <path
         fill="#3069b3"
         d="m 3.345079,35.937979 c 0,0 -11.2447915,10.345208 -18.018125,5.371042 -6.244166,-4.550833 -1.058333,-14.049375 4.9741668,-11.932708 6.0324999,2.116666 2.4077083,7.990416 -0.15875,7.090833 0,0 1.7727083,-2.513542 -0.7672918,-3.439583 -2.54,-0.926042 -4.524375,5.265208 0,6.006041 4.5243751,0.740834 13.97,-3.095625 13.97,-3.095625 z"
         id="path5392"
         style="stroke-width:0.264583;fill:#5690d1" />
      <path
         fill="#3069b3"
         d="m 3.345079,35.937979 c 0,0 -10.3452082,11.244792 -5.3710416,18.018125 4.5508333,6.244167 14.0493746,1.058333 11.9327082,-4.974167 -2.1166667,-6.0325 -7.9904166,-2.407708 -7.0908333,0.15875 0,0 2.5135417,-1.772708 3.4395833,0.767292 0.9260417,2.54 -5.26520825,4.524375 -6.00604158,0 -0.74083332,-4.524375 3.09562498,-13.97 3.09562498,-13.97 z"
         id="path5394"
         style="stroke-width:0.264583;fill:#5690d1" />
    </g>
    <g
       id="g14509"
       style="fill:#d9f1fc">
      <path
         fill="#3069b3"
         d="m -4.1161709,-5.6545202 c 0,0 -9.8160411,0.15875 -12.3560411,-12.3560418 -0.02646,0 11.4299994,1.349375 12.3560411,12.3560418 z"
         id="path5366"
         style="stroke-width:0.264583;fill:#d9f1fc" />
      <path
         fill="#3069b3"
         d="m 44.937578,-5.6545202 c 0,0 -0.15875,-9.8160418 12.356042,-12.3560418 0,0 -1.349375,11.4564585 -12.356042,12.3560418 z"
         id="path5376"
         style="stroke-width:0.264583;fill:#d9f1fc" />
      <path
         fill="#3069b3"
         d="m 44.937578,43.425687 c 0,0 9.816042,-0.15875 12.356042,12.356042 0,0 -11.456458,-1.349375 -12.356042,-12.356042 z"
         id="path5386"
         style="stroke-width:0.264583;fill:#d9f1fc" />
      <path
         fill="#3069b3"
         d="m -4.1161709,43.425687 c 0,0 0.15875,9.816042 -12.3560411,12.356042 -0.02646,0 1.322916,-11.456458 12.3560411,-12.356042 z"
         id="path5396"
         style="stroke-width:0.264583;fill:#d9f1fc" />
    </g>
    <g
       id="g5588"
       style="fill:#5690d1">
      <circle
         fill="#3069b3"
         cx="-18.430132"
         cy="-19.942013"
         r="1.9314584"
         id="circle5368"
         style="stroke-width:0.264583;fill:#5690d1" />
      <circle
         fill="#3069b3"
         cx="59.225075"
         cy="-19.942013"
         r="1.9314584"
         id="circle5378"
         style="stroke-width:0.264583;fill:#5690d1" />
      <circle
         fill="#3069b3"
         cx="59.225075"
         cy="57.713192"
         r="1.9314584"
         id="circle5388"
         style="stroke-width:0.264583;fill:#5690d1" />
      <circle
         fill="#3069b3"
         cx="-18.430132"
         cy="57.713192"
         r="1.9314584"
         id="circle5398"
         style="stroke-width:0.264583;fill:#5690d1" />
    </g>
    <g
       id="g14547"
       style="fill:#5690d1">
      <circle
         fill="#3069b3"
         cx="13.028832"
         cy="-7.0038986"
         r="2.7252083"
         id="circle5402"
         style="stroke-width:0.264583;fill:#5690d1" />
      <circle
         fill="#3069b3"
         cx="27.766127"
         cy="-7.0038986"
         r="2.7252083"
         id="circle5404"
         style="stroke-width:0.264583;fill:#5690d1" />
      <circle
         fill="#3069b3"
         cx="46.286961"
         cy="11.516934"
         r="2.7252083"
         id="circle5408"
         style="stroke-width:0.264583;fill:#5690d1" />
      <circle
         fill="#3069b3"
         cx="46.286961"
         cy="26.254229"
         r="2.7252083"
         id="circle5410"
         style="stroke-width:0.264583;fill:#5690d1" />
      <circle
         fill="#3069b3"
         cx="27.766127"
         cy="44.775063"
         r="2.7252083"
         id="circle5414"
         style="stroke-width:0.264583;fill:#5690d1" />
      <circle
         fill="#3069b3"
         cx="13.028832"
         cy="44.775063"
         r="2.7252083"
         id="circle5416"
         style="stroke-width:0.264583;fill:#5690d1" />
      <circle
         fill="#3069b3"
         cx="-5.4920011"
         cy="26.254229"
         r="2.7252083"
         id="circle5420"
         style="stroke-width:0.264583;fill:#5690d1" />
      <circle
         fill="#3069b3"
         cx="-5.4920011"
         cy="11.516934"
         r="2.7252083"
         id="circle5422"
         style="stroke-width:0.264583;fill:#5690d1" />
    </g>
    <g
       id="g14515"
       style="fill:#d9f1fc">
      <path
         fill="#3069b3"
         d="m 20.410704,-19.836187 c -3.836459,-2.804583 -5.820833,2.010834 -3.307292,3.518959 2.513542,1.508125 3.307292,4.471458 3.307292,4.471458 0,0 0.79375,-2.963333 3.307291,-4.471458 2.513542,-1.508125 0.502709,-6.323542 -3.307291,-3.518959 z"
         id="path5426"
         style="stroke-width:0.264583;fill:#d9f1fc" />
      <path
         fill="#3069b3"
         d="m 59.119245,18.872354 c 2.804583,-3.836458 -2.010833,-5.820833 -3.518958,-3.307291 -1.508125,2.513541 -4.471459,3.307291 -4.471459,3.307291 0,0 2.963334,0.79375 4.471459,3.307292 1.508125,2.54 6.323541,0.529167 3.518958,-3.307292 z"
         id="path5428"
         style="stroke-width:0.264583;fill:#d9f1fc" />
      <path
         fill="#3069b3"
         d="m 20.410704,57.607354 c 3.836458,2.804583 5.820833,-2.010833 3.307291,-3.518958 -2.513541,-1.508125 -3.307291,-4.471459 -3.307291,-4.471459 0,0 -0.79375,2.963334 -3.307292,4.471459 -2.513541,1.508125 -0.529167,6.323541 3.307292,3.518958 z"
         id="path5430"
         style="stroke-width:0.264583;fill:#d9f1fc" />
      <path
         fill="#3069b3"
         d="m -18.297837,18.872354 c -2.804584,3.836459 2.010833,5.820834 3.518958,3.307292 1.508125,-2.513542 4.471458,-3.307292 4.471458,-3.307292 0,0 -2.963333,-0.79375 -4.471458,-3.307291 -1.508125,-2.513542 -6.35,-0.502708 -3.518958,3.307291 z"
         id="path5432"
         style="stroke-width:0.264583;fill:#d9f1fc" />
    </g>
  </g>
</svg>
