<?xml version="1.0" encoding="UTF-8" standalone="no"?>
<svg
   xmlns:dc="http://purl.org/dc/elements/1.1/"
   xmlns:cc="http://creativecommons.org/ns#"
   xmlns:rdf="http://www.w3.org/1999/02/22-rdf-syntax-ns#"
   xmlns:svg="http://www.w3.org/2000/svg"
   xmlns="http://www.w3.org/2000/svg"
   xmlns:sodipodi="http://sodipodi.sourceforge.net/DTD/sodipodi-0.dtd"
   xmlns:inkscape="http://www.inkscape.org/namespaces/inkscape"
   viewBox="321.145 827.711 3135.3651 3135.37"
   xml:space="preserve"
   version="1.1"
   id="svg4496"
   sodipodi:docname="portuguese5.svg"
   width="3135.365"
   height="3135.3701"
   inkscape:version="0.92.3 (2405546, 2018-03-11)"><metadata
   id="metadata4502"><rdf:RDF><cc:Work
       rdf:about=""><dc:format>image/svg+xml</dc:format><dc:type
         rdf:resource="http://purl.org/dc/dcmitype/StillImage" /><dc:title></dc:title></cc:Work></rdf:RDF></metadata><defs
   id="defs4500" /><sodipodi:namedview
   pagecolor="#ffffff"
   bordercolor="#666666"
   borderopacity="1"
   objecttolerance="10"
   gridtolerance="10"
   guidetolerance="10"
   inkscape:pageopacity="0"
   inkscape:pageshadow="2"
   inkscape:window-width="640"
   inkscape:window-height="480"
   id="namedview4498"
   showgrid="false"
   fit-margin-top="0"
   fit-margin-left="0"
   fit-margin-right="0"
   fit-margin-bottom="0"
   inkscape:zoom="0.015862242"
   inkscape:cx="9330.333"
   inkscape:cy="1614.8055"
   inkscape:window-x="32"
   inkscape:window-y="0"
   inkscape:window-maximized="0"
   inkscape:current-layer="svg4496" />
	 <path
   id="path14"
   style="fill:#5690d3;fill-opacity:1;fill-rule:nonzero;stroke:none"
   d="M 3456.51,827.711 H 321.145 v 3135.37 H 3456.51 V 827.711"
   inkscape:connector-curvature="0" /><path
   id="path16"
   style="fill:#add7f3;fill-opacity:1;fill-rule:nonzero;stroke:none"
   d="m 1888.83,3835.231 c -268.18,0 -515.76,-290.27 -646.11,-757.51 l -7.9,-28.31 -28.32,-7.9 C 739.254,2911.161 449,2663.581 449,2395.401 c 0,-268.19 290.254,-515.77 757.5,-646.12 l 28.32,-7.9 7.9,-28.31 c 130.35,-467.25 377.93,-757.51 646.11,-757.51 268.19,0 515.76,290.26 646.11,757.51 l 7.9,28.31 28.32,7.9 c 467.24,130.36 757.5,377.94 757.5,646.12 0,268.18 -290.26,515.75 -757.5,646.11 l -28.32,7.9 -7.9,28.31 c -130.35,467.24 -377.92,757.51 -646.11,757.51 z m 0,-2983.94 c -311.19,0 -592.56,307.84 -738.5,805.6 -497.767,145.95 -805.603,427.32 -805.603,738.51 0,311.19 307.836,592.55 805.603,738.5 145.94,497.76 427.31,805.6 738.5,805.6 311.19,0 592.56,-307.84 738.5,-805.6 497.77,-145.95 805.6,-427.32 805.6,-738.5 0,-311.19 -307.83,-592.56 -805.6,-738.51 -145.94,-497.76 -427.31,-805.6 -738.5,-805.6"
   inkscape:connector-curvature="0" /><path
   id="path18"
   style="fill:#add7f3;fill-opacity:1;fill-rule:nonzero;stroke:none"
   d="m 599.738,1106.311 c 443.482,-178.19 1205.572,135.58 1824.092,754.09 618.51,618.52 932.28,1380.62 754.09,1824.08 -443.5,178.2 -1205.57,-135.58 -1824.09,-754.1 -618.51,-618.51 -932.275,-1380.61 -754.092,-1824.07 z m 278.258,-152.63 c -126.234,0 -240.766,21.63 -339.144,65.16 l -18.43,8.15 -8.149,18.43 c -103.355,233.59 -83.222,558.3 56.696,914.31 139.144,354.05 391.695,724.95 711.141,1044.39 319.43,319.43 690.34,571.99 1044.38,711.13 356,139.92 680.71,160.07 914.32,56.7 l 18.43,-8.15 8.14,-18.43 c 103.36,-233.59 83.23,-558.3 -56.69,-914.31 -139.15,-354.05 -391.71,-724.95 -711.14,-1044.39 -319.43,-319.43 -690.34,-571.99 -1044.39,-711.14 -206.07,-80.99 -401.66,-121.85 -575.164,-121.85"
   inkscape:connector-curvature="0" /><path
   id="path20"
   style="fill:#add7f3;fill-opacity:1;fill-rule:nonzero;stroke:none"
   d="m 599.738,3684.481 c -178.183,-443.47 135.582,-1205.57 754.092,-1824.08 618.53,-618.52 1380.64,-932.29 1824.09,-754.09 178.19,443.46 -135.58,1205.56 -754.09,1824.07 -618.52,618.52 -1380.58,932.31 -1824.092,754.1 z M 2899.66,953.681 c -173.51,0 -369.06,40.85 -575.17,121.85 -354.04,139.15 -724.95,391.71 -1044.38,711.14 -319.446,319.43 -571.997,690.34 -711.141,1044.39 -139.918,356.01 -160.051,680.71 -56.696,914.31 l 8.149,18.43 18.43,8.15 c 233.582,103.35 558.288,83.23 914.308,-56.7 354.05,-139.14 724.96,-391.7 1044.39,-711.13 319.43,-319.44 571.99,-690.34 711.14,-1044.39 139.92,-356.01 160.05,-680.72 56.69,-914.31 l -8.14,-18.43 -18.43,-8.15 c -98.36,-43.52 -212.93,-65.16 -339.15,-65.16"
   inkscape:connector-curvature="0" /><path
   id="path22"
   style="fill:#d9f1fc;fill-opacity:1;fill-rule:nonzero;stroke:none"
   d="m 1888.83,2284.531 165.26,-286.24 c 73.45,-127.22 -18.36,-286.24 -165.26,-286.24 -146.9,0 -238.71,159.02 -165.26,286.24 l 165.26,286.24"
   inkscape:connector-curvature="0" /><path
   id="path24"
   style="fill:#d9f1fc;fill-opacity:1;fill-rule:nonzero;stroke:none"
   d="m 1888.83,2506.261 -165.26,286.24 c -73.45,127.22 18.36,286.24 165.26,286.24 146.9,0 238.71,-159.02 165.26,-286.24 l -165.26,-286.24"
   inkscape:connector-curvature="0" /><path
   id="path26"
   style="fill:#d9f1fc;fill-opacity:1;fill-rule:nonzero;stroke:none"
   d="m 1777.96,2395.391 -286.24,-165.26 c -127.21,-73.44 -286.24,18.37 -286.24,165.26 v 0 c 0,146.9 159.03,238.71 286.24,165.26 l 286.24,-165.26"
   inkscape:connector-curvature="0" /><path
   id="path28"
   style="fill:#d9f1fc;fill-opacity:1;fill-rule:nonzero;stroke:none"
   d="m 1999.69,2395.391 286.24,165.26 c 127.22,73.45 286.24,-18.36 286.24,-165.26 v 0 c 0,-146.89 -159.02,-238.7 -286.24,-165.26 l -286.24,165.26"
   inkscape:connector-curvature="0" /><path
   id="path30"
   style="fill:#d9f1fc;fill-opacity:1;fill-rule:nonzero;stroke:none"
   d="m 3057.97,3481.221 c 0,-43.63 -35.37,-79 -79,-79 -43.62,0 -78.99,35.37 -78.99,79 0,43.63 35.37,79 78.99,79 43.63,0 79,-35.37 79,-79"
   inkscape:connector-curvature="0" /><path
   id="path32"
   style="fill:#d9f1fc;fill-opacity:1;fill-rule:nonzero;stroke:none"
   d="m 877.68,3481.221 c 0,-43.63 -35.367,-79 -78.996,-79 -43.629,0 -78.996,35.37 -78.996,79 0,43.63 35.367,79 78.996,79 43.629,0 78.996,-35.37 78.996,-79"
   inkscape:connector-curvature="0" /><path
   id="path34"
   style="fill:#d9f1fc;fill-opacity:1;fill-rule:nonzero;stroke:none"
   d="m 3057.97,1309.571 c 0,-43.63 -35.37,-79 -79,-79 -43.62,0 -78.99,35.37 -78.99,79 0,43.63 35.37,78.99 78.99,78.99 43.63,0 79,-35.36 79,-78.99"
   inkscape:connector-curvature="0" /><path
   id="path36"
   style="fill:#d9f1fc;fill-opacity:1;fill-rule:nonzero;stroke:none"
   d="m 877.68,1309.571 c 0,-43.63 -35.367,-79 -78.996,-79 -43.629,0 -78.996,35.37 -78.996,79 0,43.63 35.367,78.99 78.996,78.99 43.629,0 78.996,-35.36 78.996,-78.99"
   inkscape:connector-curvature="0" /></svg>