<?xml version="1.0" encoding="UTF-8" standalone="no"?>
<svg
   xmlns:rdf="http://www.w3.org/1999/02/22-rdf-syntax-ns#"
   xmlns:svg="http://www.w3.org/2000/svg"
   xmlns="http://www.w3.org/2000/svg"
   viewBox="321.145 827.711 18660.6667 13060.6667"
   xml:space="preserve"
   version="1.1">
	 <path
         id="path14"
         style="fill:#5690d3;fill-opacity:1;fill-rule:nonzero;stroke:none"
         d="M 3456.51,5837.48 H 321.145 V 8972.85 H 3456.51 V 5837.48" /><path
         id="path16"
         style="fill:#add7f3;fill-opacity:1;fill-rule:nonzero;stroke:none"
         d="m 1888.83,8845 c -268.18,0 -515.76,-290.27 -646.11,-757.51 l -7.9,-28.31 -28.32,-7.9 C 739.254,7920.93 449,7673.35 449,7405.17 c 0,-268.19 290.254,-515.77 757.5,-646.12 l 28.32,-7.9 7.9,-28.31 c 130.35,-467.25 377.93,-757.51 646.11,-757.51 268.19,0 515.76,290.26 646.11,757.51 l 7.9,28.31 28.32,7.9 c 467.24,130.36 757.5,377.94 757.5,646.12 0,268.18 -290.26,515.75 -757.5,646.11 l -28.32,7.9 -7.9,28.31 C 2404.59,8554.73 2157.02,8845 1888.83,8845 Z m 0,-2983.94 c -311.19,0 -592.56,307.84 -738.5,805.6 -497.767,145.95 -805.603,427.32 -805.603,738.51 0,311.19 307.836,592.55 805.603,738.5 145.94,497.76 427.31,805.6 738.5,805.6 311.19,0 592.56,-307.84 738.5,-805.6 497.77,-145.95 805.6,-427.32 805.6,-738.5 0,-311.19 -307.83,-592.56 -805.6,-738.51 -145.94,-497.76 -427.31,-805.6 -738.5,-805.6" /><path
         id="path18"
         style="fill:#add7f3;fill-opacity:1;fill-rule:nonzero;stroke:none"
         d="m 599.738,6116.08 c 443.482,-178.19 1205.572,135.58 1824.092,754.09 618.51,618.52 932.28,1380.62 754.09,1824.08 -443.5,178.2 -1205.57,-135.58 -1824.09,-754.1 C 735.32,7321.64 421.555,6559.54 599.738,6116.08 Z m 278.258,-152.63 c -126.234,0 -240.766,21.63 -339.144,65.16 l -18.43,8.15 -8.149,18.43 c -103.355,233.59 -83.222,558.3 56.696,914.31 139.144,354.05 391.695,724.95 711.141,1044.39 319.43,319.43 690.34,571.99 1044.38,711.13 356,139.92 680.71,160.07 914.32,56.7 l 18.43,-8.15 8.14,-18.43 c 103.36,-233.59 83.23,-558.3 -56.69,-914.31 C 3069.54,7486.78 2816.98,7115.88 2497.55,6796.44 2178.12,6477.01 1807.21,6224.45 1453.16,6085.3 1247.09,6004.31 1051.5,5963.45 877.996,5963.45" /><path
         id="path20"
         style="fill:#add7f3;fill-opacity:1;fill-rule:nonzero;stroke:none"
         d="M 599.738,8694.25 C 421.555,8250.78 735.32,7488.68 1353.83,6870.17 c 618.53,-618.52 1380.64,-932.29 1824.09,-754.09 178.19,443.46 -135.58,1205.56 -754.09,1824.07 -618.52,618.52 -1380.58,932.31 -1824.092,754.1 z M 2899.66,5963.45 c -173.51,0 -369.06,40.85 -575.17,121.85 -354.04,139.15 -724.95,391.71 -1044.38,711.14 -319.446,319.43 -571.997,690.34 -711.141,1044.39 -139.918,356.01 -160.051,680.71 -56.696,914.31 l 8.149,18.43 18.43,8.15 c 233.582,103.35 558.288,83.23 914.308,-56.7 354.05,-139.14 724.96,-391.7 1044.39,-711.13 319.43,-319.44 571.99,-690.34 711.14,-1044.39 139.92,-356.01 160.05,-680.72 56.69,-914.31 l -8.14,-18.43 -18.43,-8.15 c -98.36,-43.52 -212.93,-65.16 -339.15,-65.16" /><path
         id="path22"
         style="fill:#d9f1fc;fill-opacity:1;fill-rule:nonzero;stroke:none"
         d="m 1888.83,7294.3 165.26,-286.24 c 73.45,-127.22 -18.36,-286.24 -165.26,-286.24 -146.9,0 -238.71,159.02 -165.26,286.24 l 165.26,286.24" /><path
         id="path24"
         style="fill:#d9f1fc;fill-opacity:1;fill-rule:nonzero;stroke:none"
         d="m 1888.83,7516.03 -165.26,286.24 c -73.45,127.22 18.36,286.24 165.26,286.24 146.9,0 238.71,-159.02 165.26,-286.24 l -165.26,-286.24" /><path
         id="path26"
         style="fill:#d9f1fc;fill-opacity:1;fill-rule:nonzero;stroke:none"
         d="M 1777.96,7405.16 1491.72,7239.9 c -127.21,-73.44 -286.24,18.37 -286.24,165.26 v 0 c 0,146.9 159.03,238.71 286.24,165.26 l 286.24,-165.26" /><path
         id="path28"
         style="fill:#d9f1fc;fill-opacity:1;fill-rule:nonzero;stroke:none"
         d="m 1999.69,7405.16 286.24,165.26 c 127.22,73.45 286.24,-18.36 286.24,-165.26 v 0 c 0,-146.89 -159.02,-238.7 -286.24,-165.26 l -286.24,165.26" /><path
         id="path30"
         style="fill:#d9f1fc;fill-opacity:1;fill-rule:nonzero;stroke:none"
         d="m 3057.97,8490.99 c 0,-43.63 -35.37,-79 -79,-79 -43.62,0 -78.99,35.37 -78.99,79 0,43.63 35.37,79 78.99,79 43.63,0 79,-35.37 79,-79" /><path
         id="path32"
         style="fill:#d9f1fc;fill-opacity:1;fill-rule:nonzero;stroke:none"
         d="m 877.68,8490.99 c 0,-43.63 -35.367,-79 -78.996,-79 -43.629,0 -78.996,35.37 -78.996,79 0,43.63 35.367,79 78.996,79 43.629,0 78.996,-35.37 78.996,-79" /><path
         id="path34"
         style="fill:#d9f1fc;fill-opacity:1;fill-rule:nonzero;stroke:none"
         d="m 3057.97,6319.34 c 0,-43.63 -35.37,-79 -79,-79 -43.62,0 -78.99,35.37 -78.99,79 0,43.63 35.37,78.99 78.99,78.99 43.63,0 79,-35.36 79,-78.99" /><path
         id="path36"
         style="fill:#d9f1fc;fill-opacity:1;fill-rule:nonzero;stroke:none"
         d="m 877.68,6319.34 c 0,-43.63 -35.367,-79 -78.996,-79 -43.629,0 -78.996,35.37 -78.996,79 0,43.63 35.367,78.99 78.996,78.99 43.629,0 78.996,-35.36 78.996,-78.99" /><path
         id="path38"
         style="fill:#fde7be;fill-opacity:1;fill-rule:nonzero;stroke:none"
         d="M 6852.06,5837.48 H 3716.69 V 8972.85 H 6852.06 V 5837.48" /><path
         id="path40"
         style="fill:#5690d3;fill-opacity:1;fill-rule:nonzero;stroke:none"
         d="m 5284.38,8723.97 c -245.65,0 -472.41,-265.86 -591.81,-693.83 l -7.23,-25.93 -25.94,-7.24 c -427.97,-119.4 -693.83,-346.17 -693.83,-591.81 0,-245.64 265.86,-472.41 693.83,-591.8 l 25.94,-7.24 7.23,-25.93 c 119.4,-427.97 346.16,-693.84 591.81,-693.84 245.64,0 472.4,265.87 591.8,693.84 l 7.23,25.93 25.94,7.24 c 427.97,119.4 693.83,346.17 693.83,591.8 0,245.64 -265.86,472.41 -693.83,591.81 l -25.94,7.24 -7.23,25.93 c -119.4,427.97 -346.16,693.83 -591.8,693.83 z m 0,-2733.13 c -285.04,0 -542.76,281.97 -676.43,737.89 -455.93,133.68 -737.89,391.4 -737.89,676.43 0,285.04 281.96,542.75 737.89,676.43 133.67,455.93 391.39,737.89 676.43,737.89 285.03,0 542.75,-281.96 676.42,-737.89 455.93,-133.68 737.89,-391.4 737.89,-676.43 0,-285.03 -281.96,-542.74 -737.89,-676.43 -133.67,-455.92 -391.39,-737.89 -676.42,-737.89" /><path
         id="path42"
         style="fill:#5690d3;fill-opacity:1;fill-rule:nonzero;stroke:none"
         d="m 6118.87,8239.65 c -155.44,155.43 -467.15,130.7 -813.51,-64.56 l -20.98,-11.83 -20.99,11.83 c -346.36,195.26 -658.07,219.99 -813.5,64.56 -155.44,-155.43 -130.7,-467.15 64.55,-813.5 l 11.83,-20.99 -11.83,-20.99 c -195.25,-346.35 -219.99,-658.07 -64.55,-813.5 155.43,-155.43 467.14,-130.69 813.5,64.56 l 20.98,11.83 20.99,-11.83 c 346.36,-195.25 658.07,-219.99 813.5,-64.55 155.44,155.43 130.7,467.14 -64.55,813.49 l -11.84,21 11.83,20.98 c 195.26,346.35 220,658.07 64.57,813.5 z M 4389.45,6510.23 c -180.36,180.37 -165.02,521.86 38.89,894.93 -203.91,373.08 -219.25,714.57 -38.89,894.93 180.36,180.36 521.84,165.01 894.93,-38.89 373.07,203.9 714.56,219.25 894.92,38.89 180.36,-180.36 165.02,-521.85 -38.89,-894.93 203.9,-373.08 219.24,-714.56 38.89,-894.92 -180.36,-180.36 -521.84,-165.02 -894.93,38.89 -373.07,-203.91 -714.56,-219.25 -894.92,-38.9" /><path
         id="path44"
         style="fill:#ccd1ee;fill-opacity:1;fill-rule:nonzero;stroke:none"
         d="m 5284.37,7642.15 181.39,200.91 -13.81,-270.32 270.32,13.81 -200.91,-181.39 200.91,-181.38 -270.32,13.81 13.81,-270.32 -181.39,200.9 -181.38,-200.9 13.81,270.32 -270.32,-13.81 200.91,181.38 -200.91,181.39 270.32,-13.81 -13.81,270.32 181.38,-200.91" /><path
         id="path46"
         style="fill:#ccd1ee;fill-opacity:1;fill-rule:nonzero;stroke:none"
         d="m 4174.31,8696.29 c 0,-75.38 -61.11,-136.49 -136.5,-136.49 -75.38,0 -136.49,61.11 -136.49,136.49 0,75.39 61.11,136.5 136.49,136.5 75.39,0 136.5,-61.11 136.5,-136.5" /><path
         id="path48"
         style="fill:#ccd1ee;fill-opacity:1;fill-rule:nonzero;stroke:none"
         d="m 6667.43,8696.29 c 0,-75.38 -61.12,-136.49 -136.5,-136.49 -75.38,0 -136.49,61.11 -136.49,136.49 0,75.39 61.11,136.5 136.49,136.5 75.38,0 136.5,-61.11 136.5,-136.5" /><path
         id="path50"
         style="fill:#ccd1ee;fill-opacity:1;fill-rule:nonzero;stroke:none"
         d="m 4174.31,6114.03 c 0,-75.38 -61.11,-136.49 -136.5,-136.49 -75.38,0 -136.49,61.11 -136.49,136.49 0,75.39 61.11,136.5 136.49,136.5 75.39,0 136.5,-61.11 136.5,-136.5" /><path
         id="path52"
         style="fill:#ccd1ee;fill-opacity:1;fill-rule:nonzero;stroke:none"
         d="m 6667.43,6114.03 c 0,-75.38 -61.12,-136.49 -136.5,-136.49 -75.38,0 -136.49,61.11 -136.49,136.49 0,75.39 61.11,136.5 136.49,136.5 75.38,0 136.5,-61.11 136.5,-136.5" /><path
         id="path54"
         style="fill:#5690d3;fill-opacity:1;fill-rule:nonzero;stroke:none"
         d="m 5919.69,7587.41 c -35.96,-14.61 -76.95,2.7 -91.56,38.66 -14.6,35.95 2.7,76.94 38.66,91.55 35.96,14.6 76.94,-2.7 91.55,-38.66 14.61,-35.95 -2.7,-76.94 -38.65,-91.55" /><path
         id="path56"
         style="fill:#5690d3;fill-opacity:1;fill-rule:nonzero;stroke:none"
         d="m 4701.96,7092.71 c -35.96,-14.61 -76.95,2.7 -91.55,38.65 -14.61,35.96 2.7,76.95 38.65,91.55 35.96,14.61 76.95,-2.7 91.55,-38.65 14.61,-35.96 -2.7,-76.95 -38.65,-91.55" /><path
         id="path58"
         style="fill:#5690d3;fill-opacity:1;fill-rule:nonzero;stroke:none"
         d="m 5466.62,6769.85 c -14.6,35.96 2.7,76.94 38.66,91.55 35.95,14.61 76.94,-2.7 91.55,-38.65 14.61,-35.96 -2.7,-76.95 -38.66,-91.55 -35.95,-14.61 -76.94,2.7 -91.55,38.65" /><path
         id="path60"
         style="fill:#5690d3;fill-opacity:1;fill-rule:nonzero;stroke:none"
         d="m 4971.92,7987.58 c -14.61,35.95 2.7,76.94 38.65,91.55 35.96,14.61 76.95,-2.7 91.55,-38.66 14.61,-35.95 -2.69,-76.94 -38.65,-91.55 -35.96,-14.6 -76.94,2.7 -91.55,38.66" /><path
         id="path62"
         style="fill:#5690d3;fill-opacity:1;fill-rule:nonzero;stroke:none"
         d="m 5862.48,7084.8 c -35.76,15.09 -52.5,56.32 -37.41,92.07 15.1,35.75 56.32,52.5 92.07,37.4 35.75,-15.09 52.5,-56.31 37.4,-92.07 -15.09,-35.75 -56.31,-52.5 -92.06,-37.4" /><path
         id="path64"
         style="fill:#5690d3;fill-opacity:1;fill-rule:nonzero;stroke:none"
         d="m 4651.6,7596.05 c -35.75,15.1 -52.49,56.32 -37.4,92.07 15.1,35.76 56.32,52.5 92.07,37.41 35.75,-15.1 52.5,-56.32 37.4,-92.07 -15.09,-35.76 -56.31,-52.5 -92.07,-37.41" /><path
         id="path66"
         style="fill:#5690d3;fill-opacity:1;fill-rule:nonzero;stroke:none"
         d="m 4964.01,6827.06 c 15.1,35.75 56.32,52.5 92.07,37.4 35.75,-15.09 52.5,-56.31 37.4,-92.07 -15.09,-35.75 -56.31,-52.5 -92.07,-37.4 -35.75,15.1 -52.5,56.32 -37.4,92.07" /><path
         id="path68"
         style="fill:#5690d3;fill-opacity:1;fill-rule:nonzero;stroke:none"
         d="m 5475.26,8037.93 c 15.1,35.75 56.32,52.5 92.07,37.4 35.76,-15.09 52.5,-56.31 37.41,-92.06 -15.1,-35.76 -56.32,-52.5 -92.07,-37.41 -35.75,15.1 -52.5,56.32 -37.41,92.07" /><path
         id="path70"
         style="fill:#5690d3;fill-opacity:1;fill-rule:nonzero;stroke:none"
         d="M 10273.6,5837.48 H 7138.2 v 3135.37 h 3135.4 V 5837.48" /><path
         id="path72"
         style="fill:#d9f1fc;fill-opacity:1;fill-rule:nonzero;stroke:none"
         d="m 9577.36,8276.64 c 22.76,-92.41 15.88,-206.85 -17.91,-333.36 -76.3,28.34 -157.45,52.93 -242.18,73.27 -20.34,84.73 -44.93,165.88 -73.28,242.19 126.51,33.79 240.96,40.67 333.37,17.9" /><path
         id="path74"
         style="fill:#d9f1fc;fill-opacity:1;fill-rule:nonzero;stroke:none"
         d="m 9124.93,7362.84 c 37.89,-57.56 69.78,-114.97 95.29,-170.73 -57.46,-21.38 -120.61,-39.43 -188.1,-53.34 l -49.62,-10.23 -10.23,-49.62 c -13.91,-67.49 -31.96,-130.64 -53.34,-188.11 -55.76,25.52 -113.17,57.41 -170.73,95.3 l -42.32,27.85 -42.32,-27.85 c -57.56,-37.89 -114.97,-69.78 -170.73,-95.29 -21.38,57.47 -39.43,120.61 -53.34,188.1 l -10.23,49.62 -49.62,10.23 c -67.49,13.91 -130.63,31.96 -188.1,53.34 25.52,55.76 57.4,113.17 95.29,170.73 l 27.86,42.32 -27.86,42.32 c -37.89,57.56 -69.77,114.98 -95.29,170.73 57.47,21.38 120.61,39.43 188.1,53.34 l 49.62,10.23 10.23,49.62 c 13.91,67.49 31.96,130.64 53.34,188.11 55.76,-25.52 113.17,-57.41 170.73,-95.3 l 42.32,-27.85 42.32,27.86 c 57.56,37.88 114.98,69.77 170.73,95.29 21.38,-57.47 39.44,-120.61 53.35,-188.11 l 10.22,-49.62 49.62,-10.23 c 67.5,-13.91 130.64,-31.96 188.11,-53.34 -25.52,-55.75 -57.41,-113.17 -95.3,-170.73 l -27.85,-42.32 27.85,-42.32" /><path
         id="path76"
         style="fill:#d9f1fc;fill-opacity:1;fill-rule:nonzero;stroke:none"
         d="m 8705.88,8637.62 c 81.44,-49.24 157.5,-135.03 223.06,-248.39 -73.99,-33.91 -148.77,-73.91 -223.06,-119.45 -74.29,45.54 -149.06,85.53 -223.05,119.44 65.56,113.36 141.62,199.15 223.05,248.4" /><path
         id="path78"
         style="fill:#d9f1fc;fill-opacity:1;fill-rule:nonzero;stroke:none"
         d="m 7834.4,8276.64 c 92.42,22.77 206.86,15.89 333.37,-17.91 -28.34,-76.3 -52.94,-157.45 -73.27,-242.18 -84.73,-20.34 -165.88,-44.93 -242.18,-73.28 -33.8,126.52 -40.68,240.96 -17.92,333.37" /><path
         id="path80"
         style="fill:#d9f1fc;fill-opacity:1;fill-rule:nonzero;stroke:none"
         d="m 7473.43,7405.17 c 49.24,81.43 135.03,157.49 248.39,223.05 33.91,-74 73.9,-148.77 119.44,-223.06 -45.54,-74.29 -85.53,-149.06 -119.44,-223.05 -113.36,65.56 -199.15,141.62 -248.39,223.06" /><path
         id="path82"
         style="fill:#d9f1fc;fill-opacity:1;fill-rule:nonzero;stroke:none"
         d="m 7834.4,6533.69 c -22.76,92.4 -15.88,206.85 17.92,333.36 76.3,-28.34 157.45,-52.94 242.18,-73.27 20.33,-84.73 44.92,-165.88 73.27,-242.18 -126.52,-33.79 -240.96,-40.67 -333.37,-17.91" /><path
         id="path84"
         style="fill:#d9f1fc;fill-opacity:1;fill-rule:nonzero;stroke:none"
         d="m 8705.88,6172.71 c -81.43,49.24 -157.49,135.03 -223.05,248.38 73.99,33.91 148.77,73.91 223.05,119.44 74.29,-45.53 149.06,-85.52 223.06,-119.43 -65.56,-113.35 -141.62,-199.14 -223.06,-248.39" /><path
         id="path86"
         style="fill:#d9f1fc;fill-opacity:1;fill-rule:nonzero;stroke:none"
         d="m 9577.35,6533.69 c -92.4,-22.78 -206.85,-15.9 -333.36,17.89 28.35,76.31 52.94,157.46 73.27,242.2 84.73,20.33 165.88,44.93 242.18,73.27 33.8,-126.51 40.68,-240.96 17.91,-333.36" /><path
         id="path88"
         style="fill:#d9f1fc;fill-opacity:1;fill-rule:nonzero;stroke:none"
         d="m 9689.95,7182.1 c -33.91,74 -73.91,148.77 -119.44,223.06 45.53,74.29 85.53,149.06 119.44,223.06 113.35,-65.56 199.14,-141.62 248.39,-223.06 -49.24,-81.44 -135.04,-157.5 -248.39,-223.06" /><path
         id="path90"
         style="fill:#add7f3;fill-opacity:1;fill-rule:nonzero;stroke:none"
         d="m 9651.84,7072.29 c -43.29,108.16 -101.48,220.17 -173.98,332.87 72.5,112.7 130.69,224.71 173.98,332.88 183.22,-89.85 314.96,-204.73 375.46,-332.88 -60.5,-128.14 -192.23,-243.02 -375.46,-332.87 z m -11.55,-601.53 c -133.4,-47.81 -307.79,-35.9 -500.9,30.14 45.87,107.09 83.94,227.44 112.36,358.39 130.95,28.43 251.3,66.49 358.4,112.36 66.03,-193.09 77.94,-367.48 30.14,-500.89 z m -934.41,-387.05 c -128.14,60.54 -243.02,192.27 -332.87,375.5 108.17,43.29 220.18,101.47 332.87,173.97 112.73,-72.52 224.73,-130.59 332.91,-173.88 -89.85,-183.27 -204.74,-315.04 -332.91,-375.59 z m -934.41,387.05 c -47.8,133.41 -35.88,307.8 30.15,500.89 107.09,-45.87 227.44,-83.93 358.39,-112.36 28.43,-130.95 66.49,-251.3 112.36,-358.4 -193.09,-66.02 -367.48,-77.94 -500.9,-30.13 z m -387.04,934.41 c 60.53,128.14 192.27,243.02 375.5,332.86 43.29,-108.16 101.47,-220.17 173.97,-332.87 -72.5,-112.69 -130.68,-224.7 -173.97,-332.87 -183.23,89.85 -314.96,204.73 -375.5,332.88 z m 387.04,934.4 c 133.43,47.83 307.81,35.91 500.91,-30.13 -45.88,-107.1 -83.94,-227.45 -112.37,-358.41 -130.95,-28.42 -251.3,-66.48 -358.39,-112.36 -66.03,193.1 -77.95,367.48 -30.15,500.9 z m 934.41,387.05 c 128.15,-60.54 243.03,-192.27 332.88,-375.5 -108.17,-43.29 -220.18,-101.48 -332.88,-173.98 -112.69,72.5 -224.7,130.68 -332.87,173.97 89.85,183.23 204.73,314.97 332.87,375.51 z m 696.19,-1342.01 c 76.93,-116.87 137.91,-232.58 182.15,-343.26 -109.55,-46.99 -234.49,-85.69 -371.54,-113.94 l -24.08,-4.97 -4.97,-24.09 c -28.25,-137.03 -66.95,-261.98 -113.93,-371.52 -110.68,44.24 -226.4,105.22 -343.27,182.14 l -20.55,13.53 -20.54,-13.53 c -116.87,-76.93 -232.59,-137.91 -343.28,-182.15 -46.98,109.55 -85.68,234.5 -113.93,371.54 l -4.97,24.08 -24.08,4.97 c -137.04,28.25 -261.98,66.95 -371.53,113.94 44.24,110.68 105.22,226.39 182.15,343.26 l 13.52,20.55 -13.52,20.54 c -76.93,116.88 -137.91,232.59 -182.15,343.28 109.54,46.98 234.49,85.68 371.53,113.93 l 24.08,4.97 4.97,24.08 c 28.25,137.05 66.95,262 113.94,371.55 110.68,-44.25 226.4,-105.23 343.27,-182.17 l 20.54,-13.52 20.55,13.52 c 116.87,76.94 232.58,137.92 343.27,182.16 46.99,-109.55 85.69,-234.49 113.93,-371.54 l 4.97,-24.08 24.09,-4.97 c 137.04,-28.24 261.98,-66.94 371.53,-113.93 C 9539.98,7658.3 9479,7542.58 9402.07,7425.7 l -13.53,-20.54 z m 238.22,954.96 c 47.81,-133.42 35.89,-307.8 -30.14,-500.9 -107.1,45.88 -227.44,83.94 -358.39,112.36 -28.43,130.96 -66.49,251.31 -112.37,358.4 193.1,66.04 367.49,77.95 500.9,30.14 z m 462.41,-919.74 c -64.6,151.32 -214.66,285.76 -424.81,387.95 76.35,220.86 87.38,422.03 26.04,574.69 l -5.94,14.79 -14.8,5.95 c -152.66,61.33 -353.84,50.3 -574.69,-26.04 -102.19,210.16 -236.64,360.21 -387.95,424.78 l -14.67,6.26 -14.67,-6.26 c -151.31,-64.58 -285.76,-214.63 -387.94,-424.79 -220.86,76.35 -422.04,87.38 -574.7,26.05 l -14.79,-5.95 -5.95,-14.79 c -61.33,-152.66 -50.3,-353.83 26.05,-574.69 -210.16,-102.19 -360.21,-236.63 -424.78,-387.94 l -6.26,-14.67 6.26,-14.67 c 64.57,-151.32 214.62,-285.77 424.78,-387.95 -76.35,-220.86 -87.38,-422.03 -26.05,-574.69 l 5.95,-14.8 14.79,-5.95 c 152.68,-61.34 353.85,-50.3 574.7,26.04 102.19,-210.15 236.63,-360.2 387.94,-424.77 l 14.67,-6.26 14.67,6.26 c 151.32,64.58 285.78,214.64 387.96,424.81 125.18,-43.27 244.06,-65.65 351.34,-65.65 81.97,0 157.21,13.01 223.33,39.57 l 14.8,5.95 5.95,14.8 c 61.33,152.66 50.3,353.83 -26.04,574.69 210.16,102.18 360.21,236.63 424.81,387.94 l 6.2,14.67 -6.2,14.67" /><path
         id="path92"
         style="fill:#d9f1fc;fill-opacity:1;fill-rule:nonzero;stroke:none"
         d="m 7243.02,8868.02 319.26,-85.54 c 141.89,-38.02 189.42,-215.39 85.55,-319.26 v 0 c -103.88,-103.87 -281.24,-56.35 -319.26,85.54 l -85.55,319.26" /><path
         id="path94"
         style="fill:#d9f1fc;fill-opacity:1;fill-rule:nonzero;stroke:none"
         d="m 10168.7,8868.02 -319.22,-85.54 c -141.89,-38.02 -189.41,-215.39 -85.54,-319.26 v 0 c 103.87,-103.87 281.26,-56.35 319.26,85.54 l 85.5,319.26" /><path
         id="path96"
         style="fill:#d9f1fc;fill-opacity:1;fill-rule:nonzero;stroke:none"
         d="m 7243.02,5942.3 319.26,85.55 c 141.89,38.02 189.42,215.38 85.55,319.26 v 0 c -103.88,103.87 -281.24,56.34 -319.26,-85.55 l -85.55,-319.26" /><path
         id="path98"
         style="fill:#d9f1fc;fill-opacity:1;fill-rule:nonzero;stroke:none"
         d="m 10168.7,5942.3 -319.22,85.55 c -141.89,38.02 -189.41,215.38 -85.54,319.26 v 0 c 103.87,103.87 281.26,56.34 319.26,-85.55 l 85.5,-319.26" /><path
         id="path100"
         style="fill:#5690d3;fill-opacity:1;fill-rule:nonzero;stroke:none"
         d="m 13678.9,5837.48 h -3135.4 v 3135.37 h 3135.4 V 5837.48" /><path
         id="path102"
         style="fill:#fde7cb;fill-opacity:1;fill-rule:nonzero;stroke:none"
         d="m 12903.9,5837.48 h -1585.5 c -428,0 -774.9,346.94 -774.9,774.92 v 1585.52 c 0,427.98 346.9,774.93 774.9,774.93 h 1585.5 c 428,0 775,-346.95 775,-774.93 V 6612.4 c 0,-427.98 -347,-774.92 -775,-774.92" /><path
         id="path104"
         style="fill:#5690d3;fill-opacity:1;fill-rule:nonzero;stroke:none"
         d="m 12111.2,7042.54 v 0 c -200.3,0 -362.6,162.35 -362.6,362.62 v 0 c 0,200.27 162.3,362.62 362.6,362.62 200.2,0 362.6,-162.35 362.6,-362.62 v 0 c 0,-200.27 -162.4,-362.62 -362.6,-362.62" /><path
         id="path106"
         style="fill:#5690d3;fill-opacity:1;fill-rule:nonzero;stroke:none"
         d="m 11506.9,8011.82 c 9.9,160.3 50.5,295.31 119.4,391 -188.4,52.31 -359,54.02 -492.4,0.39 l -14.8,-5.95 -6,-14.79 c -53.4,-132.98 -51.9,-302.78 -0.1,-490.32 96,69.59 232.2,110.3 393.9,119.67" /><path
         id="path108"
         style="fill:#5690d3;fill-opacity:1;fill-rule:nonzero;stroke:none"
         d="m 12717.8,8009.45 c 160.3,-9.93 295.3,-50.57 391,-119.45 52.3,188.4 54.1,358.98 0.4,492.47 l -5.9,14.79 -14.8,5.95 c -133,53.42 -302.8,51.9 -490.3,0.17 69.5,-96.09 110.3,-232.22 119.6,-393.93" /><path
         id="path110"
         style="fill:#5690d3;fill-opacity:1;fill-rule:nonzero;stroke:none"
         d="m 11254.9,7406.84 c -106.3,120.37 -173.1,244.58 -192,360.94 -170.2,-96.22 -292.1,-215.64 -348.5,-347.94 l -6.3,-14.67 6.3,-14.67 c 56.2,-131.81 177.4,-250.79 346.6,-346.83 18.7,117.16 86.2,242.2 193.9,363.17" /><path
         id="path112"
         style="fill:#5690d3;fill-opacity:1;fill-rule:nonzero;stroke:none"
         d="m 12112.9,8261.43 c 120.3,106.33 244.5,173.06 360.9,192.01 -96.2,170.22 -215.6,292.05 -348,348.51 l -14.6,6.25 -14.7,-6.25 c -131.8,-56.25 -250.8,-177.4 -346.8,-346.59 117.1,-18.75 242.2,-86.22 363.2,-193.93" /><path
         id="path114"
         style="fill:#5690d3;fill-opacity:1;fill-rule:nonzero;stroke:none"
         d="m 12352.9,6389.65 c -80.6,33.56 -162.9,87.58 -243.4,159.26 -120.4,-106.34 -244.6,-173.08 -360.9,-192.03 96.2,-170.21 215.6,-292.04 347.9,-348.5 l 14.7,-6.26 14.6,6.26 c 131.8,56.24 250.8,177.36 346.8,346.52 -39.1,6.27 -79.2,17.88 -119.7,34.75" /><path
         id="path116"
         style="fill:#5690d3;fill-opacity:1;fill-rule:nonzero;stroke:none"
         d="m 11504.5,6800.87 c -160.3,9.92 -295.3,50.56 -391,119.45 -52.3,-188.39 -54,-358.98 -0.4,-492.46 l 6,-14.8 14.8,-5.95 c 133,-53.43 302.8,-51.9 490.3,-0.17 -69.6,96.09 -110.3,232.22 -119.7,393.93" /><path
         id="path118"
         style="fill:#5690d3;fill-opacity:1;fill-rule:nonzero;stroke:none"
         d="m 13508,7419.83 c -56.3,131.81 -177.4,250.79 -346.6,346.82 -18.8,-117.15 -86.2,-242.19 -194,-363.17 106.4,-120.36 173.1,-244.57 192.1,-360.94 170.2,96.23 292,215.64 348.5,347.95 l 6.2,14.67 -6.2,14.67" /><path
         id="path120"
         style="fill:#5690d3;fill-opacity:1;fill-rule:nonzero;stroke:none"
         d="m 12715.5,6798.5 c -10,-160.22 -50.6,-295.18 -119.4,-390.85 95,-26.39 185.6,-40.11 269,-40.11 82,0 157.3,13.01 223.4,39.57 l 14.8,5.95 5.9,14.8 c 53.4,132.97 51.9,302.77 0.2,490.31 -96.1,-69.58 -232.2,-110.3 -393.9,-119.67" /><path
         id="path122"
         style="fill:#5690d3;fill-opacity:1;fill-rule:nonzero;stroke:none"
         d="m 12747,7587.97 c -35.9,-14.6 -76.9,2.7 -91.5,38.66 -14.6,35.95 2.7,76.94 38.6,91.55 36,14.61 77,-2.7 91.6,-38.65 14.6,-35.96 -2.7,-76.95 -38.7,-91.56" /><path
         id="path124"
         style="fill:#5690d3;fill-opacity:1;fill-rule:nonzero;stroke:none"
         d="m 11529.3,7093.27 c -35.9,-14.61 -76.9,2.7 -91.5,38.66 -14.6,35.95 2.7,76.94 38.6,91.55 36,14.6 77,-2.7 91.6,-38.66 14.6,-35.95 -2.7,-76.94 -38.7,-91.55" /><path
         id="path126"
         style="fill:#5690d3;fill-opacity:1;fill-rule:nonzero;stroke:none"
         d="m 12294,6770.41 c -14.6,35.96 2.7,76.95 38.6,91.56 36,14.6 77,-2.7 91.6,-38.66 14.6,-35.95 -2.7,-76.94 -38.7,-91.55 -35.9,-14.61 -76.9,2.7 -91.5,38.65" /><path
         id="path128"
         style="fill:#5690d3;fill-opacity:1;fill-rule:nonzero;stroke:none"
         d="m 11799.3,7988.14 c -14.6,35.96 2.7,76.95 38.6,91.55 36,14.61 77,-2.7 91.6,-38.65 14.6,-35.96 -2.7,-76.95 -38.7,-91.55 -35.9,-14.61 -76.9,2.7 -91.5,38.65" /><path
         id="path130"
         style="fill:#5690d3;fill-opacity:1;fill-rule:nonzero;stroke:none"
         d="m 12689.8,7085.36 c -35.7,15.1 -52.5,56.32 -37.4,92.07 15.1,35.75 56.4,52.5 92.1,37.4 35.8,-15.09 52.5,-56.31 37.4,-92.06 -15.1,-35.76 -56.3,-52.5 -92.1,-37.41" /><path
         id="path132"
         style="fill:#5690d3;fill-opacity:1;fill-rule:nonzero;stroke:none"
         d="m 11479,7596.62 c -35.8,15.09 -52.5,56.31 -37.4,92.07 15.1,35.75 56.3,52.5 92,37.4 35.8,-15.1 52.5,-56.32 37.4,-92.07 -15.1,-35.75 -56.3,-52.5 -92,-37.4" /><path
         id="path134"
         style="fill:#5690d3;fill-opacity:1;fill-rule:nonzero;stroke:none"
         d="m 11791.4,6827.62 c 15.1,35.76 56.3,52.5 92,37.41 35.8,-15.1 52.5,-56.32 37.4,-92.07 -15.1,-35.76 -56.3,-52.5 -92,-37.41 -35.8,15.1 -52.5,56.32 -37.4,92.07" /><path
         id="path136"
         style="fill:#5690d3;fill-opacity:1;fill-rule:nonzero;stroke:none"
         d="m 12302.6,8038.49 c 15.1,35.76 56.3,52.5 92.1,37.41 35.7,-15.1 52.5,-56.32 37.4,-92.07 -15.1,-35.75 -56.3,-52.5 -92.1,-37.4 -35.7,15.09 -52.5,56.31 -37.4,92.06" /><path
         id="path138"
         style="fill:#5690d3;fill-opacity:1;fill-rule:nonzero;stroke:none"
         d="m 13418.6,7780.62 c -74,-30.05 -158.3,5.55 -188.3,79.51 -30.1,73.96 5.5,158.28 79.5,188.33 73.9,30.04 158.3,-5.56 188.3,-79.52 30.1,-73.96 -5.5,-158.28 -79.5,-188.32" /><path
         id="path140"
         style="fill:#5690d3;fill-opacity:1;fill-rule:nonzero;stroke:none"
         d="m 10913.7,6763 c -74,-30.05 -158.3,5.55 -188.3,79.51 -30.1,73.96 5.5,158.28 79.5,188.32 73.9,30.05 158.3,-5.55 188.3,-79.51 30,-73.96 -5.6,-158.28 -79.5,-188.32" /><path
         id="path142"
         style="fill:#5690d3;fill-opacity:1;fill-rule:nonzero;stroke:none"
         d="m 12486.6,6098.87 c -30,73.96 5.6,158.27 79.5,188.32 74,30.05 158.3,-5.55 188.4,-79.51 30,-73.96 -5.6,-158.28 -79.6,-188.33 -73.9,-30.04 -158.2,5.56 -188.3,79.52" /><path
         id="path144"
         style="fill:#5690d3;fill-opacity:1;fill-rule:nonzero;stroke:none"
         d="m 11469,8603.77 c -30,73.97 5.6,158.28 79.5,188.33 74,30.04 158.3,-5.56 188.3,-79.52 30.1,-73.96 -5.5,-158.27 -79.5,-188.32 -73.9,-30.05 -158.2,5.55 -188.3,79.51" /><path
         id="path146"
         style="fill:#5690d3;fill-opacity:1;fill-rule:nonzero;stroke:none"
         d="m 13300.9,6746.73 c -73.5,31.05 -108,115.84 -76.9,189.39 31,73.54 115.8,107.99 189.4,76.94 73.5,-31.06 108,-115.85 76.9,-189.39 -31.1,-73.55 -115.8,-108 -189.4,-76.94" /><path
         id="path148"
         style="fill:#5690d3;fill-opacity:1;fill-rule:nonzero;stroke:none"
         d="m 10810.1,7798.4 c -73.5,31.05 -108,115.84 -76.9,189.39 31,73.54 115.8,107.99 189.4,76.94 73.5,-31.06 108,-115.85 76.9,-189.39 -31.1,-73.55 -115.8,-108 -189.4,-76.94" /><path
         id="path150"
         style="fill:#5690d3;fill-opacity:1;fill-rule:nonzero;stroke:none"
         d="m 11452.7,6216.55 c 31.1,73.54 115.9,107.99 189.4,76.94 73.6,-31.05 108,-115.85 77,-189.39 -31.1,-73.55 -115.9,-107.99 -189.4,-76.94 -73.6,31.05 -108,115.84 -77,189.39" /><path
         id="path152"
         style="fill:#5690d3;fill-opacity:1;fill-rule:nonzero;stroke:none"
         d="m 12504.4,8707.35 c 31.1,73.55 115.9,107.99 189.4,76.94 73.5,-31.05 108,-115.84 76.9,-189.39 -31,-73.54 -115.8,-107.99 -189.4,-76.94 -73.5,31.05 -107.9,115.85 -76.9,189.39" /><path
         id="path154"
         style="fill:#fde7cb;fill-opacity:1;fill-rule:nonzero;stroke:none"
         d="M 10273.6,827.711 H 7138.2 V 3963.08 h 3135.4 V 827.711" /><path
         id="path156"
         style="fill:#5690d3;fill-opacity:1;fill-rule:nonzero;stroke:none"
         d="m 8705.88,1713.29 v 0 c -376.72,0 -682.11,305.39 -682.11,682.11 v 0 c 0,376.72 305.39,682.11 682.11,682.11 376.72,0 682.11,-305.39 682.11,-682.11 v 0 c 0,-376.72 -305.39,-682.11 -682.11,-682.11" /><path
         id="path158"
         style="fill:#5690d3;fill-opacity:1;fill-rule:nonzero;stroke:none"
         d="m 9341.76,2578.21 c -35.96,-14.61 -76.95,2.7 -91.55,38.66 -14.61,35.95 2.7,76.94 38.65,91.55 35.96,14.6 76.95,-2.7 91.55,-38.66 14.61,-35.95 -2.7,-76.94 -38.65,-91.55" /><path
         id="path160"
         style="fill:#5690d3;fill-opacity:1;fill-rule:nonzero;stroke:none"
         d="m 8124.03,2083.51 c -35.96,-14.61 -76.94,2.7 -91.55,38.65 -14.61,35.96 2.7,76.95 38.65,91.55 35.96,14.61 76.95,-2.7 91.55,-38.65 14.61,-35.96 -2.69,-76.95 -38.65,-91.55" /><path
         id="path162"
         style="fill:#5690d3;fill-opacity:1;fill-rule:nonzero;stroke:none"
         d="m 8888.7,1760.65 c -14.61,35.96 2.7,76.94 38.65,91.55 35.95,14.61 76.94,-2.7 91.55,-38.65 14.61,-35.96 -2.7,-76.95 -38.65,-91.55 -35.96,-14.61 -76.95,2.7 -91.55,38.65" /><path
         id="path164"
         style="fill:#5690d3;fill-opacity:1;fill-rule:nonzero;stroke:none"
         d="m 8393.99,2978.38 c -14.61,35.95 2.7,76.94 38.66,91.55 35.95,14.61 76.94,-2.7 91.55,-38.66 14.6,-35.95 -2.7,-76.94 -38.66,-91.55 -35.95,-14.6 -76.94,2.7 -91.55,38.66" /><path
         id="path166"
         style="fill:#5690d3;fill-opacity:1;fill-rule:nonzero;stroke:none"
         d="m 9284.55,2075.6 c -35.75,15.09 -52.5,56.32 -37.41,92.07 15.1,35.75 56.32,52.5 92.08,37.4 35.75,-15.09 52.5,-56.32 37.4,-92.07 -15.1,-35.75 -56.32,-52.5 -92.07,-37.4" /><path
         id="path168"
         style="fill:#5690d3;fill-opacity:1;fill-rule:nonzero;stroke:none"
         d="m 8073.68,2586.85 c -35.76,15.1 -52.5,56.32 -37.41,92.07 15.1,35.76 56.32,52.5 92.07,37.41 35.76,-15.1 52.5,-56.32 37.41,-92.07 -15.1,-35.76 -56.32,-52.5 -92.07,-37.41" /><path
         id="path170"
         style="fill:#5690d3;fill-opacity:1;fill-rule:nonzero;stroke:none"
         d="m 8386.08,1817.86 c 15.1,35.75 56.32,52.5 92.07,37.4 35.76,-15.09 52.5,-56.31 37.41,-92.07 -15.1,-35.75 -56.32,-52.5 -92.07,-37.4 -35.76,15.1 -52.5,56.32 -37.41,92.07" /><path
         id="path172"
         style="fill:#5690d3;fill-opacity:1;fill-rule:nonzero;stroke:none"
         d="m 8897.34,3028.73 c 15.09,35.75 56.31,52.5 92.07,37.4 35.75,-15.09 52.5,-56.31 37.4,-92.06 -15.09,-35.76 -56.32,-52.5 -92.07,-37.41 -35.75,15.1 -52.5,56.32 -37.4,92.07" /><path
         id="path174"
         style="fill:#5690d3;fill-opacity:1;fill-rule:nonzero;stroke:none"
         d="m 10008.1,2003.29 c -73.57,31.06 -158.36,-3.39 -189.42,-76.94 -31.05,-73.54 3.4,-158.33 76.94,-189.39 2.19,-0.92 4.42,-1.6 6.63,-2.41 -114.6,-61.88 -261.32,-98.64 -430.1,-108.42 -10.87,-175.56 -50.86,-327.13 -117.82,-443.37 -1.44,5.08 -3.12,10.14 -5.15,15.16 -30.05,73.96 -114.37,109.56 -188.33,79.51 -73.96,-30.05 -109.56,-114.36 -79.51,-188.32 1,-2.48 2.22,-4.8 3.35,-7.19 -23.92,7.11 -48.02,15.67 -72.24,25.76 -102.21,42.56 -206.59,111.06 -308.67,201.95 -132.07,-116.67 -267.78,-195.66 -397.55,-230.42 2.76,4.86 5.32,9.86 7.55,15.13 31.05,73.54 -3.4,158.33 -76.94,189.39 -73.55,31.05 -158.34,-3.4 -189.39,-76.94 -1.02,-2.42 -1.78,-4.87 -2.66,-7.3 -61.73,114.53 -98.41,261.09 -108.18,429.64 -176.26,10.91 -328.35,51.16 -444.79,118.61 5.56,1.52 11.1,3.27 16.58,5.49 73.96,30.05 109.56,114.37 79.51,188.33 -30.05,73.96 -114.36,109.56 -188.32,79.51 -2.27,-0.92 -4.39,-2.05 -6.59,-3.07 37.43,124.4 115.05,253.7 227.09,379.53 -117.07,132.53 -196.21,268.71 -230.78,398.88 4.98,-2.84 10.1,-5.49 15.51,-7.78 73.55,-31.05 158.34,3.4 189.39,76.94 31.05,73.55 -3.4,158.34 -76.94,189.39 -2.01,0.85 -4.06,1.46 -6.08,2.22 114.35,61.33 260.48,97.76 428.43,107.49 10.92,176.43 51.23,328.65 118.79,445.13 1.48,-5.3 3.19,-10.57 5.31,-15.79 30.04,-73.96 114.36,-109.56 188.32,-79.51 73.96,30.04 109.56,114.36 79.51,188.32 -0.74,1.82 -1.65,3.51 -2.46,5.29 124.22,-37.5 253.3,-115.07 378.93,-226.92 132.24,116.82 268.12,195.86 398.04,230.55 -2.53,-4.55 -4.87,-9.25 -6.95,-14.15 -31.04,-73.55 3.4,-158.34 76.95,-189.39 73.54,-31.05 158.33,3.39 189.39,76.94 0.75,1.78 1.28,3.6 1.96,5.4 61.48,-114.42 98,-260.71 107.75,-428.88 175.72,-10.88 327.4,-50.93 443.7,-118 -4.82,-1.4 -9.62,-3.04 -14.36,-4.97 -73.97,-30.04 -109.57,-114.36 -79.52,-188.32 30.05,-73.96 114.36,-109.56 188.32,-79.51 2,0.79 3.8,1.77 5.7,2.64 -37.38,-124.62 -115.07,-254.17 -227.32,-380.23 116.4,-131.78 195.28,-267.17 230.12,-396.68 -4.4,2.44 -9,4.69 -13.7,6.7 z m 265.5,682.99 c -55.9,50.33 -120.3,97.76 -192.4,141.74 23.8,38.01 29.8,86.44 11.6,131.16 -19.8,48.88 -63.4,80.84 -112.04,88.34 56.44,224.07 55.14,426.75 -9.3,587.14 l -7.55,18.76 -18.75,7.55 c -156.83,63 -354.07,65.65 -572.19,12.97 -10.13,43.56 -40.11,81.86 -84.47,100.59 -48.72,20.57 -102.3,12.26 -142,-17 -46.24,77.46 -96.45,146.26 -149.87,205.55 H 8415 c -50.21,-55.75 -97.54,-120 -141.43,-191.84 -37.88,23.37 -85.94,29.13 -130.34,11.09 -48.98,-19.89 -80.98,-63.62 -88.38,-112.35 -224.51,56.75 -427.58,55.53 -588.24,-9.01 l -18.76,-7.55 -7.54,-18.76 c -63.03,-156.88 -65.66,-354.21 -12.91,-572.44 -43.11,-10.37 -80.95,-40.21 -99.52,-84.2 -20.49,-48.54 -12.32,-101.89 16.66,-141.54 -77.78,-46.37 -146.84,-96.74 -206.34,-150.35 v -581.61 c 55.96,-50.41 120.48,-97.91 192.66,-141.95 -23.11,-37.8 -28.74,-85.62 -10.79,-129.82 19.75,-48.62 62.98,-80.49 111.27,-88.21 -56.79,-224.57 -55.59,-427.71 8.97,-588.41 l 7.54,-18.76 18.76,-7.54 c 157.16,-63.14 354.87,-65.69 573.52,-12.67 10.32,-43.21 40.19,-81.16 84.26,-99.76 48.22,-20.361 101.18,-12.42 140.75,16.09 46.28,-77.549 96.53,-146.42 150.01,-205.779 h 581.62 c 50.52,56.09 98.13,120.781 142.25,193.159 37.93,-23.53 86.12,-29.358 130.64,-11.28 48.59,19.74 80.46,62.93 88.2,111.19 106.98,-27.03 209.16,-41.13 304.08,-41.13 103.95,0 199.36,16.5 283.21,50.18 l 18.75,7.54 7.55,18.76 c 63.15,157.08 65.65,354.7 12.73,573.25 43.62,10.07 82.12,40.09 100.82,84.52 20.5,48.41 12.4,101.6 -16.4,141.22 77.2,46.14 145.8,96.23 205,149.52 v 581.64" /><path
         id="path176"
         style="fill:#fde7be;fill-opacity:1;fill-rule:nonzero;stroke:none"
         d="M 3456.51,827.711 H 321.145 V 3963.09 H 3456.51 V 827.711" /><path
         id="path178"
         style="fill:#ccd1ee;fill-opacity:1;fill-rule:nonzero;stroke:none"
         d="m 1888.83,2871.9 364.69,403.95 -27.76,-543.52 543.52,27.76 -403.96,-364.69 403.96,-364.7 -543.52,27.77 27.76,-543.52 -364.69,403.95 -364.7,-403.95 27.76,543.52 -543.51,-27.77 403.95,364.7 -403.95,364.69 543.51,-27.76 -27.76,543.52 364.7,-403.95" /><path
         id="path180"
         style="fill:#ccd1ee;fill-opacity:1;fill-rule:nonzero;stroke:none"
         d="m 778.766,3686.53 c 0,-75.39 -61.114,-136.5 -136.496,-136.5 -75.383,0 -136.493,61.11 -136.493,136.5 0,75.38 61.11,136.49 136.493,136.49 75.382,0 136.496,-61.11 136.496,-136.49" /><path
         id="path182"
         style="fill:#ccd1ee;fill-opacity:1;fill-rule:nonzero;stroke:none"
         d="m 3271.88,3686.53 c 0,-75.39 -61.11,-136.5 -136.49,-136.5 -75.39,0 -136.5,61.11 -136.5,136.5 0,75.38 61.11,136.49 136.5,136.49 75.38,0 136.49,-61.11 136.49,-136.49" /><path
         id="path184"
         style="fill:#ccd1ee;fill-opacity:1;fill-rule:nonzero;stroke:none"
         d="m 778.766,1104.27 c 0,-75.38 -61.114,-136.489 -136.496,-136.489 -75.383,0 -136.493,61.109 -136.493,136.489 0,75.38 61.11,136.49 136.493,136.49 75.382,0 136.496,-61.11 136.496,-136.49" /><path
         id="path186"
         style="fill:#ccd1ee;fill-opacity:1;fill-rule:nonzero;stroke:none"
         d="m 3271.88,1104.27 c 0,-75.38 -61.11,-136.489 -136.49,-136.489 -75.39,0 -136.5,61.109 -136.5,136.489 0,75.38 61.11,136.49 136.5,136.49 75.38,0 136.49,-61.11 136.49,-136.49" /><path
         id="path188"
         style="fill:#5690d3;fill-opacity:1;fill-rule:nonzero;stroke:none"
         d="m 2812.72,2660.43 c -52.28,-21.24 -111.89,3.93 -133.13,56.22 -21.24,52.28 3.92,111.89 56.21,133.13 52.29,21.25 111.9,-3.92 133.14,-56.21 21.24,-52.29 -3.93,-111.89 -56.22,-133.14" /><path
         id="path190"
         style="fill:#5690d3;fill-opacity:1;fill-rule:nonzero;stroke:none"
         d="m 1041.86,1941.02 c -52.294,-21.25 -111.899,3.92 -133.141,56.21 -21.242,52.29 3.926,111.89 56.215,133.14 52.286,21.24 111.896,-3.93 133.136,-56.22 21.24,-52.29 -3.93,-111.89 -56.21,-133.13" /><path
         id="path192"
         style="fill:#5690d3;fill-opacity:1;fill-rule:nonzero;stroke:none"
         d="m 2153.86,1471.5 c -21.24,52.29 3.93,111.9 56.22,133.14 52.28,21.24 111.89,-3.93 133.13,-56.21 21.24,-52.29 -3.92,-111.9 -56.21,-133.14 -52.29,-21.24 -111.9,3.93 -133.14,56.21" /><path
         id="path194"
         style="fill:#5690d3;fill-opacity:1;fill-rule:nonzero;stroke:none"
         d="m 1434.44,3242.37 c -21.24,52.29 3.93,111.9 56.22,133.14 52.28,21.24 111.89,-3.93 133.13,-56.21 21.25,-52.29 -3.92,-111.9 -56.21,-133.14 -52.29,-21.24 -111.89,3.92 -133.14,56.21" /><path
         id="path196"
         style="fill:#5690d3;fill-opacity:1;fill-rule:nonzero;stroke:none"
         d="m 2729.53,1929.51 c -51.99,21.96 -76.35,81.9 -54.39,133.89 21.95,52 81.89,76.35 133.89,54.4 51.99,-21.96 76.34,-81.9 54.39,-133.89 -21.95,-52 -81.9,-76.35 -133.89,-54.4" /><path
         id="path198"
         style="fill:#5690d3;fill-opacity:1;fill-rule:nonzero;stroke:none"
         d="m 968.629,2673 c -51.992,21.95 -76.344,81.9 -54.395,133.89 21.954,52 81.899,76.35 133.896,54.4 51.99,-21.96 76.34,-81.9 54.39,-133.9 -21.95,-51.99 -81.9,-76.34 -133.891,-54.39" /><path
         id="path200"
         style="fill:#5690d3;fill-opacity:1;fill-rule:nonzero;stroke:none"
         d="m 1422.94,1554.7 c 21.96,51.99 81.9,76.34 133.89,54.39 52,-21.95 76.35,-81.9 54.4,-133.89 -21.96,-51.99 -81.9,-76.35 -133.89,-54.39 -52,21.95 -76.35,81.9 -54.4,133.89" /><path
         id="path202"
         style="fill:#5690d3;fill-opacity:1;fill-rule:nonzero;stroke:none"
         d="m 2166.43,3315.6 c 21.95,51.99 81.9,76.34 133.89,54.39 51.99,-21.95 76.35,-81.9 54.39,-133.89 -21.95,-51.99 -81.89,-76.35 -133.89,-54.39 -51.99,21.95 -76.34,81.89 -54.39,133.89" /><path
         id="path204"
         style="fill:#5691d3;fill-opacity:1;fill-rule:nonzero;stroke:none"
         d="m 3301.42,2395.98 c -0.6,-3.56 -0.81,-7.29 -0.19,-11.33 19.63,-129.05 -73.76,-231.47 -163.69,-309.9 -84.68,-73.85 -171.86,-143.06 -236.97,-235.99 -72.03,-102.82 -120.96,-263.4 -72.1,-383.77 -120.38,48.87 -280.97,-0.08 -383.78,-72.11 -90.38,-63.32 -158.8,-147.55 -230.27,-230.33 -79.59,-92.18 -183.2,-190.46 -315.62,-170.32 -4.02,0.61 -7.75,0.399 -11.29,-0.199 -3.55,0.598 -7.29,0.809 -11.32,0.199 -129.06,-19.628 -231.47,73.76 -309.91,163.69 -73.85,84.67 -143.06,171.86 -235.98,236.96 -102.83,72.04 -263.41,120.97 -383.78,72.11 48.871,120.38 -0.082,280.97 -72.106,383.77 -63.32,90.39 -147.551,158.8 -230.332,230.28 -92.18,79.59 -190.465,183.2 -170.32,315.62 0.613,4.02 0.402,7.74 -0.196,11.29 0.598,3.55 0.809,7.29 0.196,11.32 -19.633,129.06 73.761,231.47 163.691,309.91 84.676,73.85 171.86,143.05 236.961,235.98 72.035,102.83 120.973,263.4 72.106,383.78 120.38,-48.87 280.97,0.08 383.78,72.1 90.38,63.33 158.8,147.56 230.27,230.33 79.59,92.19 183.2,190.47 315.62,170.33 4.02,-0.62 7.75,-0.41 11.29,0.19 3.55,-0.6 7.29,-0.81 11.32,-0.19 129.06,19.63 231.47,-73.76 309.91,-163.69 73.85,-84.68 143.06,-171.86 235.98,-236.97 102.83,-72.03 263.41,-120.97 383.78,-72.1 -48.87,-120.38 0.08,-280.97 72.1,-383.78 63.33,-90.39 147.56,-158.8 230.34,-230.27 92.18,-79.59 190.46,-183.21 170.32,-315.62 -0.61,-4.02 -0.4,-7.75 0.19,-11.29 z m -253.04,485.76 c -76.02,73.7 -145.15,162.13 -169.54,267.21 -18,77.52 -8.38,160.09 20.92,234.02 13.35,12.83 25.62,27.65 36.46,44.86 2.67,4.23 -2.55,9.02 -6.68,6.68 -2.5,-1.43 -5.08,-2.75 -7.62,-4.12 1.38,2.54 2.7,5.11 4.12,7.62 2.34,4.13 -2.45,9.35 -6.68,6.68 -17.2,-10.84 -32.02,-23.11 -44.84,-36.45 -71.7,-28.42 -151.53,-38.36 -227,-22.57 -107.95,22.6 -199.07,93.63 -274.24,171.17 -134.3,138.53 -261.75,353.39 -485.79,316.28 -224.04,37.11 -351.48,-177.75 -485.78,-316.28 -73.69,-76.01 -162.12,-145.14 -267.2,-169.53 -77.52,-18 -160.088,-8.39 -234.022,20.92 -12.828,13.35 -27.648,25.62 -44.855,36.46 -4.231,2.67 -9.028,-2.55 -6.684,-6.68 1.426,-2.51 2.746,-5.08 4.121,-7.62 -2.539,1.38 -5.117,2.69 -7.625,4.12 -4.129,2.34 -9.347,-2.45 -6.679,-6.68 10.843,-17.2 23.109,-32.02 36.449,-44.84 28.422,-71.7 38.363,-151.53 22.57,-227 C 875.188,3048.03 804.152,2956.92 726.613,2881.75 588.09,2747.45 373.227,2620 410.336,2395.96 373.223,2171.92 588.09,2044.48 726.613,1910.18 c 76.016,-73.69 145.145,-162.13 169.539,-267.2 17.996,-77.53 8.379,-160.09 -20.925,-234.03 -13.344,-12.82 -25.618,-27.65 -36.461,-44.85 -2.664,-4.23 2.55,-9.03 6.679,-6.68 2.508,1.42 5.082,2.74 7.621,4.12 -1.375,-2.54 -2.691,-5.12 -4.117,-7.63 -2.344,-4.12 2.449,-9.34 6.684,-6.68 17.199,10.84 32.015,23.11 44.84,36.45 71.695,28.42 151.527,38.37 226.997,22.57 107.95,-22.59 199.07,-93.63 274.24,-171.17 134.3,-138.52 261.75,-353.389 485.79,-316.279 224.04,-37.11 351.48,177.759 485.78,316.279 73.69,76.01 162.12,145.15 267.2,169.54 77.52,17.99 160.09,8.38 234.02,-20.92 12.83,-13.35 27.65,-25.62 44.86,-36.47 4.23,-2.66 9.03,2.55 6.68,6.68 -1.42,2.51 -2.75,5.09 -4.12,7.63 2.54,-1.38 5.11,-2.7 7.62,-4.12 4.13,-2.35 9.35,2.45 6.68,6.68 -10.84,17.2 -23.11,32.02 -36.45,44.84 -28.42,71.7 -38.36,151.53 -22.56,227 22.59,107.95 93.63,199.07 171.17,274.24 138.52,134.3 353.38,261.74 316.27,485.78 37.12,224.04 -177.75,351.49 -316.27,485.78" /><path
         id="path206"
         style="fill:#5690d3;fill-opacity:1;fill-rule:nonzero;stroke:none"
         d="M 6852.06,827.152 H 3716.69 V 3962.52 H 6852.06 V 827.152" /><path
         id="path208"
         style="fill:#add7f3;fill-opacity:1;fill-rule:nonzero;stroke:none"
         d="m 5284.38,3425.54 c -191.98,0 -369.21,-207.78 -462.53,-542.26 l -5.65,-20.27 -20.27,-5.65 c -334.48,-93.32 -542.26,-270.55 -542.26,-462.52 0,-191.98 207.78,-369.21 542.26,-462.52 l 20.27,-5.66 5.65,-20.27 c 93.32,-334.47 270.55,-542.26 462.53,-542.26 191.98,0 369.2,207.79 462.51,542.26 l 5.66,20.27 20.27,5.66 c 334.48,93.31 542.25,270.54 542.25,462.52 0,191.97 -207.77,369.2 -542.25,462.52 l -20.27,5.65 -5.66,20.27 c -93.31,334.48 -270.53,542.26 -462.51,542.26 z m 0,-2136.05 c -222.77,0 -424.19,220.36 -528.66,576.69 -356.33,104.47 -576.69,305.89 -576.69,528.66 0,222.76 220.36,424.18 576.69,528.65 104.47,356.33 305.89,576.69 528.66,576.69 222.76,0 424.18,-220.36 528.65,-576.69 356.33,-104.48 576.69,-305.89 576.69,-528.65 0,-222.77 -220.36,-424.18 -576.69,-528.66 -104.47,-356.33 -305.89,-576.69 -528.65,-576.69" /><path
         id="path210"
         style="fill:#d9f1fc;fill-opacity:1;fill-rule:nonzero;stroke:none"
         d="m 5284.37,2283.97 165.26,-286.24 c 73.45,-127.22 -18.36,-286.24 -165.26,-286.24 v 0 c -146.89,0 -238.7,159.02 -165.26,286.24 l 165.26,286.24" /><path
         id="path212"
         style="fill:#d9f1fc;fill-opacity:1;fill-rule:nonzero;stroke:none"
         d="m 5284.37,2505.7 -165.26,286.24 c -73.44,127.22 18.37,286.24 165.26,286.24 v 0 c 146.9,0 238.71,-159.02 165.26,-286.24 L 5284.37,2505.7" /><path
         id="path214"
         style="fill:#d9f1fc;fill-opacity:1;fill-rule:nonzero;stroke:none"
         d="m 5173.51,2394.84 -286.24,-165.26 c -127.22,-73.45 -286.24,18.36 -286.24,165.26 v 0 c 0,146.89 159.02,238.7 286.24,165.26 l 286.24,-165.26" /><path
         id="path216"
         style="fill:#d9f1fc;fill-opacity:1;fill-rule:nonzero;stroke:none"
         d="m 5395.24,2394.84 286.24,165.26 c 127.22,73.44 286.24,-18.37 286.24,-165.26 v 0 c 0,-146.9 -159.02,-238.71 -286.24,-165.26 l -286.24,165.26" /><path
         id="path218"
         style="fill:#add7f3;fill-opacity:1;fill-rule:nonzero;stroke:none"
         d="m 6548.88,2069.67 c -28.12,-24.52 -56.46,-48.58 -84.25,-73.11 6.21,79.91 24.86,159.21 67.46,227.55 42.6,68.32 108.55,120.49 182.4,152.41 h 0.7 c 15.68,-127.41 -76.89,-228.88 -166.31,-306.85 z m -240.18,-673.98 -0.47,0.48 c -28.74,72.53 -38.78,153.3 -22.79,229.64 17,81.14 61.07,152.85 114.77,215.55 2.12,-34.03 4.84,-68.11 7.34,-102.3 8.83,-120.82 5.03,-262.33 -98.85,-343.37 z m -360.12,-124.92 c -37.19,2.55 -74.23,5.63 -111.2,7.94 60.88,52.08 130.12,94.94 208.55,113.13 78.42,18.2 161.94,8.46 236.73,-21.2 l 0.5,-0.49 c -79.01,-101.18 -216.21,-107.48 -334.58,-99.38 z m -646.4,-306.739 0.01,0.66 c 30.96,71.619 80.97,135.829 146.26,178.499 69.4,45.35 151.27,64.9 233.58,71.26 -22.57,-25.55 -44.75,-51.58 -67.16,-77.52 -79.18,-91.68 -181.93,-189.059 -312.69,-172.899 z m -342.97,166.299 c -24.52,28.13 -48.58,56.46 -73.1,84.25 79.9,-6.21 159.2,-24.86 227.54,-67.47 68.32,-42.59 120.49,-108.53 152.4,-182.391 l 0.01,-0.688 c -127.42,-15.679 -228.88,76.869 -306.85,166.299 z m -673.98,240.18 0.48,0.47 c 72.53,28.74 153.3,38.78 229.64,22.79 81.14,-17 152.85,-61.07 215.55,-114.77 -34.03,-2.12 -68.11,-4.84 -102.31,-7.34 -120.82,-8.83 -262.32,-5.03 -343.36,98.85 z m -124.92,360.11 c 2.54,37.2 5.63,74.24 7.94,111.21 52.08,-60.88 94.94,-130.12 113.13,-208.55 18.19,-78.42 8.45,-161.95 -21.21,-236.74 l -0.48,-0.49 c -101.19,79.01 -107.48,216.2 -99.38,334.57 z m -306.74,646.41 0.66,-0.01 c 71.61,-30.97 135.82,-80.97 178.5,-146.26 45.35,-69.4 64.9,-151.27 71.26,-233.58 -25.56,22.57 -51.58,44.75 -77.53,67.16 -91.67,79.18 -189.05,181.93 -172.89,312.69 z m 166.3,342.97 c 28.12,24.52 56.46,48.58 84.25,73.11 -6.21,-79.91 -24.86,-159.21 -67.46,-227.55 -42.6,-68.32 -108.55,-120.49 -182.4,-152.4 l -0.7,-0.01 c -15.68,127.42 76.88,228.88 166.31,306.85 z m 240.18,673.98 0.47,-0.48 c 28.73,-72.53 38.77,-153.29 22.79,-229.64 -17,-81.14 -61.07,-152.85 -114.78,-215.55 -2.11,34.03 -4.83,68.11 -7.33,102.31 -8.83,120.81 -5.04,262.33 98.85,343.36 z m 360.11,124.92 c 37.2,-2.55 74.24,-5.63 111.2,-7.94 -60.87,-52.08 -130.11,-94.94 -208.54,-113.13 -78.42,-18.19 -161.94,-8.45 -236.73,21.2 l -0.5,0.49 c 79.01,101.19 216.2,107.48 334.57,99.38 z m 646.41,306.75 -0.01,-0.67 c -30.97,-71.61 -80.97,-135.82 -146.26,-178.5 -69.4,-45.35 -151.27,-64.9 -233.58,-71.26 22.57,25.56 44.74,51.58 67.16,77.53 79.18,91.68 181.93,189.05 312.69,172.9 z m 342.97,-166.31 c 24.52,-28.12 48.58,-56.46 73.11,-84.25 -79.91,6.21 -159.21,24.86 -227.55,67.47 -68.32,42.59 -120.49,108.53 -152.4,182.39 l -0.01,0.7 c 127.41,15.68 228.88,-76.88 306.85,-166.31 z m 673.98,-240.18 -0.48,-0.47 c -72.53,-28.73 -153.3,-38.78 -229.64,-22.78 -81.14,16.99 -152.85,61.07 -215.55,114.77 34.03,2.11 68.11,4.83 102.31,7.33 120.82,8.84 262.32,5.04 343.36,-98.85 z m 124.92,-360.11 c -2.55,-37.2 -5.63,-74.24 -7.94,-111.21 -52.08,60.88 -94.94,130.12 -113.13,208.55 -18.19,78.42 -8.45,161.95 21.2,236.74 l 0.49,0.49 c 101.19,-79.01 107.48,-216.2 99.38,-334.57 z m -11.43,-1125.41 c -31.76,-31.64 -61.64,-65.2 -87.89,-102.66 -72.89,-104 -122.42,-266.44 -73.01,-388.22 -121.77,49.46 -284.23,-0.03 -388.25,-72.87 -37.44,-26.22 -71.04,-56.09 -102.77,-87.85 -44.87,0.09 -89.75,-2.59 -134.81,-10.51 -125.09,-22 -274.97,-101.84 -326.14,-222.89 -51.14,121.08 -201.01,200.96 -326.07,223 -45.04,7.94 -89.96,10.58 -134.89,10.55 -31.64,31.77 -65.2,61.65 -102.66,87.9 -104,72.89 -266.44,122.42 -388.22,73.01 49.46,121.77 -0.03,284.23 -72.87,388.25 -26.22,37.44 -56.1,71.05 -87.85,102.77 0.09,44.87 -2.59,89.75 -10.51,134.81 -22,125.09 -101.84,274.97 -222.89,326.14 121.08,51.13 200.96,201.01 223,326.07 7.94,45.04 10.58,89.96 10.55,134.89 31.77,31.65 61.65,65.2 87.9,102.66 72.89,104 122.42,266.44 73.01,388.22 121.77,-49.46 284.23,0.03 388.25,72.87 37.44,26.22 71.04,56.09 102.77,87.85 44.87,-0.08 89.75,2.59 134.81,10.51 125.09,22.01 274.97,101.84 326.14,222.89 51.13,-121.08 201.01,-200.96 326.07,-223 45.04,-7.94 89.96,-10.58 134.89,-10.55 31.64,-31.77 65.2,-61.65 102.66,-87.9 104,-72.89 266.44,-122.42 388.21,-73.01 -49.45,-121.77 0.04,-284.23 72.88,-388.25 26.22,-37.44 56.09,-71.04 87.85,-102.77 -0.09,-44.87 2.58,-89.74 10.51,-134.81 22,-125.09 101.84,-274.97 222.89,-326.14 -121.08,-51.13 -200.96,-201.01 -223.01,-326.06 -7.93,-45.05 -10.57,-89.97 -10.55,-134.9 z m 318.17,479 -0.66,0.01 c -71.61,30.97 -135.83,80.97 -178.5,146.26 -45.36,69.4 -64.9,151.27 -71.26,233.58 25.55,-22.57 51.58,-44.74 77.53,-67.16 91.67,-79.18 189.05,-181.93 172.89,-312.69 z m -252.71,469.94 c 4.02,194.31 63.92,436.1 -121.27,568.71 -132.54,185.23 -374.35,125.42 -568.67,121.47 -134.56,140.24 -263.18,353.57 -487.89,316.39 -224.7,37.26 -353.39,-176.02 -488.01,-316.22 -194.31,4.02 -436.1,63.92 -568.71,-121.27 -185.23,-132.54 -125.42,-374.35 -121.47,-568.67 -140.24,-134.56 -353.57,-263.18 -316.39,-487.89 -37.26,-224.7 176.02,-353.39 316.22,-488 -4.02,-194.32 -63.92,-436.11 121.27,-568.72 132.54,-185.23 374.35,-125.42 568.67,-121.47 134.56,-140.24 263.18,-353.57 487.89,-316.39 224.7,-37.258 353.39,176.02 488.01,316.22 194.31,-4.02 436.1,-63.92 568.71,121.27 185.23,132.54 125.42,374.35 121.47,568.67 140.24,134.56 353.57,263.18 316.39,487.89 37.26,224.7 -176.03,353.39 -316.22,488.01" /><path
         id="path220"
         style="fill:#5690d3;fill-opacity:1;fill-rule:nonzero;stroke:none"
         d="M 13678.9,827.789 H 10543.5 V 3963.16 h 3135.4 V 827.789" /><path
         id="path222"
         style="fill:#add7f3;fill-opacity:1;fill-rule:nonzero;stroke:none"
         d="m 13063.1,1443.55 c -2.8,-1.98 -5.4,-4.36 -7.7,-7.49 -73.7,-100.1 -205.5,-106.17 -318.9,-98.43 -106.7,7.28 -212,19.39 -318.4,0.65 -117.7,-20.73 -258.8,-95.89 -306.9,-209.83 -48.2,113.95 -189.2,189.11 -307,209.83 -103.4,18.22 -206.2,7.57 -310.1,-0.04 -115.6,-8.47 -251.5,-4.88 -327.1,97.82 -2.3,3.12 -5,5.49 -7.7,7.48 -2,2.79 -4.4,5.45 -7.5,7.75 -100.1,73.67 -106.2,205.5 -98.5,318.85 7.3,106.73 19.4,212.02 0.7,318.41 -20.7,117.73 -95.9,258.78 -209.9,306.92 114,48.15 189.2,189.22 209.9,306.93 18.2,103.48 7.6,206.25 -0.1,310.1 -8.4,115.64 -4.8,251.57 97.9,327.16 3.1,2.29 5.4,4.94 7.4,7.73 2.8,1.99 5.5,4.37 7.8,7.49 73.7,100.11 205.5,106.18 318.8,98.44 106.8,-7.28 212.1,-19.39 318.4,-0.65 117.8,20.72 258.8,95.89 307,209.83 48.1,-113.95 189.2,-189.11 306.9,-209.84 103.5,-18.22 206.2,-7.57 310.1,0.04 115.6,8.48 251.6,4.89 327.2,-97.82 2.3,-3.12 4.9,-5.48 7.7,-7.47 2,-2.79 4.4,-5.45 7.5,-7.75 100.1,-73.67 106.2,-205.5 98.4,-318.85 -7.3,-106.73 -19.4,-212.02 -0.6,-318.41 20.7,-117.73 95.9,-258.78 209.8,-306.93 -114,-48.14 -189.1,-189.21 -209.8,-306.92 -18.3,-103.48 -7.6,-206.25 0,-310.1 8.5,-115.65 4.9,-251.57 -97.8,-327.16 -3.1,-2.3 -5.5,-4.95 -7.5,-7.74 z m 226.9,468.62 c -1.7,107.18 12.2,219.98 69.9,312.66 42.6,68.38 108.6,120.61 182.5,152.56 18.8,-0.37 38.2,1.46 58.3,6.01 4.9,1.12 4.6,8.29 0,9.56 -2.9,0.78 -5.6,1.68 -8.4,2.51 2.8,0.83 5.5,1.74 8.4,2.51 4.6,1.28 4.9,8.45 0,9.57 -20.1,4.55 -39.5,6.38 -58.2,6 -71.7,30.99 -136,81.02 -178.7,146.36 -61.1,93.45 -75.5,209.54 -73.8,318.86 3,195.32 65.6,440.37 -121.3,574.2 -133.9,186.95 -378.9,124.37 -574.2,121.34 -107.2,-1.66 -220,12.16 -312.7,69.92 -68.4,42.62 -120.6,108.61 -152.5,182.51 0.3,18.74 -1.5,38.14 -6.1,58.22 -1.1,4.94 -8.2,4.64 -9.5,0 -0.8,-2.81 -1.7,-5.6 -2.5,-8.4 -0.9,2.8 -1.8,5.59 -2.5,8.4 -1.3,4.64 -8.5,4.94 -9.6,0 -4.6,-20.07 -6.4,-39.46 -6,-58.2 -31,-71.67 -81,-135.94 -146.4,-178.66 -93.4,-61.11 -209.5,-75.48 -318.8,-73.79 -195.3,3.03 -440.4,65.61 -574.2,-121.34 -187,-133.83 -124.4,-378.88 -121.4,-574.2 1.7,-107.17 -12.1,-219.97 -69.9,-312.66 -42.6,-68.38 -108.6,-120.6 -182.5,-152.56 -18.7,0.38 -38.1,-1.45 -58.2,-6 -5,-1.12 -4.7,-8.29 0,-9.57 2.8,-0.77 5.6,-1.67 8.4,-2.5 -2.8,-0.84 -5.6,-1.74 -8.4,-2.52 -4.7,-1.27 -5,-8.44 0,-9.56 20.1,-4.55 39.4,-6.38 58.2,-6.01 71.7,-30.98 135.9,-81.01 178.6,-146.35 61.1,-93.46 75.5,-209.54 73.8,-318.87 -3,-195.31 -65.6,-440.37 121.4,-574.19 133.8,-186.96 378.9,-124.37 574.2,-121.34 107.1,1.66 219.9,-12.16 312.6,-69.92 68.4,-42.62 120.6,-108.61 152.6,-182.521 -0.4,-18.738 1.4,-38.129 6,-58.207 1.1,-4.941 8.3,-4.64 9.6,0 0.7,2.809 1.6,5.598 2.5,8.399 0.8,-2.801 1.7,-5.59 2.5,-8.399 1.3,-4.64 8.4,-4.941 9.5,0 4.6,20.071 6.4,39.457 6.1,58.188 30.9,71.68 81,135.95 146.3,178.67 93.5,61.1 209.5,75.48 318.9,73.79 195.3,-3.03 440.3,-65.61 574.2,121.34 186.9,133.82 124.3,378.88 121.3,574.19" /><path
         id="path224"
         style="fill:#add7f3;fill-opacity:1;fill-rule:nonzero;stroke:none"
         d="m 13678.9,2102.94 c -28.1,-31.49 -59,-60.57 -89.6,-87.28 -100.2,-87.33 -203.2,-169.16 -280.2,-279.04 -85.2,-121.58 -143.1,-311.46 -85.3,-453.79 -142.3,57.78 -332.2,-0.1 -453.8,-85.26 -106.9,-74.88 -187.7,-174.47 -272.3,-272.351 -28.6,-33.199 -59.9,-67.047 -94,-97.43 h 106.7 c 61.2,64.563 117.7,135.691 175.2,195.021 87.1,89.88 191.7,171.62 315.9,200.46 91.7,21.28 189.3,9.91 276.7,-24.74 15.2,-15.78 32.7,-30.29 53.1,-43.11 5,-3.16 10.7,3.01 7.9,7.89 -1.7,2.97 -3.3,6.02 -4.9,9.02 3,-1.63 6.1,-3.19 9,-4.87 4.9,-2.77 11.1,2.89 7.9,7.9 -12.8,20.34 -27.3,37.86 -43.1,53.02 -33.6,84.78 -45.3,179.18 -26.7,268.41 26.8,127.65 110.8,235.39 202.4,324.28 59.4,57.51 130.5,113.99 195.1,175.19 v 106.68" /><path
         id="path226"
         style="fill:#add7f3;fill-opacity:1;fill-rule:nonzero;stroke:none"
         d="m 11731.4,917.379 c -87.4,100.121 -169.2,203.211 -279.1,280.191 -121.6,85.18 -311.4,143.04 -453.8,85.26 57.8,142.34 -0.1,332.23 -85.2,453.79 -74.9,106.88 -174.5,187.77 -272.4,272.29 -33.2,28.66 -67,59.98 -97.4,94.08 v -106.73 c 64.5,-61.2 135.7,-117.68 195,-175.19 89.9,-87.14 171.6,-191.71 200.5,-315.95 21.2,-91.67 9.9,-189.3 -24.8,-276.72 -15.8,-15.17 -30.3,-32.7 -43.1,-53.04 -3.1,-5 3,-10.67 7.9,-7.9 3,1.68 6,3.25 9,4.87 -1.6,-3 -3.2,-6.05 -4.8,-9.01 -2.8,-4.89 2.9,-11.06 7.9,-7.9 20.3,12.82 37.8,27.32 53,43.1 84.8,33.6 179.2,45.36 268.4,26.68 127.6,-26.71 235.4,-110.71 324.3,-202.39 57.5,-59.33 114,-130.458 175.2,-195.021 h 106.6 c -31.5,28.012 -60.5,58.961 -87.2,89.59" /><path
         id="path228"
         style="fill:#add7f3;fill-opacity:1;fill-rule:nonzero;stroke:none"
         d="m 12491,3873.57 c 87.3,-100.12 169.1,-203.21 279,-280.19 121.6,-85.18 311.5,-143.04 453.8,-85.26 -57.8,-142.34 0.1,-332.23 85.3,-453.79 74.9,-106.88 174.4,-187.77 272.3,-272.29 33.2,-28.66 67.1,-59.98 97.5,-94.08 v 106.73 c -64.6,61.2 -135.7,117.68 -195.1,175.19 -89.8,87.14 -171.6,191.71 -200.4,315.95 -21.3,91.67 -9.9,189.3 24.7,276.72 15.8,15.17 30.3,32.69 43.1,53.04 3.2,5 -3,10.67 -7.9,7.9 -2.9,-1.69 -6,-3.25 -9,-4.87 1.6,3 3.2,6.05 4.9,9.01 2.8,4.88 -2.9,11.06 -7.9,7.9 -20.4,-12.82 -37.9,-27.32 -53,-43.1 -84.8,-33.6 -179.2,-45.36 -268.4,-26.68 -127.7,26.71 -235.4,110.71 -324.3,202.39 -57.5,59.33 -114,130.46 -175.2,195.02 h -106.7 c 31.5,-28.01 60.6,-58.96 87.3,-89.59" /><path
         id="path230"
         style="fill:#add7f3;fill-opacity:1;fill-rule:nonzero;stroke:none"
         d="m 10543.5,2688.01 c 28,31.49 58.9,60.57 89.6,87.28 100.1,87.32 203.2,169.16 280.2,279.04 85.1,121.58 143,311.45 85.2,453.79 142.4,-57.79 332.3,0.09 453.8,85.26 106.9,74.87 187.8,174.47 272.3,272.35 28.7,33.2 60,67.05 94.1,97.43 H 11712 c -61.2,-64.56 -117.7,-135.69 -175.2,-195.02 -87.2,-89.88 -191.7,-171.62 -316,-200.46 -91.7,-21.28 -189.3,-9.92 -276.7,24.74 -15.2,15.78 -32.7,30.29 -53,43.11 -5,3.15 -10.7,-3.02 -7.9,-7.9 1.6,-2.96 3.2,-6.01 4.8,-9.01 -3,1.63 -6,3.18 -9,4.87 -4.9,2.77 -11,-2.9 -7.9,-7.9 12.8,-20.34 27.3,-37.86 43.1,-53.02 33.6,-84.78 45.4,-179.18 26.7,-268.42 -26.7,-127.64 -110.7,-235.38 -202.4,-324.27 -59.3,-57.51 -130.5,-113.99 -195,-175.19 v -106.68" /><path
         id="path232"
         style="fill:#d9f1fc;fill-opacity:1;fill-rule:nonzero;stroke:none"
         d="m 10648.3,3858.33 319.3,-85.54 c 141.9,-38.02 189.4,-215.39 85.5,-319.26 v 0 c -103.9,-103.87 -281.2,-56.35 -319.2,85.54 l -85.6,319.26" /><path
         id="path234"
         style="fill:#d9f1fc;fill-opacity:1;fill-rule:nonzero;stroke:none"
         d="m 13574,3858.33 -319.2,-85.54 c -141.9,-38.02 -189.4,-215.39 -85.6,-319.26 v 0 c 103.9,-103.87 281.3,-56.35 319.3,85.54 l 85.5,319.26" /><path
         id="path236"
         style="fill:#d9f1fc;fill-opacity:1;fill-rule:nonzero;stroke:none"
         d="m 10648.3,932.621 319.3,85.539 c 141.9,38.02 189.4,215.38 85.5,319.26 v 0 c -103.9,103.87 -281.2,56.35 -319.2,-85.55 l -85.6,-319.249" /><path
         id="path238"
         style="fill:#d9f1fc;fill-opacity:1;fill-rule:nonzero;stroke:none"
         d="m 13574,932.621 -319.2,85.539 c -141.9,38.02 -189.4,215.38 -85.6,319.26 v 0 c 103.9,103.87 281.3,56.35 319.3,-85.55 l 85.5,-319.249" /><path
         id="path240"
         style="fill:#d9f1fc;fill-opacity:1;fill-rule:nonzero;stroke:none"
         d="m 12530.2,2353.15 c 37.9,-57.56 69.8,-114.97 95.3,-170.73 -57.5,-21.38 -120.6,-39.43 -188.1,-53.34 l -49.6,-10.23 -10.2,-49.62 c -14,-67.49 -32,-130.64 -53.4,-188.1 -55.7,25.51 -113.2,57.4 -170.7,95.29 l -42.3,27.85 -42.4,-27.85 c -57.5,-37.89 -114.9,-69.77 -170.7,-95.29 -21.4,57.47 -39.4,120.61 -53.3,188.1 l -10.3,49.62 -49.6,10.23 c -67.5,13.91 -130.6,31.96 -188.1,53.34 25.5,55.76 57.4,113.17 95.3,170.73 l 27.9,42.32 -27.9,42.32 c -37.9,57.56 -69.8,114.98 -95.3,170.73 57.5,21.38 120.6,39.43 188.1,53.34 l 49.6,10.23 10.3,49.62 c 13.9,67.49 31.9,130.64 53.3,188.11 55.8,-25.52 113.2,-57.41 170.7,-95.3 l 42.4,-27.85 42.3,27.86 c 57.6,37.89 115,69.77 170.7,95.29 21.4,-57.47 39.5,-120.61 53.4,-188.11 l 10.2,-49.62 49.6,-10.23 c 67.5,-13.91 130.6,-31.96 188.1,-53.34 -25.5,-55.75 -57.4,-113.17 -95.3,-170.73 l -27.8,-42.32 27.8,-42.32" /><path
         id="path242"
         style="fill:#d9f1fc;fill-opacity:1;fill-rule:nonzero;stroke:none"
         d="m 12916,2626.77 c -45.5,-18.49 -97.4,3.42 -115.9,48.94 -18.5,45.51 3.4,97.4 48.9,115.89 45.6,18.5 97.4,-3.41 115.9,-48.93 18.5,-45.52 -3.4,-97.41 -48.9,-115.9" /><path
         id="path244"
         style="fill:#d9f1fc;fill-opacity:1;fill-rule:nonzero;stroke:none"
         d="m 11374.4,2000.5 c -45.5,-18.49 -97.4,3.42 -115.9,48.94 -18.5,45.52 3.4,97.41 49,115.9 45.5,18.49 97.4,-3.42 115.9,-48.94 18.5,-45.51 -3.5,-97.4 -49,-115.9" /><path
         id="path246"
         style="fill:#d9f1fc;fill-opacity:1;fill-rule:nonzero;stroke:none"
         d="m 12342.5,1591.79 c -18.5,45.51 3.4,97.4 48.9,115.89 45.5,18.5 97.4,-3.41 115.9,-48.93 18.5,-45.52 -3.4,-97.41 -48.9,-115.9 -45.6,-18.49 -97.5,3.42 -115.9,48.94" /><path
         id="path248"
         style="fill:#d9f1fc;fill-opacity:1;fill-rule:nonzero;stroke:none"
         d="m 11716.2,3133.36 c -18.5,45.52 3.4,97.41 48.9,115.9 45.5,18.49 97.4,-3.42 115.9,-48.94 18.5,-45.51 -3.4,-97.4 -48.9,-115.89 -45.5,-18.5 -97.4,3.41 -115.9,48.93" /><path
         id="path250"
         style="fill:#d9f1fc;fill-opacity:1;fill-rule:nonzero;stroke:none"
         d="m 12843.6,1990.49 c -45.3,19.11 -66.5,71.3 -47.4,116.56 19.1,45.26 71.3,66.46 116.6,47.35 45.2,-19.11 66.4,-71.3 47.3,-116.56 -19.1,-45.26 -71.3,-66.46 -116.5,-47.35" /><path
         id="path252"
         style="fill:#d9f1fc;fill-opacity:1;fill-rule:nonzero;stroke:none"
         d="m 11310.7,2637.71 c -45.3,19.11 -66.5,71.3 -47.4,116.56 19.1,45.26 71.3,66.46 116.6,47.35 45.3,-19.11 66.4,-71.3 47.3,-116.56 -19.1,-45.26 -71.3,-66.46 -116.5,-47.35" /><path
         id="path254"
         style="fill:#d9f1fc;fill-opacity:1;fill-rule:nonzero;stroke:none"
         d="m 11706.2,1664.21 c 19.1,45.26 71.3,66.46 116.5,47.35 45.3,-19.11 66.5,-71.29 47.4,-116.56 -19.1,-45.26 -71.3,-66.46 -116.6,-47.35 -45.2,19.11 -66.4,71.3 -47.3,116.56" /><path
         id="path256"
         style="fill:#d9f1fc;fill-opacity:1;fill-rule:nonzero;stroke:none"
         d="m 12353.4,3197.1 c 19.1,45.27 71.3,66.47 116.5,47.35 45.3,-19.11 66.5,-71.29 47.4,-116.55 -19.1,-45.26 -71.3,-66.46 -116.6,-47.35 -45.2,19.11 -66.4,71.29 -47.3,116.55" /></svg>
