<?xml version="1.0" encoding="UTF-8" standalone="no"?>
<svg
   xmlns:dc="http://purl.org/dc/elements/1.1/"
   xmlns:cc="http://creativecommons.org/ns#"
   xmlns:rdf="http://www.w3.org/1999/02/22-rdf-syntax-ns#"
   xmlns:svg="http://www.w3.org/2000/svg"
   xmlns="http://www.w3.org/2000/svg"
   xmlns:sodipodi="http://sodipodi.sourceforge.net/DTD/sodipodi-0.dtd"
   xmlns:inkscape="http://www.inkscape.org/namespaces/inkscape"
   viewBox="321.145 827.711 3135.4 3135.37"
   xml:space="preserve"
   version="1.1"
   id="svg4943"
   sodipodi:docname="forest_8.svg"
   width="3135.3999"
   height="3135.3701"
   inkscape:version="1.0.1 (3bc2e813f5, 2020-09-07)"><metadata
   id="metadata4949"><rdf:RDF><cc:Work
       rdf:about=""><dc:format>image/svg+xml</dc:format><dc:type
         rdf:resource="http://purl.org/dc/dcmitype/StillImage" /><dc:title></dc:title></cc:Work></rdf:RDF></metadata><defs
   id="defs4947" /><sodipodi:namedview
   pagecolor="#ffffff"
   bordercolor="#666666"
   borderopacity="1"
   objecttolerance="10"
   gridtolerance="10"
   guidetolerance="10"
   inkscape:pageopacity="0"
   inkscape:pageshadow="2"
   inkscape:window-width="1880"
   inkscape:window-height="1046"
   id="namedview4945"
   showgrid="false"
   fit-margin-top="0"
   fit-margin-left="0"
   fit-margin-right="0"
   fit-margin-bottom="0"
   inkscape:zoom="0.27301402"
   inkscape:cx="1567.7"
   inkscape:cy="1567.6851"
   inkscape:window-x="40"
   inkscape:window-y="0"
   inkscape:window-maximized="1"
   inkscape:current-layer="svg4943"
   inkscape:document-rotation="0" />
	 <path
   id="path100"
   style="fill:#4e5340;fill-opacity:1;fill-rule:nonzero;stroke:none"
   d="m 3456.545,827.711 h -3135.4 v 3135.37 h 3135.4 V 827.711"
   inkscape:connector-curvature="0" /><path
   id="path102"
   style="fill:#24a019;fill-opacity:1;fill-rule:nonzero;stroke:none"
   d="m 2681.545,827.711 h -1585.5 c -428,0 -774.9,346.94 -774.9,774.92 v 1585.52 c 0,427.98 346.9,774.93 774.9,774.93 h 1585.5 c 428,0 775,-346.95 775,-774.93 v -1585.52 c 0,-427.98 -347,-774.92 -775,-774.92"
   inkscape:connector-curvature="0" /><path
   id="path104"
   style="fill:#fde7be;fill-opacity:1;fill-rule:nonzero;stroke:none"
   d="m 1888.845,2032.771 v 0 c -200.3,0 -362.6,162.35 -362.6,362.62 v 0 c 0,200.27 162.3,362.62 362.6,362.62 200.2,0 362.6,-162.35 362.6,-362.62 v 0 c 0,-200.27 -162.4,-362.62 -362.6,-362.62"
   inkscape:connector-curvature="0" /><path
   id="path106"
   style="fill:#4e5340;fill-opacity:1;fill-rule:nonzero;stroke:none"
   d="m 1284.545,3002.051 c 9.9,160.3 50.5,295.31 119.4,391 -188.4,52.31 -359,54.02 -492.4,0.39 l -14.8,-5.95 -6,-14.79 c -53.4,-132.98 -51.9,-302.78 -0.1,-490.32 96,69.59 232.2,110.3 393.9,119.67"
   inkscape:connector-curvature="0" /><path
   id="path108"
   style="fill:#4e5340;fill-opacity:1;fill-rule:nonzero;stroke:none"
   d="m 2495.445,2999.681 c 160.3,-9.93 295.3,-50.57 391,-119.45 52.3,188.4 54.1,358.98 0.4,492.47 l -5.9,14.79 -14.8,5.95 c -133,53.42 -302.8,51.9 -490.3,0.17 69.5,-96.09 110.3,-232.22 119.6,-393.93"
   inkscape:connector-curvature="0" /><path
   id="path110"
   style="fill:#00ff00;fill-opacity:1;fill-rule:nonzero;stroke:none"
   d="m 1032.545,2397.071 c -106.3,120.37 -173.1,244.58 -192,360.94 -170.2,-96.22 -292.1,-215.64 -348.5,-347.94 l -6.3,-14.67 6.3,-14.67 c 56.2,-131.81 177.4,-250.79 346.6,-346.83 18.7,117.16 86.2,242.2 193.9,363.17"
   inkscape:connector-curvature="0" /><path
   id="path112"
   style="fill:#00ff00;fill-opacity:1;fill-rule:nonzero;stroke:none"
   d="m 1890.545,3251.661 c 120.3,106.33 244.5,173.06 360.9,192.01 -96.2,170.22 -215.6,292.05 -348,348.51 l -14.6,6.25 -14.7,-6.25 c -131.8,-56.25 -250.8,-177.4 -346.8,-346.59 117.1,-18.75 242.2,-86.22 363.2,-193.93"
   inkscape:connector-curvature="0" /><path
   id="path114"
   style="fill:#00ff00;fill-opacity:1;fill-rule:nonzero;stroke:none"
   d="m 2130.545,1379.881 c -80.6,33.56 -162.9,87.58 -243.4,159.26 -120.4,-106.34 -244.6,-173.08 -360.9,-192.03 96.2,-170.21 215.6,-292.04 347.9,-348.5 l 14.7,-6.26 14.6,6.26 c 131.8,56.24 250.8,177.36 346.8,346.52 -39.1,6.27 -79.2,17.88 -119.7,34.75"
   inkscape:connector-curvature="0" /><path
   id="path116"
   style="fill:#4e5340;fill-opacity:1;fill-rule:nonzero;stroke:none"
   d="m 1282.145,1791.101 c -160.3,9.92 -295.3,50.56 -391,119.45 -52.3,-188.39 -54,-358.98 -0.4,-492.46 l 6,-14.8 14.8,-5.95 c 133,-53.43 302.8,-51.9 490.3,-0.17 -69.6,96.09 -110.3,232.22 -119.7,393.93"
   inkscape:connector-curvature="0" /><path
   id="path118"
   style="fill:#00ff00;fill-opacity:1;fill-rule:nonzero;stroke:none"
   d="m 3285.645,2410.061 c -56.3,131.81 -177.4,250.79 -346.6,346.82 -18.8,-117.15 -86.2,-242.19 -194,-363.17 106.4,-120.36 173.1,-244.57 192.1,-360.94 170.2,96.23 292,215.64 348.5,347.95 l 6.2,14.67 -6.2,14.67"
   inkscape:connector-curvature="0" /><path
   id="path120"
   style="fill:#4e5340;fill-opacity:1;fill-rule:nonzero;stroke:none"
   d="m 2493.145,1788.731 c -10,-160.22 -50.6,-295.18 -119.4,-390.85 95,-26.39 185.6,-40.11 269,-40.11 82,0 157.3,13.01 223.4,39.57 l 14.8,5.95 5.9,14.8 c 53.4,132.97 51.9,302.77 0.2,490.31 -96.1,-69.58 -232.2,-110.3 -393.9,-119.67"
   inkscape:connector-curvature="0" /><path
   id="path122"
   style="fill:#511730;fill-opacity:1;fill-rule:nonzero;stroke:none"
   d="m 2524.645,2578.201 c -35.9,-14.6 -76.9,2.7 -91.5,38.66 -14.6,35.95 2.7,76.94 38.6,91.55 36,14.61 77,-2.7 91.6,-38.65 14.6,-35.96 -2.7,-76.95 -38.7,-91.56"
   inkscape:connector-curvature="0" /><path
   id="path124"
   style="fill:#511730;fill-opacity:1;fill-rule:nonzero;stroke:none"
   d="m 1306.945,2083.501 c -35.9,-14.61 -76.9,2.7 -91.5,38.66 -14.6,35.95 2.7,76.94 38.6,91.55 36,14.6 77,-2.7 91.6,-38.66 14.6,-35.95 -2.7,-76.94 -38.7,-91.55"
   inkscape:connector-curvature="0" /><path
   id="path126"
   style="fill:#511730;fill-opacity:1;fill-rule:nonzero;stroke:none"
   d="m 2071.645,1760.641 c -14.6,35.96 2.7,76.95 38.6,91.56 36,14.6 77,-2.7 91.6,-38.66 14.6,-35.95 -2.7,-76.94 -38.7,-91.55 -35.9,-14.61 -76.9,2.7 -91.5,38.65"
   inkscape:connector-curvature="0" /><path
   id="path128"
   style="fill:#511730;fill-opacity:1;fill-rule:nonzero;stroke:none"
   d="m 1576.945,2978.371 c -14.6,35.96 2.7,76.95 38.6,91.55 36,14.61 77,-2.7 91.6,-38.65 14.6,-35.96 -2.7,-76.95 -38.7,-91.55 -35.9,-14.61 -76.9,2.7 -91.5,38.65"
   inkscape:connector-curvature="0" /><path
   id="path130"
   style="fill:#511730;fill-opacity:1;fill-rule:nonzero;stroke:none"
   d="m 2467.445,2075.591 c -35.7,15.1 -52.5,56.32 -37.4,92.07 15.1,35.75 56.4,52.5 92.1,37.4 35.8,-15.09 52.5,-56.31 37.4,-92.06 -15.1,-35.76 -56.3,-52.5 -92.1,-37.41"
   inkscape:connector-curvature="0" /><path
   id="path132"
   style="fill:#511730;fill-opacity:1;fill-rule:nonzero;stroke:none"
   d="m 1256.645,2586.851 c -35.8,15.09 -52.5,56.31 -37.4,92.07 15.1,35.75 56.3,52.5 92,37.4 35.8,-15.1 52.5,-56.32 37.4,-92.07 -15.1,-35.75 -56.3,-52.5 -92,-37.4"
   inkscape:connector-curvature="0" /><path
   id="path134"
   style="fill:#511730;fill-opacity:1;fill-rule:nonzero;stroke:none"
   d="m 1569.045,1817.851 c 15.1,35.76 56.3,52.5 92,37.41 35.8,-15.1 52.5,-56.32 37.4,-92.07 -15.1,-35.76 -56.3,-52.5 -92,-37.41 -35.8,15.1 -52.5,56.32 -37.4,92.07"
   inkscape:connector-curvature="0" /><path
   id="path136"
   style="fill:#511730;fill-opacity:1;fill-rule:nonzero;stroke:none"
   d="m 2080.245,3028.721 c 15.1,35.76 56.3,52.5 92.1,37.41 35.7,-15.1 52.5,-56.32 37.4,-92.07 -15.1,-35.75 -56.3,-52.5 -92.1,-37.4 -35.7,15.09 -52.5,56.31 -37.4,92.06"
   inkscape:connector-curvature="0" /><path
   id="path138"
   style="fill:#511730;fill-opacity:1;fill-rule:nonzero;stroke:none"
   d="m 3196.245,2770.851 c -74,-30.05 -158.3,5.55 -188.3,79.51 -30.1,73.96 5.5,158.28 79.5,188.33 73.9,30.04 158.3,-5.56 188.3,-79.52 30.1,-73.96 -5.5,-158.28 -79.5,-188.32"
   inkscape:connector-curvature="0" /><path
   id="path140"
   style="fill:#511730;fill-opacity:1;fill-rule:nonzero;stroke:none"
   d="m 691.345,1753.231 c -74,-30.05 -158.3,5.55 -188.3,79.51 -30.1,73.96 5.5,158.28 79.5,188.32 73.9,30.05 158.3,-5.55 188.3,-79.51 30,-73.96 -5.6,-158.28 -79.5,-188.32"
   inkscape:connector-curvature="0" /><path
   id="path142"
   style="fill:#511730;fill-opacity:1;fill-rule:nonzero;stroke:none"
   d="m 2264.245,1089.101 c -30,73.96 5.6,158.27 79.5,188.32 74,30.05 158.3,-5.55 188.4,-79.51 30,-73.96 -5.6,-158.28 -79.6,-188.33 -73.9,-30.04 -158.2,5.56 -188.3,79.52"
   inkscape:connector-curvature="0" /><path
   id="path144"
   style="fill:#511730;fill-opacity:1;fill-rule:nonzero;stroke:none"
   d="m 1246.645,3594.001 c -30,73.97 5.6,158.28 79.5,188.33 74,30.04 158.3,-5.56 188.3,-79.52 30.1,-73.96 -5.5,-158.27 -79.5,-188.32 -73.9,-30.05 -158.2,5.55 -188.3,79.51"
   inkscape:connector-curvature="0" /><path
   id="path146"
   style="fill:#511730;fill-opacity:1;fill-rule:nonzero;stroke:none"
   d="m 3078.545,1736.961 c -73.5,31.05 -108,115.84 -76.9,189.39 31,73.54 115.8,107.99 189.4,76.94 73.5,-31.06 108,-115.85 76.9,-189.39 -31.1,-73.55 -115.8,-108 -189.4,-76.94"
   inkscape:connector-curvature="0" /><path
   id="path148"
   style="fill:#511730;fill-opacity:1;fill-rule:nonzero;stroke:none"
   d="m 587.745,2788.631 c -73.5,31.05 -108,115.84 -76.9,189.39 31,73.54 115.8,107.99 189.4,76.94 73.5,-31.06 108,-115.85 76.9,-189.39 -31.1,-73.55 -115.8,-108 -189.4,-76.94"
   inkscape:connector-curvature="0" /><path
   id="path150"
   style="fill:#511730;fill-opacity:1;fill-rule:nonzero;stroke:none"
   d="m 1230.345,1206.781 c 31.1,73.54 115.9,107.99 189.4,76.94 73.6,-31.05 108,-115.85 77,-189.39 -31.1,-73.55 -115.9,-107.99 -189.4,-76.94 -73.6,31.05 -108,115.84 -77,189.39"
   inkscape:connector-curvature="0" /><path
   id="path152"
   style="fill:#511730;fill-opacity:1;fill-rule:nonzero;stroke:none"
   d="m 2282.045,3697.581 c 31.1,73.55 115.9,107.99 189.4,76.94 73.5,-31.05 108,-115.84 76.9,-189.39 -31,-73.54 -115.8,-107.99 -189.4,-76.94 -73.5,31.05 -107.9,115.85 -76.9,189.39"
   inkscape:connector-curvature="0" /></svg>
