<?xml version="1.0" encoding="UTF-8" standalone="no"?>
<svg
   xmlns:dc="http://purl.org/dc/elements/1.1/"
   xmlns:cc="http://creativecommons.org/ns#"
   xmlns:rdf="http://www.w3.org/1999/02/22-rdf-syntax-ns#"
   xmlns:svg="http://www.w3.org/2000/svg"
   xmlns="http://www.w3.org/2000/svg"
   xmlns:sodipodi="http://sodipodi.sourceforge.net/DTD/sodipodi-0.dtd"
   xmlns:inkscape="http://www.inkscape.org/namespaces/inkscape"
   viewBox="321.145 827.711 3135.4 3135.3688"
   xml:space="preserve"
   version="1.1"
   id="svg4198"
   sodipodi:docname="forest_2.svg"
   width="3135.3999"
   height="3135.3689"
   inkscape:version="1.0.1 (3bc2e813f5, 2020-09-07)"><metadata
   id="metadata4204"><rdf:RDF><cc:Work
       rdf:about=""><dc:format>image/svg+xml</dc:format><dc:type
         rdf:resource="http://purl.org/dc/dcmitype/StillImage" /><dc:title /></cc:Work></rdf:RDF></metadata><defs
   id="defs4202" /><sodipodi:namedview
   pagecolor="#ffffff"
   bordercolor="#666666"
   borderopacity="1"
   objecttolerance="10"
   gridtolerance="10"
   guidetolerance="10"
   inkscape:pageopacity="0"
   inkscape:pageshadow="2"
   inkscape:window-width="1880"
   inkscape:window-height="1046"
   id="namedview4200"
   showgrid="false"
   fit-margin-top="0"
   fit-margin-left="0"
   fit-margin-right="0"
   fit-margin-bottom="0"
   inkscape:zoom="0.066229389"
   inkscape:cx="1463.8949"
   inkscape:cy="-3394.9645"
   inkscape:window-x="40"
   inkscape:window-y="0"
   inkscape:window-maximized="1"
   inkscape:current-layer="svg4198"
   inkscape:document-rotation="0" />
	 <path
   id="path154"
   style="fill:#4e5340;fill-opacity:1;fill-rule:nonzero;stroke:none"
   d="M 3456.545,827.711 H 321.145 V 3963.08 h 3135.4 V 827.711"
   inkscape:connector-curvature="0" /><path
   id="path156"
   style="fill:#fde7be;fill-opacity:1;fill-rule:nonzero;stroke:none"
   d="m 1888.825,1713.29 v 0 c -376.72,0 -682.11,305.39 -682.11,682.11 v 0 c 0,376.72 305.39,682.11 682.11,682.11 376.72,0 682.11,-305.39 682.11,-682.11 v 0 c 0,-376.72 -305.39,-682.11 -682.11,-682.11"
   inkscape:connector-curvature="0" /><g
   id="g2106"
   transform="rotate(112.5,1889.3909,2395.9646)"
   style="fill:#00ff00"><path
     id="path158"
     style="fill:#00ff00;fill-opacity:1;fill-rule:nonzero;stroke:none"
     d="m 2524.705,2578.21 c -35.96,-14.61 -76.95,2.7 -91.55,38.66 -14.61,35.95 2.7,76.94 38.65,91.55 35.96,14.6 76.95,-2.7 91.55,-38.66 14.61,-35.95 -2.7,-76.94 -38.65,-91.55"
     inkscape:connector-curvature="0" /><path
     id="path160"
     style="fill:#00ff00;fill-opacity:1;fill-rule:nonzero;stroke:none"
     d="m 1306.975,2083.51 c -35.96,-14.61 -76.94,2.7 -91.55,38.65 -14.61,35.96 2.7,76.95 38.65,91.55 35.96,14.61 76.95,-2.7 91.55,-38.65 14.61,-35.96 -2.69,-76.95 -38.65,-91.55"
     inkscape:connector-curvature="0" /><path
     id="path162"
     style="fill:#00ff00;fill-opacity:1;fill-rule:nonzero;stroke:none"
     d="m 2071.645,1760.65 c -14.61,35.96 2.7,76.94 38.65,91.55 35.95,14.61 76.94,-2.7 91.55,-38.65 14.61,-35.96 -2.7,-76.95 -38.65,-91.55 -35.96,-14.61 -76.95,2.7 -91.55,38.65"
     inkscape:connector-curvature="0" /><path
     id="path164"
     style="fill:#00ff00;fill-opacity:1;fill-rule:nonzero;stroke:none"
     d="m 1576.935,2978.38 c -14.61,35.95 2.7,76.94 38.66,91.55 35.95,14.61 76.94,-2.7 91.55,-38.66 14.6,-35.95 -2.7,-76.94 -38.66,-91.55 -35.95,-14.6 -76.94,2.7 -91.55,38.66"
     inkscape:connector-curvature="0" /><path
     id="path166"
     style="fill:#00ff00;fill-opacity:1;fill-rule:nonzero;stroke:none"
     d="m 2467.495,2075.6 c -35.75,15.09 -52.5,56.32 -37.41,92.07 15.1,35.75 56.32,52.5 92.08,37.4 35.75,-15.09 52.5,-56.32 37.4,-92.07 -15.1,-35.75 -56.32,-52.5 -92.07,-37.4"
     inkscape:connector-curvature="0" /><path
     id="path168"
     style="fill:#00ff00;fill-opacity:1;fill-rule:nonzero;stroke:none"
     d="m 1256.625,2586.85 c -35.76,15.1 -52.5,56.32 -37.41,92.07 15.1,35.76 56.32,52.5 92.07,37.41 35.76,-15.1 52.5,-56.32 37.41,-92.07 -15.1,-35.76 -56.32,-52.5 -92.07,-37.41"
     inkscape:connector-curvature="0" /><path
     id="path170"
     style="fill:#00ff00;fill-opacity:1;fill-rule:nonzero;stroke:none"
     d="m 1569.025,1817.86 c 15.1,35.75 56.32,52.5 92.07,37.4 35.76,-15.09 52.5,-56.31 37.41,-92.07 -15.1,-35.75 -56.32,-52.5 -92.07,-37.4 -35.76,15.1 -52.5,56.32 -37.41,92.07"
     inkscape:connector-curvature="0" /><path
     id="path172"
     style="fill:#00ff00;fill-opacity:1;fill-rule:nonzero;stroke:none"
     d="m 2080.285,3028.73 c 15.09,35.75 56.31,52.5 92.07,37.4 35.75,-15.09 52.5,-56.31 37.4,-92.06 -15.09,-35.76 -56.32,-52.5 -92.07,-37.41 -35.75,15.1 -52.5,56.32 -37.4,92.07"
     inkscape:connector-curvature="0" /></g><path
   id="path174"
   style="fill:#24a019;fill-opacity:1;fill-rule:nonzero;stroke:none"
   d="m 3191.045,2003.29 c -73.57,31.06 -158.36,-3.39 -189.42,-76.94 -31.05,-73.54 3.4,-158.33 76.94,-189.39 2.19,-0.92 4.42,-1.6 6.63,-2.41 -114.6,-61.88 -261.32,-98.64 -430.1,-108.42 -10.87,-175.56 -50.86,-327.13 -117.82,-443.37 -1.44,5.08 -3.12,10.14 -5.15,15.16 -30.05,73.96 -114.37,109.56 -188.33,79.51 -73.96,-30.05 -109.56,-114.36 -79.51,-188.32 1,-2.48 2.22,-4.8 3.35,-7.19 -23.92,7.11 -48.02,15.67 -72.24,25.76 -102.21,42.56 -206.59,111.06 -308.67,201.95 -132.07,-116.67 -267.78,-195.66 -397.55,-230.42 2.76,4.86 5.32,9.86 7.55,15.13 31.05,73.54 -3.4,158.33 -76.94,189.39 -73.55,31.05 -158.34,-3.4 -189.39,-76.94 -1.02,-2.42 -1.78,-4.87 -2.66,-7.3 -61.73,114.53 -98.41,261.09 -108.18,429.64 -176.26,10.91 -328.35,51.16 -444.79,118.61 5.56,1.52 11.1,3.27 16.58,5.49 73.96,30.05 109.56,114.37 79.51,188.33 -30.05,73.96 -114.36,109.56 -188.32,79.51 -2.27,-0.92 -4.39,-2.05 -6.59,-3.07 37.43,124.4 115.05,253.7 227.09,379.53 -117.07,132.53 -196.21,268.71 -230.78,398.88 4.98,-2.84 10.1,-5.49 15.51,-7.78 73.55,-31.05 158.34,3.4 189.39,76.94 31.05,73.55 -3.4,158.34 -76.94,189.39 -2.01,0.85 -4.06,1.46 -6.08,2.22 114.35,61.33 260.48,97.76 428.43,107.49 10.92,176.43 51.23,328.65 118.79,445.13 1.48,-5.3 3.19,-10.57 5.31,-15.79 30.04,-73.96 114.36,-109.56 188.32,-79.51 73.96,30.04 109.56,114.36 79.51,188.32 -0.74,1.82 -1.65,3.51 -2.46,5.29 124.22,-37.5 253.3,-115.07 378.93,-226.92 132.24,116.82 268.12,195.86 398.04,230.55 -2.53,-4.55 -4.87,-9.25 -6.95,-14.15 -31.04,-73.55 3.4,-158.34 76.95,-189.39 73.54,-31.05 158.33,3.39 189.39,76.94 0.75,1.78 1.28,3.6 1.96,5.4 61.48,-114.42 98,-260.71 107.75,-428.88 175.72,-10.88 327.4,-50.93 443.7,-118 -4.82,-1.4 -9.62,-3.04 -14.36,-4.97 -73.97,-30.04 -109.57,-114.36 -79.52,-188.32 30.05,-73.96 114.36,-109.56 188.32,-79.51 2,0.79 3.8,1.77 5.7,2.64 -37.38,-124.62 -115.07,-254.17 -227.32,-380.23 116.4,-131.78 195.28,-267.17 230.12,-396.68 -4.4,2.44 -9,4.69 -13.7,6.7 z m 265.5,682.99 c -55.9,50.33 -120.3,97.76 -192.4,141.74 23.8,38.01 29.8,86.44 11.6,131.16 -19.8,48.88 -63.4,80.84 -112.04,88.34 56.44,224.07 55.14,426.75 -9.3,587.14 l -7.55,18.76 -18.75,7.55 c -156.83,63 -354.07,65.65 -572.19,12.97 -10.13,43.56 -40.11,81.86 -84.47,100.59 -48.72,20.57 -102.3,12.26 -142,-17 -46.24,77.46 -96.45,146.26 -149.87,205.55 h -581.63 c -50.21,-55.75 -97.54,-120 -141.43,-191.84 -37.88,23.37 -85.94,29.13 -130.34,11.09 -48.98,-19.89 -80.98,-63.62 -88.38,-112.35 -224.51,56.75 -427.58,55.53 -588.24,-9.01 l -18.76,-7.55 -7.54,-18.76 c -63.03,-156.88 -65.66,-354.21 -12.91,-572.44 -43.11,-10.37 -80.95,-40.21 -99.52,-84.2 -20.49,-48.54 -12.32,-101.89 16.66,-141.54 -77.78,-46.37 -146.84,-96.74 -206.34,-150.35 v -581.61 c 55.96,-50.41 120.48,-97.91 192.66,-141.95 -23.11,-37.8 -28.74,-85.62 -10.79,-129.82 19.75,-48.62 62.98,-80.49 111.27,-88.21 -56.79,-224.57 -55.59,-427.71 8.97,-588.41 l 7.54,-18.76 18.76,-7.54 c 157.16,-63.14 354.87,-65.69 573.52,-12.67 10.32,-43.21 40.19,-81.16 84.26,-99.76 48.22,-20.361 101.18,-12.42 140.75,16.09 46.28,-77.549 96.53,-146.42 150.01,-205.779 h 581.62 c 50.52,56.09 98.13,120.781 142.25,193.159 37.93,-23.53 86.12,-29.358 130.64,-11.28 48.59,19.74 80.46,62.93 88.2,111.19 106.98,-27.03 209.16,-41.13 304.08,-41.13 103.95,0 199.36,16.5 283.21,50.18 l 18.75,7.54 7.55,18.76 c 63.15,157.08 65.65,354.7 12.73,573.25 43.62,10.07 82.12,40.09 100.82,84.52 20.5,48.41 12.4,101.6 -16.4,141.22 77.2,46.14 145.8,96.23 205,149.52 v 581.64"
   inkscape:connector-curvature="0" /></svg>
