<?xml version="1.0" encoding="UTF-8" standalone="no"?>
<svg
   xmlns:dc="http://purl.org/dc/elements/1.1/"
   xmlns:cc="http://creativecommons.org/ns#"
   xmlns:rdf="http://www.w3.org/1999/02/22-rdf-syntax-ns#"
   xmlns:svg="http://www.w3.org/2000/svg"
   xmlns="http://www.w3.org/2000/svg"
   xmlns:sodipodi="http://sodipodi.sourceforge.net/DTD/sodipodi-0.dtd"
   xmlns:inkscape="http://www.inkscape.org/namespaces/inkscape"
   viewBox="321.145 827.711 3135.3651 3135.3788"
   xml:space="preserve"
   version="1.1"
   id="svg124"
   sodipodi:docname="portuguese1.svg"
   width="3135.365"
   height="3135.3789"
   inkscape:version="0.92.3 (2405546, 2018-03-11)"><metadata
   id="metadata130"><rdf:RDF><cc:Work
       rdf:about=""><dc:format>image/svg+xml</dc:format><dc:type
         rdf:resource="http://purl.org/dc/dcmitype/StillImage" /><dc:title></dc:title></cc:Work></rdf:RDF></metadata><defs
   id="defs128" /><sodipodi:namedview
   pagecolor="#ffffff"
   bordercolor="#666666"
   borderopacity="1"
   objecttolerance="10"
   gridtolerance="10"
   guidetolerance="10"
   inkscape:pageopacity="0"
   inkscape:pageshadow="2"
   inkscape:window-width="1373"
   inkscape:window-height="824"
   id="namedview126"
   showgrid="false"
   fit-margin-top="0"
   fit-margin-left="0"
   fit-margin-right="0"
   fit-margin-bottom="0"
   inkscape:zoom="0.015433533"
   inkscape:cx="9459.921"
   inkscape:cy="-3394.9545"
   inkscape:window-x="32"
   inkscape:window-y="0"
   inkscape:window-maximized="0"
   inkscape:current-layer="svg124" />
	 <path
   id="path176"
   style="fill:#fde7be;fill-opacity:1;fill-rule:nonzero;stroke:none"
   d="M 3456.51,827.711 H 321.145 V 3963.09 H 3456.51 V 827.711"
   inkscape:connector-curvature="0" /><path
   id="path178"
   style="fill:#ccd1ee;fill-opacity:1;fill-rule:nonzero;stroke:none"
   d="m 1888.83,2871.9 364.69,403.95 -27.76,-543.52 543.52,27.76 -403.96,-364.69 403.96,-364.7 -543.52,27.77 27.76,-543.52 -364.69,403.95 -364.7,-403.95 27.76,543.52 -543.51,-27.77 403.95,364.7 -403.95,364.69 543.51,-27.76 -27.76,543.52 364.7,-403.95"
   inkscape:connector-curvature="0" /><path
   id="path180"
   style="fill:#ccd1ee;fill-opacity:1;fill-rule:nonzero;stroke:none"
   d="m 778.766,3686.53 c 0,-75.39 -61.114,-136.5 -136.496,-136.5 -75.383,0 -136.493,61.11 -136.493,136.5 0,75.38 61.11,136.49 136.493,136.49 75.382,0 136.496,-61.11 136.496,-136.49"
   inkscape:connector-curvature="0" /><path
   id="path182"
   style="fill:#ccd1ee;fill-opacity:1;fill-rule:nonzero;stroke:none"
   d="m 3271.88,3686.53 c 0,-75.39 -61.11,-136.5 -136.49,-136.5 -75.39,0 -136.5,61.11 -136.5,136.5 0,75.38 61.11,136.49 136.5,136.49 75.38,0 136.49,-61.11 136.49,-136.49"
   inkscape:connector-curvature="0" /><path
   id="path184"
   style="fill:#ccd1ee;fill-opacity:1;fill-rule:nonzero;stroke:none"
   d="m 778.766,1104.27 c 0,-75.38 -61.114,-136.489 -136.496,-136.489 -75.383,0 -136.493,61.109 -136.493,136.489 0,75.38 61.11,136.49 136.493,136.49 75.382,0 136.496,-61.11 136.496,-136.49"
   inkscape:connector-curvature="0" /><path
   id="path186"
   style="fill:#ccd1ee;fill-opacity:1;fill-rule:nonzero;stroke:none"
   d="m 3271.88,1104.27 c 0,-75.38 -61.11,-136.489 -136.49,-136.489 -75.39,0 -136.5,61.109 -136.5,136.489 0,75.38 61.11,136.49 136.5,136.49 75.38,0 136.49,-61.11 136.49,-136.49"
   inkscape:connector-curvature="0" /><path
   id="path188"
   style="fill:#5690d3;fill-opacity:1;fill-rule:nonzero;stroke:none"
   d="m 2812.72,2660.43 c -52.28,-21.24 -111.89,3.93 -133.13,56.22 -21.24,52.28 3.92,111.89 56.21,133.13 52.29,21.25 111.9,-3.92 133.14,-56.21 21.24,-52.29 -3.93,-111.89 -56.22,-133.14"
   inkscape:connector-curvature="0" /><path
   id="path190"
   style="fill:#5690d3;fill-opacity:1;fill-rule:nonzero;stroke:none"
   d="m 1041.86,1941.02 c -52.294,-21.25 -111.899,3.92 -133.141,56.21 -21.242,52.29 3.926,111.89 56.215,133.14 52.286,21.24 111.896,-3.93 133.136,-56.22 21.24,-52.29 -3.93,-111.89 -56.21,-133.13"
   inkscape:connector-curvature="0" /><path
   id="path192"
   style="fill:#5690d3;fill-opacity:1;fill-rule:nonzero;stroke:none"
   d="m 2153.86,1471.5 c -21.24,52.29 3.93,111.9 56.22,133.14 52.28,21.24 111.89,-3.93 133.13,-56.21 21.24,-52.29 -3.92,-111.9 -56.21,-133.14 -52.29,-21.24 -111.9,3.93 -133.14,56.21"
   inkscape:connector-curvature="0" /><path
   id="path194"
   style="fill:#5690d3;fill-opacity:1;fill-rule:nonzero;stroke:none"
   d="m 1434.44,3242.37 c -21.24,52.29 3.93,111.9 56.22,133.14 52.28,21.24 111.89,-3.93 133.13,-56.21 21.25,-52.29 -3.92,-111.9 -56.21,-133.14 -52.29,-21.24 -111.89,3.92 -133.14,56.21"
   inkscape:connector-curvature="0" /><path
   id="path196"
   style="fill:#5690d3;fill-opacity:1;fill-rule:nonzero;stroke:none"
   d="m 2729.53,1929.51 c -51.99,21.96 -76.35,81.9 -54.39,133.89 21.95,52 81.89,76.35 133.89,54.4 51.99,-21.96 76.34,-81.9 54.39,-133.89 -21.95,-52 -81.9,-76.35 -133.89,-54.4"
   inkscape:connector-curvature="0" /><path
   id="path198"
   style="fill:#5690d3;fill-opacity:1;fill-rule:nonzero;stroke:none"
   d="m 968.629,2673 c -51.992,21.95 -76.344,81.9 -54.395,133.89 21.954,52 81.899,76.35 133.896,54.4 51.99,-21.96 76.34,-81.9 54.39,-133.9 -21.95,-51.99 -81.9,-76.34 -133.891,-54.39"
   inkscape:connector-curvature="0" /><path
   id="path200"
   style="fill:#5690d3;fill-opacity:1;fill-rule:nonzero;stroke:none"
   d="m 1422.94,1554.7 c 21.96,51.99 81.9,76.34 133.89,54.39 52,-21.95 76.35,-81.9 54.4,-133.89 -21.96,-51.99 -81.9,-76.35 -133.89,-54.39 -52,21.95 -76.35,81.9 -54.4,133.89"
   inkscape:connector-curvature="0" /><path
   id="path202"
   style="fill:#5690d3;fill-opacity:1;fill-rule:nonzero;stroke:none"
   d="m 2166.43,3315.6 c 21.95,51.99 81.9,76.34 133.89,54.39 51.99,-21.95 76.35,-81.9 54.39,-133.89 -21.95,-51.99 -81.89,-76.35 -133.89,-54.39 -51.99,21.95 -76.34,81.89 -54.39,133.89"
   inkscape:connector-curvature="0" /><path
   id="path204"
   style="fill:#5691d3;fill-opacity:1;fill-rule:nonzero;stroke:none"
   d="m 3301.42,2395.98 c -0.6,-3.56 -0.81,-7.29 -0.19,-11.33 19.63,-129.05 -73.76,-231.47 -163.69,-309.9 -84.68,-73.85 -171.86,-143.06 -236.97,-235.99 -72.03,-102.82 -120.96,-263.4 -72.1,-383.77 -120.38,48.87 -280.97,-0.08 -383.78,-72.11 -90.38,-63.32 -158.8,-147.55 -230.27,-230.33 -79.59,-92.18 -183.2,-190.46 -315.62,-170.32 -4.02,0.61 -7.75,0.399 -11.29,-0.199 -3.55,0.598 -7.29,0.809 -11.32,0.199 -129.06,-19.628 -231.47,73.76 -309.91,163.69 -73.85,84.67 -143.06,171.86 -235.98,236.96 -102.83,72.04 -263.41,120.97 -383.78,72.11 48.871,120.38 -0.082,280.97 -72.106,383.77 -63.32,90.39 -147.551,158.8 -230.332,230.28 -92.18,79.59 -190.465,183.2 -170.32,315.62 0.613,4.02 0.402,7.74 -0.196,11.29 0.598,3.55 0.809,7.29 0.196,11.32 -19.633,129.06 73.761,231.47 163.691,309.91 84.676,73.85 171.86,143.05 236.961,235.98 72.035,102.83 120.973,263.4 72.106,383.78 120.38,-48.87 280.97,0.08 383.78,72.1 90.38,63.33 158.8,147.56 230.27,230.33 79.59,92.19 183.2,190.47 315.62,170.33 4.02,-0.62 7.75,-0.41 11.29,0.19 3.55,-0.6 7.29,-0.81 11.32,-0.19 129.06,19.63 231.47,-73.76 309.91,-163.69 73.85,-84.68 143.06,-171.86 235.98,-236.97 102.83,-72.03 263.41,-120.97 383.78,-72.1 -48.87,-120.38 0.08,-280.97 72.1,-383.78 63.33,-90.39 147.56,-158.8 230.34,-230.27 92.18,-79.59 190.46,-183.21 170.32,-315.62 -0.61,-4.02 -0.4,-7.75 0.19,-11.29 z m -253.04,485.76 c -76.02,73.7 -145.15,162.13 -169.54,267.21 -18,77.52 -8.38,160.09 20.92,234.02 13.35,12.83 25.62,27.65 36.46,44.86 2.67,4.23 -2.55,9.02 -6.68,6.68 -2.5,-1.43 -5.08,-2.75 -7.62,-4.12 1.38,2.54 2.7,5.11 4.12,7.62 2.34,4.13 -2.45,9.35 -6.68,6.68 -17.2,-10.84 -32.02,-23.11 -44.84,-36.45 -71.7,-28.42 -151.53,-38.36 -227,-22.57 -107.95,22.6 -199.07,93.63 -274.24,171.17 -134.3,138.53 -261.75,353.39 -485.79,316.28 -224.04,37.11 -351.48,-177.75 -485.78,-316.28 -73.69,-76.01 -162.12,-145.14 -267.2,-169.53 -77.52,-18 -160.088,-8.39 -234.022,20.92 -12.828,13.35 -27.648,25.62 -44.855,36.46 -4.231,2.67 -9.028,-2.55 -6.684,-6.68 1.426,-2.51 2.746,-5.08 4.121,-7.62 -2.539,1.38 -5.117,2.69 -7.625,4.12 -4.129,2.34 -9.347,-2.45 -6.679,-6.68 10.843,-17.2 23.109,-32.02 36.449,-44.84 28.422,-71.7 38.363,-151.53 22.57,-227 C 875.188,3048.03 804.152,2956.92 726.613,2881.75 588.09,2747.45 373.227,2620 410.336,2395.96 373.223,2171.92 588.09,2044.48 726.613,1910.18 c 76.016,-73.69 145.145,-162.13 169.539,-267.2 17.996,-77.53 8.379,-160.09 -20.925,-234.03 -13.344,-12.82 -25.618,-27.65 -36.461,-44.85 -2.664,-4.23 2.55,-9.03 6.679,-6.68 2.508,1.42 5.082,2.74 7.621,4.12 -1.375,-2.54 -2.691,-5.12 -4.117,-7.63 -2.344,-4.12 2.449,-9.34 6.684,-6.68 17.199,10.84 32.015,23.11 44.84,36.45 71.695,28.42 151.527,38.37 226.997,22.57 107.95,-22.59 199.07,-93.63 274.24,-171.17 134.3,-138.52 261.75,-353.389 485.79,-316.279 224.04,-37.11 351.48,177.759 485.78,316.279 73.69,76.01 162.12,145.15 267.2,169.54 77.52,17.99 160.09,8.38 234.02,-20.92 12.83,-13.35 27.65,-25.62 44.86,-36.47 4.23,-2.66 9.03,2.55 6.68,6.68 -1.42,2.51 -2.75,5.09 -4.12,7.63 2.54,-1.38 5.11,-2.7 7.62,-4.12 4.13,-2.35 9.35,2.45 6.68,6.68 -10.84,17.2 -23.11,32.02 -36.45,44.84 -28.42,71.7 -38.36,151.53 -22.56,227 22.59,107.95 93.63,199.07 171.17,274.24 138.52,134.3 353.38,261.74 316.27,485.78 37.12,224.04 -177.75,351.49 -316.27,485.78"
   inkscape:connector-curvature="0" /></svg>